g object
v 97.357 -3.017456E-05 157.5269
v 0 206.7512 93.41743
v -83.06939 -2.580548E-05 134.4091
v -139.2503 117.5145 0
v 0 225.7974 -102.0068
v 173.5404 146.9391 0
v 174.3297 -147.2611 0
v 93.51955 -2.904066E-05 -151.3178
v -79.21577 -2.452444E-05 -128.1738
v 0 -173.5329 -78.07463
v 0 -216.315 97.83468
v -152.2414 -128.7889 0

vn 0.4746687 0.234155 0.8484462
vn -0.6198012 0.6632226 0.4195023
vn -0.581262 0.004195231 0.8137057
vn -0.8357599 0.5370344 0.1144532
vn 0.07704055 0.8259481 -0.5584573
vn 0.9084045 0.4151879 -0.04919736
vn 0.8377423 -0.5237485 -0.1545169
vn 0.5505292 0.2010246 -0.810251
vn -0.4129921 0.3042671 -0.858405
vn 0.2814222 -0.7593163 -0.5867199
vn 0.04136021 -0.7658645 0.6416704
vn -0.9722406 -0.2081889 0.1067967

vt 0.6618959 0.5
vt 0.75 0.1762082
vt 0.8381041 0.5
vt 1 0.3237918
vt 0.25 0.1762082
vt 0.5 0.3237918
vt 0.5 0.6762082
vt 0.3381041 0.5
vt 0.1618959 0.5
vt 0.25 0.8237918
vt 0.75 0.8237918
vt 1 0.6762082

usemtl ground (Instance)
usemap ground (Instance)
f 1/1/1 2/2/2 3/3/3
f 2/2/2 4/4/4 3/3/3
f 2/2/2 5/5/5 4/4/4
f 6/6/6 5/5/5 2/2/2
f 1/1/1 6/6/6 2/2/2
f 1/1/1 7/7/7 6/6/6
f 7/7/7 8/8/8 6/6/6
f 6/6/6 8/8/8 5/5/5
f 8/8/8 9/9/9 5/5/5
f 8/8/8 10/10/10 9/9/9
f 8/8/8 7/7/7 10/10/10
f 7/7/7 11/11/11 10/10/10
f 11/11/11 12/12/12 10/10/10
f 11/11/11 3/3/3 12/12/12
f 11/11/11 1/1/1 3/3/3
f 7/7/7 1/1/1 11/11/11
f 12/12/12 3/3/3 4/4/4
f 9/9/9 12/12/12 4/4/4
f 5/5/5 9/9/9 4/4/4
f 12/12/12 9/9/9 10/10/10
