g object
v 0 -2.769062E-05 157.8033
v -34.86107 82.91552 91.26748
v -67.68907 -2.259288E-05 109.5232
v 52.11786 123.8225 136.4463
v 0 208.2725 87.50135
v 85.60117 -2.860976E-05 138.5056
v -99.7769 55.92824 61.66551
v -75.3879 179.9429 46.59229
v -154.2577 140.2628 0
v -75.3879 179.9429 46.59229
v -78.32281 185.7635 -48.40615
v -154.2577 140.2628 0
v 0 262.7719 0
v 0 232.2997 -97.65762
v 0 262.7719 0
v -75.3879 179.9429 46.59229
v 0 262.7719 0
v 90.39391 215.6806 55.8665
v 0 262.7719 0
v 0 262.7719 0
v 78.63996 187.1712 -48.60217
v 144.2546 131.2347 0
v 0 262.7719 0
v 118.5294 66.34326 73.2552
v 133.695 -2.337177E-05 0
v 103.3862 -58.12919 63.89621
v 106.3869 -96.71234 0
v 147.4965 82.93027 -91.15788
v 101.9426 -57.31749 -63.00399
v 84.84551 -2.821472E-05 -137.2829
v 56.79473 135.104 -148.6906
v -35.98794 85.47441 -94.21766
v 0 -2.251913E-05 -128.1667
v -67.45466 -2.240114E-05 -109.1439
v -35.88202 -85.19933 -93.94035
v 40.62499 -96.55499 -106.3576
v 0 -142.2424 -59.88858
v 66.57816 -158.5718 -41.14756
v 0 -186.7106 0
v 0 -186.7106 0
v 69.21918 -164.673 42.7798
v 0 -192.9802 81.12894
v 0 -186.7106 0
v 0 -186.7106 0
v -64.99357 -154.6021 -40.16823
v -86.95197 -206.8389 53.73927
v -150.9637 -137.1742 0
v -86.95197 -206.8389 53.73927
v 0 -186.7106 0
v 0 -186.7106 0
v -116.7558 -65.64627 72.15907
v -150.9637 -137.1742 0
v -57.78261 -137.6231 151.2768
v 31.58901 -75.08554 82.70112
v -179.29 -3.140773E-05 0
v -111.1493 62.30209 -68.69402
v -179.29 -3.140773E-05 0
v -141.1513 -79.66524 -87.23631

vn -0.2841284 0.3198783 0.9038523
vn -0.5445082 0.1944274 0.8159099
vn -0.534571 0.383741 0.7529785
vn -0.06803375 0.2594317 0.9633622
vn -0.2427627 0.6582979 0.7125378
vn 0.4966803 -0.3387855 0.7990826
vn -0.4960596 0.2781973 0.8225151
vn -0.5941684 0.231603 0.7702752
vn -0.8675895 0.4972652 -0.003975615
vn -0.5941684 0.231603 0.7702752
vn -0.6629318 0.3219392 -0.6759263
vn -0.8675895 0.4972652 -0.003975615
vn -0.3357348 0.9390661 0.07373525
vn -0.2355579 0.5984983 -0.7657103
vn -0.3357348 0.9390661 0.07373525
vn -0.5941684 0.231603 0.7702752
vn -0.3357348 0.9390661 0.07373525
vn 0.7701164 0.4602392 0.441702
vn -0.3357348 0.9390661 0.07373525
vn -0.3357348 0.9390661 0.07373525
vn 0.7302003 0.5213888 -0.4415443
vn 0.9006854 0.4047627 0.1579015
vn -0.3357348 0.9390661 0.07373525
vn 0.8769703 0.3712916 0.3050666
vn 0.9274448 -0.3724557 -0.03351115
vn 0.4005578 -0.542807 0.7381829
vn 0.9569468 -0.2808225 -0.0734264
vn 0.8580028 -0.02674489 -0.5129482
vn 0.9642848 -0.2301304 -0.1311295
vn 0.6645346 -0.1727059 -0.7270257
vn -0.002659237 0.2607442 -0.9654042
vn -0.4755284 -0.1322983 -0.8696952
vn -0.4590696 -0.263901 -0.8482991
vn -0.1350877 0.3762009 -0.9166374
vn 0.004551148 -0.162691 -0.9866666
vn -0.1402925 -0.3441093 -0.9283894
vn -0.2647206 -0.7488092 -0.6076249
vn 0.2442429 -0.9639629 -0.1054559
vn 0.06607615 -0.976077 -0.2071414
vn 0.06607615 -0.976077 -0.2071414
vn 0.6321445 -0.5778902 0.5161748
vn 0.4354202 -0.8614981 0.2612095
vn 0.06607615 -0.976077 -0.2071414
vn 0.06607615 -0.976077 -0.2071414
vn -0.01458092 -0.7489167 -0.6625037
vn -0.08459101 -0.9957156 0.03734743
vn -0.9611087 -0.159452 0.2254886
vn -0.08459101 -0.9957156 0.03734743
vn 0.06607615 -0.976077 -0.2071414
vn 0.06607615 -0.976077 -0.2071414
vn -0.9256403 0.2363794 0.2954906
vn -0.9611087 -0.159452 0.2254886
vn -0.1017 -0.3474549 0.9321653
vn 0.7096772 -0.3151045 0.6301329
vn -0.9295291 -0.1100813 0.3519343
vn -0.4261574 0.3169128 -0.8473229
vn -0.9295291 -0.1100813 0.3519343
vn -0.4626676 -0.3521193 -0.8136035

vt 0.75 0.5
vt 0.8080699 0.3333333
vt 0.8381041 0.5
vt 0.6919301 0.3333333
vt 0.75 0.1762082
vt 0.6618959 0.5
vt 0.9118959 0.4
vt 0.9118959 0.2
vt 1 0.3237918
vt -0.08810407 0.2
vt 0.08810409 0.2
vt 0 0.3237918
vt 0.169052 0
vt 0.25 0.1762082
vt 0.830948 0
vt -0.08810407 0.2
vt 1.117587E-08 0
vt 0.5881041 0.2
vt 0.669052 0
vt 0.3309479 0
vt 0.4118959 0.2
vt 0.5 0.3237918
vt 0.5 0
vt 0.5881041 0.4
vt 0.5 0.5
vt 0.5881041 0.6
vt 0.5 0.6762082
vt 0.4118959 0.4
vt 0.4118959 0.6
vt 0.3381041 0.5
vt 0.3080699 0.3333333
vt 0.1919301 0.3333333
vt 0.25 0.5
vt 0.1618959 0.5
vt 0.1919301 0.6666667
vt 0.3080699 0.6666667
vt 0.25 0.8237918
vt 0.4118959 0.8
vt 0.3309479 1
vt 0.669052 1
vt 0.5881041 0.8
vt 0.75 0.8237918
vt 0.5 1
vt 0.169052 1
vt 0.08810409 0.8
vt -0.08810407 0.8
vt 0 0.6762082
vt 0.9118959 0.8
vt 0.830948 1
vt 1.117587E-08 1
vt 0.9118959 0.6
vt 1 0.6762082
vt 0.8080699 0.6666667
vt 0.6919301 0.6666667
vt 1 0.5
vt 0.08810409 0.4
vt 0 0.5
vt 0.08810409 0.6

usemtl ground (Instance)
usemap ground (Instance)
f 1/1/1 2/2/2 3/3/3
f 2/2/2 4/4/4 5/5/5
f 4/4/4 1/1/1 6/6/6
f 1/1/1 4/4/4 2/2/2
f 2/2/2 7/7/7 3/3/3
f 7/7/7 8/8/8 9/9/9
f 8/8/8 2/2/2 5/5/5
f 2/2/2 8/8/8 7/7/7
f 10/10/10 11/11/11 12/12/12
f 11/11/11 13/13/13 14/14/14
f 15/15/15 8/8/8 5/5/5
f 16/16/16 17/17/17 11/11/11
f 18/18/18 19/19/19 5/5/5
f 20/20/20 21/21/21 14/14/14
f 21/21/21 18/18/18 22/22/22
f 18/18/18 21/21/21 23/23/23
f 4/4/4 18/18/18 5/5/5
f 18/18/18 24/24/24 22/22/22
f 24/24/24 4/4/4 6/6/6
f 4/4/4 24/24/24 18/18/18
f 24/24/24 25/25/25 22/22/22
f 25/25/25 26/26/26 27/27/27
f 26/26/26 24/24/24 6/6/6
f 24/24/24 26/26/26 25/25/25
f 25/25/25 28/28/28 22/22/22
f 28/28/28 29/29/29 30/30/30
f 29/29/29 25/25/25 27/27/27
f 25/25/25 29/29/29 28/28/28
f 21/21/21 31/31/31 14/14/14
f 31/31/31 28/28/28 30/30/30
f 28/28/28 21/21/21 22/22/22
f 21/21/21 28/28/28 31/31/31
f 31/31/31 32/32/32 14/14/14
f 32/32/32 33/33/33 34/34/34
f 33/33/33 31/31/31 30/30/30
f 31/31/31 33/33/33 32/32/32
f 33/33/33 35/35/35 34/34/34
f 35/35/35 36/36/36 37/37/37
f 36/36/36 33/33/33 30/30/30
f 33/33/33 36/36/36 35/35/35
f 36/36/36 38/38/38 37/37/37
f 38/38/38 29/29/29 27/27/27
f 29/29/29 36/36/36 30/30/30
f 36/36/36 29/29/29 38/38/38
f 38/38/38 39/39/39 37/37/37
f 40/40/40 41/41/41 42/42/42
f 41/41/41 38/38/38 27/27/27
f 38/38/38 41/41/41 43/43/43
f 44/44/44 45/45/45 37/37/37
f 45/45/45 46/46/46 47/47/47
f 48/48/48 49/49/49 42/42/42
f 50/50/50 46/46/46 45/45/45
f 48/48/48 51/51/51 52/52/52
f 51/51/51 53/53/53 3/3/3
f 53/53/53 48/48/48 42/42/42
f 48/48/48 53/53/53 51/51/51
f 53/53/53 1/1/1 3/3/3
f 1/1/1 54/54/54 6/6/6
f 54/54/54 53/53/53 42/42/42
f 53/53/53 54/54/54 1/1/1
f 41/41/41 54/54/54 42/42/42
f 54/54/54 26/26/26 6/6/6
f 26/26/26 41/41/41 27/27/27
f 41/41/41 26/26/26 54/54/54
f 55/55/55 7/7/7 9/9/9
f 7/7/7 51/51/51 3/3/3
f 51/51/51 55/55/55 52/52/52
f 55/55/55 51/51/51 7/7/7
f 56/56/56 57/57/57 12/12/12
f 57/57/57 58/58/58 47/47/47
f 58/58/58 56/56/56 34/34/34
f 56/56/56 58/58/58 57/57/57
f 11/11/11 56/56/56 12/12/12
f 56/56/56 32/32/32 34/34/34
f 32/32/32 11/11/11 14/14/14
f 11/11/11 32/32/32 56/56/56
f 45/45/45 35/35/35 37/37/37
f 35/35/35 58/58/58 34/34/34
f 58/58/58 45/45/45 47/47/47
f 45/45/45 58/58/58 35/35/35
