g object
v 91.20309 -3.304908E-05 147.5697
v 0 217.3922 83.58479
v -75.90308 -2.759996E-05 122.8138
v -106.4695 105.0879 0
v 0 151.4524 -58.63899
v 148.1048 146.7858 0
v 148.7105 -147.0068 0
v 88.96695 -3.226828E-05 -143.9516
v -90.92137 -3.315415E-05 -147.1139
v 0 -225.8391 -87.36919
v 0 -201.7384 78.02869
v -126.2018 -124.8876 0

vn 0.3540917 -0.04546376 0.934105
vn -0.254481 0.9528911 0.1650395
vn -0.9252767 0.0231651 0.3785847
vn -0.952104 0.2303464 0.2010933
vn 0.1222891 0.85313 -0.5071631
vn 0.919521 0.3758529 -0.1149593
vn 0.9184201 -0.3954764 0.01014827
vn 0.6631245 0.1232154 -0.7382979
vn -0.5462422 0.01077718 -0.8375579
vn 0.1501691 -0.9858716 -0.07420558
vn 0.3938262 -0.4046753 0.8253113
vn -0.9710593 0.01147992 0.2385626

vt 0.6618959 0.5
vt 0.75 0.1762082
vt 0.8381041 0.5
vt 1 0.3237918
vt 0.25 0.1762082
vt 0.5 0.3237918
vt 0.5 0.6762082
vt 0.3381041 0.5
vt 0.1618959 0.5
vt 0.25 0.8237918
vt 0.75 0.8237918
vt 1 0.6762082

usemtl ground (Instance)
usemap ground (Instance)
f 1/1/1 2/2/2 3/3/3
f 2/2/2 4/4/4 3/3/3
f 2/2/2 5/5/5 4/4/4
f 6/6/6 5/5/5 2/2/2
f 1/1/1 6/6/6 2/2/2
f 1/1/1 7/7/7 6/6/6
f 7/7/7 8/8/8 6/6/6
f 6/6/6 8/8/8 5/5/5
f 8/8/8 9/9/9 5/5/5
f 8/8/8 10/10/10 9/9/9
f 8/8/8 7/7/7 10/10/10
f 7/7/7 11/11/11 10/10/10
f 11/11/11 12/12/12 10/10/10
f 11/11/11 3/3/3 12/12/12
f 11/11/11 1/1/1 3/3/3
f 7/7/7 1/1/1 11/11/11
f 12/12/12 3/3/3 4/4/4
f 9/9/9 12/12/12 4/4/4
f 5/5/5 9/9/9 4/4/4
f 12/12/12 9/9/9 10/10/10
