g object
v 0 -2.807032E-05 173.2225
v -41.38385 90.73352 108.3444
v -59.72034 -1.840779E-05 96.62953
v 50.39576 110.6008 131.9378
v 0 172.4666 78.33086
v 73.31128 -2.253403E-05 118.6201
v -100.7754 52.25101 62.28264
v -63.61675 139.5092 39.31731
v -151.2677 126.9347 0
v -63.61675 139.5092 39.31731
v -90.07341 198.3404 -55.66842
v -151.2677 126.9347 0
v 0 244.277 0
v 0 211.6943 -96.45805
v 0 244.277 0
v -63.61675 139.5092 39.31731
v 0 244.277 0
v 77.53732 171.0736 47.9207
v 0 244.277 0
v 0 244.277 0
v 90.96524 199.967 -56.21961
v 105.5169 88.64771 0
v 0 244.277 0
v 96.68729 50.06203 59.75603
v 101.63 -1.643537E-05 0
v 102.4012 -53.16958 63.28745
v 106.7942 -89.69093 0
v 108.4816 56.32666 -67.04533
v 108.4196 -56.29449 -67.00702
v 81.06866 -2.491797E-05 -131.1719
v 56.60542 124.2537 -148.1949
v -47.89344 105.2209 -125.3867
v 0 -2.449438E-05 -151.3223
v -83.14375 -2.556838E-05 -134.5294
v -56.35759 -123.7579 -147.5461
v 46.05301 -101.1985 -120.5683
v 0 -209.3207 -95.02608
v 74.03655 -162.8421 -45.7571
v 0 -198.8691 0
v 0 -198.8691 0
v 90.04368 -198.4369 55.65005
v 0 -182.9878 82.9046
v 0 -198.8691 0
v 0 -198.8691 0
v -81.16638 -178.7142 -50.16358
v -64.91566 -143.3669 40.12008
v -114.7902 -96.40239 0
v -64.91566 -143.3669 40.12008
v 0 -198.8691 0
v 0 -198.8691 0
v -66.68404 -34.62421 41.21301
v -114.7902 -96.40239 0
v -43.76745 -96.26579 114.5847
v 50.0421 -109.8371 131.0119
v -133.2644 -2.165416E-05 0
v -147.4815 76.53864 -91.14858
v -133.2644 -2.165416E-05 0
v -137.8509 -71.46122 -85.19656

vn 0.2440194 0.08103534 0.9663787
vn -0.5414586 0.721989 0.4307601
vn -0.9054116 -0.1978182 0.3756298
vn 0.4415844 0.1164344 0.8896327
vn -0.5104049 0.5370004 0.6716527
vn 0.7570053 0.144899 0.6371399
vn -0.6802658 -0.1801356 0.7104855
vn -0.468221 0.5118096 0.7202916
vn -0.7858081 0.512258 0.3465505
vn -0.468221 0.5118096 0.7202916
vn -0.6225014 0.7445812 -0.2410203
vn -0.7858081 0.512258 0.3465505
vn -0.2460853 0.9091012 0.3361204
vn -0.04107776 0.7760366 -0.6293487
vn -0.2460853 0.9091012 0.3361204
vn -0.468221 0.5118096 0.7202916
vn -0.2460853 0.9091012 0.3361204
vn 0.8671606 0.4784597 0.138235
vn -0.2460853 0.9091012 0.3361204
vn -0.2460853 0.9091012 0.3361204
vn 0.7106263 0.6162124 -0.3395476
vn 0.9877658 1.385116E-05 0.1559442
vn -0.2460853 0.9091012 0.3361204
vn 0.983736 -0.03485326 0.1762064
vn 0.9941459 0.05210562 0.09465197
vn 0.9660909 0.1524727 0.2083758
vn 0.9081821 -0.2012284 -0.3670317
vn 0.9972407 -0.03828683 0.06360164
vn 0.9757002 -0.1722282 -0.1354498
vn 0.4070492 -0.2722197 -0.8718988
vn 0.4782868 0.357255 -0.8022534
vn -0.3462856 0.1219423 -0.9301701
vn -0.1445139 0.2390668 -0.9601889
vn -0.3650081 0.3344812 -0.8688448
vn -0.287884 -0.3472345 -0.8924971
vn 0.5415314 -0.1631678 -0.8246939
vn -0.1662084 -0.773041 -0.6121948
vn 0.8221204 -0.231307 -0.5202069
vn -0.4902627 -0.8117861 0.3172474
vn -0.4902627 -0.8117861 0.3172474
vn 0.6381412 -0.6823421 0.3566302
vn -0.4116882 -0.8690976 0.2741939
vn -0.4902627 -0.8117861 0.3172474
vn -0.4902627 -0.8117861 0.3172474
vn -0.6183808 -0.760164 0.1993889
vn -0.60704 -0.710054 0.3568272
vn -0.9228055 -0.2390723 0.3021166
vn -0.60704 -0.710054 0.3568272
vn -0.4902627 -0.8117861 0.3172474
vn -0.4902627 -0.8117861 0.3172474
vn -0.7890053 -0.0560713 0.6118224
vn -0.9228055 -0.2390723 0.3021166
vn -0.8052936 -0.2348775 0.5443663
vn 0.3566663 -0.6056061 0.7113582
vn -0.7071303 -0.2973034 0.641543
vn -0.6254336 0.2183503 -0.7491034
vn -0.7071303 -0.2973034 0.641543
vn -0.9049148 -0.4014089 -0.1414219

vt 0.75 0.5
vt 0.8080699 0.3333333
vt 0.8381041 0.5
vt 0.6919301 0.3333333
vt 0.75 0.1762082
vt 0.6618959 0.5
vt 0.9118959 0.4
vt 0.9118959 0.2
vt 1 0.3237918
vt -0.08810407 0.2
vt 0.08810409 0.2
vt 0 0.3237918
vt 0.169052 0
vt 0.25 0.1762082
vt 0.830948 0
vt -0.08810407 0.2
vt 1.117587E-08 0
vt 0.5881041 0.2
vt 0.669052 0
vt 0.3309479 0
vt 0.4118959 0.2
vt 0.5 0.3237918
vt 0.5 0
vt 0.5881041 0.4
vt 0.5 0.5
vt 0.5881041 0.6
vt 0.5 0.6762082
vt 0.4118959 0.4
vt 0.4118959 0.6
vt 0.3381041 0.5
vt 0.3080699 0.3333333
vt 0.1919301 0.3333333
vt 0.25 0.5
vt 0.1618959 0.5
vt 0.1919301 0.6666667
vt 0.3080699 0.6666667
vt 0.25 0.8237918
vt 0.4118959 0.8
vt 0.3309479 1
vt 0.669052 1
vt 0.5881041 0.8
vt 0.75 0.8237918
vt 0.5 1
vt 0.169052 1
vt 0.08810409 0.8
vt -0.08810407 0.8
vt 0 0.6762082
vt 0.9118959 0.8
vt 0.830948 1
vt 1.117587E-08 1
vt 0.9118959 0.6
vt 1 0.6762082
vt 0.8080699 0.6666667
vt 0.6919301 0.6666667
vt 1 0.5
vt 0.08810409 0.4
vt 0 0.5
vt 0.08810409 0.6

usemtl ground (Instance)
usemap ground (Instance)
f 1/1/1 2/2/2 3/3/3
f 2/2/2 4/4/4 5/5/5
f 4/4/4 1/1/1 6/6/6
f 1/1/1 4/4/4 2/2/2
f 2/2/2 7/7/7 3/3/3
f 7/7/7 8/8/8 9/9/9
f 8/8/8 2/2/2 5/5/5
f 2/2/2 8/8/8 7/7/7
f 10/10/10 11/11/11 12/12/12
f 11/11/11 13/13/13 14/14/14
f 15/15/15 8/8/8 5/5/5
f 16/16/16 17/17/17 11/11/11
f 18/18/18 19/19/19 5/5/5
f 20/20/20 21/21/21 14/14/14
f 21/21/21 18/18/18 22/22/22
f 18/18/18 21/21/21 23/23/23
f 4/4/4 18/18/18 5/5/5
f 18/18/18 24/24/24 22/22/22
f 24/24/24 4/4/4 6/6/6
f 4/4/4 24/24/24 18/18/18
f 24/24/24 25/25/25 22/22/22
f 25/25/25 26/26/26 27/27/27
f 26/26/26 24/24/24 6/6/6
f 24/24/24 26/26/26 25/25/25
f 25/25/25 28/28/28 22/22/22
f 28/28/28 29/29/29 30/30/30
f 29/29/29 25/25/25 27/27/27
f 25/25/25 29/29/29 28/28/28
f 21/21/21 31/31/31 14/14/14
f 31/31/31 28/28/28 30/30/30
f 28/28/28 21/21/21 22/22/22
f 21/21/21 28/28/28 31/31/31
f 31/31/31 32/32/32 14/14/14
f 32/32/32 33/33/33 34/34/34
f 33/33/33 31/31/31 30/30/30
f 31/31/31 33/33/33 32/32/32
f 33/33/33 35/35/35 34/34/34
f 35/35/35 36/36/36 37/37/37
f 36/36/36 33/33/33 30/30/30
f 33/33/33 36/36/36 35/35/35
f 36/36/36 38/38/38 37/37/37
f 38/38/38 29/29/29 27/27/27
f 29/29/29 36/36/36 30/30/30
f 36/36/36 29/29/29 38/38/38
f 38/38/38 39/39/39 37/37/37
f 40/40/40 41/41/41 42/42/42
f 41/41/41 38/38/38 27/27/27
f 38/38/38 41/41/41 43/43/43
f 44/44/44 45/45/45 37/37/37
f 45/45/45 46/46/46 47/47/47
f 48/48/48 49/49/49 42/42/42
f 50/50/50 46/46/46 45/45/45
f 48/48/48 51/51/51 52/52/52
f 51/51/51 53/53/53 3/3/3
f 53/53/53 48/48/48 42/42/42
f 48/48/48 53/53/53 51/51/51
f 53/53/53 1/1/1 3/3/3
f 1/1/1 54/54/54 6/6/6
f 54/54/54 53/53/53 42/42/42
f 53/53/53 54/54/54 1/1/1
f 41/41/41 54/54/54 42/42/42
f 54/54/54 26/26/26 6/6/6
f 26/26/26 41/41/41 27/27/27
f 41/41/41 26/26/26 54/54/54
f 55/55/55 7/7/7 9/9/9
f 7/7/7 51/51/51 3/3/3
f 51/51/51 55/55/55 52/52/52
f 55/55/55 51/51/51 7/7/7
f 56/56/56 57/57/57 12/12/12
f 57/57/57 58/58/58 47/47/47
f 58/58/58 56/56/56 34/34/34
f 56/56/56 58/58/58 57/57/57
f 11/11/11 56/56/56 12/12/12
f 56/56/56 32/32/32 34/34/34
f 32/32/32 11/11/11 14/14/14
f 11/11/11 32/32/32 56/56/56
f 45/45/45 35/35/35 37/37/37
f 35/35/35 58/58/58 34/34/34
f 58/58/58 45/45/45 47/47/47
f 45/45/45 58/58/58 35/35/35
