g object
v 0 -3.185203E-05 191.1342
v -40.88163 92.79201 107.0295
v -99.95904 -3.168525E-05 161.7371
v 61.22072 138.8213 160.2779
v 0 198.181 87.92851
v 103.5291 -3.275926E-05 167.5136
v -100.347 53.75927 62.01788
v -83.64779 188.5958 51.69717
v -121.5238 104.8393 0
v -83.64779 188.5958 51.69717
v -66.98122 151.8102 -41.39667
v -121.5238 104.8393 0
v 0 173.084 0
v 0 131.3449 -58.30295
v 0 173.084 0
v -83.64779 188.5958 51.69717
v 0 173.084 0
v 100.1091 226.0723 61.87084
v 0 173.084 0
v 0 173.084 0
v 59.52824 134.3227 -36.79047
v 151.6144 130.991 0
v 0 173.084 0
v 158.8998 84.70054 98.2055
v 130.2849 -2.177003E-05 0
v 126.7352 -67.67228 78.32664
v 121.7213 -104.937 0
v 149.5294 79.84358 -92.41426
v 116.703 -62.31542 -72.1264
v 105.2747 -3.332259E-05 -170.3381
v 49.35437 111.4317 -129.2114
v -40.96658 92.44144 -107.2519
v 0 -3.352562E-05 -201.698
v -105.7517 -3.346365E-05 -171.1098
v -52.74214 -119.6701 -138.0807
v 47.42545 -107.0256 -124.1615
v 0 -229.1606 -101.1466
v 96.72916 -218.7932 -59.78191
v 0 -243.7112 0
v 0 -243.7112 0
v 67.34303 -152.1935 41.62028
v 0 -167.6921 74.44717
v 0 -243.7112 0
v 0 -243.7112 0
v -100.7626 -227.403 -62.27474
v -85.63562 -193.2123 52.92572
v -153.5281 -132.6099 0
v -85.63562 -193.2123 52.92572
v 0 -243.7112 0
v 0 -243.7112 0
v -161.535 -86.2542 99.83411
v -153.5281 -132.6099 0
v -52.81585 -119.465 138.2737
v 45.90846 -103.7052 120.1899
v -182.5593 -3.044946E-05 0
v -148.9144 79.39417 -92.03412
v -182.5593 -3.044946E-05 0
v -162.5545 -86.676 -100.4642

vn 0.2134517 0.2901064 0.9328862
vn -0.8450345 0.2654189 0.464187
vn -0.5873447 0.3058633 0.7493156
vn 0.2683343 0.3534456 0.8961434
vn -0.4750387 0.8697447 0.1337251
vn 0.5453729 -0.06695466 0.8355151
vn -0.4029511 0.6763917 0.6165426
vn -0.8016099 0.4153 0.4300554
vn -0.9006951 0.4339475 -0.02092311
vn -0.8016099 0.4153 0.4300554
vn -0.2579102 0.7769894 -0.5742559
vn -0.9006951 0.4339475 -0.02092311
vn -0.3099034 0.9052897 -0.2905347
vn -0.07392147 0.8815219 -0.4663204
vn -0.3099034 0.9052897 -0.2905347
vn -0.8016099 0.4153 0.4300554
vn -0.3099034 0.9052897 -0.2905347
vn 0.6029264 0.7935998 0.08172471
vn -0.3099034 0.9052897 -0.2905347
vn -0.3099034 0.9052897 -0.2905347
vn 0.1481434 0.880872 -0.4495755
vn 0.6643952 0.6952482 -0.2742427
vn -0.3099034 0.9052897 -0.2905347
vn 0.9331903 0.05707148 0.3548222
vn 0.9690983 -0.2368868 -0.06879766
vn 0.8534803 -0.5117285 0.09851524
vn 0.9802577 -0.1975998 -0.007021897
vn 0.9350617 -0.08690651 -0.343667
vn 0.9887128 -0.1370713 -0.06048603
vn 0.6318994 0.005883956 -0.7750281
vn -0.1186231 0.8822054 -0.4556775
vn 0.1044723 0.7764475 -0.6214617
vn -0.01989764 0.06916364 -0.9974069
vn -0.5234099 0.09907175 -0.8463019
vn 0.1242156 -0.4312748 -0.8936288
vn 0.2730227 -0.4491759 -0.8507054
vn 0.07646335 -0.4147528 -0.9067158
vn 0.8112966 -0.5792283 -0.07932433
vn 0.1447844 -0.8258498 0.5449858
vn 0.1447844 -0.8258498 0.5449858
vn 0.5315483 -0.5568234 0.6382822
vn 0.06604858 -0.7064593 0.704665
vn 0.1447844 -0.8258498 0.5449858
vn 0.1447844 -0.8258498 0.5449858
vn -0.6076916 -0.7222536 -0.3302433
vn -0.1067488 -0.6455156 0.7562503
vn -0.9221336 -0.2776474 0.2694095
vn -0.1067488 -0.6455156 0.7562503
vn 0.1447844 -0.8258498 0.5449858
vn 0.1447844 -0.8258498 0.5449858
vn -0.8400083 -0.3589706 0.4068491
vn -0.9221336 -0.2776474 0.2694095
vn -0.06110569 -0.8180787 0.5718508
vn 0.4250185 -0.7817767 0.4562723
vn -0.883401 0.3658212 -0.2928781
vn -0.8354965 0.5211745 -0.1741344
vn -0.883401 0.3658212 -0.2928781
vn -0.8347431 -0.2229479 -0.503486

vt 0.75 0.5
vt 0.8080699 0.3333333
vt 0.8381041 0.5
vt 0.6919301 0.3333333
vt 0.75 0.1762082
vt 0.6618959 0.5
vt 0.9118959 0.4
vt 0.9118959 0.2
vt 1 0.3237918
vt -0.08810407 0.2
vt 0.08810409 0.2
vt 0 0.3237918
vt 0.169052 0
vt 0.25 0.1762082
vt 0.830948 0
vt -0.08810407 0.2
vt 1.117587E-08 0
vt 0.5881041 0.2
vt 0.669052 0
vt 0.3309479 0
vt 0.4118959 0.2
vt 0.5 0.3237918
vt 0.5 0
vt 0.5881041 0.4
vt 0.5 0.5
vt 0.5881041 0.6
vt 0.5 0.6762082
vt 0.4118959 0.4
vt 0.4118959 0.6
vt 0.3381041 0.5
vt 0.3080699 0.3333333
vt 0.1919301 0.3333333
vt 0.25 0.5
vt 0.1618959 0.5
vt 0.1919301 0.6666667
vt 0.3080699 0.6666667
vt 0.25 0.8237918
vt 0.4118959 0.8
vt 0.3309479 1
vt 0.669052 1
vt 0.5881041 0.8
vt 0.75 0.8237918
vt 0.5 1
vt 0.169052 1
vt 0.08810409 0.8
vt -0.08810407 0.8
vt 0 0.6762082
vt 0.9118959 0.8
vt 0.830948 1
vt 1.117587E-08 1
vt 0.9118959 0.6
vt 1 0.6762082
vt 0.8080699 0.6666667
vt 0.6919301 0.6666667
vt 1 0.5
vt 0.08810409 0.4
vt 0 0.5
vt 0.08810409 0.6

usemtl ground (Instance)
usemap ground (Instance)
f 1/1/1 2/2/2 3/3/3
f 2/2/2 4/4/4 5/5/5
f 4/4/4 1/1/1 6/6/6
f 1/1/1 4/4/4 2/2/2
f 2/2/2 7/7/7 3/3/3
f 7/7/7 8/8/8 9/9/9
f 8/8/8 2/2/2 5/5/5
f 2/2/2 8/8/8 7/7/7
f 10/10/10 11/11/11 12/12/12
f 11/11/11 13/13/13 14/14/14
f 15/15/15 8/8/8 5/5/5
f 16/16/16 17/17/17 11/11/11
f 18/18/18 19/19/19 5/5/5
f 20/20/20 21/21/21 14/14/14
f 21/21/21 18/18/18 22/22/22
f 18/18/18 21/21/21 23/23/23
f 4/4/4 18/18/18 5/5/5
f 18/18/18 24/24/24 22/22/22
f 24/24/24 4/4/4 6/6/6
f 4/4/4 24/24/24 18/18/18
f 24/24/24 25/25/25 22/22/22
f 25/25/25 26/26/26 27/27/27
f 26/26/26 24/24/24 6/6/6
f 24/24/24 26/26/26 25/25/25
f 25/25/25 28/28/28 22/22/22
f 28/28/28 29/29/29 30/30/30
f 29/29/29 25/25/25 27/27/27
f 25/25/25 29/29/29 28/28/28
f 21/21/21 31/31/31 14/14/14
f 31/31/31 28/28/28 30/30/30
f 28/28/28 21/21/21 22/22/22
f 21/21/21 28/28/28 31/31/31
f 31/31/31 32/32/32 14/14/14
f 32/32/32 33/33/33 34/34/34
f 33/33/33 31/31/31 30/30/30
f 31/31/31 33/33/33 32/32/32
f 33/33/33 35/35/35 34/34/34
f 35/35/35 36/36/36 37/37/37
f 36/36/36 33/33/33 30/30/30
f 33/33/33 36/36/36 35/35/35
f 36/36/36 38/38/38 37/37/37
f 38/38/38 29/29/29 27/27/27
f 29/29/29 36/36/36 30/30/30
f 36/36/36 29/29/29 38/38/38
f 38/38/38 39/39/39 37/37/37
f 40/40/40 41/41/41 42/42/42
f 41/41/41 38/38/38 27/27/27
f 38/38/38 41/41/41 43/43/43
f 44/44/44 45/45/45 37/37/37
f 45/45/45 46/46/46 47/47/47
f 48/48/48 49/49/49 42/42/42
f 50/50/50 46/46/46 45/45/45
f 48/48/48 51/51/51 52/52/52
f 51/51/51 53/53/53 3/3/3
f 53/53/53 48/48/48 42/42/42
f 48/48/48 53/53/53 51/51/51
f 53/53/53 1/1/1 3/3/3
f 1/1/1 54/54/54 6/6/6
f 54/54/54 53/53/53 42/42/42
f 53/53/53 54/54/54 1/1/1
f 41/41/41 54/54/54 42/42/42
f 54/54/54 26/26/26 6/6/6
f 26/26/26 41/41/41 27/27/27
f 41/41/41 26/26/26 54/54/54
f 55/55/55 7/7/7 9/9/9
f 7/7/7 51/51/51 3/3/3
f 51/51/51 55/55/55 52/52/52
f 55/55/55 51/51/51 7/7/7
f 56/56/56 57/57/57 12/12/12
f 57/57/57 58/58/58 47/47/47
f 58/58/58 56/56/56 34/34/34
f 56/56/56 58/58/58 57/57/57
f 11/11/11 56/56/56 12/12/12
f 56/56/56 32/32/32 34/34/34
f 32/32/32 11/11/11 14/14/14
f 11/11/11 32/32/32 56/56/56
f 45/45/45 35/35/35 37/37/37
f 35/35/35 58/58/58 34/34/34
f 58/58/58 45/45/45 47/47/47
f 45/45/45 58/58/58 35/35/35
