g object
v 78.54677 -2.424931E-05 127.0913
v 0 172.981 78.46849
v -107.0863 -3.317649E-05 173.2692
v -160.9288 135.4889 0
v 0 230.9591 -104.7464
v 120.9835 102.1618 0
v 109.448 -92.28521 0
v 79.37274 -2.452994E-05 -128.4278
v -77.41503 -2.393698E-05 -125.2602
v 0 -200.0891 -90.29408
v 0 -168.1401 76.2688
v -101.123 -85.2468 0

vn 0.672594 -0.2595879 0.6929873
vn 0.02655461 0.6643985 0.7469066
vn -0.5011539 -0.02999853 0.8648381
vn -0.872404 0.4865356 0.04684373
vn 0.124311 0.5339832 -0.8363066
vn 0.7970996 0.6030471 -0.03109031
vn 0.819052 -0.3163632 -0.4786106
vn 0.2664444 -0.154966 -0.9513112
vn -0.6603627 -0.02611937 -0.7504924
vn -0.1502995 -0.6621581 -0.7341367
vn -0.3850538 -0.7853252 0.4847659
vn -0.8433834 -0.5353178 -0.04625108

vt 0.6618959 0.5
vt 0.75 0.1762082
vt 0.8381041 0.5
vt 1 0.3237918
vt 0.25 0.1762082
vt 0.5 0.3237918
vt 0.5 0.6762082
vt 0.3381041 0.5
vt 0.1618959 0.5
vt 0.25 0.8237918
vt 0.75 0.8237918
vt 1 0.6762082

usemtl ground (Instance)
usemap ground (Instance)
f 1/1/1 2/2/2 3/3/3
f 2/2/2 4/4/4 3/3/3
f 2/2/2 5/5/5 4/4/4
f 6/6/6 5/5/5 2/2/2
f 1/1/1 6/6/6 2/2/2
f 1/1/1 7/7/7 6/6/6
f 7/7/7 8/8/8 6/6/6
f 6/6/6 8/8/8 5/5/5
f 8/8/8 9/9/9 5/5/5
f 8/8/8 10/10/10 9/9/9
f 8/8/8 7/7/7 10/10/10
f 7/7/7 11/11/11 10/10/10
f 11/11/11 12/12/12 10/10/10
f 11/11/11 3/3/3 12/12/12
f 11/11/11 1/1/1 3/3/3
f 7/7/7 1/1/1 11/11/11
f 12/12/12 3/3/3 4/4/4
f 9/9/9 12/12/12 4/4/4
f 5/5/5 9/9/9 4/4/4
f 12/12/12 9/9/9 10/10/10
