g object
v 0 -2.714912E-05 166.6846
v -49.69612 109.7824 130.1062
v -107.0863 -3.317649E-05 173.2692
v 52.39034 116.1091 137.1597
v 0 172.981 78.46849
v 78.54677 -2.424931E-05 127.0913
v -154.3416 80.37043 95.38837
v -59.00196 129.899 36.46522
v -160.9288 135.4889 0
v -59.00196 129.899 36.46522
v -97.26462 214.6474 -60.11284
v -160.9288 135.4889 0
v 0 267.89 0
v 0 230.9591 -104.7464
v 0 267.89 0
v -59.00196 129.899 36.46522
v 0 267.89 0
v 75.85058 167.1182 46.87823
v 0 267.89 0
v 0 267.89 0
v 64.38337 141.9397 -39.79111
v 120.9835 102.1618 0
v 0 267.89 0
v 124.1321 64.74506 76.71787
v 144.5619 -2.348659E-05 0
v 125.315 -65.40008 77.44893
v 109.448 -92.28521 0
v 139.4527 72.77831 -86.18653
v 105.4429 -55.02911 -65.16729
v 79.37274 -2.452994E-05 -128.4278
v 44.43072 98.01534 -116.3212
v -45.28405 99.92676 -118.5552
v 0 -2.127586E-05 -130.846
v -77.41503 -2.393698E-05 -125.2602
v -43.38573 -95.63982 -113.5853
v 39.47137 -87.10345 -103.3374
v 0 -200.0891 -90.29408
v 78.50467 -173.5535 -48.51855
v 0 -183.5959 0
v 0 -183.5959 0
v 77.24662 -170.7148 47.74104
v 0 -168.1401 76.2688
v 0 -183.5959 0
v 0 -183.5959 0
v -63.2409 -139.4374 -39.08502
v -59.62515 -131.3705 36.85036
v -101.123 -85.2468 0
v -59.62515 -131.3705 36.85036
v 0 -183.5959 0
v 0 -183.5959 0
v -127.0885 -66.32564 78.54501
v -101.123 -85.2468 0
v -49.71012 -109.8962 130.1428
v 44.81084 -98.91883 117.3163
v -142.7152 -2.320878E-05 0
v -115.3645 60.13313 -71.29915
v -142.7152 -2.320878E-05 0
v -102.8775 -53.61911 -63.58178

vn 0.3446226 -0.3410555 0.8745949
vn -0.4557354 0.880003 0.1337907
vn -0.5011539 -0.02999853 0.8648381
vn 0.5051482 0.680804 0.5304069
vn 0.02655461 0.6643985 0.7469066
vn 0.672594 -0.2595879 0.6929873
vn -0.6371689 0.4859846 0.598193
vn -0.5522192 0.5162129 0.6546589
vn -0.872404 0.4865356 0.04684373
vn -0.5522192 0.5162129 0.6546589
vn -0.7195199 0.6944284 -0.007760226
vn -0.872404 0.4865356 0.04684373
vn -0.08529278 0.9447159 0.3166026
vn 0.124311 0.5339832 -0.8363066
vn -0.08529278 0.9447159 0.3166026
vn -0.5522192 0.5162129 0.6546589
vn -0.08529278 0.9447159 0.3166026
vn 0.7959825 0.5239868 0.3030672
vn -0.08529278 0.9447159 0.3166026
vn -0.08529278 0.9447159 0.3166026
vn 0.9145527 0.3618093 -0.1807961
vn 0.7970996 0.6030471 -0.03109031
vn -0.08529278 0.9447159 0.3166026
vn 0.8066086 0.4677424 0.3613856
vn 0.9761509 -0.2097215 0.05609238
vn 0.915233 -0.1554101 0.3717476
vn 0.819052 -0.3163632 -0.4786106
vn 0.9248 0.293732 -0.2417982
vn 0.7906716 -0.5915758 -0.1577229
vn 0.2664444 -0.154966 -0.9513112
vn 0.04130395 0.2337237 -0.9714254
vn -0.01218676 0.1123861 -0.9935899
vn 0.07981823 -0.07676829 -0.9938489
vn -0.6603627 -0.02611937 -0.7504924
vn -0.2701941 -0.174163 -0.9469226
vn 0.1634828 -0.2426107 -0.9562497
vn -0.1502995 -0.6621581 -0.7341367
vn 0.7654375 -0.5923523 -0.251444
vn -0.1683177 -0.9458978 0.2773924
vn -0.1683177 -0.9458978 0.2773924
vn 0.2808431 -0.9387134 0.1998608
vn -0.3850538 -0.7853252 0.4847659
vn -0.1683177 -0.9458978 0.2773924
vn -0.1683177 -0.9458978 0.2773924
vn -0.7840202 -0.6185019 0.05261034
vn -0.7673815 -0.6393372 0.04871842
vn -0.8433834 -0.5353178 -0.04625108
vn -0.7673815 -0.6393372 0.04871842
vn -0.1683177 -0.9458978 0.2773924
vn -0.1683177 -0.9458978 0.2773924
vn -0.6846021 -0.7252213 0.07330694
vn -0.8433834 -0.5353178 -0.04625108
vn -0.1987647 -0.6437988 0.7389287
vn 0.3731612 -0.2393507 0.8963604
vn -0.9240134 -0.1761771 -0.3393537
vn -0.8473919 -0.2115537 -0.487003
vn -0.9240134 -0.1761771 -0.3393537
vn -0.9154158 -0.1000854 -0.3898678

vt 0.75 0.5
vt 0.8080699 0.3333333
vt 0.8381041 0.5
vt 0.6919301 0.3333333
vt 0.75 0.1762082
vt 0.6618959 0.5
vt 0.9118959 0.4
vt 0.9118959 0.2
vt 1 0.3237918
vt -0.08810407 0.2
vt 0.08810409 0.2
vt 0 0.3237918
vt 0.169052 0
vt 0.25 0.1762082
vt 0.830948 0
vt -0.08810407 0.2
vt 1.117587E-08 0
vt 0.5881041 0.2
vt 0.669052 0
vt 0.3309479 0
vt 0.4118959 0.2
vt 0.5 0.3237918
vt 0.5 0
vt 0.5881041 0.4
vt 0.5 0.5
vt 0.5881041 0.6
vt 0.5 0.6762082
vt 0.4118959 0.4
vt 0.4118959 0.6
vt 0.3381041 0.5
vt 0.3080699 0.3333333
vt 0.1919301 0.3333333
vt 0.25 0.5
vt 0.1618959 0.5
vt 0.1919301 0.6666667
vt 0.3080699 0.6666667
vt 0.25 0.8237918
vt 0.4118959 0.8
vt 0.3309479 1
vt 0.669052 1
vt 0.5881041 0.8
vt 0.75 0.8237918
vt 0.5 1
vt 0.169052 1
vt 0.08810409 0.8
vt -0.08810407 0.8
vt 0 0.6762082
vt 0.9118959 0.8
vt 0.830948 1
vt 1.117587E-08 1
vt 0.9118959 0.6
vt 1 0.6762082
vt 0.8080699 0.6666667
vt 0.6919301 0.6666667
vt 1 0.5
vt 0.08810409 0.4
vt 0 0.5
vt 0.08810409 0.6

usemtl ground (Instance)
usemap ground (Instance)
f 1/1/1 2/2/2 3/3/3
f 2/2/2 4/4/4 5/5/5
f 4/4/4 1/1/1 6/6/6
f 1/1/1 4/4/4 2/2/2
f 2/2/2 7/7/7 3/3/3
f 7/7/7 8/8/8 9/9/9
f 8/8/8 2/2/2 5/5/5
f 2/2/2 8/8/8 7/7/7
f 10/10/10 11/11/11 12/12/12
f 11/11/11 13/13/13 14/14/14
f 15/15/15 8/8/8 5/5/5
f 16/16/16 17/17/17 11/11/11
f 18/18/18 19/19/19 5/5/5
f 20/20/20 21/21/21 14/14/14
f 21/21/21 18/18/18 22/22/22
f 18/18/18 21/21/21 23/23/23
f 4/4/4 18/18/18 5/5/5
f 18/18/18 24/24/24 22/22/22
f 24/24/24 4/4/4 6/6/6
f 4/4/4 24/24/24 18/18/18
f 24/24/24 25/25/25 22/22/22
f 25/25/25 26/26/26 27/27/27
f 26/26/26 24/24/24 6/6/6
f 24/24/24 26/26/26 25/25/25
f 25/25/25 28/28/28 22/22/22
f 28/28/28 29/29/29 30/30/30
f 29/29/29 25/25/25 27/27/27
f 25/25/25 29/29/29 28/28/28
f 21/21/21 31/31/31 14/14/14
f 31/31/31 28/28/28 30/30/30
f 28/28/28 21/21/21 22/22/22
f 21/21/21 28/28/28 31/31/31
f 31/31/31 32/32/32 14/14/14
f 32/32/32 33/33/33 34/34/34
f 33/33/33 31/31/31 30/30/30
f 31/31/31 33/33/33 32/32/32
f 33/33/33 35/35/35 34/34/34
f 35/35/35 36/36/36 37/37/37
f 36/36/36 33/33/33 30/30/30
f 33/33/33 36/36/36 35/35/35
f 36/36/36 38/38/38 37/37/37
f 38/38/38 29/29/29 27/27/27
f 29/29/29 36/36/36 30/30/30
f 36/36/36 29/29/29 38/38/38
f 38/38/38 39/39/39 37/37/37
f 40/40/40 41/41/41 42/42/42
f 41/41/41 38/38/38 27/27/27
f 38/38/38 41/41/41 43/43/43
f 44/44/44 45/45/45 37/37/37
f 45/45/45 46/46/46 47/47/47
f 48/48/48 49/49/49 42/42/42
f 50/50/50 46/46/46 45/45/45
f 48/48/48 51/51/51 52/52/52
f 51/51/51 53/53/53 3/3/3
f 53/53/53 48/48/48 42/42/42
f 48/48/48 53/53/53 51/51/51
f 53/53/53 1/1/1 3/3/3
f 1/1/1 54/54/54 6/6/6
f 54/54/54 53/53/53 42/42/42
f 53/53/53 54/54/54 1/1/1
f 41/41/41 54/54/54 42/42/42
f 54/54/54 26/26/26 6/6/6
f 26/26/26 41/41/41 27/27/27
f 41/41/41 26/26/26 54/54/54
f 55/55/55 7/7/7 9/9/9
f 7/7/7 51/51/51 3/3/3
f 51/51/51 55/55/55 52/52/52
f 55/55/55 51/51/51 7/7/7
f 56/56/56 57/57/57 12/12/12
f 57/57/57 58/58/58 47/47/47
f 58/58/58 56/56/56 34/34/34
f 56/56/56 58/58/58 57/57/57
f 11/11/11 56/56/56 12/12/12
f 56/56/56 32/32/32 34/34/34
f 32/32/32 11/11/11 14/14/14
f 11/11/11 32/32/32 56/56/56
f 45/45/45 35/35/35 37/37/37
f 35/35/35 58/58/58 34/34/34
f 58/58/58 45/45/45 47/47/47
f 45/45/45 58/58/58 35/35/35
