g object
v 95.36108 -2.959187E-05 154.2974
v 0 204.8917 92.45943
v -88.48596 -2.750774E-05 143.1733
v -144.9592 122.6066 0
v 0 190.8767 -86.21265
v 146.0808 123.7769 0
v 146.7708 -124.1885 0
v 88.97366 -2.764351E-05 -143.9624
v -88.37748 -2.738549E-05 -142.9978
v 0 -224.4775 -101.4368
v 0 -195.2081 88.17116
v -120.1306 -101.4386 0

vn 0.3723981 0.1377708 0.9177902
vn -0.2339826 0.7163582 0.6573303
vn -0.4403635 0.1021956 0.8919843
vn -0.9168338 0.3668219 0.157663
vn -0.1322268 0.6614508 -0.7382404
vn 0.7860475 0.6173388 -0.03196947
vn 0.5912143 -0.6642497 -0.4574254
vn 0.4802786 0.01320288 -0.8770167
vn -0.5266901 0.2251412 -0.8197005
vn 0.2829846 -0.7891321 -0.5451515
vn -0.04896349 -0.6104004 0.7905782
vn -0.6331722 -0.7687634 -0.0899768

vt 0.6618959 0.5
vt 0.75 0.1762082
vt 0.8381041 0.5
vt 1 0.3237918
vt 0.25 0.1762082
vt 0.5 0.3237918
vt 0.5 0.6762082
vt 0.3381041 0.5
vt 0.1618959 0.5
vt 0.25 0.8237918
vt 0.75 0.8237918
vt 1 0.6762082

usemtl ground (Instance)
usemap ground (Instance)
f 1/1/1 2/2/2 3/3/3
f 2/2/2 4/4/4 3/3/3
f 2/2/2 5/5/5 4/4/4
f 6/6/6 5/5/5 2/2/2
f 1/1/1 6/6/6 2/2/2
f 1/1/1 7/7/7 6/6/6
f 7/7/7 8/8/8 6/6/6
f 6/6/6 8/8/8 5/5/5
f 8/8/8 9/9/9 5/5/5
f 8/8/8 10/10/10 9/9/9
f 8/8/8 7/7/7 10/10/10
f 7/7/7 11/11/11 10/10/10
f 11/11/11 12/12/12 10/10/10
f 11/11/11 3/3/3 12/12/12
f 11/11/11 1/1/1 3/3/3
f 7/7/7 1/1/1 11/11/11
f 12/12/12 3/3/3 4/4/4
f 9/9/9 12/12/12 4/4/4
f 5/5/5 9/9/9 4/4/4
f 12/12/12 9/9/9 10/10/10
