g object
v 83.60223 -2.843924E-05 135.2712
v 0 206.4439 85.5319
v -74.90711 -2.541303E-05 121.2023
v -144.781 134.1493 0
v 0 192.5715 -79.66958
v 157.3157 145.4693 0
v 155.9881 -143.8174 0
v 93.69455 -3.173708E-05 -151.601
v -69.53065 -2.356896E-05 -112.503
v 0 -216.1521 -89.41443
v 0 -208.3293 86.29521
v -127.0068 -116.9555 0

vn 0.3319558 0.2443183 0.9111059
vn -0.05008338 0.541275 0.8393528
vn -0.5368639 0.03427115 0.8429725
vn -0.8698166 0.3663826 -0.3304283
vn 0.01881571 0.6373161 -0.7703727
vn 0.9134215 0.4047 0.04334936
vn 0.8692029 -0.4469757 0.2114215
vn 0.3901425 -0.07878851 -0.9173774
vn -0.3483841 -0.02681847 -0.936968
vn -0.294771 -0.8692151 -0.3969574
vn -0.369843 -0.8465988 0.3827357
vn -0.9118491 -0.4039308 0.07328787

vt 0.6618959 0.5
vt 0.75 0.1762082
vt 0.8381041 0.5
vt 1 0.3237918
vt 0.25 0.1762082
vt 0.5 0.3237918
vt 0.5 0.6762082
vt 0.3381041 0.5
vt 0.1618959 0.5
vt 0.25 0.8237918
vt 0.75 0.8237918
vt 1 0.6762082

usemtl ground (Instance)
usemap ground (Instance)
f 1/1/1 2/2/2 3/3/3
f 2/2/2 4/4/4 3/3/3
f 2/2/2 5/5/5 4/4/4
f 6/6/6 5/5/5 2/2/2
f 1/1/1 6/6/6 2/2/2
f 1/1/1 7/7/7 6/6/6
f 7/7/7 8/8/8 6/6/6
f 6/6/6 8/8/8 5/5/5
f 8/8/8 9/9/9 5/5/5
f 8/8/8 10/10/10 9/9/9
f 8/8/8 7/7/7 10/10/10
f 7/7/7 11/11/11 10/10/10
f 11/11/11 12/12/12 10/10/10
f 11/11/11 3/3/3 12/12/12
f 11/11/11 1/1/1 3/3/3
f 7/7/7 1/1/1 11/11/11
f 12/12/12 3/3/3 4/4/4
f 9/9/9 12/12/12 4/4/4
f 5/5/5 9/9/9 4/4/4
f 12/12/12 9/9/9 10/10/10
