g object
v 0 -2.536962E-05 133.2384
v -33.66215 87.23838 88.12866
v -64.47896 -2.33528E-05 104.3291
v 40.3866 103.9883 105.7335
v 0 202.3635 78.56179
v 78.8783 -2.844991E-05 127.6278
v -95.51441 57.89082 59.03115
v -52.99949 136.6916 32.75548
v -103.739 102.4952 0
v -52.99949 136.6916 32.75548
v -65.77495 169.1105 -40.65115
v -103.739 102.4952 0
v 0 242.074 0
v 0 176.225 -68.28826
v 0 242.074 0
v -52.99949 136.6916 32.75548
v 0 242.074 0
v 61.6498 159.1681 38.10167
v 0 242.074 0
v 0 242.074 0
v 54.60643 140.3968 -33.74863
v 71.18923 70.27503 0
v 0 242.074 0
v 81.38456 49.52624 50.29842
v 112.2626 -2.124638E-05 0
v 130.106 -79.3774 80.40995
v 146.2607 -143.8564 0
v 55.52397 33.87503 -34.3157
v 113.1996 -69.06281 -69.96119
v 70.71045 -2.557508E-05 -114.4119
v 37.61223 97.83195 -98.47012
v -29.7018 76.89276 -77.76033
v 0 -2.44229E-05 -128.4838
v -54.80875 -1.981352E-05 -88.68242
v -33.456 -86.09669 -87.58895
v 50.90902 -131.8816 -133.2816
v 0 -233.4333 -90.57516
v 72.50243 -187.3763 -44.80896
v 0 -233.3797 0
v 0 -233.3797 0
v 72.75198 -187.7785 44.96319
v 0 -202.886 78.57725
v 0 -233.3797 0
v 0 -233.3797 0
v -60.67799 -155.8252 -37.50106
v -49.95462 -129.319 30.87365
v -89.53725 -88.22023 0
v -49.95462 -129.319 30.87365
v 0 -233.3797 0
v 0 -233.3797 0
v -96.03004 -58.58771 59.34983
v -89.53725 -88.22023 0
v -45.10814 -116.5781 118.0947
v 49.15664 -126.9125 128.6938
v -117.659 -2.227633E-05 0
v -104.5219 64.0871 -64.59811
v -117.659 -2.227633E-05 0
v -77.07464 -46.71473 -47.63475

vn -0.3879827 0.3044315 0.8699372
vn -0.4824887 0.2524 0.8387485
vn -0.4379594 0.2483753 0.8640031
vn 0.5143396 0.3022994 0.8025396
vn -0.5538625 0.4733254 0.6849813
vn 0.7861232 0.2728162 0.5546005
vn -0.6908141 0.4439958 0.5706519
vn -0.7468371 0.4308341 0.5065731
vn -0.8371406 0.4311389 0.3366227
vn -0.7468371 0.4308341 0.5065731
vn -0.6926383 0.5461965 -0.4710856
vn -0.8371406 0.4311389 0.3366227
vn -0.07731082 0.9903364 0.1151383
vn -0.08827218 0.3930199 -0.9152832
vn -0.07731082 0.9903364 0.1151383
vn -0.7468371 0.4308341 0.5065731
vn -0.07731082 0.9903364 0.1151383
vn 0.9447756 0.3175134 0.08114428
vn -0.07731082 0.9903364 0.1151383
vn -0.07731082 0.9903364 0.1151383
vn 0.924564 0.2579075 -0.2804729
vn 0.863305 0.1397181 -0.484957
vn -0.07731082 0.9903364 0.1151383
vn 0.9138747 0.2910965 0.2830119
vn 0.9313998 0.3432703 -0.1210778
vn 0.8949552 0.1854389 0.4057925
vn 0.6760334 -0.7364689 0.02433572
vn 0.8735803 0.4483053 -0.1894197
vn 0.8861658 0.2655552 -0.3797243
vn 0.8566428 0.1979005 -0.4764436
vn 0.2817161 0.4518309 -0.8464543
vn -0.3541534 0.07400983 -0.9322543
vn -0.5590035 0.01501647 -0.8290294
vn -0.4871158 -0.2202352 -0.8451123
vn -0.6121016 -0.07937849 -0.786785
vn -0.1151612 -0.1815759 -0.9766105
vn -0.3737918 -0.5341119 -0.7582903
vn 0.7246931 -0.6885504 0.02679989
vn -0.6478257 -0.7348323 0.2008568
vn -0.6478257 -0.7348323 0.2008568
vn 0.676856 -0.7361109 0.002565229
vn -0.6870987 -0.604868 0.4025297
vn -0.6478257 -0.7348323 0.2008568
vn -0.6478257 -0.7348323 0.2008568
vn -0.8900262 -0.4557544 -0.01188565
vn -0.816399 -0.5290064 0.2316136
vn -0.9221709 -0.376683 0.08781041
vn -0.816399 -0.5290064 0.2316136
vn -0.6478257 -0.7348323 0.2008568
vn -0.6478257 -0.7348323 0.2008568
vn -0.9023154 -0.4035937 0.1514565
vn -0.9221709 -0.376683 0.08781041
vn -0.7901171 -0.4870171 0.3721952
vn 0.2020555 -0.3874161 0.8994901
vn -0.9706315 -0.2379564 -0.03537316
vn -0.7008212 0.1115262 -0.7045648
vn -0.9706315 -0.2379564 -0.03537316
vn -0.5171702 -0.211397 -0.829365

vt 0.75 0.5
vt 0.8080699 0.3333333
vt 0.8381041 0.5
vt 0.6919301 0.3333333
vt 0.75 0.1762082
vt 0.6618959 0.5
vt 0.9118959 0.4
vt 0.9118959 0.2
vt 1 0.3237918
vt -0.08810407 0.2
vt 0.08810409 0.2
vt 0 0.3237918
vt 0.169052 0
vt 0.25 0.1762082
vt 0.830948 0
vt -0.08810407 0.2
vt 1.117587E-08 0
vt 0.5881041 0.2
vt 0.669052 0
vt 0.3309479 0
vt 0.4118959 0.2
vt 0.5 0.3237918
vt 0.5 0
vt 0.5881041 0.4
vt 0.5 0.5
vt 0.5881041 0.6
vt 0.5 0.6762082
vt 0.4118959 0.4
vt 0.4118959 0.6
vt 0.3381041 0.5
vt 0.3080699 0.3333333
vt 0.1919301 0.3333333
vt 0.25 0.5
vt 0.1618959 0.5
vt 0.1919301 0.6666667
vt 0.3080699 0.6666667
vt 0.25 0.8237918
vt 0.4118959 0.8
vt 0.3309479 1
vt 0.669052 1
vt 0.5881041 0.8
vt 0.75 0.8237918
vt 0.5 1
vt 0.169052 1
vt 0.08810409 0.8
vt -0.08810407 0.8
vt 0 0.6762082
vt 0.9118959 0.8
vt 0.830948 1
vt 1.117587E-08 1
vt 0.9118959 0.6
vt 1 0.6762082
vt 0.8080699 0.6666667
vt 0.6919301 0.6666667
vt 1 0.5
vt 0.08810409 0.4
vt 0 0.5
vt 0.08810409 0.6

usemtl ground (Instance)
usemap ground (Instance)
f 1/1/1 2/2/2 3/3/3
f 2/2/2 4/4/4 5/5/5
f 4/4/4 1/1/1 6/6/6
f 1/1/1 4/4/4 2/2/2
f 2/2/2 7/7/7 3/3/3
f 7/7/7 8/8/8 9/9/9
f 8/8/8 2/2/2 5/5/5
f 2/2/2 8/8/8 7/7/7
f 10/10/10 11/11/11 12/12/12
f 11/11/11 13/13/13 14/14/14
f 15/15/15 8/8/8 5/5/5
f 16/16/16 17/17/17 11/11/11
f 18/18/18 19/19/19 5/5/5
f 20/20/20 21/21/21 14/14/14
f 21/21/21 18/18/18 22/22/22
f 18/18/18 21/21/21 23/23/23
f 4/4/4 18/18/18 5/5/5
f 18/18/18 24/24/24 22/22/22
f 24/24/24 4/4/4 6/6/6
f 4/4/4 24/24/24 18/18/18
f 24/24/24 25/25/25 22/22/22
f 25/25/25 26/26/26 27/27/27
f 26/26/26 24/24/24 6/6/6
f 24/24/24 26/26/26 25/25/25
f 25/25/25 28/28/28 22/22/22
f 28/28/28 29/29/29 30/30/30
f 29/29/29 25/25/25 27/27/27
f 25/25/25 29/29/29 28/28/28
f 21/21/21 31/31/31 14/14/14
f 31/31/31 28/28/28 30/30/30
f 28/28/28 21/21/21 22/22/22
f 21/21/21 28/28/28 31/31/31
f 31/31/31 32/32/32 14/14/14
f 32/32/32 33/33/33 34/34/34
f 33/33/33 31/31/31 30/30/30
f 31/31/31 33/33/33 32/32/32
f 33/33/33 35/35/35 34/34/34
f 35/35/35 36/36/36 37/37/37
f 36/36/36 33/33/33 30/30/30
f 33/33/33 36/36/36 35/35/35
f 36/36/36 38/38/38 37/37/37
f 38/38/38 29/29/29 27/27/27
f 29/29/29 36/36/36 30/30/30
f 36/36/36 29/29/29 38/38/38
f 38/38/38 39/39/39 37/37/37
f 40/40/40 41/41/41 42/42/42
f 41/41/41 38/38/38 27/27/27
f 38/38/38 41/41/41 43/43/43
f 44/44/44 45/45/45 37/37/37
f 45/45/45 46/46/46 47/47/47
f 48/48/48 49/49/49 42/42/42
f 50/50/50 46/46/46 45/45/45
f 48/48/48 51/51/51 52/52/52
f 51/51/51 53/53/53 3/3/3
f 53/53/53 48/48/48 42/42/42
f 48/48/48 53/53/53 51/51/51
f 53/53/53 1/1/1 3/3/3
f 1/1/1 54/54/54 6/6/6
f 54/54/54 53/53/53 42/42/42
f 53/53/53 54/54/54 1/1/1
f 41/41/41 54/54/54 42/42/42
f 54/54/54 26/26/26 6/6/6
f 26/26/26 41/41/41 27/27/27
f 41/41/41 26/26/26 54/54/54
f 55/55/55 7/7/7 9/9/9
f 7/7/7 51/51/51 3/3/3
f 51/51/51 55/55/55 52/52/52
f 55/55/55 51/51/51 7/7/7
f 56/56/56 57/57/57 12/12/12
f 57/57/57 58/58/58 47/47/47
f 58/58/58 56/56/56 34/34/34
f 56/56/56 58/58/58 57/57/57
f 11/11/11 56/56/56 12/12/12
f 56/56/56 32/32/32 34/34/34
f 32/32/32 11/11/11 14/14/14
f 11/11/11 32/32/32 56/56/56
f 45/45/45 35/35/35 37/37/37
f 35/35/35 58/58/58 34/34/34
f 58/58/58 45/45/45 47/47/47
f 45/45/45 58/58/58 35/35/35
