g object
v 0 -2.607459E-05 148.8131
v -57.87055 137.5897 151.5071
v -74.28051 -2.47564E-05 120.1884
v 40.06382 95.16741 104.8884
v 0 236.3171 99.3174
v 65.46169 -2.18009E-05 105.9192
v -152.357 85.31344 94.16181
v -76.85406 183.2294 47.49842
v -123.4665 111.6413 0
v -76.85406 183.2294 47.49842
v -68.92369 163.5638 -42.59718
v -123.4665 111.6413 0
v 0 214.8484 0
v 0 160.6302 -67.71788
v 0 214.8484 0
v -76.85406 183.2294 47.49842
v 0 214.8484 0
v 86.97285 206.4932 53.75218
v 0 214.8484 0
v 0 214.8484 0
v 68.53669 162.4086 -42.358
v 132.7796 120.6174 0
v 0 214.8484 0
v 102.8228 57.92296 63.54798
v 173.6963 -3.033065E-05 0
v 99.29566 -55.74699 61.36809
v 90.55766 -82.18688 0
v 128.5063 72.14651 -79.42126
v 130.3976 -73.2084 -80.59017
v 100.6443 -3.347135E-05 -162.8459
v 53.64649 127.1786 -140.4484
v -37.69558 89.24894 -98.68831
v 0 -3.25138E-05 -185.3255
v -80.45331 -2.673074E-05 -130.1762
v -58.45939 -139.1367 -153.0487
v 57.39371 -136.1454 -150.2587
v 0 -189.6507 -80.02743
v 69.53391 -165.3676 -42.97432
v 0 -199.5216 0
v 0 -199.5216 0
v 59.12917 -140.5568 36.54383
v 0 -140.4483 59.16171
v 0 -199.5216 0
v 0 -199.5216 0
v -80.27888 -190.4082 -49.61508
v -68.17416 -162.3243 42.13395
v -134.8466 -122.1859 0
v -68.17416 -162.3243 42.13395
v 0 -199.5216 0
v 0 -199.5216 0
v -149.5109 -83.93907 92.40284
v -134.8466 -122.1859 0
v -45.36948 -107.8991 118.7788
v 47.16739 -111.8801 123.4858
v -144.1717 -2.515676E-05 0
v -78.45323 43.85243 -48.48677
v -144.1717 -2.515676E-05 0
v -143.9786 -80.59018 -88.98367

vn 0.1777848 0.2001608 0.9634978
vn -0.1807432 0.2398556 0.953835
vn -0.4082462 -0.1361908 0.9026555
vn 0.6034721 0.09070919 0.792208
vn 0.06975865 0.7228623 0.6874619
vn 0.5917364 0.1876832 0.783979
vn -0.8810976 0.2443106 0.4049435
vn -0.8278623 0.5608437 0.009919797
vn -0.9259679 0.2802939 -0.2530193
vn -0.8278623 0.5608437 0.009919797
vn -0.598402 0.4168424 -0.6842204
vn -0.9259679 0.2802939 -0.2530193
vn 0.170967 0.7667571 -0.6187518
vn 0.1477322 0.79938 -0.5823803
vn 0.170967 0.7667571 -0.6187518
vn -0.8278623 0.5608437 0.009919797
vn 0.170967 0.7667571 -0.6187518
vn 0.8237534 0.5079835 0.2517599
vn 0.170967 0.7667571 -0.6187518
vn 0.170967 0.7667571 -0.6187518
vn 0.4288087 0.7760059 -0.4625343
vn 0.7719511 0.5960093 -0.2210533
vn 0.170967 0.7667571 -0.6187518
vn 0.5956908 0.1313549 0.7924004
vn 0.8877524 -0.4100733 0.2091304
vn 0.8387709 -0.4842971 0.2488369
vn 0.7770049 -0.5739943 0.2584454
vn 0.8539426 0.351126 -0.3840477
vn 0.8257724 -0.55665 0.09077843
vn 0.5348272 0.006048397 -0.8449398
vn 0.04628279 0.7243502 -0.687877
vn -0.6783581 0.3311167 -0.6558903
vn -0.2166011 0.1452495 -0.9653946
vn -0.7043479 0.5532121 -0.4448037
vn -0.1772935 -0.4763774 -0.8611803
vn 0.07436129 -0.7095559 -0.7007145
vn -0.1253157 -0.9419022 -0.3116346
vn 0.7876955 -0.5498848 0.2777813
vn -0.1013158 -0.9689108 0.225715
vn -0.1013158 -0.9689108 0.225715
vn 0.8344275 -0.4491934 0.3193056
vn -0.05171305 -0.7667566 0.6398515
vn -0.1013158 -0.9689108 0.225715
vn -0.1013158 -0.9689108 0.225715
vn -0.09443641 -0.9870184 -0.1299095
vn -0.006585879 -0.7948152 0.6068159
vn -0.9258503 -0.3777189 0.01139306
vn -0.006585879 -0.7948152 0.6068159
vn -0.1013158 -0.9689108 0.225715
vn -0.1013158 -0.9689108 0.225715
vn -0.7135194 -0.2215542 0.6646833
vn -0.9258503 -0.3777189 0.01139306
vn -0.1099235 -0.7073363 0.698278
vn 0.4950115 -0.7692702 0.403964
vn -0.8660524 0.3263184 -0.3787737
vn -0.7564582 0.08539017 -0.648444
vn -0.8660524 0.3263184 -0.3787737
vn -0.9178603 0.1460606 -0.3690512

vt 0.75 0.5
vt 0.8080699 0.3333333
vt 0.8381041 0.5
vt 0.6919301 0.3333333
vt 0.75 0.1762082
vt 0.6618959 0.5
vt 0.9118959 0.4
vt 0.9118959 0.2
vt 1 0.3237918
vt -0.08810407 0.2
vt 0.08810409 0.2
vt 0 0.3237918
vt 0.169052 0
vt 0.25 0.1762082
vt 0.830948 0
vt -0.08810407 0.2
vt 1.117587E-08 0
vt 0.5881041 0.2
vt 0.669052 0
vt 0.3309479 0
vt 0.4118959 0.2
vt 0.5 0.3237918
vt 0.5 0
vt 0.5881041 0.4
vt 0.5 0.5
vt 0.5881041 0.6
vt 0.5 0.6762082
vt 0.4118959 0.4
vt 0.4118959 0.6
vt 0.3381041 0.5
vt 0.3080699 0.3333333
vt 0.1919301 0.3333333
vt 0.25 0.5
vt 0.1618959 0.5
vt 0.1919301 0.6666667
vt 0.3080699 0.6666667
vt 0.25 0.8237918
vt 0.4118959 0.8
vt 0.3309479 1
vt 0.669052 1
vt 0.5881041 0.8
vt 0.75 0.8237918
vt 0.5 1
vt 0.169052 1
vt 0.08810409 0.8
vt -0.08810407 0.8
vt 0 0.6762082
vt 0.9118959 0.8
vt 0.830948 1
vt 1.117587E-08 1
vt 0.9118959 0.6
vt 1 0.6762082
vt 0.8080699 0.6666667
vt 0.6919301 0.6666667
vt 1 0.5
vt 0.08810409 0.4
vt 0 0.5
vt 0.08810409 0.6

usemtl ground (Instance)
usemap ground (Instance)
f 1/1/1 2/2/2 3/3/3
f 2/2/2 4/4/4 5/5/5
f 4/4/4 1/1/1 6/6/6
f 1/1/1 4/4/4 2/2/2
f 2/2/2 7/7/7 3/3/3
f 7/7/7 8/8/8 9/9/9
f 8/8/8 2/2/2 5/5/5
f 2/2/2 8/8/8 7/7/7
f 10/10/10 11/11/11 12/12/12
f 11/11/11 13/13/13 14/14/14
f 15/15/15 8/8/8 5/5/5
f 16/16/16 17/17/17 11/11/11
f 18/18/18 19/19/19 5/5/5
f 20/20/20 21/21/21 14/14/14
f 21/21/21 18/18/18 22/22/22
f 18/18/18 21/21/21 23/23/23
f 4/4/4 18/18/18 5/5/5
f 18/18/18 24/24/24 22/22/22
f 24/24/24 4/4/4 6/6/6
f 4/4/4 24/24/24 18/18/18
f 24/24/24 25/25/25 22/22/22
f 25/25/25 26/26/26 27/27/27
f 26/26/26 24/24/24 6/6/6
f 24/24/24 26/26/26 25/25/25
f 25/25/25 28/28/28 22/22/22
f 28/28/28 29/29/29 30/30/30
f 29/29/29 25/25/25 27/27/27
f 25/25/25 29/29/29 28/28/28
f 21/21/21 31/31/31 14/14/14
f 31/31/31 28/28/28 30/30/30
f 28/28/28 21/21/21 22/22/22
f 21/21/21 28/28/28 31/31/31
f 31/31/31 32/32/32 14/14/14
f 32/32/32 33/33/33 34/34/34
f 33/33/33 31/31/31 30/30/30
f 31/31/31 33/33/33 32/32/32
f 33/33/33 35/35/35 34/34/34
f 35/35/35 36/36/36 37/37/37
f 36/36/36 33/33/33 30/30/30
f 33/33/33 36/36/36 35/35/35
f 36/36/36 38/38/38 37/37/37
f 38/38/38 29/29/29 27/27/27
f 29/29/29 36/36/36 30/30/30
f 36/36/36 29/29/29 38/38/38
f 38/38/38 39/39/39 37/37/37
f 40/40/40 41/41/41 42/42/42
f 41/41/41 38/38/38 27/27/27
f 38/38/38 41/41/41 43/43/43
f 44/44/44 45/45/45 37/37/37
f 45/45/45 46/46/46 47/47/47
f 48/48/48 49/49/49 42/42/42
f 50/50/50 46/46/46 45/45/45
f 48/48/48 51/51/51 52/52/52
f 51/51/51 53/53/53 3/3/3
f 53/53/53 48/48/48 42/42/42
f 48/48/48 53/53/53 51/51/51
f 53/53/53 1/1/1 3/3/3
f 1/1/1 54/54/54 6/6/6
f 54/54/54 53/53/53 42/42/42
f 53/53/53 54/54/54 1/1/1
f 41/41/41 54/54/54 42/42/42
f 54/54/54 26/26/26 6/6/6
f 26/26/26 41/41/41 27/27/27
f 41/41/41 26/26/26 54/54/54
f 55/55/55 7/7/7 9/9/9
f 7/7/7 51/51/51 3/3/3
f 51/51/51 55/55/55 52/52/52
f 55/55/55 51/51/51 7/7/7
f 56/56/56 57/57/57 12/12/12
f 57/57/57 58/58/58 47/47/47
f 58/58/58 56/56/56 34/34/34
f 56/56/56 58/58/58 57/57/57
f 11/11/11 56/56/56 12/12/12
f 56/56/56 32/32/32 34/34/34
f 32/32/32 11/11/11 14/14/14
f 11/11/11 32/32/32 56/56/56
f 45/45/45 35/35/35 37/37/37
f 35/35/35 58/58/58 34/34/34
f 58/58/58 45/45/45 47/47/47
f 45/45/45 58/58/58 35/35/35
