g object
v 97.88415 -3.674971E-05 158.3799
v 0 187.6843 70.37663
v -90.47535 -3.38762E-05 146.3922
v -93.22208 95.05768 0
v 0 265.0278 -99.35859
v 154.8244 158.0046 0
v 138.6338 -141.1293 0
v 98.46679 -3.680179E-05 -159.3226
v -73.73727 -2.755763E-05 -119.3094
v 0 -213.0538 -79.89445
v 0 -265.7118 99.56316
v -160.9499 -164.1734 0

vn 0.6899023 0.0001648181 0.7239025
vn -0.549175 0.6164408 0.5642762
vn -0.5541543 0.3744381 0.743444
vn -0.7989185 0.4906894 -0.3477829
vn -0.3439323 0.640742 -0.6864112
vn 0.9945756 0.07590912 -0.07111322
vn 0.8980644 -0.2837143 -0.3361346
vn 0.3979875 0.07253596 -0.9145187
vn -0.521537 0.332923 -0.7855961
vn 0.5049686 -0.5538297 -0.6620266
vn 0.009322338 -0.7052196 0.7089276
vn -0.9499449 -0.3123812 -0.004762603

vt 0.6618959 0.5
vt 0.75 0.1762082
vt 0.8381041 0.5
vt 1 0.3237918
vt 0.25 0.1762082
vt 0.5 0.3237918
vt 0.5 0.6762082
vt 0.3381041 0.5
vt 0.1618959 0.5
vt 0.25 0.8237918
vt 0.75 0.8237918
vt 1 0.6762082

usemtl ground (Instance)
usemap ground (Instance)
f 1/1/1 2/2/2 3/3/3
f 2/2/2 4/4/4 3/3/3
f 2/2/2 5/5/5 4/4/4
f 6/6/6 5/5/5 2/2/2
f 1/1/1 6/6/6 2/2/2
f 1/1/1 7/7/7 6/6/6
f 7/7/7 8/8/8 6/6/6
f 6/6/6 8/8/8 5/5/5
f 8/8/8 9/9/9 5/5/5
f 8/8/8 10/10/10 9/9/9
f 8/8/8 7/7/7 10/10/10
f 7/7/7 11/11/11 10/10/10
f 11/11/11 12/12/12 10/10/10
f 11/11/11 3/3/3 12/12/12
f 11/11/11 1/1/1 3/3/3
f 7/7/7 1/1/1 11/11/11
f 12/12/12 3/3/3 4/4/4
f 9/9/9 12/12/12 4/4/4
f 5/5/5 9/9/9 4/4/4
f 12/12/12 9/9/9 10/10/10
