g object
v 0 -3.707537E-05 188.3465
v -44.61527 119.1484 116.8043
v -90.47535 -3.38762E-05 146.3922
v 58.00407 155.3299 151.8566
v 0 187.6843 70.37663
v 97.88415 -3.674971E-05 158.3799
v -125.2976 78.96995 77.43816
v -62.07757 165.5085 38.36605
v -93.22208 95.05768 0
v -62.07757 165.5085 38.36605
v -58.82004 156.7188 -36.35278
v -93.22208 95.05768 0
v 0 264.7178 0
v 0 265.0278 -99.35859
v 0 264.7178 0
v -62.07757 165.5085 38.36605
v 0 264.7178 0
v 93.05592 248.974 57.51171
v 0 264.7178 0
v 0 264.7178 0
v 94.98329 253.2506 -58.7029
v 154.8244 158.0046 0
v 0 264.7178 0
v 120.4947 75.90028 74.46981
v 130.3932 -2.565583E-05 0
v 145.557 -91.80706 89.95918
v 138.6338 -141.1293 0
v 124.4272 78.47982 -76.90024
v 131.0306 -82.64484 -80.98138
v 98.46679 -3.680179E-05 -159.3226
v 57.32575 153.0303 -150.0808
v -40.78638 108.9017 -106.7801
v 0 -3.374411E-05 -171.105
v -73.73727 -2.755763E-05 -119.3094
v -48.8002 -130.199 -127.7606
v 50.97112 -135.9616 -133.4441
v 0 -213.0538 -79.89445
v 71.50599 -191.0504 -44.19313
v 0 -281.0738 0
v 0 -281.0738 0
v 94.86177 -253.0447 58.62779
v 0 -265.7118 99.56316
v 0 -281.0738 0
v 0 -281.0738 0
v -95.15536 -253.5291 -58.80925
v -90.79118 -242.8137 56.11202
v -160.9499 -164.1734 0
v -90.79118 -242.8137 56.11202
v 0 -281.0738 0
v 0 -281.0738 0
v -151.5601 -95.59339 93.66932
v -160.9499 -164.1734 0
v -50.25326 -134.2672 131.5648
v 45.14834 -120.4402 118.1999
v -180.6104 -3.544693E-05 0
v -93.05347 58.57244 -57.5102
v -180.6104 -3.544693E-05 0
v -153.4569 -96.63538 -94.8416

vn -0.04446292 -0.0461772 0.9979432
vn -0.5995678 0.4635603 0.6524035
vn -0.5541543 0.3744381 0.743444
vn 0.268797 0.4115113 0.8708654
vn -0.549175 0.6164408 0.5642762
vn 0.6899023 0.0001648181 0.7239025
vn -0.6656375 0.5331659 0.5221694
vn -0.5612925 0.6803101 0.4713055
vn -0.7989185 0.4906894 -0.3477829
vn -0.5612925 0.6803101 0.4713055
vn -0.9123757 0.3002616 -0.2782327
vn -0.7989185 0.4906894 -0.3477829
vn -0.5260507 0.6045973 0.5981076
vn -0.3439323 0.640742 -0.6864112
vn -0.5260507 0.6045973 0.5981076
vn -0.5612925 0.6803101 0.4713055
vn -0.5260507 0.6045973 0.5981076
vn 0.555856 0.5412449 0.6309342
vn -0.5260507 0.6045973 0.5981076
vn -0.5260507 0.6045973 0.5981076
vn 0.6326202 0.6607158 -0.4040377
vn 0.9945756 0.07590912 -0.07111322
vn -0.5260507 0.6045973 0.5981076
vn 0.9161589 -0.05599342 0.3968851
vn 0.9910431 0.03295723 -0.1294117
vn 0.887178 0.09128035 0.4523087
vn 0.8980644 -0.2837143 -0.3361346
vn 0.9885156 -0.03119805 -0.1478633
vn 0.9832426 0.05641288 -0.1733539
vn 0.3979875 0.07253596 -0.9145187
vn 0.02035677 0.3073837 -0.9513679
vn -0.6523943 0.2849705 -0.7022631
vn -0.4282306 0.2389019 -0.8715186
vn -0.521537 0.332923 -0.7855961
vn -0.3503974 -0.509542 -0.785868
vn 0.4136754 -0.7480162 -0.5189842
vn 0.5049686 -0.5538297 -0.6620266
vn 0.4670524 -0.5342806 -0.7045611
vn -0.4231634 -0.9040433 0.06032065
vn -0.4231634 -0.9040433 0.06032065
vn 0.6656848 -0.6413366 0.3815118
vn 0.009322338 -0.7052196 0.7089276
vn -0.4231634 -0.9040433 0.06032065
vn -0.4231634 -0.9040433 0.06032065
vn -0.5731665 -0.67544 -0.4639623
vn -0.1687814 -0.9821187 0.08340167
vn -0.9499449 -0.3123812 -0.004762603
vn -0.1687814 -0.9821187 0.08340167
vn -0.4231634 -0.9040433 0.06032065
vn -0.4231634 -0.9040433 0.06032065
vn -0.671074 -0.2617933 0.6936309
vn -0.9499449 -0.3123812 -0.004762603
vn -0.1863931 -0.1823654 0.9654017
vn 0.1483658 -0.3092031 0.9393514
vn -0.8859734 0.4187361 -0.1992766
vn -0.7422139 0.5920244 -0.314047
vn -0.8859734 0.4187361 -0.1992766
vn -0.800392 -0.1399532 -0.5829116

vt 0.75 0.5
vt 0.8080699 0.3333333
vt 0.8381041 0.5
vt 0.6919301 0.3333333
vt 0.75 0.1762082
vt 0.6618959 0.5
vt 0.9118959 0.4
vt 0.9118959 0.2
vt 1 0.3237918
vt -0.08810407 0.2
vt 0.08810409 0.2
vt 0 0.3237918
vt 0.169052 0
vt 0.25 0.1762082
vt 0.830948 0
vt -0.08810407 0.2
vt 1.117587E-08 0
vt 0.5881041 0.2
vt 0.669052 0
vt 0.3309479 0
vt 0.4118959 0.2
vt 0.5 0.3237918
vt 0.5 0
vt 0.5881041 0.4
vt 0.5 0.5
vt 0.5881041 0.6
vt 0.5 0.6762082
vt 0.4118959 0.4
vt 0.4118959 0.6
vt 0.3381041 0.5
vt 0.3080699 0.3333333
vt 0.1919301 0.3333333
vt 0.25 0.5
vt 0.1618959 0.5
vt 0.1919301 0.6666667
vt 0.3080699 0.6666667
vt 0.25 0.8237918
vt 0.4118959 0.8
vt 0.3309479 1
vt 0.669052 1
vt 0.5881041 0.8
vt 0.75 0.8237918
vt 0.5 1
vt 0.169052 1
vt 0.08810409 0.8
vt -0.08810407 0.8
vt 0 0.6762082
vt 0.9118959 0.8
vt 0.830948 1
vt 1.117587E-08 1
vt 0.9118959 0.6
vt 1 0.6762082
vt 0.8080699 0.6666667
vt 0.6919301 0.6666667
vt 1 0.5
vt 0.08810409 0.4
vt 0 0.5
vt 0.08810409 0.6

usemtl ground (Instance)
usemap ground (Instance)
f 1/1/1 2/2/2 3/3/3
f 2/2/2 4/4/4 5/5/5
f 4/4/4 1/1/1 6/6/6
f 1/1/1 4/4/4 2/2/2
f 2/2/2 7/7/7 3/3/3
f 7/7/7 8/8/8 9/9/9
f 8/8/8 2/2/2 5/5/5
f 2/2/2 8/8/8 7/7/7
f 10/10/10 11/11/11 12/12/12
f 11/11/11 13/13/13 14/14/14
f 15/15/15 8/8/8 5/5/5
f 16/16/16 17/17/17 11/11/11
f 18/18/18 19/19/19 5/5/5
f 20/20/20 21/21/21 14/14/14
f 21/21/21 18/18/18 22/22/22
f 18/18/18 21/21/21 23/23/23
f 4/4/4 18/18/18 5/5/5
f 18/18/18 24/24/24 22/22/22
f 24/24/24 4/4/4 6/6/6
f 4/4/4 24/24/24 18/18/18
f 24/24/24 25/25/25 22/22/22
f 25/25/25 26/26/26 27/27/27
f 26/26/26 24/24/24 6/6/6
f 24/24/24 26/26/26 25/25/25
f 25/25/25 28/28/28 22/22/22
f 28/28/28 29/29/29 30/30/30
f 29/29/29 25/25/25 27/27/27
f 25/25/25 29/29/29 28/28/28
f 21/21/21 31/31/31 14/14/14
f 31/31/31 28/28/28 30/30/30
f 28/28/28 21/21/21 22/22/22
f 21/21/21 28/28/28 31/31/31
f 31/31/31 32/32/32 14/14/14
f 32/32/32 33/33/33 34/34/34
f 33/33/33 31/31/31 30/30/30
f 31/31/31 33/33/33 32/32/32
f 33/33/33 35/35/35 34/34/34
f 35/35/35 36/36/36 37/37/37
f 36/36/36 33/33/33 30/30/30
f 33/33/33 36/36/36 35/35/35
f 36/36/36 38/38/38 37/37/37
f 38/38/38 29/29/29 27/27/27
f 29/29/29 36/36/36 30/30/30
f 36/36/36 29/29/29 38/38/38
f 38/38/38 39/39/39 37/37/37
f 40/40/40 41/41/41 42/42/42
f 41/41/41 38/38/38 27/27/27
f 38/38/38 41/41/41 43/43/43
f 44/44/44 45/45/45 37/37/37
f 45/45/45 46/46/46 47/47/47
f 48/48/48 49/49/49 42/42/42
f 50/50/50 46/46/46 45/45/45
f 48/48/48 51/51/51 52/52/52
f 51/51/51 53/53/53 3/3/3
f 53/53/53 48/48/48 42/42/42
f 48/48/48 53/53/53 51/51/51
f 53/53/53 1/1/1 3/3/3
f 1/1/1 54/54/54 6/6/6
f 54/54/54 53/53/53 42/42/42
f 53/53/53 54/54/54 1/1/1
f 41/41/41 54/54/54 42/42/42
f 54/54/54 26/26/26 6/6/6
f 26/26/26 41/41/41 27/27/27
f 41/41/41 26/26/26 54/54/54
f 55/55/55 7/7/7 9/9/9
f 7/7/7 51/51/51 3/3/3
f 51/51/51 55/55/55 52/52/52
f 55/55/55 51/51/51 7/7/7
f 56/56/56 57/57/57 12/12/12
f 57/57/57 58/58/58 47/47/47
f 58/58/58 56/56/56 34/34/34
f 56/56/56 58/58/58 57/57/57
f 11/11/11 56/56/56 12/12/12
f 56/56/56 32/32/32 34/34/34
f 32/32/32 11/11/11 14/14/14
f 11/11/11 32/32/32 56/56/56
f 45/45/45 35/35/35 37/37/37
f 35/35/35 58/58/58 34/34/34
f 58/58/58 45/45/45 47/47/47
f 45/45/45 58/58/58 35/35/35
