g object
v 0 -2.582733E-05 154.7839
v -55.05026 124.448 144.1235
v -75.23261 -2.38779E-05 121.7289
v 61.70695 139.5788 161.5509
v 0 159.0441 70.27053
v 101.7324 -3.22712E-05 164.6065
v -118.0984 63.01812 72.98882
v -63.5594 143.3555 39.28186
v -84.71391 73.32032 0
v -63.5594 143.3555 39.28186
v -50.66435 114.6735 -31.31229
v -84.71391 73.32032 0
v 0 231.8151 0
v 0 224.6805 -98.94891
v 0 231.8151 0
v -63.5594 143.3555 39.28186
v 0 231.8151 0
v 79.88964 180.6603 49.37451
v 0 231.8151 0
v 0 231.8151 0
v 95.71133 216.5638 -59.15285
v 161.2886 139.5274 0
v 0 231.8151 0
v 162.0504 86.40326 100.1527
v 127.8784 -2.131756E-05 0
v 115.5009 -61.75244 71.38351
v 118.6074 -102.5639 0
v 155.3506 83.05799 -96.01197
v 83.88877 -44.85103 -51.84611
v 101.0357 -3.203924E-05 -163.4792
v 60.89884 137.5059 -159.4353
v -52.06044 117.8403 -136.296
v 0 -3.260468E-05 -195.4852
v -97.09064 -3.074137E-05 -157.0959
v -52.19579 -117.8081 -136.6503
v 60.15854 -135.9642 -157.4971
v 0 -225.4176 -99.76581
v 91.97821 -208.3129 -56.84566
v 0 -157.0479 0
v 0 -157.0479 0
v 78.32364 -177.091 48.40667
v 0 -160.0694 70.78168
v 0 -157.0479 0
v 0 -157.0479 0
v -74.21048 -167.6584 -45.8646
v -57.48632 -129.6683 35.52849
v -126.2753 -109.0149 0
v -57.48632 -129.6683 35.52849
v 0 -157.0479 0
v 0 -157.0479 0
v -140.3096 -75.01637 86.71612
v -126.2753 -109.0149 0
v -43.21549 -97.87479 113.1396
v 40.34345 -91.5457 105.6205
v -172.2046 -2.865733E-05 0
v -122.121 65.21035 -75.4749
v -172.2046 -2.865733E-05 0
v -158.2475 -84.71719 -97.8023

vn -0.3857841 -0.2513346 0.8876945
vn -0.3528177 0.8169404 0.4562104
vn -0.3398315 -0.1573507 0.9272299
vn 0.2537363 0.4993985 0.8283834
vn -0.5312943 0.6595041 0.5317712
vn 0.5708051 -0.2698453 0.7754773
vn -0.9036339 0.426408 0.04027577
vn -0.753112 0.6349401 -0.1722599
vn -0.8207652 0.5569296 -0.1271762
vn -0.753112 0.6349401 -0.1722599
vn -0.8963827 0.4090592 -0.1707883
vn -0.8207652 0.5569296 -0.1271762
vn -0.5886428 0.732733 0.3414703
vn -0.5647416 0.7133824 -0.4149127
vn -0.5886428 0.732733 0.3414703
vn -0.753112 0.6349401 -0.1722599
vn -0.5886428 0.732733 0.3414703
vn 0.633404 0.7624717 0.1320464
vn -0.5886428 0.732733 0.3414703
vn -0.5886428 0.732733 0.3414703
vn 0.6837335 0.7291115 0.0300823
vn 0.782761 0.6087747 0.1291452
vn -0.5886428 0.732733 0.3414703
vn 0.8643903 0.1919281 0.4647507
vn 0.7523953 -0.5444058 -0.3708419
vn 0.7978432 -0.412997 0.4391808
vn 0.9479312 0.03936093 -0.3160336
vn 0.9069285 -0.08195378 -0.4132364
vn 0.981672 -0.08986875 -0.1680582
vn 0.7984272 -0.1640342 -0.5793158
vn 0.3738036 0.5686821 -0.7327152
vn -0.7512815 0.4542981 -0.4787372
vn -0.2701433 0.1381939 -0.952851
vn -0.3558226 0.2472879 -0.901243
vn -0.4064799 -0.1613948 -0.8992919
vn 0.585685 -0.3585459 -0.7269236
vn -0.2498498 -0.9542643 -0.1641791
vn 0.8259306 -0.4737434 -0.3056237
vn -0.5637387 -0.742751 0.361275
vn -0.5637387 -0.742751 0.361275
vn 0.3073918 -0.5109563 0.8027664
vn -0.2518463 -0.7267863 0.6390267
vn -0.5637387 -0.742751 0.361275
vn -0.5637387 -0.742751 0.361275
vn -0.4777747 -0.7895094 0.3852352
vn -0.4696234 -0.8365366 0.2822417
vn -0.5390797 -0.7673985 0.3471202
vn -0.4696234 -0.8365366 0.2822417
vn -0.5637387 -0.742751 0.361275
vn -0.5637387 -0.742751 0.361275
vn -0.4877962 -0.6511949 0.5813777
vn -0.5390797 -0.7673985 0.3471202
vn -0.2732904 -0.5455322 0.7922796
vn 0.1859928 -0.6500847 0.7367473
vn -0.8695019 0.4896457 0.06491147
vn -0.5665515 0.8101899 0.1503718
vn -0.8695019 0.4896457 0.06491147
vn -0.729533 -0.3092608 -0.6100323

vt 0.75 0.5
vt 0.8080699 0.3333333
vt 0.8381041 0.5
vt 0.6919301 0.3333333
vt 0.75 0.1762082
vt 0.6618959 0.5
vt 0.9118959 0.4
vt 0.9118959 0.2
vt 1 0.3237918
vt -0.08810407 0.2
vt 0.08810409 0.2
vt 0 0.3237918
vt 0.169052 0
vt 0.25 0.1762082
vt 0.830948 0
vt -0.08810407 0.2
vt 1.117587E-08 0
vt 0.5881041 0.2
vt 0.669052 0
vt 0.3309479 0
vt 0.4118959 0.2
vt 0.5 0.3237918
vt 0.5 0
vt 0.5881041 0.4
vt 0.5 0.5
vt 0.5881041 0.6
vt 0.5 0.6762082
vt 0.4118959 0.4
vt 0.4118959 0.6
vt 0.3381041 0.5
vt 0.3080699 0.3333333
vt 0.1919301 0.3333333
vt 0.25 0.5
vt 0.1618959 0.5
vt 0.1919301 0.6666667
vt 0.3080699 0.6666667
vt 0.25 0.8237918
vt 0.4118959 0.8
vt 0.3309479 1
vt 0.669052 1
vt 0.5881041 0.8
vt 0.75 0.8237918
vt 0.5 1
vt 0.169052 1
vt 0.08810409 0.8
vt -0.08810407 0.8
vt 0 0.6762082
vt 0.9118959 0.8
vt 0.830948 1
vt 1.117587E-08 1
vt 0.9118959 0.6
vt 1 0.6762082
vt 0.8080699 0.6666667
vt 0.6919301 0.6666667
vt 1 0.5
vt 0.08810409 0.4
vt 0 0.5
vt 0.08810409 0.6

usemtl ground (Instance)
usemap ground (Instance)
f 1/1/1 2/2/2 3/3/3
f 2/2/2 4/4/4 5/5/5
f 4/4/4 1/1/1 6/6/6
f 1/1/1 4/4/4 2/2/2
f 2/2/2 7/7/7 3/3/3
f 7/7/7 8/8/8 9/9/9
f 8/8/8 2/2/2 5/5/5
f 2/2/2 8/8/8 7/7/7
f 10/10/10 11/11/11 12/12/12
f 11/11/11 13/13/13 14/14/14
f 15/15/15 8/8/8 5/5/5
f 16/16/16 17/17/17 11/11/11
f 18/18/18 19/19/19 5/5/5
f 20/20/20 21/21/21 14/14/14
f 21/21/21 18/18/18 22/22/22
f 18/18/18 21/21/21 23/23/23
f 4/4/4 18/18/18 5/5/5
f 18/18/18 24/24/24 22/22/22
f 24/24/24 4/4/4 6/6/6
f 4/4/4 24/24/24 18/18/18
f 24/24/24 25/25/25 22/22/22
f 25/25/25 26/26/26 27/27/27
f 26/26/26 24/24/24 6/6/6
f 24/24/24 26/26/26 25/25/25
f 25/25/25 28/28/28 22/22/22
f 28/28/28 29/29/29 30/30/30
f 29/29/29 25/25/25 27/27/27
f 25/25/25 29/29/29 28/28/28
f 21/21/21 31/31/31 14/14/14
f 31/31/31 28/28/28 30/30/30
f 28/28/28 21/21/21 22/22/22
f 21/21/21 28/28/28 31/31/31
f 31/31/31 32/32/32 14/14/14
f 32/32/32 33/33/33 34/34/34
f 33/33/33 31/31/31 30/30/30
f 31/31/31 33/33/33 32/32/32
f 33/33/33 35/35/35 34/34/34
f 35/35/35 36/36/36 37/37/37
f 36/36/36 33/33/33 30/30/30
f 33/33/33 36/36/36 35/35/35
f 36/36/36 38/38/38 37/37/37
f 38/38/38 29/29/29 27/27/27
f 29/29/29 36/36/36 30/30/30
f 36/36/36 29/29/29 38/38/38
f 38/38/38 39/39/39 37/37/37
f 40/40/40 41/41/41 42/42/42
f 41/41/41 38/38/38 27/27/27
f 38/38/38 41/41/41 43/43/43
f 44/44/44 45/45/45 37/37/37
f 45/45/45 46/46/46 47/47/47
f 48/48/48 49/49/49 42/42/42
f 50/50/50 46/46/46 45/45/45
f 48/48/48 51/51/51 52/52/52
f 51/51/51 53/53/53 3/3/3
f 53/53/53 48/48/48 42/42/42
f 48/48/48 53/53/53 51/51/51
f 53/53/53 1/1/1 3/3/3
f 1/1/1 54/54/54 6/6/6
f 54/54/54 53/53/53 42/42/42
f 53/53/53 54/54/54 1/1/1
f 41/41/41 54/54/54 42/42/42
f 54/54/54 26/26/26 6/6/6
f 26/26/26 41/41/41 27/27/27
f 41/41/41 26/26/26 54/54/54
f 55/55/55 7/7/7 9/9/9
f 7/7/7 51/51/51 3/3/3
f 51/51/51 55/55/55 52/52/52
f 55/55/55 51/51/51 7/7/7
f 56/56/56 57/57/57 12/12/12
f 57/57/57 58/58/58 47/47/47
f 58/58/58 56/56/56 34/34/34
f 56/56/56 58/58/58 57/57/57
f 11/11/11 56/56/56 12/12/12
f 56/56/56 32/32/32 34/34/34
f 32/32/32 11/11/11 14/14/14
f 11/11/11 32/32/32 56/56/56
f 45/45/45 35/35/35 37/37/37
f 35/35/35 58/58/58 34/34/34
f 58/58/58 45/45/45 47/47/47
f 45/45/45 58/58/58 35/35/35
