g object
v 80.11674 -2.764349E-05 129.6316
v 0 163.1569 66.60453
v -77.08057 -2.647902E-05 124.719
v -101.7969 95.00106 0
v 0 185.9427 -75.65017
v 89.58138 83.87655 0
v 100.5784 -94.67104 0
v 75.01747 -2.568337E-05 -121.3808
v -66.24626 -2.265947E-05 -107.1887
v 0 -147.9728 -60.59452
v 0 -189.4234 77.30318
v -89.5608 -83.91571 0

vn 0.4812386 0.2413404 0.8427125
vn -0.3194438 0.7149475 0.6219371
vn -0.4456369 0.07577566 0.892001
vn -0.8014145 0.5879562 -0.1097375
vn -0.1425868 0.9875047 -0.06710822
vn 0.9421199 0.3348484 0.01692895
vn 0.7896146 -0.5133163 -0.3361774
vn 0.411148 -0.2368632 -0.8802574
vn -0.222024 -0.05218958 -0.9736435
vn -0.1436566 -0.8634079 -0.4836213
vn -0.4128645 -0.899125 -0.1453172
vn -0.8671966 -0.4825428 -0.1229734

vt 0.6618959 0.5
vt 0.75 0.1762082
vt 0.8381041 0.5
vt 1 0.3237918
vt 0.25 0.1762082
vt 0.5 0.3237918
vt 0.5 0.6762082
vt 0.3381041 0.5
vt 0.1618959 0.5
vt 0.25 0.8237918
vt 0.75 0.8237918
vt 1 0.6762082

usemtl ground (Instance)
usemap ground (Instance)
f 1/1/1 2/2/2 3/3/3
f 2/2/2 4/4/4 3/3/3
f 2/2/2 5/5/5 4/4/4
f 6/6/6 5/5/5 2/2/2
f 1/1/1 6/6/6 2/2/2
f 1/1/1 7/7/7 6/6/6
f 7/7/7 8/8/8 6/6/6
f 6/6/6 8/8/8 5/5/5
f 8/8/8 9/9/9 5/5/5
f 8/8/8 10/10/10 9/9/9
f 8/8/8 7/7/7 10/10/10
f 7/7/7 11/11/11 10/10/10
f 11/11/11 12/12/12 10/10/10
f 11/11/11 3/3/3 12/12/12
f 11/11/11 1/1/1 3/3/3
f 7/7/7 1/1/1 11/11/11
f 12/12/12 3/3/3 4/4/4
f 9/9/9 12/12/12 4/4/4
f 5/5/5 9/9/9 4/4/4
f 12/12/12 9/9/9 10/10/10
