g object
v 0 -2.905817E-05 160.8969
v -35.94243 87.77857 94.09852
v -77.08057 -2.647902E-05 124.719
v 40.44429 98.9249 105.8845
v 0 163.1569 66.60453
v 80.11674 -2.764349E-05 129.6316
v -132.7139 76.95567 82.02167
v -57.22754 139.835 35.36856
v -101.7969 95.00106 0
v -57.22754 139.835 35.36856
v -58.63284 142.8643 -36.23709
v -101.7969 95.00106 0
v 0 153.6331 0
v 0 185.9427 -75.65017
v 0 153.6331 0
v -57.22754 139.835 35.36856
v 0 153.6331 0
v 60.80316 148.7053 37.57841
v 0 153.6331 0
v 0 153.6331 0
v 65.34509 159.5494 -40.38548
v 89.58138 83.87655 0
v 0 153.6331 0
v 104.6487 60.45288 64.67645
v 139.3091 -2.527831E-05 0
v 129.6772 -75.04108 80.14491
v 100.5784 -94.67104 0
v 98.09178 56.76333 -60.62405
v 101.4384 -58.69997 -62.69238
v 75.01747 -2.568337E-05 -121.3808
v 51.90017 126.8795 -135.8764
v -49.27671 120.4615 -129.0081
v 0 -2.019585E-05 -112.1868
v -66.24626 -2.265947E-05 -107.1887
v -41.41491 -101.0795 -108.4257
v 38.96791 -95.09109 -102.0193
v 0 -147.9728 -60.59452
v 65.18977 -159.8003 -40.28949
v 0 -135.3695 0
v 0 -135.3695 0
v 79.01321 -193.1176 48.83284
v 0 -189.4234 77.30318
v 0 -135.3695 0
v 0 -135.3695 0
v -45.45204 -110.8313 -28.0909
v -50.31557 -122.9072 31.09673
v -89.5608 -83.91571 0
v -50.31557 -122.9072 31.09673
v 0 -135.3695 0
v 0 -135.3695 0
v -124.0205 -71.7677 76.6489
v -89.5608 -83.91571 0
v -56.78534 -139.1985 148.666
v 57.08103 -139.7328 149.4401
v -158.5424 -2.874567E-05 0
v -115.4068 67.04136 -71.32531
v -158.5424 -2.874567E-05 0
v -102.3085 -59.04929 -63.23016

vn 0.1923351 0.3850154 0.9026462
vn -0.2483575 0.5915923 0.7670314
vn -0.4456369 0.07577566 0.892001
vn 0.2305387 0.4217276 0.8769252
vn -0.3194438 0.7149475 0.6219371
vn 0.4812386 0.2413404 0.8427125
vn -0.5711779 0.655795 0.4936483
vn -0.4455612 0.87993 0.1649192
vn -0.8014145 0.5879562 -0.1097375
vn -0.4455612 0.87993 0.1649192
vn -0.5382926 0.8416851 0.04251093
vn -0.8014145 0.5879562 -0.1097375
vn -0.4917528 0.8706233 0.01393779
vn -0.1425868 0.9875047 -0.06710822
vn -0.4917528 0.8706233 0.01393779
vn -0.4455612 0.87993 0.1649192
vn -0.4917528 0.8706233 0.01393779
vn 0.8321005 0.4598792 0.3100322
vn -0.4917528 0.8706233 0.01393779
vn -0.4917528 0.8706233 0.01393779
vn 0.7912493 0.5717096 -0.216962
vn 0.9421199 0.3348484 0.01692895
vn -0.4917528 0.8706233 0.01393779
vn 0.7835138 0.6123992 0.1052293
vn 0.8929456 0.4015496 -0.203485
vn 0.8415079 -0.4301793 0.3268185
vn 0.7896146 -0.5133163 -0.3361774
vn 0.9283606 0.3598244 -0.09312957
vn 0.8192231 -0.2829408 -0.4988166
vn 0.411148 -0.2368632 -0.8802574
vn 0.4072486 0.2701282 -0.8724558
vn -0.3946406 0.0625129 -0.9167066
vn -0.08101608 -0.06900867 -0.994321
vn -0.222024 -0.05218958 -0.9736435
vn -0.1994133 -0.2882124 -0.9365724
vn 0.1735385 -0.418709 -0.891385
vn -0.1436566 -0.8634079 -0.4836213
vn 0.3617575 -0.6750737 -0.6429673
vn -0.7969297 -0.5840499 -0.1542359
vn -0.7969297 -0.5840499 -0.1542359
vn 0.349427 -0.9354128 -0.05388527
vn -0.4128645 -0.899125 -0.1453172
vn -0.7969297 -0.5840499 -0.1542359
vn -0.7969297 -0.5840499 -0.1542359
vn -0.3040089 -0.8749468 0.3768907
vn -0.2651886 -0.7755162 -0.5729307
vn -0.8671966 -0.4825428 -0.1229734
vn -0.2651886 -0.7755162 -0.5729307
vn -0.7969297 -0.5840499 -0.1542359
vn -0.7969297 -0.5840499 -0.1542359
vn -0.8697478 -0.4859014 -0.08624741
vn -0.8671966 -0.4825428 -0.1229734
vn -0.3861313 -0.4620542 0.7983787
vn 0.4202248 -0.3488948 0.8376655
vn -0.9481279 -0.2797684 -0.1509406
vn -0.7590185 0.5686355 -0.3170876
vn -0.9481279 -0.2797684 -0.1509406
vn -0.7844512 -0.5806978 -0.2177762

vt 0.75 0.5
vt 0.8080699 0.3333333
vt 0.8381041 0.5
vt 0.6919301 0.3333333
vt 0.75 0.1762082
vt 0.6618959 0.5
vt 0.9118959 0.4
vt 0.9118959 0.2
vt 1 0.3237918
vt -0.08810407 0.2
vt 0.08810409 0.2
vt 0 0.3237918
vt 0.169052 0
vt 0.25 0.1762082
vt 0.830948 0
vt -0.08810407 0.2
vt 1.117587E-08 0
vt 0.5881041 0.2
vt 0.669052 0
vt 0.3309479 0
vt 0.4118959 0.2
vt 0.5 0.3237918
vt 0.5 0
vt 0.5881041 0.4
vt 0.5 0.5
vt 0.5881041 0.6
vt 0.5 0.6762082
vt 0.4118959 0.4
vt 0.4118959 0.6
vt 0.3381041 0.5
vt 0.3080699 0.3333333
vt 0.1919301 0.3333333
vt 0.25 0.5
vt 0.1618959 0.5
vt 0.1919301 0.6666667
vt 0.3080699 0.6666667
vt 0.25 0.8237918
vt 0.4118959 0.8
vt 0.3309479 1
vt 0.669052 1
vt 0.5881041 0.8
vt 0.75 0.8237918
vt 0.5 1
vt 0.169052 1
vt 0.08810409 0.8
vt -0.08810407 0.8
vt 0 0.6762082
vt 0.9118959 0.8
vt 0.830948 1
vt 1.117587E-08 1
vt 0.9118959 0.6
vt 1 0.6762082
vt 0.8080699 0.6666667
vt 0.6919301 0.6666667
vt 1 0.5
vt 0.08810409 0.4
vt 0 0.5
vt 0.08810409 0.6

usemtl ground (Instance)
usemap ground (Instance)
f 1/1/1 2/2/2 3/3/3
f 2/2/2 4/4/4 5/5/5
f 4/4/4 1/1/1 6/6/6
f 1/1/1 4/4/4 2/2/2
f 2/2/2 7/7/7 3/3/3
f 7/7/7 8/8/8 9/9/9
f 8/8/8 2/2/2 5/5/5
f 2/2/2 8/8/8 7/7/7
f 10/10/10 11/11/11 12/12/12
f 11/11/11 13/13/13 14/14/14
f 15/15/15 8/8/8 5/5/5
f 16/16/16 17/17/17 11/11/11
f 18/18/18 19/19/19 5/5/5
f 20/20/20 21/21/21 14/14/14
f 21/21/21 18/18/18 22/22/22
f 18/18/18 21/21/21 23/23/23
f 4/4/4 18/18/18 5/5/5
f 18/18/18 24/24/24 22/22/22
f 24/24/24 4/4/4 6/6/6
f 4/4/4 24/24/24 18/18/18
f 24/24/24 25/25/25 22/22/22
f 25/25/25 26/26/26 27/27/27
f 26/26/26 24/24/24 6/6/6
f 24/24/24 26/26/26 25/25/25
f 25/25/25 28/28/28 22/22/22
f 28/28/28 29/29/29 30/30/30
f 29/29/29 25/25/25 27/27/27
f 25/25/25 29/29/29 28/28/28
f 21/21/21 31/31/31 14/14/14
f 31/31/31 28/28/28 30/30/30
f 28/28/28 21/21/21 22/22/22
f 21/21/21 28/28/28 31/31/31
f 31/31/31 32/32/32 14/14/14
f 32/32/32 33/33/33 34/34/34
f 33/33/33 31/31/31 30/30/30
f 31/31/31 33/33/33 32/32/32
f 33/33/33 35/35/35 34/34/34
f 35/35/35 36/36/36 37/37/37
f 36/36/36 33/33/33 30/30/30
f 33/33/33 36/36/36 35/35/35
f 36/36/36 38/38/38 37/37/37
f 38/38/38 29/29/29 27/27/27
f 29/29/29 36/36/36 30/30/30
f 36/36/36 29/29/29 38/38/38
f 38/38/38 39/39/39 37/37/37
f 40/40/40 41/41/41 42/42/42
f 41/41/41 38/38/38 27/27/27
f 38/38/38 41/41/41 43/43/43
f 44/44/44 45/45/45 37/37/37
f 45/45/45 46/46/46 47/47/47
f 48/48/48 49/49/49 42/42/42
f 50/50/50 46/46/46 45/45/45
f 48/48/48 51/51/51 52/52/52
f 51/51/51 53/53/53 3/3/3
f 53/53/53 48/48/48 42/42/42
f 48/48/48 53/53/53 51/51/51
f 53/53/53 1/1/1 3/3/3
f 1/1/1 54/54/54 6/6/6
f 54/54/54 53/53/53 42/42/42
f 53/53/53 54/54/54 1/1/1
f 41/41/41 54/54/54 42/42/42
f 54/54/54 26/26/26 6/6/6
f 26/26/26 41/41/41 27/27/27
f 41/41/41 26/26/26 54/54/54
f 55/55/55 7/7/7 9/9/9
f 7/7/7 51/51/51 3/3/3
f 51/51/51 55/55/55 52/52/52
f 55/55/55 51/51/51 7/7/7
f 56/56/56 57/57/57 12/12/12
f 57/57/57 58/58/58 47/47/47
f 58/58/58 56/56/56 34/34/34
f 56/56/56 58/58/58 57/57/57
f 11/11/11 56/56/56 12/12/12
f 56/56/56 32/32/32 34/34/34
f 32/32/32 11/11/11 14/14/14
f 11/11/11 32/32/32 56/56/56
f 45/45/45 35/35/35 37/37/37
f 35/35/35 58/58/58 34/34/34
f 58/58/58 45/45/45 47/47/47
f 45/45/45 58/58/58 35/35/35
