g object
v 96.97243 -2.941968E-05 156.9047
v 0 130.7453 60.61008
v -79.01011 -2.395347E-05 127.841
v -126.1805 103.9068 0
v 0 204.6162 -94.79063
v 121.7504 100.6056 0
v 110.0974 -90.76436 0
v 91.72507 -2.784365E-05 -148.4143
v -76.80617 -2.324942E-05 -124.275
v 0 -201.987 -93.53685
v 0 -110.3286 50.90504
v -148.7667 -123.0009 0

vn 0.5745907 -0.08927293 0.8135574
vn 0.03739225 0.8857458 0.462662
vn -0.4380643 0.1377055 0.8883338
vn -0.5591301 0.8252138 0.07997262
vn 0.005140348 0.8397566 -0.5429387
vn 0.9687697 0.01876004 -0.2472513
vn 0.7514066 -0.6596516 0.01574112
vn 0.4809213 0.2274422 -0.8467495
vn -0.6503233 -0.3436272 -0.6774954
vn -0.3354129 -0.7349553 -0.5893546
vn -0.2575414 -0.9308556 0.2591917
vn -0.8537894 -0.4653671 -0.2334031

vt 0.6618959 0.5
vt 0.75 0.1762082
vt 0.8381041 0.5
vt 1 0.3237918
vt 0.25 0.1762082
vt 0.5 0.3237918
vt 0.5 0.6762082
vt 0.3381041 0.5
vt 0.1618959 0.5
vt 0.25 0.8237918
vt 0.75 0.8237918
vt 1 0.6762082

usemtl ground (Instance)
usemap ground (Instance)
f 1/1/1 2/2/2 3/3/3
f 2/2/2 4/4/4 3/3/3
f 2/2/2 5/5/5 4/4/4
f 6/6/6 5/5/5 2/2/2
f 1/1/1 6/6/6 2/2/2
f 1/1/1 7/7/7 6/6/6
f 7/7/7 8/8/8 6/6/6
f 6/6/6 8/8/8 5/5/5
f 8/8/8 9/9/9 5/5/5
f 8/8/8 10/10/10 9/9/9
f 8/8/8 7/7/7 10/10/10
f 7/7/7 11/11/11 10/10/10
f 11/11/11 12/12/12 10/10/10
f 11/11/11 3/3/3 12/12/12
f 11/11/11 1/1/1 3/3/3
f 7/7/7 1/1/1 11/11/11
f 12/12/12 3/3/3 4/4/4
f 9/9/9 12/12/12 4/4/4
f 5/5/5 9/9/9 4/4/4
f 12/12/12 9/9/9 10/10/10
