g object
v 0 -2.593871E-05 162.7417
v -54.14476 116.8199 141.7528
v -79.01011 -2.395347E-05 127.841
v 52.51414 113.4877 137.4838
v 0 130.7453 60.61008
v 96.97243 -2.941968E-05 156.9047
v -133.6247 68.11036 82.58463
v -65.54585 141.4477 40.50956
v -126.1805 103.9068 0
v -65.54585 141.4477 40.50956
v -68.97511 148.704 -42.62896
v -126.1805 103.9068 0
v 0 172.5003 0
v 0 204.6162 -94.79063
v 0 172.5003 0
v -65.54585 141.4477 40.50956
v 0 172.5003 0
v 68.36906 147.5069 42.25439
v 0 172.5003 0
v 0 172.5003 0
v 90.94049 196.201 -56.20431
v 121.7504 100.6056 0
v 0 172.5003 0
v 147.3283 75.11226 91.05393
v 150.4284 -2.393386E-05 0
v 125.0615 -63.86867 77.29224
v 110.0974 -90.76436 0
v 110.9743 56.67437 -68.58591
v 121.3777 -61.9874 -75.01557
v 91.72507 -2.784365E-05 -148.4143
v 42.37844 91.53028 -110.9482
v -53.23832 115.0814 -139.3797
v 0 -2.813899E-05 -176.4582
v -76.80617 -2.324942E-05 -124.275
v -34.58973 -74.50504 -90.55708
v 55.78535 -120.9919 -146.0479
v 0 -201.987 -93.53685
v 71.91307 -155.5732 -44.44472
v 0 -176.6239 0
v 0 -176.6239 0
v 61.14336 -131.7369 37.78867
v 0 -110.3286 50.90504
v 0 -176.6239 0
v 0 -176.6239 0
v -77.91145 -168.2498 -48.15192
v -64.47649 -139.0734 39.84866
v -148.7667 -123.0009 0
v -64.47649 -139.0734 39.84866
v 0 -176.6239 0
v 0 -176.6239 0
v -135.9198 -69.41401 84.00306
v -148.7667 -123.0009 0
v -42.27954 -91.46553 110.6893
v 40.11763 -86.49786 105.0293
v -180.4448 -2.870271E-05 0
v -145.9626 74.40688 -90.20985
v -180.4448 -2.870271E-05 0
v -101.913 -51.98067 -62.98571

vn -0.3361492 0.0637801 0.9396467
vn -0.1768809 0.6531091 0.7363163
vn -0.4380643 0.1377055 0.8883338
vn 0.1458866 0.8369436 0.5274869
vn 0.03739225 0.8857458 0.462662
vn 0.5745907 -0.08927293 0.8135574
vn -0.7461406 0.5259601 0.4082158
vn -0.3965288 0.904697 0.1558471
vn -0.5591301 0.8252138 0.07997262
vn -0.3965288 0.904697 0.1558471
vn -0.6998584 0.6962857 0.1593252
vn -0.5591301 0.8252138 0.07997262
vn -0.007074778 0.8627756 0.5055376
vn 0.005140348 0.8397566 -0.5429387
vn -0.007074778 0.8627756 0.5055376
vn -0.3965288 0.904697 0.1558471
vn -0.007074778 0.8627756 0.5055376
vn -0.05074795 0.8777219 0.4764755
vn -0.007074778 0.8627756 0.5055376
vn -0.007074778 0.8627756 0.5055376
vn 0.5261319 0.8005396 -0.2869174
vn 0.9687697 0.01876004 -0.2472513
vn -0.007074778 0.8627756 0.5055376
vn 0.8948448 0.2938319 0.3360291
vn 0.8548155 0.4254495 -0.297125
vn 0.8936468 -0.3467834 0.2848449
vn 0.7514066 -0.6596516 0.01574112
vn 0.9627499 0.2357543 -0.1324113
vn 0.8626313 -0.4706995 -0.1852276
vn 0.4809213 0.2274422 -0.8467495
vn 0.2997516 0.2853943 -0.910329
vn 0.02766727 0.3761419 -0.9261489
vn 0.04434911 0.1912628 -0.9805364
vn -0.6503233 -0.3436272 -0.6774954
vn -0.6233751 -0.3108141 -0.7174942
vn 0.2521472 -0.4514365 -0.8559363
vn -0.3354129 -0.7349553 -0.5893546
vn 0.8029891 -0.5532202 0.2217116
vn -0.2031152 -0.654353 0.7283999
vn -0.2031152 -0.654353 0.7283999
vn 0.4829644 -0.6610515 0.5742441
vn -0.2575414 -0.9308556 0.2591917
vn -0.2031152 -0.654353 0.7283999
vn -0.2031152 -0.654353 0.7283999
vn -0.4624097 -0.7550019 -0.4649186
vn 0.04401469 -0.8485767 0.5272384
vn -0.8537894 -0.4653671 -0.2334031
vn 0.04401469 -0.8485767 0.5272384
vn -0.2031152 -0.654353 0.7283999
vn -0.2031152 -0.654353 0.7283999
vn -0.7045217 -0.2204065 0.674589
vn -0.8537894 -0.4653671 -0.2334031
vn 0.1658505 -0.8498456 0.5002559
vn -0.08580563 -0.8855496 0.4565516
vn -0.9628114 -0.1083672 -0.2474889
vn -0.8313519 0.1273426 -0.5409601
vn -0.9628114 -0.1083672 -0.2474889
vn -0.6337607 -0.2808201 -0.7207548

vt 0.75 0.5
vt 0.8080699 0.3333333
vt 0.8381041 0.5
vt 0.6919301 0.3333333
vt 0.75 0.1762082
vt 0.6618959 0.5
vt 0.9118959 0.4
vt 0.9118959 0.2
vt 1 0.3237918
vt -0.08810407 0.2
vt 0.08810409 0.2
vt 0 0.3237918
vt 0.169052 0
vt 0.25 0.1762082
vt 0.830948 0
vt -0.08810407 0.2
vt 1.117587E-08 0
vt 0.5881041 0.2
vt 0.669052 0
vt 0.3309479 0
vt 0.4118959 0.2
vt 0.5 0.3237918
vt 0.5 0
vt 0.5881041 0.4
vt 0.5 0.5
vt 0.5881041 0.6
vt 0.5 0.6762082
vt 0.4118959 0.4
vt 0.4118959 0.6
vt 0.3381041 0.5
vt 0.3080699 0.3333333
vt 0.1919301 0.3333333
vt 0.25 0.5
vt 0.1618959 0.5
vt 0.1919301 0.6666667
vt 0.3080699 0.6666667
vt 0.25 0.8237918
vt 0.4118959 0.8
vt 0.3309479 1
vt 0.669052 1
vt 0.5881041 0.8
vt 0.75 0.8237918
vt 0.5 1
vt 0.169052 1
vt 0.08810409 0.8
vt -0.08810407 0.8
vt 0 0.6762082
vt 0.9118959 0.8
vt 0.830948 1
vt 1.117587E-08 1
vt 0.9118959 0.6
vt 1 0.6762082
vt 0.8080699 0.6666667
vt 0.6919301 0.6666667
vt 1 0.5
vt 0.08810409 0.4
vt 0 0.5
vt 0.08810409 0.6

usemtl ground (Instance)
usemap ground (Instance)
f 1/1/1 2/2/2 3/3/3
f 2/2/2 4/4/4 5/5/5
f 4/4/4 1/1/1 6/6/6
f 1/1/1 4/4/4 2/2/2
f 2/2/2 7/7/7 3/3/3
f 7/7/7 8/8/8 9/9/9
f 8/8/8 2/2/2 5/5/5
f 2/2/2 8/8/8 7/7/7
f 10/10/10 11/11/11 12/12/12
f 11/11/11 13/13/13 14/14/14
f 15/15/15 8/8/8 5/5/5
f 16/16/16 17/17/17 11/11/11
f 18/18/18 19/19/19 5/5/5
f 20/20/20 21/21/21 14/14/14
f 21/21/21 18/18/18 22/22/22
f 18/18/18 21/21/21 23/23/23
f 4/4/4 18/18/18 5/5/5
f 18/18/18 24/24/24 22/22/22
f 24/24/24 4/4/4 6/6/6
f 4/4/4 24/24/24 18/18/18
f 24/24/24 25/25/25 22/22/22
f 25/25/25 26/26/26 27/27/27
f 26/26/26 24/24/24 6/6/6
f 24/24/24 26/26/26 25/25/25
f 25/25/25 28/28/28 22/22/22
f 28/28/28 29/29/29 30/30/30
f 29/29/29 25/25/25 27/27/27
f 25/25/25 29/29/29 28/28/28
f 21/21/21 31/31/31 14/14/14
f 31/31/31 28/28/28 30/30/30
f 28/28/28 21/21/21 22/22/22
f 21/21/21 28/28/28 31/31/31
f 31/31/31 32/32/32 14/14/14
f 32/32/32 33/33/33 34/34/34
f 33/33/33 31/31/31 30/30/30
f 31/31/31 33/33/33 32/32/32
f 33/33/33 35/35/35 34/34/34
f 35/35/35 36/36/36 37/37/37
f 36/36/36 33/33/33 30/30/30
f 33/33/33 36/36/36 35/35/35
f 36/36/36 38/38/38 37/37/37
f 38/38/38 29/29/29 27/27/27
f 29/29/29 36/36/36 30/30/30
f 36/36/36 29/29/29 38/38/38
f 38/38/38 39/39/39 37/37/37
f 40/40/40 41/41/41 42/42/42
f 41/41/41 38/38/38 27/27/27
f 38/38/38 41/41/41 43/43/43
f 44/44/44 45/45/45 37/37/37
f 45/45/45 46/46/46 47/47/47
f 48/48/48 49/49/49 42/42/42
f 50/50/50 46/46/46 45/45/45
f 48/48/48 51/51/51 52/52/52
f 51/51/51 53/53/53 3/3/3
f 53/53/53 48/48/48 42/42/42
f 48/48/48 53/53/53 51/51/51
f 53/53/53 1/1/1 3/3/3
f 1/1/1 54/54/54 6/6/6
f 54/54/54 53/53/53 42/42/42
f 53/53/53 54/54/54 1/1/1
f 41/41/41 54/54/54 42/42/42
f 54/54/54 26/26/26 6/6/6
f 26/26/26 41/41/41 27/27/27
f 41/41/41 26/26/26 54/54/54
f 55/55/55 7/7/7 9/9/9
f 7/7/7 51/51/51 3/3/3
f 51/51/51 55/55/55 52/52/52
f 55/55/55 51/51/51 7/7/7
f 56/56/56 57/57/57 12/12/12
f 57/57/57 58/58/58 47/47/47
f 58/58/58 56/56/56 34/34/34
f 56/56/56 58/58/58 57/57/57
f 11/11/11 56/56/56 12/12/12
f 56/56/56 32/32/32 34/34/34
f 32/32/32 11/11/11 14/14/14
f 11/11/11 32/32/32 56/56/56
f 45/45/45 35/35/35 37/37/37
f 35/35/35 58/58/58 34/34/34
f 58/58/58 45/45/45 47/47/47
f 45/45/45 58/58/58 35/35/35
