g object
v 77.33303 -2.238877E-05 125.1275
v 0 175.5808 85.18958
v -84.90869 -2.453871E-05 137.3852
v -118.9861 93.45197 0
v 0 208.9346 -101.4033
v 110.886 87.34586 0
v 127.4683 -100.476 0
v 88.61509 -2.556533E-05 -143.3822
v -73.19526 -2.114634E-05 -118.4324
v 0 -185.1322 -90.00399
v 0 -211.1134 102.5077
v -161.3884 -126.9537 0

vn 0.544544 -0.02575254 0.8383368
vn 0.07356989 0.5791784 0.8118743
vn -0.7050184 0.0802836 0.70463
vn -0.9293165 0.2208212 0.2959877
vn 0.207973 0.8149776 -0.540887
vn 0.9642192 0.1668816 -0.2059904
vn 0.8597654 -0.4351727 0.2672602
vn 0.5716629 -0.000377862 -0.8204885
vn -0.2557229 0.02304018 -0.9664755
vn -0.178652 -0.8084135 -0.5608485
vn 0.04030248 -0.8228976 0.5667586
vn -0.9391731 -0.3366652 0.06789967

vt 0.6618959 0.5
vt 0.75 0.1762082
vt 0.8381041 0.5
vt 1 0.3237918
vt 0.25 0.1762082
vt 0.5 0.3237918
vt 0.5 0.6762082
vt 0.3381041 0.5
vt 0.1618959 0.5
vt 0.25 0.8237918
vt 0.75 0.8237918
vt 1 0.6762082

usemtl ground (Instance)
usemap ground (Instance)
f 1/1/1 2/2/2 3/3/3
f 2/2/2 4/4/4 3/3/3
f 2/2/2 5/5/5 4/4/4
f 6/6/6 5/5/5 2/2/2
f 1/1/1 6/6/6 2/2/2
f 1/1/1 7/7/7 6/6/6
f 7/7/7 8/8/8 6/6/6
f 6/6/6 8/8/8 5/5/5
f 8/8/8 9/9/9 5/5/5
f 8/8/8 10/10/10 9/9/9
f 8/8/8 7/7/7 10/10/10
f 7/7/7 11/11/11 10/10/10
f 11/11/11 12/12/12 10/10/10
f 11/11/11 3/3/3 12/12/12
f 11/11/11 1/1/1 3/3/3
f 7/7/7 1/1/1 11/11/11
f 12/12/12 3/3/3 4/4/4
f 9/9/9 12/12/12 4/4/4
f 5/5/5 9/9/9 4/4/4
f 12/12/12 9/9/9 10/10/10
