g object
v 110.4991 -3.340007E-05 178.7913
v 0 158.127 73.45717
v -64.03741 -1.937257E-05 103.6147
v -128.3049 105.4726 0
v 0 236.3153 -109.593
v 101.8465 83.97804 0
v 137.6598 -113.3454 0
v 88.56168 -2.671167E-05 -143.2958
v -96.23476 -2.908648E-05 -155.7111
v 0 -154.6107 -71.85144
v 0 -238.8291 110.8036
v -138.7646 -114.1957 0

vn 0.507796 0.01746713 0.8613002
vn 0.2529938 0.681285 0.6869097
vn -0.7584279 0.1013673 0.6438259
vn -0.9662045 0.1470887 0.2116932
vn 0.132038 0.7122428 -0.6894027
vn 0.6960613 0.6994438 0.162102
vn 0.9906765 -0.0001938074 -0.1362345
vn 0.4914129 0.262129 -0.830543
vn -0.1808202 -0.2798337 -0.9428665
vn -0.206141 -0.4565636 -0.8654799
vn 0.06858008 -0.7738371 0.6296609
vn -0.8604862 -0.49625 -0.1153233

vt 0.6618959 0.5
vt 0.75 0.1762082
vt 0.8381041 0.5
vt 1 0.3237918
vt 0.25 0.1762082
vt 0.5 0.3237918
vt 0.5 0.6762082
vt 0.3381041 0.5
vt 0.1618959 0.5
vt 0.25 0.8237918
vt 0.75 0.8237918
vt 1 0.6762082

usemtl ground (Instance)
usemap ground (Instance)
f 1/1/1 2/2/2 3/3/3
f 2/2/2 4/4/4 3/3/3
f 2/2/2 5/5/5 4/4/4
f 6/6/6 5/5/5 2/2/2
f 1/1/1 6/6/6 2/2/2
f 1/1/1 7/7/7 6/6/6
f 7/7/7 8/8/8 6/6/6
f 6/6/6 8/8/8 5/5/5
f 8/8/8 9/9/9 5/5/5
f 8/8/8 10/10/10 9/9/9
f 8/8/8 7/7/7 10/10/10
f 7/7/7 11/11/11 10/10/10
f 11/11/11 12/12/12 10/10/10
f 11/11/11 3/3/3 12/12/12
f 11/11/11 1/1/1 3/3/3
f 7/7/7 1/1/1 11/11/11
f 12/12/12 3/3/3 4/4/4
f 9/9/9 12/12/12 4/4/4
f 5/5/5 9/9/9 4/4/4
f 12/12/12 9/9/9 10/10/10
