g object
v 0 -2.75892E-05 173.469
v -45.80447 98.85166 119.9177
v -64.03741 -1.937257E-05 103.6147
v 56.08789 120.8918 146.84
v 0 158.127 73.45717
v 110.4991 -3.340007E-05 178.7913
v -100.4204 50.96242 62.0632
v -78.75183 169.5146 48.67131
v -128.3049 105.4726 0
v -78.75183 169.5146 48.67131
v -104.0064 224.0146 -64.27947
v -128.3049 105.4726 0
v 0 237.8053 0
v 0 236.3153 -109.593
v 0 237.8053 0
v -78.75183 169.5146 48.67131
v 0 237.8053 0
v 75.87055 163.55 46.89058
v 0 237.8053 0
v 0 237.8053 0
v 86.31355 185.9625 -53.3447
v 101.8465 83.97804 0
v 0 237.8053 0
v 146.9331 74.8122 90.80965
v 133.1828 -2.122099E-05 0
v 145.7744 -74.28708 90.09351
v 137.6598 -113.3454 0
v 122.8367 62.59794 -75.91726
v 125.5119 -63.96125 -77.5706
v 88.56168 -2.671167E-05 -143.2958
v 45.51633 98.10716 -119.1633
v -51.77143 111.4956 -135.5394
v 0 -2.54903E-05 -160.7361
v -96.23476 -2.908648E-05 -155.7111
v -36.1113 -77.89113 -94.54062
v 41.62624 -89.76741 -108.9789
v 0 -154.6107 -71.85144
v 101.0716 -218.1845 -62.46568
v 0 -277.1648 0
v 0 -277.1648 0
v 105.7394 -227.7055 65.35057
v 0 -238.8291 110.8036
v 0 -277.1648 0
v 0 -277.1648 0
v -72.65607 -157.2973 -44.90392
v -87.30882 -188.2258 53.95981
v -138.7646 -114.1957 0
v -87.30882 -188.2258 53.95981
v 0 -277.1648 0
v 0 -277.1648 0
v -114.6405 -58.42115 70.85171
v -138.7646 -114.1957 0
v -59.21965 -127.8382 155.0391
v 49.61646 -106.9747 129.8976
v -147.4972 -2.342622E-05 0
v -150.098 76.41702 -92.76569
v -147.4972 -2.342622E-05 0
v -138.4422 -70.42351 -85.562

vn -0.522403 0.045336 0.8514926
vn -0.7472036 0.1232498 0.6530668
vn -0.7584279 0.1013673 0.6438259
vn 0.2550256 0.8633235 0.4354704
vn 0.2529938 0.681285 0.6869097
vn 0.507796 0.01746713 0.8613002
vn -0.7677584 0.01589577 0.6405422
vn -0.4300569 0.6837016 0.5895789
vn -0.9662045 0.1470887 0.2116932
vn -0.4300569 0.6837016 0.5895789
vn -0.6518826 0.7448108 -0.1424984
vn -0.9662045 0.1470887 0.2116932
vn -0.1806776 0.7973297 0.5758653
vn 0.132038 0.7122428 -0.6894027
vn -0.1806776 0.7973297 0.5758653
vn -0.4300569 0.6837016 0.5895789
vn -0.1806776 0.7973297 0.5758653
vn 0.7133025 0.5498789 0.434549
vn -0.1806776 0.7973297 0.5758653
vn -0.1806776 0.7973297 0.5758653
vn 0.8962801 0.4357693 -0.08238459
vn 0.6960613 0.6994438 0.162102
vn -0.1806776 0.7973297 0.5758653
vn 0.9256899 0.3772455 -0.02800151
vn 0.9829832 -0.1285278 -0.1312428
vn 0.9884533 -0.1478132 0.03333598
vn 0.9906765 -0.0001938074 -0.1362345
vn 0.7881219 0.2608276 -0.5575239
vn 0.9824958 -0.01530327 -0.1856554
vn 0.4914129 0.262129 -0.830543
vn 0.5510861 0.2119782 -0.8070745
vn -0.09277952 0.2916455 -0.9520162
vn -0.09145265 -0.2484471 -0.9643186
vn -0.1808202 -0.2798337 -0.9428665
vn -0.1655278 -0.5296645 -0.8318991
vn -0.211381 -0.449808 -0.8677505
vn -0.206141 -0.4565636 -0.8654799
vn 0.3818014 -0.5847757 -0.7157269
vn -0.06708995 -0.9911332 -0.1146911
vn -0.06708995 -0.9911332 -0.1146911
vn 0.391256 -0.6515587 0.6499153
vn 0.06858008 -0.7738371 0.6296609
vn -0.06708995 -0.9911332 -0.1146911
vn -0.06708995 -0.9911332 -0.1146911
vn -0.4747353 -0.4812548 -0.736899
vn -0.8318276 -0.5525886 0.05204376
vn -0.8604862 -0.49625 -0.1153233
vn -0.8318276 -0.5525886 0.05204376
vn -0.06708995 -0.9911332 -0.1146911
vn -0.06708995 -0.9911332 -0.1146911
vn -0.7766007 0.1768906 0.6046497
vn -0.8604862 -0.49625 -0.1153233
vn -0.549931 -0.01074637 0.8351409
vn 0.3032072 -0.5486966 0.7791004
vn -0.9115014 0.2628433 0.3163519
vn -0.982943 0.1821397 0.02545842
vn -0.9115014 0.2628433 0.3163519
vn -0.4890237 -0.6609136 -0.569253

vt 0.75 0.5
vt 0.8080699 0.3333333
vt 0.8381041 0.5
vt 0.6919301 0.3333333
vt 0.75 0.1762082
vt 0.6618959 0.5
vt 0.9118959 0.4
vt 0.9118959 0.2
vt 1 0.3237918
vt -0.08810407 0.2
vt 0.08810409 0.2
vt 0 0.3237918
vt 0.169052 0
vt 0.25 0.1762082
vt 0.830948 0
vt -0.08810407 0.2
vt 1.117587E-08 0
vt 0.5881041 0.2
vt 0.669052 0
vt 0.3309479 0
vt 0.4118959 0.2
vt 0.5 0.3237918
vt 0.5 0
vt 0.5881041 0.4
vt 0.5 0.5
vt 0.5881041 0.6
vt 0.5 0.6762082
vt 0.4118959 0.4
vt 0.4118959 0.6
vt 0.3381041 0.5
vt 0.3080699 0.3333333
vt 0.1919301 0.3333333
vt 0.25 0.5
vt 0.1618959 0.5
vt 0.1919301 0.6666667
vt 0.3080699 0.6666667
vt 0.25 0.8237918
vt 0.4118959 0.8
vt 0.3309479 1
vt 0.669052 1
vt 0.5881041 0.8
vt 0.75 0.8237918
vt 0.5 1
vt 0.169052 1
vt 0.08810409 0.8
vt -0.08810407 0.8
vt 0 0.6762082
vt 0.9118959 0.8
vt 0.830948 1
vt 1.117587E-08 1
vt 0.9118959 0.6
vt 1 0.6762082
vt 0.8080699 0.6666667
vt 0.6919301 0.6666667
vt 1 0.5
vt 0.08810409 0.4
vt 0 0.5
vt 0.08810409 0.6

usemtl ground (Instance)
usemap ground (Instance)
f 1/1/1 2/2/2 3/3/3
f 2/2/2 4/4/4 5/5/5
f 4/4/4 1/1/1 6/6/6
f 1/1/1 4/4/4 2/2/2
f 2/2/2 7/7/7 3/3/3
f 7/7/7 8/8/8 9/9/9
f 8/8/8 2/2/2 5/5/5
f 2/2/2 8/8/8 7/7/7
f 10/10/10 11/11/11 12/12/12
f 11/11/11 13/13/13 14/14/14
f 15/15/15 8/8/8 5/5/5
f 16/16/16 17/17/17 11/11/11
f 18/18/18 19/19/19 5/5/5
f 20/20/20 21/21/21 14/14/14
f 21/21/21 18/18/18 22/22/22
f 18/18/18 21/21/21 23/23/23
f 4/4/4 18/18/18 5/5/5
f 18/18/18 24/24/24 22/22/22
f 24/24/24 4/4/4 6/6/6
f 4/4/4 24/24/24 18/18/18
f 24/24/24 25/25/25 22/22/22
f 25/25/25 26/26/26 27/27/27
f 26/26/26 24/24/24 6/6/6
f 24/24/24 26/26/26 25/25/25
f 25/25/25 28/28/28 22/22/22
f 28/28/28 29/29/29 30/30/30
f 29/29/29 25/25/25 27/27/27
f 25/25/25 29/29/29 28/28/28
f 21/21/21 31/31/31 14/14/14
f 31/31/31 28/28/28 30/30/30
f 28/28/28 21/21/21 22/22/22
f 21/21/21 28/28/28 31/31/31
f 31/31/31 32/32/32 14/14/14
f 32/32/32 33/33/33 34/34/34
f 33/33/33 31/31/31 30/30/30
f 31/31/31 33/33/33 32/32/32
f 33/33/33 35/35/35 34/34/34
f 35/35/35 36/36/36 37/37/37
f 36/36/36 33/33/33 30/30/30
f 33/33/33 36/36/36 35/35/35
f 36/36/36 38/38/38 37/37/37
f 38/38/38 29/29/29 27/27/27
f 29/29/29 36/36/36 30/30/30
f 36/36/36 29/29/29 38/38/38
f 38/38/38 39/39/39 37/37/37
f 40/40/40 41/41/41 42/42/42
f 41/41/41 38/38/38 27/27/27
f 38/38/38 41/41/41 43/43/43
f 44/44/44 45/45/45 37/37/37
f 45/45/45 46/46/46 47/47/47
f 48/48/48 49/49/49 42/42/42
f 50/50/50 46/46/46 45/45/45
f 48/48/48 51/51/51 52/52/52
f 51/51/51 53/53/53 3/3/3
f 53/53/53 48/48/48 42/42/42
f 48/48/48 53/53/53 51/51/51
f 53/53/53 1/1/1 3/3/3
f 1/1/1 54/54/54 6/6/6
f 54/54/54 53/53/53 42/42/42
f 53/53/53 54/54/54 1/1/1
f 41/41/41 54/54/54 42/42/42
f 54/54/54 26/26/26 6/6/6
f 26/26/26 41/41/41 27/27/27
f 41/41/41 26/26/26 54/54/54
f 55/55/55 7/7/7 9/9/9
f 7/7/7 51/51/51 3/3/3
f 51/51/51 55/55/55 52/52/52
f 55/55/55 51/51/51 7/7/7
f 56/56/56 57/57/57 12/12/12
f 57/57/57 58/58/58 47/47/47
f 58/58/58 56/56/56 34/34/34
f 56/56/56 58/58/58 57/57/57
f 11/11/11 56/56/56 12/12/12
f 56/56/56 32/32/32 34/34/34
f 32/32/32 11/11/11 14/14/14
f 11/11/11 32/32/32 56/56/56
f 45/45/45 35/35/35 37/37/37
f 35/35/35 58/58/58 34/34/34
f 58/58/58 45/45/45 47/47/47
f 45/45/45 58/58/58 35/35/35
