g object
v 108.0517 -3.346358E-05 174.8313
v 0 188.9252 85.68909
v -108.4292 -3.355345E-05 175.4422
v -114.9134 96.96841 0
v 0 192.3783 -87.28748
v 117.7808 99.34159 0
v 144.1995 -121.4039 0
v 63.3433 -1.956461E-05 -102.4916
v -62.17276 -1.932858E-05 -100.5976
v 0 -163.53 -74.14988
v 0 -158.4674 71.87342
v -176.4809 -148.5396 0

vn 0.532021 0.03292277 0.8460909
vn 0.2107885 0.6946529 0.6877685
vn -0.5241711 0.1070843 0.8448536
vn -0.5478721 0.4241002 -0.7210931
vn -0.2697677 0.7531822 -0.5999517
vn 0.6624488 0.7350691 -0.144343
vn 0.681483 -0.7057018 -0.1938194
vn 0.6621004 0.03468246 -0.7486121
vn -0.6310023 0.5891824 -0.5046782
vn 0.08894549 -0.8801015 -0.4663796
vn 0.2036024 -0.7429547 0.6376241
vn -0.831318 -0.5546377 0.03588202

vt 0.6618959 0.5
vt 0.75 0.1762082
vt 0.8381041 0.5
vt 1 0.3237918
vt 0.25 0.1762082
vt 0.5 0.3237918
vt 0.5 0.6762082
vt 0.3381041 0.5
vt 0.1618959 0.5
vt 0.25 0.8237918
vt 0.75 0.8237918
vt 1 0.6762082

usemtl ground (Instance)
usemap ground (Instance)
f 1/1/1 2/2/2 3/3/3
f 2/2/2 4/4/4 3/3/3
f 2/2/2 5/5/5 4/4/4
f 6/6/6 5/5/5 2/2/2
f 1/1/1 6/6/6 2/2/2
f 1/1/1 7/7/7 6/6/6
f 7/7/7 8/8/8 6/6/6
f 6/6/6 8/8/8 5/5/5
f 8/8/8 9/9/9 5/5/5
f 8/8/8 10/10/10 9/9/9
f 8/8/8 7/7/7 10/10/10
f 7/7/7 11/11/11 10/10/10
f 11/11/11 12/12/12 10/10/10
f 11/11/11 3/3/3 12/12/12
f 11/11/11 1/1/1 3/3/3
f 7/7/7 1/1/1 11/11/11
f 12/12/12 3/3/3 4/4/4
f 9/9/9 12/12/12 4/4/4
f 5/5/5 9/9/9 4/4/4
f 12/12/12 9/9/9 10/10/10
