g object
v 106.3877 -3.189976E-05 172.1389
v 0 238.4556 111.5059
v -94.31337 -2.829132E-05 152.6022
v -112.8684 92.16774 0
v 0 238.7106 -111.6689
v 167.6605 137.0809 0
v 103.0879 -84.01712 0
v 70.20861 -2.11087E-05 -113.5999
v -64.22359 -1.923246E-05 -103.9159
v 0 -185.4786 -86.77171
v 0 -147.3332 68.59826
v -136.7071 -111.5079 0

vn 0.3567967 0.260391 0.8971581
vn -0.1200624 0.7833205 0.6099131
vn -0.3341002 -0.1423246 0.93173
vn -0.9671921 0.159482 -0.1977496
vn -0.03910028 0.7521245 -0.6578601
vn 0.9172045 0.2882923 -0.2749972
vn 0.8988348 -0.4329253 -0.06834857
vn 0.336446 0.05301668 -0.9402092
vn -0.4615703 -0.1860837 -0.8673671
vn 0.2566919 -0.8554267 -0.4498381
vn -0.03666323 -0.9350104 0.35272
vn -0.7107423 -0.7008273 0.0607165

vt 0.6618959 0.5
vt 0.75 0.1762082
vt 0.8381041 0.5
vt 1 0.3237918
vt 0.25 0.1762082
vt 0.5 0.3237918
vt 0.5 0.6762082
vt 0.3381041 0.5
vt 0.1618959 0.5
vt 0.25 0.8237918
vt 0.75 0.8237918
vt 1 0.6762082

usemtl ground (Instance)
usemap ground (Instance)
f 1/1/1 2/2/2 3/3/3
f 2/2/2 4/4/4 3/3/3
f 2/2/2 5/5/5 4/4/4
f 6/6/6 5/5/5 2/2/2
f 1/1/1 6/6/6 2/2/2
f 1/1/1 7/7/7 6/6/6
f 7/7/7 8/8/8 6/6/6
f 6/6/6 8/8/8 5/5/5
f 8/8/8 9/9/9 5/5/5
f 8/8/8 10/10/10 9/9/9
f 8/8/8 7/7/7 10/10/10
f 7/7/7 11/11/11 10/10/10
f 11/11/11 12/12/12 10/10/10
f 11/11/11 3/3/3 12/12/12
f 11/11/11 1/1/1 3/3/3
f 7/7/7 1/1/1 11/11/11
f 12/12/12 3/3/3 4/4/4
f 9/9/9 12/12/12 4/4/4
f 5/5/5 9/9/9 4/4/4
f 12/12/12 9/9/9 10/10/10
