g object
v 0 -2.992138E-05 189.7309
v -46.63567 100.0241 122.0938
v -94.31337 -2.829132E-05 152.6022
v 65.39369 139.9202 171.2029
v 0 238.4556 111.5059
v 106.3877 -3.189976E-05 172.1389
v -133.4418 67.38062 82.4716
v -104.0274 222.5854 64.29249
v -112.8684 92.16774 0
v -104.0274 222.5854 64.29249
v -91.96378 196.8916 -56.83674
v -112.8684 92.16774 0
v 0 235.3142 0
v 0 238.7106 -111.6689
v 0 235.3142 0
v -104.0274 222.5854 64.29249
v 0 235.3142 0
v 106.0215 226.7403 65.52491
v 0 235.3142 0
v 0 235.3142 0
v 103.6367 221.7965 -64.05099
v 167.6605 137.0809 0
v 0 235.3142 0
v 164.6041 83.0667 101.7309
v 151.118 -2.377749E-05 0
v 130.85 -66.11993 80.86977
v 103.0879 -84.01712 0
v 148.6542 75.11655 -91.87337
v 118.2135 -59.73458 -73.05999
v 70.20861 -2.11087E-05 -113.5999
v 49.05291 105.1214 -128.4222
v -55.51166 118.7229 -145.3314
v 0 -2.057831E-05 -130.1236
v -64.22359 -1.923246E-05 -103.9159
v -40.85949 -87.2153 -106.9715
v 52.05608 -111.1961 -136.2846
v 0 -185.4786 -86.77171
v 72.36426 -154.8979 -44.72357
v 0 -173.8132 0
v 0 -173.8132 0
v 70.14901 -150.2837 43.35447
v 0 -147.3332 68.59826
v 0 -173.8132 0
v 0 -173.8132 0
v -75.5467 -161.3949 -46.69043
v -63.043 -134.5671 38.96272
v -136.7071 -111.5079 0
v -63.043 -134.5671 38.96272
v 0 -173.8132 0
v 0 -173.8132 0
v -152.3737 -76.99606 94.1721
v -136.7071 -111.5079 0
v -49.47137 -105.895 129.5177
v 59.69053 -127.6008 156.2718
v -125.215 -1.971116E-05 0
v -101.1011 51.05478 -62.48392
v -125.215 -1.971116E-05 0
v -113.8487 -57.45604 -70.36237

vn -0.1784676 -0.1162524 0.9770541
vn -0.5043199 0.1457607 0.8511258
vn -0.3341002 -0.1423246 0.93173
vn 0.1163825 0.3379067 0.9339563
vn -0.1200624 0.7833205 0.6099131
vn 0.3567967 0.260391 0.8971581
vn -0.9727611 0.2277726 -0.04307574
vn -0.7284218 0.5828738 0.360083
vn -0.9671921 0.159482 -0.1977496
vn -0.7284218 0.5828738 0.360083
vn -0.9108083 0.2563649 -0.3235819
vn -0.9671921 0.159482 -0.1977496
vn 0.2032468 0.9716995 0.1203778
vn -0.03910028 0.7521245 -0.6578601
vn 0.2032468 0.9716995 0.1203778
vn -0.7284218 0.5828738 0.360083
vn 0.2032468 0.9716995 0.1203778
vn 0.544743 0.7730942 0.3249313
vn 0.2032468 0.9716995 0.1203778
vn 0.2032468 0.9716995 0.1203778
vn 0.6834598 0.6258808 -0.3757071
vn 0.9172045 0.2882923 -0.2749972
vn 0.2032468 0.9716995 0.1203778
vn 0.9595394 0.02004694 0.2808596
vn 0.9409395 -0.3383061 -0.01348358
vn 0.8964524 -0.4285036 -0.1129509
vn 0.8988348 -0.4329253 -0.06834857
vn 0.6713894 0.2088609 -0.7110649
vn 0.8476848 -0.4864351 -0.211687
vn 0.336446 0.05301668 -0.9402092
vn 0.2567336 -0.234279 -0.9376572
vn -0.5778137 -0.01394165 -0.8160496
vn -0.07845361 -0.0732474 -0.9942232
vn -0.4615703 -0.1860837 -0.8673671
vn -0.4454391 -0.05219022 -0.8937898
vn 0.1053835 -0.04801966 -0.9932716
vn 0.2566919 -0.8554267 -0.4498381
vn 0.8173958 -0.5745118 -0.04242938
vn -0.04475165 -0.9501728 0.3084949
vn -0.04475165 -0.9501728 0.3084949
vn 0.5178195 -0.8375396 0.1743281
vn -0.03666323 -0.9350104 0.35272
vn -0.04475165 -0.9501728 0.3084949
vn -0.04475165 -0.9501728 0.3084949
vn -0.6680726 -0.7429122 0.04196028
vn -0.4543619 -0.8564771 0.2449535
vn -0.7107423 -0.7008273 0.0607165
vn -0.4543619 -0.8564771 0.2449535
vn -0.04475165 -0.9501728 0.3084949
vn -0.04475165 -0.9501728 0.3084949
vn -0.8524342 -0.4268532 0.3019143
vn -0.7107423 -0.7008273 0.0607165
vn -0.4118388 -0.5367643 0.7363919
vn 0.05072555 -0.781264 0.6221362
vn -0.9403327 0.260199 -0.2192505
vn -0.9643155 0.1294663 -0.2309419
vn -0.9403327 0.260199 -0.2192505
vn -0.6520016 -0.05558943 -0.7561769

vt 0.75 0.5
vt 0.8080699 0.3333333
vt 0.8381041 0.5
vt 0.6919301 0.3333333
vt 0.75 0.1762082
vt 0.6618959 0.5
vt 0.9118959 0.4
vt 0.9118959 0.2
vt 1 0.3237918
vt -0.08810407 0.2
vt 0.08810409 0.2
vt 0 0.3237918
vt 0.169052 0
vt 0.25 0.1762082
vt 0.830948 0
vt -0.08810407 0.2
vt 1.117587E-08 0
vt 0.5881041 0.2
vt 0.669052 0
vt 0.3309479 0
vt 0.4118959 0.2
vt 0.5 0.3237918
vt 0.5 0
vt 0.5881041 0.4
vt 0.5 0.5
vt 0.5881041 0.6
vt 0.5 0.6762082
vt 0.4118959 0.4
vt 0.4118959 0.6
vt 0.3381041 0.5
vt 0.3080699 0.3333333
vt 0.1919301 0.3333333
vt 0.25 0.5
vt 0.1618959 0.5
vt 0.1919301 0.6666667
vt 0.3080699 0.6666667
vt 0.25 0.8237918
vt 0.4118959 0.8
vt 0.3309479 1
vt 0.669052 1
vt 0.5881041 0.8
vt 0.75 0.8237918
vt 0.5 1
vt 0.169052 1
vt 0.08810409 0.8
vt -0.08810407 0.8
vt 0 0.6762082
vt 0.9118959 0.8
vt 0.830948 1
vt 1.117587E-08 1
vt 0.9118959 0.6
vt 1 0.6762082
vt 0.8080699 0.6666667
vt 0.6919301 0.6666667
vt 1 0.5
vt 0.08810409 0.4
vt 0 0.5
vt 0.08810409 0.6

usemtl ground (Instance)
usemap ground (Instance)
f 1/1/1 2/2/2 3/3/3
f 2/2/2 4/4/4 5/5/5
f 4/4/4 1/1/1 6/6/6
f 1/1/1 4/4/4 2/2/2
f 2/2/2 7/7/7 3/3/3
f 7/7/7 8/8/8 9/9/9
f 8/8/8 2/2/2 5/5/5
f 2/2/2 8/8/8 7/7/7
f 10/10/10 11/11/11 12/12/12
f 11/11/11 13/13/13 14/14/14
f 15/15/15 8/8/8 5/5/5
f 16/16/16 17/17/17 11/11/11
f 18/18/18 19/19/19 5/5/5
f 20/20/20 21/21/21 14/14/14
f 21/21/21 18/18/18 22/22/22
f 18/18/18 21/21/21 23/23/23
f 4/4/4 18/18/18 5/5/5
f 18/18/18 24/24/24 22/22/22
f 24/24/24 4/4/4 6/6/6
f 4/4/4 24/24/24 18/18/18
f 24/24/24 25/25/25 22/22/22
f 25/25/25 26/26/26 27/27/27
f 26/26/26 24/24/24 6/6/6
f 24/24/24 26/26/26 25/25/25
f 25/25/25 28/28/28 22/22/22
f 28/28/28 29/29/29 30/30/30
f 29/29/29 25/25/25 27/27/27
f 25/25/25 29/29/29 28/28/28
f 21/21/21 31/31/31 14/14/14
f 31/31/31 28/28/28 30/30/30
f 28/28/28 21/21/21 22/22/22
f 21/21/21 28/28/28 31/31/31
f 31/31/31 32/32/32 14/14/14
f 32/32/32 33/33/33 34/34/34
f 33/33/33 31/31/31 30/30/30
f 31/31/31 33/33/33 32/32/32
f 33/33/33 35/35/35 34/34/34
f 35/35/35 36/36/36 37/37/37
f 36/36/36 33/33/33 30/30/30
f 33/33/33 36/36/36 35/35/35
f 36/36/36 38/38/38 37/37/37
f 38/38/38 29/29/29 27/27/27
f 29/29/29 36/36/36 30/30/30
f 36/36/36 29/29/29 38/38/38
f 38/38/38 39/39/39 37/37/37
f 40/40/40 41/41/41 42/42/42
f 41/41/41 38/38/38 27/27/27
f 38/38/38 41/41/41 43/43/43
f 44/44/44 45/45/45 37/37/37
f 45/45/45 46/46/46 47/47/47
f 48/48/48 49/49/49 42/42/42
f 50/50/50 46/46/46 45/45/45
f 48/48/48 51/51/51 52/52/52
f 51/51/51 53/53/53 3/3/3
f 53/53/53 48/48/48 42/42/42
f 48/48/48 53/53/53 51/51/51
f 53/53/53 1/1/1 3/3/3
f 1/1/1 54/54/54 6/6/6
f 54/54/54 53/53/53 42/42/42
f 53/53/53 54/54/54 1/1/1
f 41/41/41 54/54/54 42/42/42
f 54/54/54 26/26/26 6/6/6
f 26/26/26 41/41/41 27/27/27
f 41/41/41 26/26/26 54/54/54
f 55/55/55 7/7/7 9/9/9
f 7/7/7 51/51/51 3/3/3
f 51/51/51 55/55/55 52/52/52
f 55/55/55 51/51/51 7/7/7
f 56/56/56 57/57/57 12/12/12
f 57/57/57 58/58/58 47/47/47
f 58/58/58 56/56/56 34/34/34
f 56/56/56 58/58/58 57/57/57
f 11/11/11 56/56/56 12/12/12
f 56/56/56 32/32/32 34/34/34
f 32/32/32 11/11/11 14/14/14
f 11/11/11 32/32/32 56/56/56
f 45/45/45 35/35/35 37/37/37
f 35/35/35 58/58/58 34/34/34
f 58/58/58 45/45/45 47/47/47
f 45/45/45 58/58/58 35/35/35
