g object
v 102.9716 -3.105305E-05 166.6116
v 0 237.2799 110.6383
v -75.60857 -2.277136E-05 122.3372
v -122.6305 100.5477 0
v 0 157.7258 -73.49696
v 179.0033 146.9417 0
v 87.36913 -71.85205 0
v 108.2794 -3.262584E-05 -175.1998
v -93.00067 -2.797267E-05 -150.4783
v 0 -164.4941 -76.65674
v 0 -170.5729 79.54449
v -112.5448 -92.06589 0

vn 0.6176201 -0.2939653 0.7294723
vn 0.05149991 0.7593159 0.6486811
vn -0.4841472 -0.4202233 0.7674724
vn -0.7970023 0.5901455 -0.1285126
vn -0.3555152 0.4346682 -0.8274494
vn 0.886688 0.4610887 -0.03437687
vn 0.7316991 -0.608422 0.3073094
vn 0.4158777 -0.2014846 -0.88682
vn -0.4233925 0.1286342 -0.8967675
vn -0.1189015 -0.6193262 -0.7760783
vn -0.1485011 -0.4554457 0.8777907
vn -0.9728235 -0.2264181 -0.04846872

vt 0.6618959 0.5
vt 0.75 0.1762082
vt 0.8381041 0.5
vt 1 0.3237918
vt 0.25 0.1762082
vt 0.5 0.3237918
vt 0.5 0.6762082
vt 0.3381041 0.5
vt 0.1618959 0.5
vt 0.25 0.8237918
vt 0.75 0.8237918
vt 1 0.6762082

usemtl ground (Instance)
usemap ground (Instance)
f 1/1/1 2/2/2 3/3/3
f 2/2/2 4/4/4 3/3/3
f 2/2/2 5/5/5 4/4/4
f 6/6/6 5/5/5 2/2/2
f 1/1/1 6/6/6 2/2/2
f 1/1/1 7/7/7 6/6/6
f 7/7/7 8/8/8 6/6/6
f 6/6/6 8/8/8 5/5/5
f 8/8/8 9/9/9 5/5/5
f 8/8/8 10/10/10 9/9/9
f 8/8/8 7/7/7 10/10/10
f 7/7/7 11/11/11 10/10/10
f 11/11/11 12/12/12 10/10/10
f 11/11/11 3/3/3 12/12/12
f 11/11/11 1/1/1 3/3/3
f 7/7/7 1/1/1 11/11/11
f 12/12/12 3/3/3 4/4/4
f 9/9/9 12/12/12 4/4/4
f 5/5/5 9/9/9 4/4/4
f 12/12/12 9/9/9 10/10/10
