g object
v 97.79849 -3.253753E-05 158.2413
v 0 126.9427 53.65796
v -99.1373 -3.306637E-05 160.4075
v -155.0232 140.4598 0
v 0 130.2765 -54.65047
v 141.1554 128.3255 0
v 108.2109 -98.71752 0
v 79.5208 -2.650021E-05 -128.6673
v -59.1574 -1.970065E-05 -95.7187
v 0 -176.1834 -74.08025
v 0 -172.5695 72.81769
v -111.9006 -101.521 0

vn 0.4727525 0.07402204 0.8780808
vn -0.3632782 0.721127 0.5899193
vn -0.5707747 -0.07555597 0.8176231
vn -0.6956916 0.687458 0.2083618
vn 0.2767686 0.9599056 0.04450123
vn 0.8777643 0.4237863 0.2234614
vn 0.6371197 -0.5690114 -0.5199081
vn 0.5193382 -0.5030907 -0.6907876
vn -0.6211228 -0.1419238 -0.7707555
vn 0.3948361 -0.6687309 -0.6300028
vn 0.319609 -0.6938825 0.645273
vn -0.931945 -0.3098857 -0.1882799

vt 0.6618959 0.5
vt 0.75 0.1762082
vt 0.8381041 0.5
vt 1 0.3237918
vt 0.25 0.1762082
vt 0.5 0.3237918
vt 0.5 0.6762082
vt 0.3381041 0.5
vt 0.1618959 0.5
vt 0.25 0.8237918
vt 0.75 0.8237918
vt 1 0.6762082

usemtl ground (Instance)
usemap ground (Instance)
f 1/1/1 2/2/2 3/3/3
f 2/2/2 4/4/4 3/3/3
f 2/2/2 5/5/5 4/4/4
f 6/6/6 5/5/5 2/2/2
f 1/1/1 6/6/6 2/2/2
f 1/1/1 7/7/7 6/6/6
f 7/7/7 8/8/8 6/6/6
f 6/6/6 8/8/8 5/5/5
f 8/8/8 9/9/9 5/5/5
f 8/8/8 10/10/10 9/9/9
f 8/8/8 7/7/7 10/10/10
f 7/7/7 11/11/11 10/10/10
f 11/11/11 12/12/12 10/10/10
f 11/11/11 3/3/3 12/12/12
f 11/11/11 1/1/1 3/3/3
f 7/7/7 1/1/1 11/11/11
f 12/12/12 3/3/3 4/4/4
f 9/9/9 12/12/12 4/4/4
f 5/5/5 9/9/9 4/4/4
f 12/12/12 9/9/9 10/10/10
