g object
v 0 -3.289452E-05 187.5904
v -40.22719 95.68465 105.3162
v -99.1373 -3.306637E-05 160.4075
v 43.77238 103.9615 114.5976
v 0 126.9427 53.65796
v 97.79849 -3.253753E-05 158.2413
v -135.0921 75.6468 83.49154
v -56.9646 136.0029 35.20605
v -155.0232 140.4598 0
v -56.9646 136.0029 35.20605
v -68.98545 163.9398 -42.63535
v -155.0232 140.4598 0
v 0 142.1493 0
v 0 130.2765 -54.65047
v 0 142.1493 0
v -56.9646 136.0029 35.20605
v 0 142.1493 0
v 73.91339 176.1201 45.68098
v 0 142.1493 0
v 0 142.1493 0
v 54.31804 128.8337 -33.57039
v 141.1554 128.3255 0
v 0 142.1493 0
v 144.9159 81.34866 89.56297
v 186.7695 -3.270185E-05 0
v 136.1087 -76.47403 84.11983
v 108.2109 -98.71752 0
v 152.7113 85.8023 -94.38077
v 94.38364 -53.03038 -58.3323
v 79.5208 -2.650021E-05 -128.6673
v 54.38596 129.0576 -142.3843
v -40.00393 94.96829 -104.7317
v 0 -2.629176E-05 -150.4218
v -59.1574 -1.970065E-05 -95.7187
v -39.78447 -94.56184 -104.1571
v 34.24794 -81.29922 -89.66225
v 0 -176.1834 -74.08025
v 58.13002 -138.3538 -35.92633
v 0 -184.7104 0
v 0 -184.7104 0
v 61.32638 -145.815 37.90179
v 0 -172.5695 72.81769
v 0 -184.7104 0
v 0 -184.7104 0
v -69.45798 -165.7252 -42.92739
v -72.27826 -171.6873 44.67041
v -111.9006 -101.521 0
v -72.27826 -171.6873 44.67041
v 0 -184.7104 0
v 0 -184.7104 0
v -111.1546 -62.45331 68.69733
v -111.9006 -101.521 0
v -47.65939 -113.4329 124.7739
v 39.25538 -93.31526 102.7719
v -167.0265 -2.920404E-05 0
v -111.6113 62.5539 -68.97959
v -167.0265 -2.920404E-05 0
v -94.42768 -52.77032 -58.35951

vn 0.1032677 0.04812728 0.9934886
vn -0.2378158 0.8692209 0.4334727
vn -0.5707747 -0.07555597 0.8176231
vn 0.1728549 0.5292044 0.8307008
vn -0.3632782 0.721127 0.5899193
vn 0.4727525 0.07402204 0.8780808
vn -0.375625 0.588151 0.7162292
vn -0.1765512 0.7322557 0.6577471
vn -0.6956916 0.687458 0.2083618
vn -0.1765512 0.7322557 0.6577471
vn 0.008373835 0.9242557 -0.3816822
vn -0.6956916 0.687458 0.2083618
vn 0.3213253 0.8116989 -0.4877446
vn 0.2767686 0.9599056 0.04450123
vn 0.3213253 0.8116989 -0.4877446
vn -0.1765512 0.7322557 0.6577471
vn 0.3213253 0.8116989 -0.4877446
vn 0.005442359 0.9971456 -0.07530645
vn 0.3213253 0.8116989 -0.4877446
vn 0.3213253 0.8116989 -0.4877446
vn -0.2443105 0.9630484 -0.1133586
vn 0.8777643 0.4237863 0.2234614
vn 0.3213253 0.8116989 -0.4877446
vn 0.7921776 0.452286 0.4097463
vn 0.9836186 -0.1556261 -0.09096744
vn 0.4498243 -0.6397886 0.6231602
vn 0.6371197 -0.5690114 -0.5199081
vn 0.8059258 0.2198862 -0.5496669
vn 0.5588555 -0.5955637 -0.5770481
vn 0.5193382 -0.5030907 -0.6907876
vn 0.03358919 0.7213965 -0.6917072
vn -0.5521786 0.2648755 -0.7905313
vn -0.4555581 -0.1942094 -0.8687633
vn -0.6211228 -0.1419238 -0.7707555
vn -0.477718 -0.1481591 -0.8659298
vn 0.5917162 -0.3996633 -0.7001007
vn 0.3948361 -0.6687309 -0.6300028
vn 0.6317348 -0.5989773 -0.4920745
vn 0.3388426 -0.9402285 -0.03400259
vn 0.3388426 -0.9402285 -0.03400259
vn 0.5541124 -0.7925758 0.2545253
vn 0.319609 -0.6938825 0.645273
vn 0.3388426 -0.9402285 -0.03400259
vn 0.3388426 -0.9402285 -0.03400259
vn -0.765004 -0.4928129 -0.4146134
vn -0.7234682 -0.5904239 0.3577615
vn -0.931945 -0.3098857 -0.1882799
vn -0.7234682 -0.5904239 0.3577615
vn 0.3388426 -0.9402285 -0.03400259
vn 0.3388426 -0.9402285 -0.03400259
vn -0.7603793 -0.5814932 0.2892904
vn -0.931945 -0.3098857 -0.1882799
vn -0.3292535 -0.6533186 0.6817381
vn 0.3724289 -0.7126056 0.5945503
vn -0.8641769 -0.3805707 -0.3291873
vn -0.5474363 0.05150791 -0.8352607
vn -0.8641769 -0.3805707 -0.3291873
vn -0.7463368 -0.2176534 -0.6289741

vt 0.75 0.5
vt 0.8080699 0.3333333
vt 0.8381041 0.5
vt 0.6919301 0.3333333
vt 0.75 0.1762082
vt 0.6618959 0.5
vt 0.9118959 0.4
vt 0.9118959 0.2
vt 1 0.3237918
vt -0.08810407 0.2
vt 0.08810409 0.2
vt 0 0.3237918
vt 0.169052 0
vt 0.25 0.1762082
vt 0.830948 0
vt -0.08810407 0.2
vt 1.117587E-08 0
vt 0.5881041 0.2
vt 0.669052 0
vt 0.3309479 0
vt 0.4118959 0.2
vt 0.5 0.3237918
vt 0.5 0
vt 0.5881041 0.4
vt 0.5 0.5
vt 0.5881041 0.6
vt 0.5 0.6762082
vt 0.4118959 0.4
vt 0.4118959 0.6
vt 0.3381041 0.5
vt 0.3080699 0.3333333
vt 0.1919301 0.3333333
vt 0.25 0.5
vt 0.1618959 0.5
vt 0.1919301 0.6666667
vt 0.3080699 0.6666667
vt 0.25 0.8237918
vt 0.4118959 0.8
vt 0.3309479 1
vt 0.669052 1
vt 0.5881041 0.8
vt 0.75 0.8237918
vt 0.5 1
vt 0.169052 1
vt 0.08810409 0.8
vt -0.08810407 0.8
vt 0 0.6762082
vt 0.9118959 0.8
vt 0.830948 1
vt 1.117587E-08 1
vt 0.9118959 0.6
vt 1 0.6762082
vt 0.8080699 0.6666667
vt 0.6919301 0.6666667
vt 1 0.5
vt 0.08810409 0.4
vt 0 0.5
vt 0.08810409 0.6

usemtl ground (Instance)
usemap ground (Instance)
f 1/1/1 2/2/2 3/3/3
f 2/2/2 4/4/4 5/5/5
f 4/4/4 1/1/1 6/6/6
f 1/1/1 4/4/4 2/2/2
f 2/2/2 7/7/7 3/3/3
f 7/7/7 8/8/8 9/9/9
f 8/8/8 2/2/2 5/5/5
f 2/2/2 8/8/8 7/7/7
f 10/10/10 11/11/11 12/12/12
f 11/11/11 13/13/13 14/14/14
f 15/15/15 8/8/8 5/5/5
f 16/16/16 17/17/17 11/11/11
f 18/18/18 19/19/19 5/5/5
f 20/20/20 21/21/21 14/14/14
f 21/21/21 18/18/18 22/22/22
f 18/18/18 21/21/21 23/23/23
f 4/4/4 18/18/18 5/5/5
f 18/18/18 24/24/24 22/22/22
f 24/24/24 4/4/4 6/6/6
f 4/4/4 24/24/24 18/18/18
f 24/24/24 25/25/25 22/22/22
f 25/25/25 26/26/26 27/27/27
f 26/26/26 24/24/24 6/6/6
f 24/24/24 26/26/26 25/25/25
f 25/25/25 28/28/28 22/22/22
f 28/28/28 29/29/29 30/30/30
f 29/29/29 25/25/25 27/27/27
f 25/25/25 29/29/29 28/28/28
f 21/21/21 31/31/31 14/14/14
f 31/31/31 28/28/28 30/30/30
f 28/28/28 21/21/21 22/22/22
f 21/21/21 28/28/28 31/31/31
f 31/31/31 32/32/32 14/14/14
f 32/32/32 33/33/33 34/34/34
f 33/33/33 31/31/31 30/30/30
f 31/31/31 33/33/33 32/32/32
f 33/33/33 35/35/35 34/34/34
f 35/35/35 36/36/36 37/37/37
f 36/36/36 33/33/33 30/30/30
f 33/33/33 36/36/36 35/35/35
f 36/36/36 38/38/38 37/37/37
f 38/38/38 29/29/29 27/27/27
f 29/29/29 36/36/36 30/30/30
f 36/36/36 29/29/29 38/38/38
f 38/38/38 39/39/39 37/37/37
f 40/40/40 41/41/41 42/42/42
f 41/41/41 38/38/38 27/27/27
f 38/38/38 41/41/41 43/43/43
f 44/44/44 45/45/45 37/37/37
f 45/45/45 46/46/46 47/47/47
f 48/48/48 49/49/49 42/42/42
f 50/50/50 46/46/46 45/45/45
f 48/48/48 51/51/51 52/52/52
f 51/51/51 53/53/53 3/3/3
f 53/53/53 48/48/48 42/42/42
f 48/48/48 53/53/53 51/51/51
f 53/53/53 1/1/1 3/3/3
f 1/1/1 54/54/54 6/6/6
f 54/54/54 53/53/53 42/42/42
f 53/53/53 54/54/54 1/1/1
f 41/41/41 54/54/54 42/42/42
f 54/54/54 26/26/26 6/6/6
f 26/26/26 41/41/41 27/27/27
f 41/41/41 26/26/26 54/54/54
f 55/55/55 7/7/7 9/9/9
f 7/7/7 51/51/51 3/3/3
f 51/51/51 55/55/55 52/52/52
f 55/55/55 51/51/51 7/7/7
f 56/56/56 57/57/57 12/12/12
f 57/57/57 58/58/58 47/47/47
f 58/58/58 56/56/56 34/34/34
f 56/56/56 58/58/58 57/57/57
f 11/11/11 56/56/56 12/12/12
f 56/56/56 32/32/32 34/34/34
f 32/32/32 11/11/11 14/14/14
f 11/11/11 32/32/32 56/56/56
f 45/45/45 35/35/35 37/37/37
f 35/35/35 58/58/58 34/34/34
f 58/58/58 45/45/45 47/47/47
f 45/45/45 58/58/58 35/35/35
