g object
v 96.79044 -3.106178E-05 156.6102
v 0 164.2967 72.20058
v -94.58878 -3.026793E-05 153.0479
v -107.0823 93.25348 0
v 0 203.0968 -89.01746
v 155.2259 135.3858 0
v 142.7196 -124.4325 0
v 100.6422 -3.218605E-05 -162.8424
v -79.61432 -2.541524E-05 -128.8187
v 0 -149.61 -65.20943
v 0 -238.9767 104.9614
v -126.4221 -110.0303 0

vn 0.6654198 0.02986724 0.7458716
vn -0.116049 0.8770264 0.4662159
vn -0.4342228 0.09640481 0.895632
vn -0.6985537 0.6601959 -0.2759782
vn -0.5742039 0.7948557 -0.1961997
vn 0.9702868 0.08981045 0.2246719
vn 0.9079224 -0.2297539 0.3505568
vn 0.2900021 -0.1563165 -0.9441736
vn -0.4307804 0.08798522 -0.8981575
vn -0.2271784 -0.7471086 -0.6246749
vn -0.1307265 -0.8179755 0.5602023
vn -0.9233263 -0.3702728 -0.1018159

vt 0.6618959 0.5
vt 0.75 0.1762082
vt 0.8381041 0.5
vt 1 0.3237918
vt 0.25 0.1762082
vt 0.5 0.3237918
vt 0.5 0.6762082
vt 0.3381041 0.5
vt 0.1618959 0.5
vt 0.25 0.8237918
vt 0.75 0.8237918
vt 1 0.6762082

usemtl ground (Instance)
usemap ground (Instance)
f 1/1/1 2/2/2 3/3/3
f 2/2/2 4/4/4 3/3/3
f 2/2/2 5/5/5 4/4/4
f 6/6/6 5/5/5 2/2/2
f 1/1/1 6/6/6 2/2/2
f 1/1/1 7/7/7 6/6/6
f 7/7/7 8/8/8 6/6/6
f 6/6/6 8/8/8 5/5/5
f 8/8/8 9/9/9 5/5/5
f 8/8/8 10/10/10 9/9/9
f 8/8/8 7/7/7 10/10/10
f 7/7/7 11/11/11 10/10/10
f 11/11/11 12/12/12 10/10/10
f 11/11/11 3/3/3 12/12/12
f 11/11/11 1/1/1 3/3/3
f 7/7/7 1/1/1 11/11/11
f 12/12/12 3/3/3 4/4/4
f 9/9/9 12/12/12 4/4/4
f 5/5/5 9/9/9 4/4/4
f 12/12/12 9/9/9 10/10/10
