g object
v 99.64189 -3.349632E-05 161.224
v 0 153.1198 63.92177
v -75.12886 -2.532469E-05 121.5611
v -95.16263 87.56979 0
v 0 189.6751 -78.95886
v 107.3407 98.62057 0
v 112.4571 -103.2629 0
v 84.42001 -2.83565E-05 -136.5945
v -97.65418 -3.280786E-05 -158.0078
v 0 -238.0506 -99.23935
v 0 -230.9852 96.19942
v -123.5166 -113.8004 0

vn 0.5592293 0.09669688 0.8233543
vn 0.1597314 0.9531321 0.2569534
vn -0.7158828 -0.137178 0.6846123
vn -0.8448531 0.5326341 -0.0502412
vn 0.2970448 0.8395783 -0.4548326
vn 0.9740684 0.1263848 -0.1876637
vn 0.9683818 0.1369158 -0.208545
vn 0.6945718 0.02940844 -0.7188221
vn -0.7172285 0.01076839 -0.6967549
vn 0.1447414 -0.6789366 -0.7197882
vn 0.1339269 -0.6064805 0.7837378
vn -0.9592396 -0.1327951 0.2494491

vt 0.6618959 0.5
vt 0.75 0.1762082
vt 0.8381041 0.5
vt 1 0.3237918
vt 0.25 0.1762082
vt 0.5 0.3237918
vt 0.5 0.6762082
vt 0.3381041 0.5
vt 0.1618959 0.5
vt 0.25 0.8237918
vt 0.75 0.8237918
vt 1 0.6762082

usemtl ground (Instance)
usemap ground (Instance)
f 1/1/1 2/2/2 3/3/3
f 2/2/2 4/4/4 3/3/3
f 2/2/2 5/5/5 4/4/4
f 6/6/6 5/5/5 2/2/2
f 1/1/1 6/6/6 2/2/2
f 1/1/1 7/7/7 6/6/6
f 7/7/7 8/8/8 6/6/6
f 6/6/6 8/8/8 5/5/5
f 8/8/8 9/9/9 5/5/5
f 8/8/8 10/10/10 9/9/9
f 8/8/8 7/7/7 10/10/10
f 7/7/7 11/11/11 10/10/10
f 11/11/11 12/12/12 10/10/10
f 11/11/11 3/3/3 12/12/12
f 11/11/11 1/1/1 3/3/3
f 7/7/7 1/1/1 11/11/11
f 12/12/12 3/3/3 4/4/4
f 9/9/9 12/12/12 4/4/4
f 5/5/5 9/9/9 4/4/4
f 12/12/12 9/9/9 10/10/10
