g object
v 0 -3.33011E-05 187.9134
v -55.31348 132.9272 144.8126
v -75.12886 -2.532469E-05 121.5611
v 47.39376 113.873 124.0785
v 0 153.1198 63.92177
v 99.64189 -3.349632E-05 161.224
v -124.5248 70.51093 76.96053
v -61.9331 148.7561 38.27676
v -95.16263 87.56979 0
v -61.9331 148.7561 38.27676
v -62.21904 149.1323 -38.45348
v -95.16263 87.56979 0
v 0 169.476 0
v 0 189.6751 -78.95886
v 0 169.476 0
v -61.9331 148.7561 38.27676
v 0 169.476 0
v 62.79434 150.8259 38.80903
v 0 169.476 0
v 0 169.476 0
v 66.71166 159.9681 -41.23008
v 107.3407 98.62057 0
v 0 169.476 0
v 118.7835 67.13803 73.41225
v 77.55851 -1.37351E-05 0
v 114.7659 -65.16714 70.92922
v 112.4571 -103.2629 0
v 95.42319 54.1838 -58.97477
v 91.21021 -51.79159 -56.37101
v 84.42001 -2.83565E-05 -136.5945
v 38.31349 91.73004 -100.306
v -55.00837 132.2317 -144.0138
v 0 -2.898143E-05 -163.634
v -97.65418 -3.280786E-05 -158.0078
v -56.6633 -135.9912 -148.3464
v 42.92199 -103.6869 -112.3712
v 0 -238.0506 -99.23935
v 84.99452 -204.4417 -52.5295
v 0 -225.3487 0
v 0 -225.3487 0
v 94.45459 -226.7273 58.37614
v 0 -230.9852 96.19942
v 0 -225.3487 0
v 0 -225.3487 0
v -80.63702 -194.5462 -49.83641
v -84.23387 -203.2081 52.05939
v -123.5166 -113.8004 0
v -84.23387 -203.2081 52.05939
v 0 -225.3487 0
v 0 -225.3487 0
v -107.689 -61.1487 66.55547
v -123.5166 -113.8004 0
v -56.56904 -136.0684 148.0997
v 52.37736 -125.5567 137.1257
v -121.8248 -2.147352E-05 0
v -103.1457 58.45527 -63.74756
v -121.8248 -2.147352E-05 0
v -123.8387 -70.10294 -76.53655

vn 0.03901025 -0.01178948 0.9991693
vn -0.2026876 0.6820316 0.702674
vn -0.7158828 -0.137178 0.6846123
vn 0.1775127 0.7444065 0.6436988
vn 0.1597314 0.9531321 0.2569534
vn 0.5592293 0.09669688 0.8233543
vn -0.8859107 0.4567964 -0.08061847
vn -0.6577821 0.7509661 -0.05807383
vn -0.8448531 0.5326341 -0.0502412
vn -0.6577821 0.7509661 -0.05807383
vn -0.7244343 0.6774285 0.1276155
vn -0.8448531 0.5326341 -0.0502412
vn 0.03728086 0.9421297 0.3331693
vn 0.2970448 0.8395783 -0.4548326
vn 0.03728086 0.9421297 0.3331693
vn -0.6577821 0.7509661 -0.05807383
vn 0.03728086 0.9421297 0.3331693
vn 0.1767331 0.9386412 0.2961725
vn 0.03728086 0.9421297 0.3331693
vn 0.03728086 0.9421297 0.3331693
vn 0.618674 0.5794867 -0.530507
vn 0.9740684 0.1263848 -0.1876637
vn 0.03728086 0.9421297 0.3331693
vn 0.9841426 0.06794792 -0.1638488
vn 0.9667734 -0.1315676 -0.2191784
vn 0.9801767 0.09187117 -0.1755367
vn 0.9683818 0.1369158 -0.208545
vn 0.9301699 0.1068761 -0.3512285
vn 0.9969639 0.06317334 0.0455224
vn 0.6945718 0.02940844 -0.7188221
vn 0.6848874 0.4977616 -0.5321304
vn -0.1185873 0.5681345 -0.8143464
vn 0.1626225 -0.1565833 -0.9741846
vn -0.7172285 0.01076839 -0.6967549
vn -0.05771657 -0.2956363 -0.9535555
vn 0.3711861 -0.2039375 -0.9058865
vn 0.1447414 -0.6789366 -0.7197882
vn 0.8277873 -0.3328134 -0.4516674
vn -0.3788685 -0.909888 0.1690046
vn -0.3788685 -0.909888 0.1690046
vn 0.641537 -0.6711403 0.3714851
vn 0.1339269 -0.6064805 0.7837378
vn -0.3788685 -0.909888 0.1690046
vn -0.3788685 -0.909888 0.1690046
vn -0.3966158 -0.7707179 -0.4986881
vn -0.6413437 -0.742764 0.1923016
vn -0.9592396 -0.1327951 0.2494491
vn -0.6413437 -0.742764 0.1923016
vn -0.3788685 -0.909888 0.1690046
vn -0.3788685 -0.909888 0.1690046
vn -0.9129444 -0.3044732 0.2717139
vn -0.9592396 -0.1327951 0.2494491
vn -0.5406443 -0.3675806 0.7566956
vn 0.5906439 -0.366406 0.7189482
vn -0.9773804 0.1321145 -0.1651464
vn -0.9817859 0.1366531 -0.1319941
vn -0.9773804 0.1321145 -0.1651464
vn -0.9749516 0.1566829 -0.1578607

vt 0.75 0.5
vt 0.8080699 0.3333333
vt 0.8381041 0.5
vt 0.6919301 0.3333333
vt 0.75 0.1762082
vt 0.6618959 0.5
vt 0.9118959 0.4
vt 0.9118959 0.2
vt 1 0.3237918
vt -0.08810407 0.2
vt 0.08810409 0.2
vt 0 0.3237918
vt 0.169052 0
vt 0.25 0.1762082
vt 0.830948 0
vt -0.08810407 0.2
vt 1.117587E-08 0
vt 0.5881041 0.2
vt 0.669052 0
vt 0.3309479 0
vt 0.4118959 0.2
vt 0.5 0.3237918
vt 0.5 0
vt 0.5881041 0.4
vt 0.5 0.5
vt 0.5881041 0.6
vt 0.5 0.6762082
vt 0.4118959 0.4
vt 0.4118959 0.6
vt 0.3381041 0.5
vt 0.3080699 0.3333333
vt 0.1919301 0.3333333
vt 0.25 0.5
vt 0.1618959 0.5
vt 0.1919301 0.6666667
vt 0.3080699 0.6666667
vt 0.25 0.8237918
vt 0.4118959 0.8
vt 0.3309479 1
vt 0.669052 1
vt 0.5881041 0.8
vt 0.75 0.8237918
vt 0.5 1
vt 0.169052 1
vt 0.08810409 0.8
vt -0.08810407 0.8
vt 0 0.6762082
vt 0.9118959 0.8
vt 0.830948 1
vt 1.117587E-08 1
vt 0.9118959 0.6
vt 1 0.6762082
vt 0.8080699 0.6666667
vt 0.6919301 0.6666667
vt 1 0.5
vt 0.08810409 0.4
vt 0 0.5
vt 0.08810409 0.6

usemtl ground (Instance)
usemap ground (Instance)
f 1/1/1 2/2/2 3/3/3
f 2/2/2 4/4/4 5/5/5
f 4/4/4 1/1/1 6/6/6
f 1/1/1 4/4/4 2/2/2
f 2/2/2 7/7/7 3/3/3
f 7/7/7 8/8/8 9/9/9
f 8/8/8 2/2/2 5/5/5
f 2/2/2 8/8/8 7/7/7
f 10/10/10 11/11/11 12/12/12
f 11/11/11 13/13/13 14/14/14
f 15/15/15 8/8/8 5/5/5
f 16/16/16 17/17/17 11/11/11
f 18/18/18 19/19/19 5/5/5
f 20/20/20 21/21/21 14/14/14
f 21/21/21 18/18/18 22/22/22
f 18/18/18 21/21/21 23/23/23
f 4/4/4 18/18/18 5/5/5
f 18/18/18 24/24/24 22/22/22
f 24/24/24 4/4/4 6/6/6
f 4/4/4 24/24/24 18/18/18
f 24/24/24 25/25/25 22/22/22
f 25/25/25 26/26/26 27/27/27
f 26/26/26 24/24/24 6/6/6
f 24/24/24 26/26/26 25/25/25
f 25/25/25 28/28/28 22/22/22
f 28/28/28 29/29/29 30/30/30
f 29/29/29 25/25/25 27/27/27
f 25/25/25 29/29/29 28/28/28
f 21/21/21 31/31/31 14/14/14
f 31/31/31 28/28/28 30/30/30
f 28/28/28 21/21/21 22/22/22
f 21/21/21 28/28/28 31/31/31
f 31/31/31 32/32/32 14/14/14
f 32/32/32 33/33/33 34/34/34
f 33/33/33 31/31/31 30/30/30
f 31/31/31 33/33/33 32/32/32
f 33/33/33 35/35/35 34/34/34
f 35/35/35 36/36/36 37/37/37
f 36/36/36 33/33/33 30/30/30
f 33/33/33 36/36/36 35/35/35
f 36/36/36 38/38/38 37/37/37
f 38/38/38 29/29/29 27/27/27
f 29/29/29 36/36/36 30/30/30
f 36/36/36 29/29/29 38/38/38
f 38/38/38 39/39/39 37/37/37
f 40/40/40 41/41/41 42/42/42
f 41/41/41 38/38/38 27/27/27
f 38/38/38 41/41/41 43/43/43
f 44/44/44 45/45/45 37/37/37
f 45/45/45 46/46/46 47/47/47
f 48/48/48 49/49/49 42/42/42
f 50/50/50 46/46/46 45/45/45
f 48/48/48 51/51/51 52/52/52
f 51/51/51 53/53/53 3/3/3
f 53/53/53 48/48/48 42/42/42
f 48/48/48 53/53/53 51/51/51
f 53/53/53 1/1/1 3/3/3
f 1/1/1 54/54/54 6/6/6
f 54/54/54 53/53/53 42/42/42
f 53/53/53 54/54/54 1/1/1
f 41/41/41 54/54/54 42/42/42
f 54/54/54 26/26/26 6/6/6
f 26/26/26 41/41/41 27/27/27
f 41/41/41 26/26/26 54/54/54
f 55/55/55 7/7/7 9/9/9
f 7/7/7 51/51/51 3/3/3
f 51/51/51 55/55/55 52/52/52
f 55/55/55 51/51/51 7/7/7
f 56/56/56 57/57/57 12/12/12
f 57/57/57 58/58/58 47/47/47
f 58/58/58 56/56/56 34/34/34
f 56/56/56 58/58/58 57/57/57
f 11/11/11 56/56/56 12/12/12
f 56/56/56 32/32/32 34/34/34
f 32/32/32 11/11/11 14/14/14
f 11/11/11 32/32/32 56/56/56
f 45/45/45 35/35/35 37/37/37
f 35/35/35 58/58/58 34/34/34
f 58/58/58 45/45/45 47/47/47
f 45/45/45 58/58/58 35/35/35
