g object
v 0 -2.024759E-05 145.0309
v -48.50155 91.77958 126.9787
v -63.25265 -1.679684E-05 102.3449
v 46.83588 88.72815 122.6179
v 0 117.8542 62.22328
v 110.4462 -2.931388E-05 178.7056
v -111.6258 49.87169 68.98856
v -82.18671 155.6335 50.79418
v -128.7733 93.07656 0
v -82.18671 155.6335 50.79418
v -75.55714 143.0038 -46.69688
v -128.7733 93.07656 0
v 0 161.2594 0
v 0 124.2797 -65.63641
v 0 161.2594 0
v -82.18671 155.6335 50.79418
v 0 161.2594 0
v 60.03943 113.5218 37.10641
v 0 161.2594 0
v 0 161.2594 0
v 77.9463 147.7969 -48.17346
v 115.692 83.73717 0
v 0 161.2594 0
v 125.3768 56.04281 77.48713
v 136.5384 -1.905135E-05 0
v 160.3538 -71.73096 99.10408
v 176.0911 -127.3326 0
v 117.9061 52.74284 -72.86997
v 139.4917 -62.39872 -86.21059
v 80.03541 -2.123077E-05 -129.5
v 50.43417 95.39933 -132.0384
v -50.12464 95.02611 -131.228
v 0 -2.498166E-05 -178.8795
v -111.7469 -2.964345E-05 -180.8103
v -48.79068 -92.4129 -127.7357
v 44.63209 -84.5341 -116.8483
v 0 -120.8645 -63.91166
v 69.73783 -132.1474 -43.10035
v 0 -182.7992 0
v 0 -182.7992 0
v 85.05784 -161.4494 52.56863
v 0 -191.7966 101.3038
v 0 -182.7992 0
v 0 -182.7992 0
v -71.69992 -135.7794 -44.31298
v -95.17893 -180.6129 58.82381
v -159.7682 -115.5279 0
v -95.17893 -180.6129 58.82381
v 0 -182.7992 0
v 0 -182.7992 0
v -162.8563 -72.85043 100.6507
v -159.7682 -115.5279 0
v -59.65926 -113.0493 156.19
v 50.96515 -96.45972 133.4285
v -162.8515 -2.272913E-05 0
v -166.183 74.31038 -102.7067
v -162.8515 -2.272913E-05 0
v -139.8678 -62.48018 -86.44303

vn -0.6398525 0.06713972 0.7655593
vn -0.3089229 0.1115116 0.9445273
vn -0.263041 0.08464155 0.9610646
vn 0.3225352 0.8665489 0.3808728
vn 0.4574506 0.8347766 0.3064097
vn 0.4717548 0.1286087 0.8723
vn -0.9217806 -0.1008959 0.3743537
vn -0.367903 0.8774747 0.3077103
vn -0.893311 0.3521001 0.2793222
vn -0.367903 0.8774747 0.3077103
vn -0.07745453 0.8921005 -0.4451488
vn -0.893311 0.3521001 0.2793222
vn 0.07416705 0.9935485 0.08579486
vn -0.03000959 0.8919324 -0.4511718
vn 0.07416705 0.9935485 0.08579486
vn -0.367903 0.8774747 0.3077103
vn 0.07416705 0.9935485 0.08579486
vn 0.06403315 0.7188388 0.6922215
vn 0.07416705 0.9935485 0.08579486
vn 0.07416705 0.9935485 0.08579486
vn 0.3023025 0.8968408 -0.3229392
vn 0.9524047 0.3026838 -0.03616518
vn 0.07416705 0.9935485 0.08579486
vn 0.8343865 0.5257919 0.1653546
vn 0.9530104 0.2847606 -0.1033563
vn 0.6877364 -0.4490616 0.5704054
vn 0.9574076 -0.2663792 -0.1114126
vn 0.9324563 0.1770405 -0.314932
vn 0.7273 0.0914655 -0.6801977
vn 0.6638988 0.04270038 -0.7466024
vn 0.2899987 0.693768 -0.6592319
vn -0.07976227 0.8888096 -0.4512821
vn 0.3237364 -0.3980109 -0.8583601
vn -0.4313509 -0.02489994 -0.9018406
vn 0.1102165 -0.7949251 -0.5966124
vn 0.1039856 -0.6943605 -0.7120748
vn 0.1086404 -0.8119415 -0.5735402
vn -0.1366825 -0.6555226 -0.7427033
vn 0.07154362 -0.7682034 -0.6361958
vn 0.07154362 -0.7682034 -0.6361958
vn 0.4226618 -0.6963067 0.5800982
vn 0.5456711 -0.5961956 0.5888921
vn 0.07154362 -0.7682034 -0.6361958
vn 0.07154362 -0.7682034 -0.6361958
vn -0.4129425 -0.8046782 -0.4265811
vn -0.6660625 -0.7443419 -0.04812509
vn -0.6420425 -0.6924071 -0.3291714
vn -0.6660625 -0.7443419 -0.04812509
vn 0.07154362 -0.7682034 -0.6361958
vn 0.07154362 -0.7682034 -0.6361958
vn -0.7853625 0.1306425 0.6050936
vn -0.6420425 -0.6924071 -0.3291714
vn -0.2981921 0.1019081 0.9490502
vn 0.3834703 -0.6393362 0.6664831
vn -0.8756548 0.3926395 0.2811815
vn -0.8861542 0.3856571 -0.2569034
vn -0.8756548 0.3926395 0.2811815
vn -0.6041433 -0.7365195 -0.3042202

vt 0.75 0.5
vt 0.8080699 0.3333333
vt 0.8381041 0.5
vt 0.6919301 0.3333333
vt 0.75 0.1762082
vt 0.6618959 0.5
vt 0.9118959 0.4
vt 0.9118959 0.2
vt 1 0.3237918
vt -0.08810407 0.2
vt 0.08810409 0.2
vt 0 0.3237918
vt 0.169052 0
vt 0.25 0.1762082
vt 0.830948 0
vt -0.08810407 0.2
vt 1.117587E-08 0
vt 0.5881041 0.2
vt 0.669052 0
vt 0.3309479 0
vt 0.4118959 0.2
vt 0.5 0.3237918
vt 0.5 0
vt 0.5881041 0.4
vt 0.5 0.5
vt 0.5881041 0.6
vt 0.5 0.6762082
vt 0.4118959 0.4
vt 0.4118959 0.6
vt 0.3381041 0.5
vt 0.3080699 0.3333333
vt 0.1919301 0.3333333
vt 0.25 0.5
vt 0.1618959 0.5
vt 0.1919301 0.6666667
vt 0.3080699 0.6666667
vt 0.25 0.8237918
vt 0.4118959 0.8
vt 0.3309479 1
vt 0.669052 1
vt 0.5881041 0.8
vt 0.75 0.8237918
vt 0.5 1
vt 0.169052 1
vt 0.08810409 0.8
vt -0.08810407 0.8
vt 0 0.6762082
vt 0.9118959 0.8
vt 0.830948 1
vt 1.117587E-08 1
vt 0.9118959 0.6
vt 1 0.6762082
vt 0.8080699 0.6666667
vt 0.6919301 0.6666667
vt 1 0.5
vt 0.08810409 0.4
vt 0 0.5
vt 0.08810409 0.6

usemtl ground (Instance)
usemap ground (Instance)
f 1/1/1 2/2/2 3/3/3
f 2/2/2 4/4/4 5/5/5
f 4/4/4 1/1/1 6/6/6
f 1/1/1 4/4/4 2/2/2
f 2/2/2 7/7/7 3/3/3
f 7/7/7 8/8/8 9/9/9
f 8/8/8 2/2/2 5/5/5
f 2/2/2 8/8/8 7/7/7
f 10/10/10 11/11/11 12/12/12
f 11/11/11 13/13/13 14/14/14
f 15/15/15 8/8/8 5/5/5
f 16/16/16 17/17/17 11/11/11
f 18/18/18 19/19/19 5/5/5
f 20/20/20 21/21/21 14/14/14
f 21/21/21 18/18/18 22/22/22
f 18/18/18 21/21/21 23/23/23
f 4/4/4 18/18/18 5/5/5
f 18/18/18 24/24/24 22/22/22
f 24/24/24 4/4/4 6/6/6
f 4/4/4 24/24/24 18/18/18
f 24/24/24 25/25/25 22/22/22
f 25/25/25 26/26/26 27/27/27
f 26/26/26 24/24/24 6/6/6
f 24/24/24 26/26/26 25/25/25
f 25/25/25 28/28/28 22/22/22
f 28/28/28 29/29/29 30/30/30
f 29/29/29 25/25/25 27/27/27
f 25/25/25 29/29/29 28/28/28
f 21/21/21 31/31/31 14/14/14
f 31/31/31 28/28/28 30/30/30
f 28/28/28 21/21/21 22/22/22
f 21/21/21 28/28/28 31/31/31
f 31/31/31 32/32/32 14/14/14
f 32/32/32 33/33/33 34/34/34
f 33/33/33 31/31/31 30/30/30
f 31/31/31 33/33/33 32/32/32
f 33/33/33 35/35/35 34/34/34
f 35/35/35 36/36/36 37/37/37
f 36/36/36 33/33/33 30/30/30
f 33/33/33 36/36/36 35/35/35
f 36/36/36 38/38/38 37/37/37
f 38/38/38 29/29/29 27/27/27
f 29/29/29 36/36/36 30/30/30
f 36/36/36 29/29/29 38/38/38
f 38/38/38 39/39/39 37/37/37
f 40/40/40 41/41/41 42/42/42
f 41/41/41 38/38/38 27/27/27
f 38/38/38 41/41/41 43/43/43
f 44/44/44 45/45/45 37/37/37
f 45/45/45 46/46/46 47/47/47
f 48/48/48 49/49/49 42/42/42
f 50/50/50 46/46/46 45/45/45
f 48/48/48 51/51/51 52/52/52
f 51/51/51 53/53/53 3/3/3
f 53/53/53 48/48/48 42/42/42
f 48/48/48 53/53/53 51/51/51
f 53/53/53 1/1/1 3/3/3
f 1/1/1 54/54/54 6/6/6
f 54/54/54 53/53/53 42/42/42
f 53/53/53 54/54/54 1/1/1
f 41/41/41 54/54/54 42/42/42
f 54/54/54 26/26/26 6/6/6
f 26/26/26 41/41/41 27/27/27
f 41/41/41 26/26/26 54/54/54
f 55/55/55 7/7/7 9/9/9
f 7/7/7 51/51/51 3/3/3
f 51/51/51 55/55/55 52/52/52
f 55/55/55 51/51/51 7/7/7
f 56/56/56 57/57/57 12/12/12
f 57/57/57 58/58/58 47/47/47
f 58/58/58 56/56/56 34/34/34
f 56/56/56 58/58/58 57/57/57
f 11/11/11 56/56/56 12/12/12
f 56/56/56 32/32/32 34/34/34
f 32/32/32 11/11/11 14/14/14
f 11/11/11 32/32/32 56/56/56
f 45/45/45 35/35/35 37/37/37
f 35/35/35 58/58/58 34/34/34
f 58/58/58 45/45/45 47/47/47
f 45/45/45 58/58/58 35/35/35
