g object
v 0 -3.278862E-05 196.1445
v -49.03245 111.8963 128.3686
v -98.54208 -3.142537E-05 159.4444
v 55.12802 125.8353 144.3271
v 0 213.737 94.06017
v 100.1446 -3.183495E-05 162.0373
v -139.5352 74.84122 86.23747
v -95.20682 216.709 58.84105
v -145.2352 126.3562 0
v -95.20682 216.709 58.84105
v -95.00415 215.5473 -58.71579
v -145.2352 126.3562 0
v 0 280.3209 0
v 0 171.3266 -75.38525
v 0 280.3209 0
v -95.20682 216.709 58.84105
v 0 280.3209 0
v 97.84114 223.2452 60.46915
v 0 280.3209 0
v 0 280.3209 0
v 93.19669 211.692 -57.59872
v 124.493 107.8836 0
v 0 280.3209 0
v 128.6709 68.87763 79.52297
v 141.2265 -2.362921E-05 0
v 150.1095 -80.5173 92.77278
v 135.2894 -117.2895 0
v 124.7314 66.90176 -77.08825
v 133.7032 -71.76994 -82.63314
v 81.62647 -2.599896E-05 -132.0744
v 51.71313 117.8037 -135.3867
v -61.50461 139.9002 -161.0212
v 0 -2.641215E-05 -157.9654
v -82.12904 -2.61282E-05 -132.8876
v -48.26074 -109.478 -126.3483
v 48.8005 -110.8024 -127.7614
v 0 -222.8016 -98.06461
v 87.39111 -198.3931 -54.01067
v 0 -276.3401 0
v 0 -276.3401 0
v 76.89072 -175.1577 47.52108
v 0 -222.1292 97.77592
v 0 -276.3401 0
v 0 -276.3401 0
v -96.92928 -219.9076 -59.90559
v -64.14072 -145.7361 39.64114
v -142.1324 -123.2833 0
v -64.14072 -145.7361 39.64114
v 0 -276.3401 0
v 0 -276.3401 0
v -133.4541 -71.45265 82.47915
v -142.1324 -123.2833 0
v -50.61271 -114.866 132.5058
v 61.0438 -138.7141 159.8147
v -200.0208 -3.347253E-05 0
v -161.2259 86.53404 -99.64307
v -200.0208 -3.347253E-05 0
v -160.3337 -86.0497 -99.09167

vn -0.01810672 -0.180597 0.9833905
vn -0.480401 0.2669704 0.8354291
vn -0.4245586 0.2527141 0.8694168
vn -0.05545874 0.3743586 0.9256241
vn -0.2112819 0.5579146 0.8025529
vn 0.7142587 0.1352643 0.6866863
vn -0.5892345 0.2336296 0.7734468
vn -0.669978 0.6238549 0.402411
vn -0.8361901 0.5482758 0.01340184
vn -0.669978 0.6238549 0.402411
vn -0.7861866 0.6041096 -0.1302392
vn -0.8361901 0.5482758 0.01340184
vn -0.01003117 0.98055 -0.1960128
vn 0.4041911 0.7294317 -0.5518686
vn -0.01003117 0.98055 -0.1960128
vn -0.669978 0.6238549 0.402411
vn -0.01003117 0.98055 -0.1960128
vn 0.7530417 0.5778394 0.3146898
vn -0.01003117 0.98055 -0.1960128
vn -0.01003117 0.98055 -0.1960128
vn 0.542981 0.5470635 -0.6370974
vn 0.9985256 -0.05428128 0.0005429873
vn -0.01003117 0.98055 -0.1960128
vn 0.9766229 0.1141915 -0.1821209
vn 0.8357214 0.5437726 -0.07668834
vn 0.7684703 -0.5868098 0.2551619
vn 0.8338191 -0.5403216 0.1131296
vn 0.900277 0.1350353 -0.4138439
vn 0.8374388 0.02132081 -0.546115
vn 0.5917331 0.08419933 -0.8017247
vn 0.4695824 0.202737 -0.8592962
vn -0.2659351 0.4089081 -0.8729678
vn -0.2462792 -0.3443272 -0.9059721
vn -0.1450139 -0.3494825 -0.9256527
vn -0.1599859 -0.2583557 -0.9527103
vn 0.2035452 -0.2963819 -0.9331276
vn 0.04927444 -0.4412677 -0.8960217
vn 0.7956247 -0.6028309 0.05980108
vn -0.04957009 -0.9619878 0.268556
vn -0.04957009 -0.9619878 0.268556
vn 0.7537023 -0.6094741 0.2459153
vn -0.4256211 -0.6632783 0.6155553
vn -0.04957009 -0.9619878 0.268556
vn -0.04957009 -0.9619878 0.268556
vn -0.7524781 -0.6506077 -0.1024027
vn -0.7706082 -0.3554823 0.5289568
vn -0.7149575 -0.546371 0.4362504
vn -0.7706082 -0.3554823 0.5289568
vn -0.04957009 -0.9619878 0.268556
vn -0.04957009 -0.9619878 0.268556
vn -0.3554113 -0.886358 0.2967362
vn -0.7149575 -0.546371 0.4362504
vn -0.761685 -0.5999438 0.2447518
vn 0.4823079 -0.485652 0.729055
vn -0.9987946 -0.003037596 0.04899278
vn -0.8200333 0.2671134 -0.506158
vn -0.9987946 -0.003037596 0.04899278
vn -0.7001466 -0.2552015 -0.6668335

vt 0.75 0.5
vt 0.8080699 0.3333333
vt 0.8381041 0.5
vt 0.6919301 0.3333333
vt 0.75 0.1762082
vt 0.6618959 0.5
vt 0.9118959 0.4
vt 0.9118959 0.2
vt 1 0.3237918
vt -0.08810407 0.2
vt 0.08810409 0.2
vt 0 0.3237918
vt 0.169052 0
vt 0.25 0.1762082
vt 0.830948 0
vt -0.08810407 0.2
vt 1.117587E-08 0
vt 0.5881041 0.2
vt 0.669052 0
vt 0.3309479 0
vt 0.4118959 0.2
vt 0.5 0.3237918
vt 0.5 0
vt 0.5881041 0.4
vt 0.5 0.5
vt 0.5881041 0.6
vt 0.5 0.6762082
vt 0.4118959 0.4
vt 0.4118959 0.6
vt 0.3381041 0.5
vt 0.3080699 0.3333333
vt 0.1919301 0.3333333
vt 0.25 0.5
vt 0.1618959 0.5
vt 0.1919301 0.6666667
vt 0.3080699 0.6666667
vt 0.25 0.8237918
vt 0.4118959 0.8
vt 0.3309479 1
vt 0.669052 1
vt 0.5881041 0.8
vt 0.75 0.8237918
vt 0.5 1
vt 0.169052 1
vt 0.08810409 0.8
vt -0.08810407 0.8
vt 0 0.6762082
vt 0.9118959 0.8
vt 0.830948 1
vt 1.117587E-08 1
vt 0.9118959 0.6
vt 1 0.6762082
vt 0.8080699 0.6666667
vt 0.6919301 0.6666667
vt 1 0.5
vt 0.08810409 0.4
vt 0 0.5
vt 0.08810409 0.6

usemtl ground (Instance)
usemap ground (Instance)
f 1/1/1 2/2/2 3/3/3
f 2/2/2 4/4/4 5/5/5
f 4/4/4 1/1/1 6/6/6
f 1/1/1 4/4/4 2/2/2
f 2/2/2 7/7/7 3/3/3
f 7/7/7 8/8/8 9/9/9
f 8/8/8 2/2/2 5/5/5
f 2/2/2 8/8/8 7/7/7
f 10/10/10 11/11/11 12/12/12
f 11/11/11 13/13/13 14/14/14
f 15/15/15 8/8/8 5/5/5
f 16/16/16 17/17/17 11/11/11
f 18/18/18 19/19/19 5/5/5
f 20/20/20 21/21/21 14/14/14
f 21/21/21 18/18/18 22/22/22
f 18/18/18 21/21/21 23/23/23
f 4/4/4 18/18/18 5/5/5
f 18/18/18 24/24/24 22/22/22
f 24/24/24 4/4/4 6/6/6
f 4/4/4 24/24/24 18/18/18
f 24/24/24 25/25/25 22/22/22
f 25/25/25 26/26/26 27/27/27
f 26/26/26 24/24/24 6/6/6
f 24/24/24 26/26/26 25/25/25
f 25/25/25 28/28/28 22/22/22
f 28/28/28 29/29/29 30/30/30
f 29/29/29 25/25/25 27/27/27
f 25/25/25 29/29/29 28/28/28
f 21/21/21 31/31/31 14/14/14
f 31/31/31 28/28/28 30/30/30
f 28/28/28 21/21/21 22/22/22
f 21/21/21 28/28/28 31/31/31
f 31/31/31 32/32/32 14/14/14
f 32/32/32 33/33/33 34/34/34
f 33/33/33 31/31/31 30/30/30
f 31/31/31 33/33/33 32/32/32
f 33/33/33 35/35/35 34/34/34
f 35/35/35 36/36/36 37/37/37
f 36/36/36 33/33/33 30/30/30
f 33/33/33 36/36/36 35/35/35
f 36/36/36 38/38/38 37/37/37
f 38/38/38 29/29/29 27/27/27
f 29/29/29 36/36/36 30/30/30
f 36/36/36 29/29/29 38/38/38
f 38/38/38 39/39/39 37/37/37
f 40/40/40 41/41/41 42/42/42
f 41/41/41 38/38/38 27/27/27
f 38/38/38 41/41/41 43/43/43
f 44/44/44 45/45/45 37/37/37
f 45/45/45 46/46/46 47/47/47
f 48/48/48 49/49/49 42/42/42
f 50/50/50 46/46/46 45/45/45
f 48/48/48 51/51/51 52/52/52
f 51/51/51 53/53/53 3/3/3
f 53/53/53 48/48/48 42/42/42
f 48/48/48 53/53/53 51/51/51
f 53/53/53 1/1/1 3/3/3
f 1/1/1 54/54/54 6/6/6
f 54/54/54 53/53/53 42/42/42
f 53/53/53 54/54/54 1/1/1
f 41/41/41 54/54/54 42/42/42
f 54/54/54 26/26/26 6/6/6
f 26/26/26 41/41/41 27/27/27
f 41/41/41 26/26/26 54/54/54
f 55/55/55 7/7/7 9/9/9
f 7/7/7 51/51/51 3/3/3
f 51/51/51 55/55/55 52/52/52
f 55/55/55 51/51/51 7/7/7
f 56/56/56 57/57/57 12/12/12
f 57/57/57 58/58/58 47/47/47
f 58/58/58 56/56/56 34/34/34
f 56/56/56 58/58/58 57/57/57
f 11/11/11 56/56/56 12/12/12
f 56/56/56 32/32/32 34/34/34
f 32/32/32 11/11/11 14/14/14
f 11/11/11 32/32/32 56/56/56
f 45/45/45 35/35/35 37/37/37
f 35/35/35 58/58/58 34/34/34
f 58/58/58 45/45/45 47/47/47
f 45/45/45 58/58/58 35/35/35
