g object
v 0 -2.488978E-05 143.3167
v -42.4681 99.96684 111.1829
v -82.73978 -2.733222E-05 133.8758
v 40.84656 96.21634 106.9377
v 0 138.9744 59.04681
v 63.31979 -2.081301E-05 102.4536
v -138.1056 77.01973 85.35395
v -71.29372 167.922 44.06194
v -109.7969 98.77612 0
v -71.29372 167.922 44.06194
v -68.5183 160.954 -42.34663
v -109.7969 98.77612 0
v 0 223.4786 0
v 0 200.1822 -85.11992
v 0 223.4786 0
v -71.29372 167.922 44.06194
v 0 223.4786 0
v 67.41405 158.7919 41.66417
v 0 223.4786 0
v 0 223.4786 0
v 54.02238 127.0927 -33.38766
v 102.6099 92.38799 0
v 0 223.4786 0
v 126.0174 69.98417 77.88302
v 183.1479 -3.175246E-05 0
v 117.6466 -65.46638 72.70957
v 160.356 -144.1225 0
v 72.7703 40.49422 -44.97452
v 147.013 -81.80782 -90.85902
v 56.04001 -1.84886E-05 -90.67464
v 30.64241 72.41853 -80.22289
v -55.29122 130.654 -144.7543
v 0 -2.943363E-05 -169.856
v -75.74532 -2.499554E-05 -122.5585
v -44.8618 -105.3727 -117.4497
v 49.3424 -115.9837 -129.1801
v 0 -169.9685 -71.80378
v 87.11074 -205.34 -53.83739
v 0 -183.488 0
v 0 -183.488 0
v 76.34827 -179.6778 47.18583
v 0 -174.6205 74.01146
v 0 -183.488 0
v 0 -183.488 0
v -69.17247 -162.7745 -42.75093
v -77.8638 -183.1943 48.12247
v -113.2031 -101.5345 0
v -77.8638 -183.1943 48.12247
v 0 -183.488 0
v 0 -183.488 0
v -142.8666 -79.5005 88.29643
v -113.2031 -101.5345 0
v -35.27317 -83.14696 92.34637
v 44.38276 -104.1853 116.1956
v -150.8384 -2.618522E-05 0
v -112.2493 62.41203 -69.37389
v -150.8384 -2.618522E-05 0
v -79.94017 -44.67778 -49.40574

vn 0.2483172 -0.2650349 0.9317162
vn -0.2741973 0.5403336 0.7955222
vn -0.3166879 -0.005623543 0.9485131
vn 0.1756512 0.6147287 0.7689313
vn 0.02979 0.5968899 0.8017699
vn 0.5115353 -0.008651084 0.8592188
vn -0.6010453 0.3769869 0.7047166
vn -0.4627935 0.7937884 0.3946165
vn -0.8085625 0.5464814 -0.2181394
vn -0.4627935 0.7937884 0.3946165
vn -0.8928227 0.4080624 -0.1906643
vn -0.8085625 0.5464814 -0.2181394
vn 0.3926491 0.7804362 0.4865654
vn 0.5419568 0.5065826 -0.6705646
vn 0.3926491 0.7804362 0.4865654
vn -0.4627935 0.7937884 0.3946165
vn 0.3926491 0.7804362 0.4865654
vn 0.4023415 0.773281 0.4900591
vn 0.3926491 0.7804362 0.4865654
vn 0.3926491 0.7804362 0.4865654
vn 0.7653725 0.1608457 -0.6231642
vn 0.6934711 0.3209027 -0.645073
vn 0.3926491 0.7804362 0.4865654
vn 0.6381652 0.07754116 0.7659847
vn 0.8657098 0.3586717 -0.3491434
vn 0.547434 -0.05782702 0.8348485
vn 0.8421165 -0.4487983 0.2990317
vn 0.470673 0.4338635 -0.7682639
vn 0.7088097 0.1832727 -0.6811754
vn 0.577883 0.4770075 -0.6622047
vn 0.8076997 0.1437371 -0.5718048
vn -0.2007266 0.416922 -0.8865015
vn 0.4863197 0.3456324 -0.8025157
vn -0.8433895 -0.1882502 -0.5032454
vn -0.8384146 -0.3617607 -0.4076642
vn 0.2255548 -0.4607496 -0.8583908
vn -0.1374162 -0.8181999 -0.5582703
vn 0.0396301 -0.9929847 -0.1114049
vn 0.01309786 -0.9874755 0.1572277
vn 0.01309786 -0.9874755 0.1572277
vn 0.2953138 -0.886012 0.3574527
vn -0.1743335 -0.842995 0.5088882
vn 0.01309786 -0.9874755 0.1572277
vn 0.01309786 -0.9874755 0.1572277
vn -0.6785426 -0.5701019 -0.4632104
vn -0.05986174 -0.9236267 0.3785897
vn -0.7330845 -0.2326336 -0.6391156
vn -0.05986174 -0.9236267 0.3785897
vn 0.01309786 -0.9874755 0.1572277
vn 0.01309786 -0.9874755 0.1572277
vn -0.5020432 -0.3274959 0.8004369
vn -0.7330845 -0.2326336 -0.6391156
vn -0.3947493 -0.200109 0.8967326
vn 0.1255658 -0.1718633 0.9770856
vn -0.8168421 -0.1070045 -0.5668502
vn -0.8997822 0.2149551 -0.3797187
vn -0.8168421 -0.1070045 -0.5668502
vn -0.8278936 -0.2789614 -0.4865931

vt 0.75 0.5
vt 0.8080699 0.3333333
vt 0.8381041 0.5
vt 0.6919301 0.3333333
vt 0.75 0.1762082
vt 0.6618959 0.5
vt 0.9118959 0.4
vt 0.9118959 0.2
vt 1 0.3237918
vt -0.08810407 0.2
vt 0.08810409 0.2
vt 0 0.3237918
vt 0.169052 0
vt 0.25 0.1762082
vt 0.830948 0
vt -0.08810407 0.2
vt 1.117587E-08 0
vt 0.5881041 0.2
vt 0.669052 0
vt 0.3309479 0
vt 0.4118959 0.2
vt 0.5 0.3237918
vt 0.5 0
vt 0.5881041 0.4
vt 0.5 0.5
vt 0.5881041 0.6
vt 0.5 0.6762082
vt 0.4118959 0.4
vt 0.4118959 0.6
vt 0.3381041 0.5
vt 0.3080699 0.3333333
vt 0.1919301 0.3333333
vt 0.25 0.5
vt 0.1618959 0.5
vt 0.1919301 0.6666667
vt 0.3080699 0.6666667
vt 0.25 0.8237918
vt 0.4118959 0.8
vt 0.3309479 1
vt 0.669052 1
vt 0.5881041 0.8
vt 0.75 0.8237918
vt 0.5 1
vt 0.169052 1
vt 0.08810409 0.8
vt -0.08810407 0.8
vt 0 0.6762082
vt 0.9118959 0.8
vt 0.830948 1
vt 1.117587E-08 1
vt 0.9118959 0.6
vt 1 0.6762082
vt 0.8080699 0.6666667
vt 0.6919301 0.6666667
vt 1 0.5
vt 0.08810409 0.4
vt 0 0.5
vt 0.08810409 0.6

usemtl ground (Instance)
usemap ground (Instance)
f 1/1/1 2/2/2 3/3/3
f 2/2/2 4/4/4 5/5/5
f 4/4/4 1/1/1 6/6/6
f 1/1/1 4/4/4 2/2/2
f 2/2/2 7/7/7 3/3/3
f 7/7/7 8/8/8 9/9/9
f 8/8/8 2/2/2 5/5/5
f 2/2/2 8/8/8 7/7/7
f 10/10/10 11/11/11 12/12/12
f 11/11/11 13/13/13 14/14/14
f 15/15/15 8/8/8 5/5/5
f 16/16/16 17/17/17 11/11/11
f 18/18/18 19/19/19 5/5/5
f 20/20/20 21/21/21 14/14/14
f 21/21/21 18/18/18 22/22/22
f 18/18/18 21/21/21 23/23/23
f 4/4/4 18/18/18 5/5/5
f 18/18/18 24/24/24 22/22/22
f 24/24/24 4/4/4 6/6/6
f 4/4/4 24/24/24 18/18/18
f 24/24/24 25/25/25 22/22/22
f 25/25/25 26/26/26 27/27/27
f 26/26/26 24/24/24 6/6/6
f 24/24/24 26/26/26 25/25/25
f 25/25/25 28/28/28 22/22/22
f 28/28/28 29/29/29 30/30/30
f 29/29/29 25/25/25 27/27/27
f 25/25/25 29/29/29 28/28/28
f 21/21/21 31/31/31 14/14/14
f 31/31/31 28/28/28 30/30/30
f 28/28/28 21/21/21 22/22/22
f 21/21/21 28/28/28 31/31/31
f 31/31/31 32/32/32 14/14/14
f 32/32/32 33/33/33 34/34/34
f 33/33/33 31/31/31 30/30/30
f 31/31/31 33/33/33 32/32/32
f 33/33/33 35/35/35 34/34/34
f 35/35/35 36/36/36 37/37/37
f 36/36/36 33/33/33 30/30/30
f 33/33/33 36/36/36 35/35/35
f 36/36/36 38/38/38 37/37/37
f 38/38/38 29/29/29 27/27/27
f 29/29/29 36/36/36 30/30/30
f 36/36/36 29/29/29 38/38/38
f 38/38/38 39/39/39 37/37/37
f 40/40/40 41/41/41 42/42/42
f 41/41/41 38/38/38 27/27/27
f 38/38/38 41/41/41 43/43/43
f 44/44/44 45/45/45 37/37/37
f 45/45/45 46/46/46 47/47/47
f 48/48/48 49/49/49 42/42/42
f 50/50/50 46/46/46 45/45/45
f 48/48/48 51/51/51 52/52/52
f 51/51/51 53/53/53 3/3/3
f 53/53/53 48/48/48 42/42/42
f 48/48/48 53/53/53 51/51/51
f 53/53/53 1/1/1 3/3/3
f 1/1/1 54/54/54 6/6/6
f 54/54/54 53/53/53 42/42/42
f 53/53/53 54/54/54 1/1/1
f 41/41/41 54/54/54 42/42/42
f 54/54/54 26/26/26 6/6/6
f 26/26/26 41/41/41 27/27/27
f 41/41/41 26/26/26 54/54/54
f 55/55/55 7/7/7 9/9/9
f 7/7/7 51/51/51 3/3/3
f 51/51/51 55/55/55 52/52/52
f 55/55/55 51/51/51 7/7/7
f 56/56/56 57/57/57 12/12/12
f 57/57/57 58/58/58 47/47/47
f 58/58/58 56/56/56 34/34/34
f 56/56/56 58/58/58 57/57/57
f 11/11/11 56/56/56 12/12/12
f 56/56/56 32/32/32 34/34/34
f 32/32/32 11/11/11 14/14/14
f 11/11/11 32/32/32 56/56/56
f 45/45/45 35/35/35 37/37/37
f 35/35/35 58/58/58 34/34/34
f 58/58/58 45/45/45 47/47/47
f 45/45/45 58/58/58 35/35/35
