g object
v 0 -2.523472E-05 181.2713
v -51.5692 97.52795 135.0099
v -98.66139 -2.61248E-05 159.6375
v 42.56155 80.51543 111.4276
v 0 179.1649 94.89709
v 85.69807 -2.268893E-05 138.6624
v -137.4128 61.23842 84.9258
v -70.10883 132.3067 43.32964
v -161.1849 116.1779 0
v -70.10883 132.3067 43.32964
v -65.5005 123.6793 -40.48154
v -161.1849 116.1779 0
v 0 191.4043 0
v 0 176.3473 -93.43076
v 0 191.4043 0
v -70.10883 132.3067 43.32964
v 0 191.4043 0
v 81.76086 154.4252 50.53099
v 0 191.4043 0
v 0 191.4043 0
v 93.85965 177.2137 -58.00845
v 144.1577 104.0422 0
v 0 191.4043 0
v 120.1907 53.52821 74.28194
v 205.33 -2.85421E-05 0
v 136.09 -60.70304 84.10825
v 171.3693 -123.5373 0
v 151.1569 67.42361 -93.4201
v 134.5585 -60.01991 -83.16171
v 86.33073 -2.284439E-05 -139.6861
v 58.99009 111.2968 -154.4381
v -49.87122 94.35876 -130.5646
v 0 -2.41313E-05 -173.5147
v -87.35431 -2.312716E-05 -141.3422
v -52.92727 -99.93031 -138.5654
v 52.87243 -99.74821 -138.4218
v 0 -206.2675 -109.0705
v 100.7774 -190.4189 -62.28384
v 0 -226.0663 0
v 0 -226.0663 0
v 87.714 -165.7084 54.21023
v 0 -198.0543 104.797
v 0 -226.0663 0
v 0 -226.0663 0
v -92.56904 -174.9305 -57.21081
v -93.71778 -177.0235 57.92077
v -159.4225 -114.9242 0
v -93.71778 -177.0235 57.92077
v 0 -226.0663 0
v 0 -226.0663 0
v -170.8393 -76.203 105.5845
v -159.4225 -114.9242 0
v -64.1567 -121.2241 167.9644
v 51.03767 -96.4083 133.6184
v -200.4159 -2.788672E-05 0
v -139.0499 62.05554 -85.93759
v -200.4159 -2.788672E-05 0
v -132.4604 -59.04084 -81.86505

vn 0.2887516 0.1716633 0.9418886
vn -0.4995045 0.450156 0.7401721
vn -0.5797194 0.2999028 0.7576172
vn 0.6545709 0.3242086 0.6829536
vn -0.002963139 0.8893215 0.4572729
vn 0.5470679 0.1136468 0.8293377
vn -0.6362622 0.4466696 0.6290125
vn -0.4835419 0.8095813 0.3328142
vn -0.6258657 0.7791414 0.03508256
vn -0.4835419 0.8095813 0.3328142
vn -0.4874896 0.7847711 -0.3827376
vn -0.6258657 0.7791414 0.03508256
vn -0.1055476 0.9943713 -0.009246332
vn -0.3358854 0.8417998 -0.4225567
vn -0.1055476 0.9943713 -0.009246332
vn -0.4835419 0.8095813 0.3328142
vn -0.1055476 0.9943713 -0.009246332
vn 0.5952666 0.4579607 0.6602497
vn -0.1055476 0.9943713 -0.009246332
vn -0.1055476 0.9943713 -0.009246332
vn 0.5358985 0.807139 0.2476679
vn 0.5926455 0.7971961 0.1151067
vn -0.1055476 0.9943713 -0.009246332
vn 0.4152602 0.5299158 0.7394243
vn 0.9980944 0.0614844 -0.005218514
vn 0.7000076 -0.3356544 0.6303375
vn 0.8555938 -0.5039459 0.1183121
vn 0.747333 -0.2565419 -0.6129271
vn 0.723336 0.1400556 -0.6761431
vn 0.5635915 -0.1104565 -0.8186353
vn 0.0797229 0.2574223 -0.9630046
vn -0.4725102 0.5015197 -0.7247152
vn 0.0133213 0.05705702 -0.998282
vn -0.529503 0.03687067 -0.8475063
vn -0.4991575 -0.3277861 -0.8021209
vn 0.4215845 -0.2259461 -0.8781884
vn -0.0421566 -0.7219988 -0.6906089
vn 0.6255144 -0.5489284 -0.5544451
vn 0.04797896 -0.9988259 -0.006698111
vn 0.04797896 -0.9988259 -0.006698111
vn 0.6002019 -0.5297974 0.5992266
vn 0.2777764 -0.7075956 0.6497297
vn 0.04797896 -0.9988259 -0.006698111
vn 0.04797896 -0.9988259 -0.006698111
vn -0.6602775 -0.4926095 -0.5668945
vn -0.4868363 -0.6490891 0.5845288
vn -0.9025917 -0.3265453 -0.2805289
vn -0.4868363 -0.6490891 0.5845288
vn 0.04797896 -0.9988259 -0.006698111
vn 0.04797896 -0.9988259 -0.006698111
vn -0.8393731 -0.2237625 0.4953618
vn -0.9025917 -0.3265453 -0.2805289
vn -0.1300119 -0.4822138 0.8663526
vn 0.4831915 -0.4249945 0.7654448
vn -0.9650613 -0.1749432 -0.1950682
vn -0.6257867 0.3332229 -0.705233
vn -0.9650613 -0.1749432 -0.1950682
vn -0.7359765 -0.3019074 -0.6059625

vt 0.75 0.5
vt 0.8080699 0.3333333
vt 0.8381041 0.5
vt 0.6919301 0.3333333
vt 0.75 0.1762082
vt 0.6618959 0.5
vt 0.9118959 0.4
vt 0.9118959 0.2
vt 1 0.3237918
vt -0.08810407 0.2
vt 0.08810409 0.2
vt 0 0.3237918
vt 0.169052 0
vt 0.25 0.1762082
vt 0.830948 0
vt -0.08810407 0.2
vt 1.117587E-08 0
vt 0.5881041 0.2
vt 0.669052 0
vt 0.3309479 0
vt 0.4118959 0.2
vt 0.5 0.3237918
vt 0.5 0
vt 0.5881041 0.4
vt 0.5 0.5
vt 0.5881041 0.6
vt 0.5 0.6762082
vt 0.4118959 0.4
vt 0.4118959 0.6
vt 0.3381041 0.5
vt 0.3080699 0.3333333
vt 0.1919301 0.3333333
vt 0.25 0.5
vt 0.1618959 0.5
vt 0.1919301 0.6666667
vt 0.3080699 0.6666667
vt 0.25 0.8237918
vt 0.4118959 0.8
vt 0.3309479 1
vt 0.669052 1
vt 0.5881041 0.8
vt 0.75 0.8237918
vt 0.5 1
vt 0.169052 1
vt 0.08810409 0.8
vt -0.08810407 0.8
vt 0 0.6762082
vt 0.9118959 0.8
vt 0.830948 1
vt 1.117587E-08 1
vt 0.9118959 0.6
vt 1 0.6762082
vt 0.8080699 0.6666667
vt 0.6919301 0.6666667
vt 1 0.5
vt 0.08810409 0.4
vt 0 0.5
vt 0.08810409 0.6

usemtl ground (Instance)
usemap ground (Instance)
f 1/1/1 2/2/2 3/3/3
f 2/2/2 4/4/4 5/5/5
f 4/4/4 1/1/1 6/6/6
f 1/1/1 4/4/4 2/2/2
f 2/2/2 7/7/7 3/3/3
f 7/7/7 8/8/8 9/9/9
f 8/8/8 2/2/2 5/5/5
f 2/2/2 8/8/8 7/7/7
f 10/10/10 11/11/11 12/12/12
f 11/11/11 13/13/13 14/14/14
f 15/15/15 8/8/8 5/5/5
f 16/16/16 17/17/17 11/11/11
f 18/18/18 19/19/19 5/5/5
f 20/20/20 21/21/21 14/14/14
f 21/21/21 18/18/18 22/22/22
f 18/18/18 21/21/21 23/23/23
f 4/4/4 18/18/18 5/5/5
f 18/18/18 24/24/24 22/22/22
f 24/24/24 4/4/4 6/6/6
f 4/4/4 24/24/24 18/18/18
f 24/24/24 25/25/25 22/22/22
f 25/25/25 26/26/26 27/27/27
f 26/26/26 24/24/24 6/6/6
f 24/24/24 26/26/26 25/25/25
f 25/25/25 28/28/28 22/22/22
f 28/28/28 29/29/29 30/30/30
f 29/29/29 25/25/25 27/27/27
f 25/25/25 29/29/29 28/28/28
f 21/21/21 31/31/31 14/14/14
f 31/31/31 28/28/28 30/30/30
f 28/28/28 21/21/21 22/22/22
f 21/21/21 28/28/28 31/31/31
f 31/31/31 32/32/32 14/14/14
f 32/32/32 33/33/33 34/34/34
f 33/33/33 31/31/31 30/30/30
f 31/31/31 33/33/33 32/32/32
f 33/33/33 35/35/35 34/34/34
f 35/35/35 36/36/36 37/37/37
f 36/36/36 33/33/33 30/30/30
f 33/33/33 36/36/36 35/35/35
f 36/36/36 38/38/38 37/37/37
f 38/38/38 29/29/29 27/27/27
f 29/29/29 36/36/36 30/30/30
f 36/36/36 29/29/29 38/38/38
f 38/38/38 39/39/39 37/37/37
f 40/40/40 41/41/41 42/42/42
f 41/41/41 38/38/38 27/27/27
f 38/38/38 41/41/41 43/43/43
f 44/44/44 45/45/45 37/37/37
f 45/45/45 46/46/46 47/47/47
f 48/48/48 49/49/49 42/42/42
f 50/50/50 46/46/46 45/45/45
f 48/48/48 51/51/51 52/52/52
f 51/51/51 53/53/53 3/3/3
f 53/53/53 48/48/48 42/42/42
f 48/48/48 53/53/53 51/51/51
f 53/53/53 1/1/1 3/3/3
f 1/1/1 54/54/54 6/6/6
f 54/54/54 53/53/53 42/42/42
f 53/53/53 54/54/54 1/1/1
f 41/41/41 54/54/54 42/42/42
f 54/54/54 26/26/26 6/6/6
f 26/26/26 41/41/41 27/27/27
f 41/41/41 26/26/26 54/54/54
f 55/55/55 7/7/7 9/9/9
f 7/7/7 51/51/51 3/3/3
f 51/51/51 55/55/55 52/52/52
f 55/55/55 51/51/51 7/7/7
f 56/56/56 57/57/57 12/12/12
f 57/57/57 58/58/58 47/47/47
f 58/58/58 56/56/56 34/34/34
f 56/56/56 58/58/58 57/57/57
f 11/11/11 56/56/56 12/12/12
f 56/56/56 32/32/32 34/34/34
f 32/32/32 11/11/11 14/14/14
f 11/11/11 32/32/32 56/56/56
f 45/45/45 35/35/35 37/37/37
f 35/35/35 58/58/58 34/34/34
f 58/58/58 45/45/45 47/47/47
f 45/45/45 58/58/58 35/35/35
