g object
v 55.99425 -2.045452E-05 90.60061
v 0 196.0784 74.93684
v -83.574 -3.070366E-05 135.2256
v -146.258 146.2594 0
v 0 172.399 -66.05348
v 121.3411 121.5046 0
v 101.4958 -101.5427 0
v 55.25888 -2.025769E-05 -89.41074
v -59.13583 -2.158587E-05 -95.68378
v 0 -222.4095 -85.19559
v 0 -137.9521 53.04449
v -139.96 -140.3394 0

vn 0.5920492 -0.05026396 0.8043327
vn -0.5059248 0.7551908 0.4168055
vn -0.5958243 0.2136769 0.7741677
vn -0.8230322 0.5660811 -0.04658471
vn -0.05256956 0.7695296 -0.6364437
vn 0.9454771 0.1885055 -0.2655911
vn 0.9079145 -0.2972052 0.2955679
vn 0.4364856 -0.199447 -0.8773263
vn -0.1000703 0.1067759 -0.9892344
vn 0.4344133 -0.4713678 -0.7675268
vn 0.1964616 -0.6937844 0.6928681
vn -0.6232751 -0.7602581 -0.1831277

vt 0.6618959 0.5
vt 0.75 0.1762082
vt 0.8381041 0.5
vt 1 0.3237918
vt 0.25 0.1762082
vt 0.5 0.3237918
vt 0.5 0.6762082
vt 0.3381041 0.5
vt 0.1618959 0.5
vt 0.25 0.8237918
vt 0.75 0.8237918
vt 1 0.6762082

usemtl ground (Instance)
usemap ground (Instance)
f 1/1/1 2/2/2 3/3/3
f 2/2/2 4/4/4 3/3/3
f 2/2/2 5/5/5 4/4/4
f 6/6/6 5/5/5 2/2/2
f 1/1/1 6/6/6 2/2/2
f 1/1/1 7/7/7 6/6/6
f 7/7/7 8/8/8 6/6/6
f 6/6/6 8/8/8 5/5/5
f 8/8/8 9/9/9 5/5/5
f 8/8/8 10/10/10 9/9/9
f 8/8/8 7/7/7 10/10/10
f 7/7/7 11/11/11 10/10/10
f 11/11/11 12/12/12 10/10/10
f 11/11/11 3/3/3 12/12/12
f 11/11/11 1/1/1 3/3/3
f 7/7/7 1/1/1 11/11/11
f 12/12/12 3/3/3 4/4/4
f 9/9/9 12/12/12 4/4/4
f 5/5/5 9/9/9 4/4/4
f 12/12/12 9/9/9 10/10/10
