g object
v 0 -2.70328E-05 139.9615
v -51.80433 135.7573 135.6255
v -83.574 -3.070366E-05 135.2256
v 44.46709 115.9516 116.4164
v 0 196.0784 74.93684
v 55.99425 -2.045452E-05 90.60061
v -138.0258 85.73413 85.30464
v -64.39578 167.8436 39.79878
v -146.258 146.2594 0
v -64.39578 167.8436 39.79878
v -61.18631 161.2313 -37.81522
v -146.258 146.2594 0
v 0 205.6824 0
v 0 172.399 -66.05348
v 0 205.6824 0
v -64.39578 167.8436 39.79878
v 0 205.6824 0
v 82.6749 217.2279 51.09589
v 0 205.6824 0
v 0 205.6824 0
v 65.31922 171.0139 -40.3695
v 121.3411 121.5046 0
v 0 205.6824 0
v 102.3207 63.38436 63.23769
v 138.2584 -2.665258E-05 0
v 83.68225 -51.7882 51.71848
v 101.4958 -101.5427 0
v 103.6396 64.13911 -64.05278
v 79.93867 -49.47142 -49.40482
v 55.25888 -2.025769E-05 -89.41074
v 36.19913 95.16685 -94.77057
v -34.70069 90.85245 -90.84759
v 0 -1.884881E-05 -97.5066
v -59.13583 -2.158587E-05 -95.68378
v -46.1916 -120.971 -120.9312
v 27.14129 -70.54938 -71.05682
v 0 -222.4095 -85.19559
v 69.68193 -182.6755 -43.0658
v 0 -211.6447 0
v 0 -211.6447 0
v 55.32272 -145.6698 34.19132
v 0 -137.9521 53.04449
v 0 -211.6447 0
v 0 -211.6447 0
v -78.71671 -205.5192 -48.64959
v -71.47308 -186.3436 44.17279
v -139.96 -140.3394 0
v -71.47308 -186.3436 44.17279
v 0 -211.6447 0
v 0 -211.6447 0
v -132.9465 -82.27621 82.16544
v -139.96 -140.3394 0
v -44.70015 -117.1842 117.0265
v 37.32075 -97.31022 97.707
v -166.0768 -3.195214E-05 0
v -133.883 82.70161 -82.74426
v -166.0768 -3.195214E-05 0
v -133.2185 -82.8162 -82.33355

vn 0.5683002 -0.0262263 0.8224033
vn -0.3420914 0.5864158 0.7342275
vn -0.5958243 0.2136769 0.7741677
vn 0.5554165 -0.02020941 0.8313267
vn -0.5059248 0.7551908 0.4168055
vn 0.5920492 -0.05026396 0.8043327
vn -0.8541095 0.262083 0.4492321
vn -0.2763281 0.8997406 0.3378012
vn -0.8230322 0.5660811 -0.04658471
vn -0.2763281 0.8997406 0.3378012
vn -0.1873389 0.9223443 -0.3379128
vn -0.8230322 0.5660811 -0.04658471
vn -0.4692563 0.8205962 -0.3262214
vn -0.05256956 0.7695296 -0.6364437
vn -0.4692563 0.8205962 -0.3262214
vn -0.2763281 0.8997406 0.3378012
vn -0.4692563 0.8205962 -0.3262214
vn 0.7444136 0.5351768 0.399292
vn -0.4692563 0.8205962 -0.3262214
vn -0.4692563 0.8205962 -0.3262214
vn 0.47439 0.5001221 -0.7244528
vn 0.9454771 0.1885055 -0.2655911
vn -0.4692563 0.8205962 -0.3262214
vn 0.6352924 -0.01744266 0.7720747
vn 0.9681646 -0.2410374 0.06751568
vn 0.8157623 -0.2785889 0.5068728
vn 0.9079145 -0.2972052 0.2955679
vn 0.828658 0.09663618 -0.5513507
vn 0.2708789 -0.4709069 -0.8395661
vn 0.4364856 -0.199447 -0.8773263
vn 0.07847236 0.149809 -0.985596
vn -0.1715744 0.1245893 -0.9772613
vn -0.04223743 0.1323503 -0.9903027
vn -0.1000703 0.1067759 -0.9892344
vn 0.05825444 0.02238916 -0.9980507
vn 0.6490824 -0.1258106 -0.7502424
vn 0.4344133 -0.4713678 -0.7675268
vn 0.6871405 -0.2816585 -0.6697063
vn 0.3294914 -0.6144558 0.7168539
vn 0.3294914 -0.6144558 0.7168539
vn 0.3813467 -0.551244 0.7420948
vn 0.1964616 -0.6937844 0.6928681
vn 0.3294914 -0.6144558 0.7168539
vn 0.3294914 -0.6144558 0.7168539
vn -0.8787208 -0.4338287 -0.1991042
vn 0.1373957 -0.7223746 0.6777147
vn -0.6232751 -0.7602581 -0.1831277
vn 0.1373957 -0.7223746 0.6777147
vn 0.3294914 -0.6144558 0.7168539
vn 0.3294914 -0.6144558 0.7168539
vn -0.7297241 -0.4119543 0.5457071
vn -0.6232751 -0.7602581 -0.1831277
vn 0.1559832 -0.7800579 0.6059529
vn 0.4999075 -0.5617707 0.6591707
vn -0.9845101 -0.1047212 -0.1406174
vn -0.4602773 0.2344378 -0.8562615
vn -0.9845101 -0.1047212 -0.1406174
vn -0.7940184 -0.01139779 -0.6077868

vt 0.75 0.5
vt 0.8080699 0.3333333
vt 0.8381041 0.5
vt 0.6919301 0.3333333
vt 0.75 0.1762082
vt 0.6618959 0.5
vt 0.9118959 0.4
vt 0.9118959 0.2
vt 1 0.3237918
vt -0.08810407 0.2
vt 0.08810409 0.2
vt 0 0.3237918
vt 0.169052 0
vt 0.25 0.1762082
vt 0.830948 0
vt -0.08810407 0.2
vt 1.117587E-08 0
vt 0.5881041 0.2
vt 0.669052 0
vt 0.3309479 0
vt 0.4118959 0.2
vt 0.5 0.3237918
vt 0.5 0
vt 0.5881041 0.4
vt 0.5 0.5
vt 0.5881041 0.6
vt 0.5 0.6762082
vt 0.4118959 0.4
vt 0.4118959 0.6
vt 0.3381041 0.5
vt 0.3080699 0.3333333
vt 0.1919301 0.3333333
vt 0.25 0.5
vt 0.1618959 0.5
vt 0.1919301 0.6666667
vt 0.3080699 0.6666667
vt 0.25 0.8237918
vt 0.4118959 0.8
vt 0.3309479 1
vt 0.669052 1
vt 0.5881041 0.8
vt 0.75 0.8237918
vt 0.5 1
vt 0.169052 1
vt 0.08810409 0.8
vt -0.08810407 0.8
vt 0 0.6762082
vt 0.9118959 0.8
vt 0.830948 1
vt 1.117587E-08 1
vt 0.9118959 0.6
vt 1 0.6762082
vt 0.8080699 0.6666667
vt 0.6919301 0.6666667
vt 1 0.5
vt 0.08810409 0.4
vt 0 0.5
vt 0.08810409 0.6

usemtl ground (Instance)
usemap ground (Instance)
f 1/1/1 2/2/2 3/3/3
f 2/2/2 4/4/4 5/5/5
f 4/4/4 1/1/1 6/6/6
f 1/1/1 4/4/4 2/2/2
f 2/2/2 7/7/7 3/3/3
f 7/7/7 8/8/8 9/9/9
f 8/8/8 2/2/2 5/5/5
f 2/2/2 8/8/8 7/7/7
f 10/10/10 11/11/11 12/12/12
f 11/11/11 13/13/13 14/14/14
f 15/15/15 8/8/8 5/5/5
f 16/16/16 17/17/17 11/11/11
f 18/18/18 19/19/19 5/5/5
f 20/20/20 21/21/21 14/14/14
f 21/21/21 18/18/18 22/22/22
f 18/18/18 21/21/21 23/23/23
f 4/4/4 18/18/18 5/5/5
f 18/18/18 24/24/24 22/22/22
f 24/24/24 4/4/4 6/6/6
f 4/4/4 24/24/24 18/18/18
f 24/24/24 25/25/25 22/22/22
f 25/25/25 26/26/26 27/27/27
f 26/26/26 24/24/24 6/6/6
f 24/24/24 26/26/26 25/25/25
f 25/25/25 28/28/28 22/22/22
f 28/28/28 29/29/29 30/30/30
f 29/29/29 25/25/25 27/27/27
f 25/25/25 29/29/29 28/28/28
f 21/21/21 31/31/31 14/14/14
f 31/31/31 28/28/28 30/30/30
f 28/28/28 21/21/21 22/22/22
f 21/21/21 28/28/28 31/31/31
f 31/31/31 32/32/32 14/14/14
f 32/32/32 33/33/33 34/34/34
f 33/33/33 31/31/31 30/30/30
f 31/31/31 33/33/33 32/32/32
f 33/33/33 35/35/35 34/34/34
f 35/35/35 36/36/36 37/37/37
f 36/36/36 33/33/33 30/30/30
f 33/33/33 36/36/36 35/35/35
f 36/36/36 38/38/38 37/37/37
f 38/38/38 29/29/29 27/27/27
f 29/29/29 36/36/36 30/30/30
f 36/36/36 29/29/29 38/38/38
f 38/38/38 39/39/39 37/37/37
f 40/40/40 41/41/41 42/42/42
f 41/41/41 38/38/38 27/27/27
f 38/38/38 41/41/41 43/43/43
f 44/44/44 45/45/45 37/37/37
f 45/45/45 46/46/46 47/47/47
f 48/48/48 49/49/49 42/42/42
f 50/50/50 46/46/46 45/45/45
f 48/48/48 51/51/51 52/52/52
f 51/51/51 53/53/53 3/3/3
f 53/53/53 48/48/48 42/42/42
f 48/48/48 53/53/53 51/51/51
f 53/53/53 1/1/1 3/3/3
f 1/1/1 54/54/54 6/6/6
f 54/54/54 53/53/53 42/42/42
f 53/53/53 54/54/54 1/1/1
f 41/41/41 54/54/54 42/42/42
f 54/54/54 26/26/26 6/6/6
f 26/26/26 41/41/41 27/27/27
f 41/41/41 26/26/26 54/54/54
f 55/55/55 7/7/7 9/9/9
f 7/7/7 51/51/51 3/3/3
f 51/51/51 55/55/55 52/52/52
f 55/55/55 51/51/51 7/7/7
f 56/56/56 57/57/57 12/12/12
f 57/57/57 58/58/58 47/47/47
f 58/58/58 56/56/56 34/34/34
f 56/56/56 58/58/58 57/57/57
f 11/11/11 56/56/56 12/12/12
f 56/56/56 32/32/32 34/34/34
f 32/32/32 11/11/11 14/14/14
f 11/11/11 32/32/32 56/56/56
f 45/45/45 35/35/35 37/37/37
f 35/35/35 58/58/58 34/34/34
f 58/58/58 45/45/45 47/47/47
f 45/45/45 58/58/58 35/35/35
