g object
v 92.0638 -3.290383E-05 148.9624
v 0 198.0301 77.62383
v -87.02966 -3.12373E-05 140.817
v -113.1667 110.7661 0
v 0 240.4191 -93.7013
v 150.9333 147.6581 0
v 110.9456 -107.9922 0
v 83.42438 -2.989177E-05 -134.9835
v -94.78525 -3.393751E-05 -153.3658
v 0 -166.7217 -64.75219
v 0 -181.5443 71.28295
v -98.96237 -97.33868 0

vn 0.4074771 0.1431731 0.9019223
vn -0.3179212 0.5879034 0.7438385
vn -0.4967496 0.1439975 0.8558648
vn -0.9899052 0.1417288 0.0008162942
vn -0.003820234 0.7389356 -0.6737652
vn 0.9491026 0.2949632 0.1104579
vn 0.9589031 -0.283725 -0.002217693
vn 0.4939587 -0.3418661 -0.7994574
vn -0.5342656 0.006107908 -0.8452946
vn 0.002175463 -0.7175102 -0.6965446
vn -0.278204 -0.8895786 0.3622876
vn -0.8214095 -0.5509075 0.1476055

vt 0.6618959 0.5
vt 0.75 0.1762082
vt 0.8381041 0.5
vt 1 0.3237918
vt 0.25 0.1762082
vt 0.5 0.3237918
vt 0.5 0.6762082
vt 0.3381041 0.5
vt 0.1618959 0.5
vt 0.25 0.8237918
vt 0.75 0.8237918
vt 1 0.6762082

usemtl ground (Instance)
usemap ground (Instance)
f 1/1/1 2/2/2 3/3/3
f 2/2/2 4/4/4 3/3/3
f 2/2/2 5/5/5 4/4/4
f 6/6/6 5/5/5 2/2/2
f 1/1/1 6/6/6 2/2/2
f 1/1/1 7/7/7 6/6/6
f 7/7/7 8/8/8 6/6/6
f 6/6/6 8/8/8 5/5/5
f 8/8/8 9/9/9 5/5/5
f 8/8/8 10/10/10 9/9/9
f 8/8/8 7/7/7 10/10/10
f 7/7/7 11/11/11 10/10/10
f 11/11/11 12/12/12 10/10/10
f 11/11/11 3/3/3 12/12/12
f 11/11/11 1/1/1 3/3/3
f 7/7/7 1/1/1 11/11/11
f 12/12/12 3/3/3 4/4/4
f 9/9/9 12/12/12 4/4/4
f 5/5/5 9/9/9 4/4/4
f 12/12/12 9/9/9 10/10/10
