g object
v 0 -2.658235E-05 140.8716
v -36.67971 93.5202 96.02873
v -87.02966 -3.12373E-05 140.817
v 38.16839 97.81399 99.92613
v 0 198.0301 77.62383
v 92.0638 -3.290383E-05 148.9624
v -112.1029 67.53059 69.28339
v -84.75748 216.2529 52.383
v -113.1667 110.7661 0
v -84.75748 216.2529 52.383
v -81.75273 209.167 -50.52596
v -113.1667 110.7661 0
v 0 282.3408 0
v 0 240.4191 -93.7013
v 0 282.3408 0
v -84.75748 216.2529 52.383
v 0 282.3408 0
v 88.62517 227.7263 54.77336
v 0 282.3408 0
v 0 282.3408 0
v 84.34172 215.3048 -52.12605
v 150.9333 147.6581 0
v 0 282.3408 0
v 117.0236 70.66573 72.32456
v 156.3742 -2.936792E-05 0
v 128.994 -77.99277 79.72269
v 110.9456 -107.9922 0
v 144.8376 87.57214 -89.51457
v 110.9704 -67.09528 -68.58348
v 83.42438 -2.989177E-05 -134.9835
v 49.83794 127.5291 -130.4774
v -50.18696 128.3374 -131.3912
v 0 -3.288809E-05 -174.9983
v -94.78525 -3.393751E-05 -153.3658
v -47.83931 -123.0161 -125.245
v 32.78883 -83.73864 -85.84229
v 0 -166.7217 -64.75219
v 71.63605 -183.4759 -44.27351
v 0 -182.2776 0
v 0 -182.2776 0
v 78.19894 -201.1165 48.3296
v 0 -181.5443 71.28295
v 0 -182.2776 0
v 0 -182.2776 0
v -64.16034 -164.9168 -39.65327
v -49.58589 -126.8862 30.64577
v -98.96237 -97.33868 0
v -49.58589 -126.8862 30.64577
v 0 -182.2776 0
v 0 -182.2776 0
v -109.8378 -66.41049 67.88351
v -98.96237 -97.33868 0
v -51.78205 -132.6254 135.5672
v 54.65207 -139.4171 143.081
v -120.322 -2.26453E-05 0
v -124.7783 75.10488 -77.11721
v -120.322 -2.26453E-05 0
v -131.8511 -79.38901 -81.48843

vn -0.04830251 0.4070669 0.9121203
vn 0.150826 0.1699604 0.9738403
vn -0.4967496 0.1439975 0.8558648
vn -0.2286598 0.1523755 0.9615074
vn -0.3179212 0.5879034 0.7438385
vn 0.4074771 0.1431731 0.9019223
vn -0.996715 0.03695657 0.07206475
vn -0.3599188 0.686558 0.6317409
vn -0.9899052 0.1417288 0.0008162942
vn -0.3599188 0.686558 0.6317409
vn -0.8702099 0.410144 -0.272977
vn -0.9899052 0.1417288 0.0008162942
vn -0.2829501 0.9438474 0.1705619
vn -0.003820234 0.7389356 -0.6737652
vn -0.2829501 0.9438474 0.1705619
vn -0.3599188 0.686558 0.6317409
vn -0.2829501 0.9438474 0.1705619
vn 0.6283504 0.6406119 0.4413526
vn -0.2829501 0.9438474 0.1705619
vn -0.2829501 0.9438474 0.1705619
vn 0.5610331 0.7838625 -0.2660854
vn 0.9491026 0.2949632 0.1104579
vn -0.2829501 0.9438474 0.1705619
vn 0.897052 0.09975236 0.4305198
vn 0.9540908 -0.0382564 0.2970642
vn 0.9669176 -0.2511669 0.04455863
vn 0.9589031 -0.283725 -0.002217693
vn 0.8217651 0.1558319 -0.5481046
vn 0.5081784 -0.5126068 -0.6920904
vn 0.4939587 -0.3418661 -0.7994574
vn 0.3818662 0.1570375 -0.9107785
vn -0.336634 0.08707444 -0.937601
vn 0.196246 -0.1686231 -0.9659471
vn -0.5342656 0.006107908 -0.8452946
vn 0.2269207 -0.6460169 -0.7288135
vn 0.2439303 -0.4097042 -0.8789997
vn 0.002175463 -0.7175102 -0.6965446
vn 0.4271571 -0.5597161 -0.7101089
vn -0.3265133 -0.934201 0.1437275
vn -0.3265133 -0.934201 0.1437275
vn 0.3803979 -0.8810601 0.2811237
vn -0.278204 -0.8895786 0.3622876
vn -0.3265133 -0.934201 0.1437275
vn -0.3265133 -0.934201 0.1437275
vn -0.2918643 -0.9550991 0.05099848
vn -0.6479483 -0.741012 -0.17625
vn -0.8214095 -0.5509075 0.1476055
vn -0.6479483 -0.741012 -0.17625
vn -0.3265133 -0.934201 0.1437275
vn -0.3265133 -0.934201 0.1437275
vn -0.9346994 -0.2276228 0.2729925
vn -0.8214095 -0.5509075 0.1476055
vn -0.40692 -0.6338634 0.6577486
vn 0.2313335 -0.3947135 0.8892053
vn -0.9928665 0.1136115 0.03617323
vn -0.9748052 0.2166967 0.0528901
vn -0.9928665 0.1136115 0.03617323
vn -0.966103 -0.248058 0.07150031

vt 0.75 0.5
vt 0.8080699 0.3333333
vt 0.8381041 0.5
vt 0.6919301 0.3333333
vt 0.75 0.1762082
vt 0.6618959 0.5
vt 0.9118959 0.4
vt 0.9118959 0.2
vt 1 0.3237918
vt -0.08810407 0.2
vt 0.08810409 0.2
vt 0 0.3237918
vt 0.169052 0
vt 0.25 0.1762082
vt 0.830948 0
vt -0.08810407 0.2
vt 1.117587E-08 0
vt 0.5881041 0.2
vt 0.669052 0
vt 0.3309479 0
vt 0.4118959 0.2
vt 0.5 0.3237918
vt 0.5 0
vt 0.5881041 0.4
vt 0.5 0.5
vt 0.5881041 0.6
vt 0.5 0.6762082
vt 0.4118959 0.4
vt 0.4118959 0.6
vt 0.3381041 0.5
vt 0.3080699 0.3333333
vt 0.1919301 0.3333333
vt 0.25 0.5
vt 0.1618959 0.5
vt 0.1919301 0.6666667
vt 0.3080699 0.6666667
vt 0.25 0.8237918
vt 0.4118959 0.8
vt 0.3309479 1
vt 0.669052 1
vt 0.5881041 0.8
vt 0.75 0.8237918
vt 0.5 1
vt 0.169052 1
vt 0.08810409 0.8
vt -0.08810407 0.8
vt 0 0.6762082
vt 0.9118959 0.8
vt 0.830948 1
vt 1.117587E-08 1
vt 0.9118959 0.6
vt 1 0.6762082
vt 0.8080699 0.6666667
vt 0.6919301 0.6666667
vt 1 0.5
vt 0.08810409 0.4
vt 0 0.5
vt 0.08810409 0.6

usemtl ground (Instance)
usemap ground (Instance)
f 1/1/1 2/2/2 3/3/3
f 2/2/2 4/4/4 5/5/5
f 4/4/4 1/1/1 6/6/6
f 1/1/1 4/4/4 2/2/2
f 2/2/2 7/7/7 3/3/3
f 7/7/7 8/8/8 9/9/9
f 8/8/8 2/2/2 5/5/5
f 2/2/2 8/8/8 7/7/7
f 10/10/10 11/11/11 12/12/12
f 11/11/11 13/13/13 14/14/14
f 15/15/15 8/8/8 5/5/5
f 16/16/16 17/17/17 11/11/11
f 18/18/18 19/19/19 5/5/5
f 20/20/20 21/21/21 14/14/14
f 21/21/21 18/18/18 22/22/22
f 18/18/18 21/21/21 23/23/23
f 4/4/4 18/18/18 5/5/5
f 18/18/18 24/24/24 22/22/22
f 24/24/24 4/4/4 6/6/6
f 4/4/4 24/24/24 18/18/18
f 24/24/24 25/25/25 22/22/22
f 25/25/25 26/26/26 27/27/27
f 26/26/26 24/24/24 6/6/6
f 24/24/24 26/26/26 25/25/25
f 25/25/25 28/28/28 22/22/22
f 28/28/28 29/29/29 30/30/30
f 29/29/29 25/25/25 27/27/27
f 25/25/25 29/29/29 28/28/28
f 21/21/21 31/31/31 14/14/14
f 31/31/31 28/28/28 30/30/30
f 28/28/28 21/21/21 22/22/22
f 21/21/21 28/28/28 31/31/31
f 31/31/31 32/32/32 14/14/14
f 32/32/32 33/33/33 34/34/34
f 33/33/33 31/31/31 30/30/30
f 31/31/31 33/33/33 32/32/32
f 33/33/33 35/35/35 34/34/34
f 35/35/35 36/36/36 37/37/37
f 36/36/36 33/33/33 30/30/30
f 33/33/33 36/36/36 35/35/35
f 36/36/36 38/38/38 37/37/37
f 38/38/38 29/29/29 27/27/27
f 29/29/29 36/36/36 30/30/30
f 36/36/36 29/29/29 38/38/38
f 38/38/38 39/39/39 37/37/37
f 40/40/40 41/41/41 42/42/42
f 41/41/41 38/38/38 27/27/27
f 38/38/38 41/41/41 43/43/43
f 44/44/44 45/45/45 37/37/37
f 45/45/45 46/46/46 47/47/47
f 48/48/48 49/49/49 42/42/42
f 50/50/50 46/46/46 45/45/45
f 48/48/48 51/51/51 52/52/52
f 51/51/51 53/53/53 3/3/3
f 53/53/53 48/48/48 42/42/42
f 48/48/48 53/53/53 51/51/51
f 53/53/53 1/1/1 3/3/3
f 1/1/1 54/54/54 6/6/6
f 54/54/54 53/53/53 42/42/42
f 53/53/53 54/54/54 1/1/1
f 41/41/41 54/54/54 42/42/42
f 54/54/54 26/26/26 6/6/6
f 26/26/26 41/41/41 27/27/27
f 41/41/41 26/26/26 54/54/54
f 55/55/55 7/7/7 9/9/9
f 7/7/7 51/51/51 3/3/3
f 51/51/51 55/55/55 52/52/52
f 55/55/55 51/51/51 7/7/7
f 56/56/56 57/57/57 12/12/12
f 57/57/57 58/58/58 47/47/47
f 58/58/58 56/56/56 34/34/34
f 56/56/56 58/58/58 57/57/57
f 11/11/11 56/56/56 12/12/12
f 56/56/56 32/32/32 34/34/34
f 32/32/32 11/11/11 14/14/14
f 11/11/11 32/32/32 56/56/56
f 45/45/45 35/35/35 37/37/37
f 35/35/35 58/58/58 34/34/34
f 58/58/58 45/45/45 47/47/47
f 45/45/45 58/58/58 35/35/35
