g object
v 67.66492 -2.113724E-05 109.4841
v 0 154.9333 69.53471
v -81.35928 -2.539051E-05 131.6421
v -107.9896 91.54053 0
v 0 193.2014 -86.83242
v 172.2118 146.485 0
v 156.6834 -133.1445 0
v 104.4394 -3.250678E-05 -168.9865
v -92.15353 -2.874038E-05 -149.1075
v 0 -209.6897 -94.27676
v 0 -225.1453 101.307
v -107.8919 -91.66533 0

vn 0.4315155 -0.2734078 0.8596759
vn -0.2244081 0.9503058 0.2157777
vn -0.6618959 -0.1291908 0.7383791
vn -0.9634577 0.2369848 0.12485
vn -0.3823324 0.9152645 -0.1269361
vn 0.9198297 0.3889697 -0.05114593
vn 0.981135 -0.1705598 0.0910134
vn 0.7308832 0.03635961 -0.6815335
vn -0.5865635 -0.1158471 -0.8015751
vn -0.3559428 -0.7245344 -0.5902158
vn -0.2280125 -0.7718411 0.5935248
vn -0.971897 -0.2323595 0.03775332

vt 0.6618959 0.5
vt 0.75 0.1762082
vt 0.8381041 0.5
vt 1 0.3237918
vt 0.25 0.1762082
vt 0.5 0.3237918
vt 0.5 0.6762082
vt 0.3381041 0.5
vt 0.1618959 0.5
vt 0.25 0.8237918
vt 0.75 0.8237918
vt 1 0.6762082

usemtl ground (Instance)
usemap ground (Instance)
f 1/1/1 2/2/2 3/3/3
f 2/2/2 4/4/4 3/3/3
f 2/2/2 5/5/5 4/4/4
f 6/6/6 5/5/5 2/2/2
f 1/1/1 6/6/6 2/2/2
f 1/1/1 7/7/7 6/6/6
f 7/7/7 8/8/8 6/6/6
f 6/6/6 8/8/8 5/5/5
f 8/8/8 9/9/9 5/5/5
f 8/8/8 10/10/10 9/9/9
f 8/8/8 7/7/7 10/10/10
f 7/7/7 11/11/11 10/10/10
f 11/11/11 12/12/12 10/10/10
f 11/11/11 3/3/3 12/12/12
f 11/11/11 1/1/1 3/3/3
f 7/7/7 1/1/1 11/11/11
f 12/12/12 3/3/3 4/4/4
f 9/9/9 12/12/12 4/4/4
f 5/5/5 9/9/9 4/4/4
f 12/12/12 9/9/9 10/10/10
