g object
v 0 -2.548369E-05 181.1789
v -51.81303 98.78364 135.6483
v -95.23125 -2.547831E-05 154.0874
v 64.73866 123.4265 169.488
v 0 199.738 104.499
v 82.55198 -2.204954E-05 133.5719
v -114.3927 51.54359 70.69859
v -85.75703 163.6679 53.00076
v -168.2096 122.5598 0
v -85.75703 163.6679 53.00076
v -91.14129 173.9526 -56.32841
v -168.2096 122.5598 0
v 0 242.4969 0
v 0 166.1868 -86.94851
v 0 242.4969 0
v -85.75703 163.6679 53.00076
v 0 242.4969 0
v 105.0323 200.4479 64.91351
v 0 242.4969 0
v 0 242.4969 0
v 89.22887 170.2828 -55.14647
v 174.4804 127.2342 0
v 0 242.4969 0
v 167.3302 75.49394 103.4158
v 211.3809 -2.969196E-05 0
v 139.003 -62.64606 85.90855
v 176.2436 -128.6684 0
v 169.0259 76.17679 -104.4637
v 169.5962 -76.43385 -104.8162
v 98.63897 -2.638262E-05 -159.6012
v 52.59896 100.3234 -137.7059
v -50.2065 95.80647 -131.4423
v 0 -2.346257E-05 -166.9991
v -100.6659 -2.689843E-05 -162.8809
v -57.14538 -109.0271 -149.6086
v 62.13832 -118.6084 -162.6803
v 0 -202.943 -106.411
v 96.11935 -183.503 -59.40502
v 0 -167.7982 0
v 0 -167.7982 0
v 85.98499 -164.3969 53.14164
v 0 -160.4331 84.04822
v 0 -167.7982 0
v 0 -167.7982 0
v -84.55692 -161.2431 -52.25904
v -70.40126 -134.2663 43.51037
v -115.1269 -84.11967 0
v -70.40126 -134.2663 43.51037
v 0 -167.7982 0
v 0 -167.7982 0
v -137.6705 -62.04552 85.08502
v -115.1269 -84.11967 0
v -55.27046 -105.5178 144.7
v 50.01048 -95.29689 130.9291
v -166.4116 -2.339117E-05 0
v -160.6247 72.4191 -99.27154
v -166.4116 -2.339117E-05 0
v -144.5729 -65.08435 -89.35097

vn 0.1338474 -0.1518326 0.9793018
vn -0.5838469 0.4206891 0.6943655
vn -0.6380215 0.149573 0.7553519
vn 0.1947753 0.4138032 0.8892859
vn -0.2979157 0.7053653 0.6431998
vn 0.3373233 -0.3723321 0.8646282
vn -0.6508256 0.5578454 0.5150093
vn -0.6401377 0.5102676 0.5743263
vn -0.8392076 0.451727 0.3027758
vn -0.6401377 0.5102676 0.5743263
vn -0.360136 0.674113 -0.6448826
vn -0.8392076 0.451727 0.3027758
vn 0.01013465 0.9662328 -0.2574712
vn 0.02095722 0.7201515 -0.6935002
vn 0.01013465 0.9662328 -0.2574712
vn -0.6401377 0.5102676 0.5743263
vn 0.01013465 0.9662328 -0.2574712
vn 0.5305718 0.786343 0.3164778
vn 0.01013465 0.9662328 -0.2574712
vn 0.01013465 0.9662328 -0.2574712
vn 0.08916894 0.8332095 -0.5457205
vn 0.6426123 0.7525869 -0.1437439
vn 0.01013465 0.9662328 -0.2574712
vn 0.8011333 0.1728834 0.5729719
vn 0.9985272 -0.0111582 0.0530935
vn 0.6266831 -0.298998 0.7196308
vn 0.869424 -0.4774463 0.1270705
vn 0.7616917 0.3344843 -0.5549287
vn 0.7947315 -0.3012802 -0.526908
vn 0.2351809 -0.06347796 -0.9698765
vn 0.02404007 0.2284643 -0.9732554
vn -0.2175972 0.5370345 -0.8150126
vn 0.06904837 0.02876504 -0.9971986
vn -0.3511241 0.07271555 -0.9335011
vn -0.3052801 -0.4750064 -0.825332
vn 0.08888375 -0.3484085 -0.9331191
vn 0.2294483 -0.8013535 -0.5524365
vn 0.1470973 -0.8222374 -0.5498073
vn 0.04271998 -0.9513338 0.3051871
vn 0.04271998 -0.9513338 0.3051871
vn 0.2836344 -0.7937053 0.5381295
vn -0.04336749 -0.868099 0.4944931
vn 0.04271998 -0.9513338 0.3051871
vn 0.04271998 -0.9513338 0.3051871
vn -0.711756 -0.6952859 -0.09990503
vn -0.775964 -0.5929505 0.21515
vn -0.8124157 -0.4902083 0.3157159
vn -0.775964 -0.5929505 0.21515
vn 0.04271998 -0.9513338 0.3051871
vn 0.04271998 -0.9513338 0.3051871
vn -0.8738769 -0.4859197 0.01487043
vn -0.8124157 -0.4902083 0.3157159
vn -0.1861552 -0.5651128 0.8037373
vn 0.4156463 -0.4145492 0.8095598
vn -0.9791985 -0.1872954 0.078044
vn -0.737704 0.3413805 -0.5824537
vn -0.9791985 -0.1872954 0.078044
vn -0.8803037 -0.4446164 -0.1654736

vt 0.75 0.5
vt 0.8080699 0.3333333
vt 0.8381041 0.5
vt 0.6919301 0.3333333
vt 0.75 0.1762082
vt 0.6618959 0.5
vt 0.9118959 0.4
vt 0.9118959 0.2
vt 1 0.3237918
vt -0.08810407 0.2
vt 0.08810409 0.2
vt 0 0.3237918
vt 0.169052 0
vt 0.25 0.1762082
vt 0.830948 0
vt -0.08810407 0.2
vt 1.117587E-08 0
vt 0.5881041 0.2
vt 0.669052 0
vt 0.3309479 0
vt 0.4118959 0.2
vt 0.5 0.3237918
vt 0.5 0
vt 0.5881041 0.4
vt 0.5 0.5
vt 0.5881041 0.6
vt 0.5 0.6762082
vt 0.4118959 0.4
vt 0.4118959 0.6
vt 0.3381041 0.5
vt 0.3080699 0.3333333
vt 0.1919301 0.3333333
vt 0.25 0.5
vt 0.1618959 0.5
vt 0.1919301 0.6666667
vt 0.3080699 0.6666667
vt 0.25 0.8237918
vt 0.4118959 0.8
vt 0.3309479 1
vt 0.669052 1
vt 0.5881041 0.8
vt 0.75 0.8237918
vt 0.5 1
vt 0.169052 1
vt 0.08810409 0.8
vt -0.08810407 0.8
vt 0 0.6762082
vt 0.9118959 0.8
vt 0.830948 1
vt 1.117587E-08 1
vt 0.9118959 0.6
vt 1 0.6762082
vt 0.8080699 0.6666667
vt 0.6919301 0.6666667
vt 1 0.5
vt 0.08810409 0.4
vt 0 0.5
vt 0.08810409 0.6

usemtl ground (Instance)
usemap ground (Instance)
f 1/1/1 2/2/2 3/3/3
f 2/2/2 4/4/4 5/5/5
f 4/4/4 1/1/1 6/6/6
f 1/1/1 4/4/4 2/2/2
f 2/2/2 7/7/7 3/3/3
f 7/7/7 8/8/8 9/9/9
f 8/8/8 2/2/2 5/5/5
f 2/2/2 8/8/8 7/7/7
f 10/10/10 11/11/11 12/12/12
f 11/11/11 13/13/13 14/14/14
f 15/15/15 8/8/8 5/5/5
f 16/16/16 17/17/17 11/11/11
f 18/18/18 19/19/19 5/5/5
f 20/20/20 21/21/21 14/14/14
f 21/21/21 18/18/18 22/22/22
f 18/18/18 21/21/21 23/23/23
f 4/4/4 18/18/18 5/5/5
f 18/18/18 24/24/24 22/22/22
f 24/24/24 4/4/4 6/6/6
f 4/4/4 24/24/24 18/18/18
f 24/24/24 25/25/25 22/22/22
f 25/25/25 26/26/26 27/27/27
f 26/26/26 24/24/24 6/6/6
f 24/24/24 26/26/26 25/25/25
f 25/25/25 28/28/28 22/22/22
f 28/28/28 29/29/29 30/30/30
f 29/29/29 25/25/25 27/27/27
f 25/25/25 29/29/29 28/28/28
f 21/21/21 31/31/31 14/14/14
f 31/31/31 28/28/28 30/30/30
f 28/28/28 21/21/21 22/22/22
f 21/21/21 28/28/28 31/31/31
f 31/31/31 32/32/32 14/14/14
f 32/32/32 33/33/33 34/34/34
f 33/33/33 31/31/31 30/30/30
f 31/31/31 33/33/33 32/32/32
f 33/33/33 35/35/35 34/34/34
f 35/35/35 36/36/36 37/37/37
f 36/36/36 33/33/33 30/30/30
f 33/33/33 36/36/36 35/35/35
f 36/36/36 38/38/38 37/37/37
f 38/38/38 29/29/29 27/27/27
f 29/29/29 36/36/36 30/30/30
f 36/36/36 29/29/29 38/38/38
f 38/38/38 39/39/39 37/37/37
f 40/40/40 41/41/41 42/42/42
f 41/41/41 38/38/38 27/27/27
f 38/38/38 41/41/41 43/43/43
f 44/44/44 45/45/45 37/37/37
f 45/45/45 46/46/46 47/47/47
f 48/48/48 49/49/49 42/42/42
f 50/50/50 46/46/46 45/45/45
f 48/48/48 51/51/51 52/52/52
f 51/51/51 53/53/53 3/3/3
f 53/53/53 48/48/48 42/42/42
f 48/48/48 53/53/53 51/51/51
f 53/53/53 1/1/1 3/3/3
f 1/1/1 54/54/54 6/6/6
f 54/54/54 53/53/53 42/42/42
f 53/53/53 54/54/54 1/1/1
f 41/41/41 54/54/54 42/42/42
f 54/54/54 26/26/26 6/6/6
f 26/26/26 41/41/41 27/27/27
f 41/41/41 26/26/26 54/54/54
f 55/55/55 7/7/7 9/9/9
f 7/7/7 51/51/51 3/3/3
f 51/51/51 55/55/55 52/52/52
f 55/55/55 51/51/51 7/7/7
f 56/56/56 57/57/57 12/12/12
f 57/57/57 58/58/58 47/47/47
f 58/58/58 56/56/56 34/34/34
f 56/56/56 58/58/58 57/57/57
f 11/11/11 56/56/56 12/12/12
f 56/56/56 32/32/32 34/34/34
f 32/32/32 11/11/11 14/14/14
f 11/11/11 32/32/32 56/56/56
f 45/45/45 35/35/35 37/37/37
f 35/35/35 58/58/58 34/34/34
f 58/58/58 45/45/45 47/47/47
f 45/45/45 58/58/58 35/35/35
