g object
v 99.63668 -3.231841E-05 161.2155
v 0 189.8936 82.33155
v -101.99 -3.306974E-05 165.0233
v -127.2211 112.3296 0
v 0 233.5909 -101.0478
v 117.5825 103.9159 0
v 106.5192 -93.78892 0
v 103.0193 -3.331494E-05 -166.6888
v -67.38595 -2.1887E-05 -109.0328
v 0 -151.8749 -65.93665
v 0 -235.512 101.5937
v -132.4652 -116.8969 0

vn 0.7855264 0.03023954 0.6180889
vn -0.4926022 0.8617473 0.1213866
vn -0.5794245 -0.04442112 0.8138145
vn -0.8948113 0.4464443 -0.0004396267
vn -0.2334479 0.9195721 -0.3160526
vn 0.9606255 0.1477423 0.2353103
vn 0.9506963 -0.02879626 -0.3087835
vn 0.6177838 0.03912135 -0.7853742
vn -0.79749 0.1263907 -0.589945
vn 0.02567409 -0.8691991 -0.4937954
vn 0.04419916 -0.7435054 0.6672677
vn -0.9996777 -0.01784806 0.01805581

vt 0.6618959 0.5
vt 0.75 0.1762082
vt 0.8381041 0.5
vt 1 0.3237918
vt 0.25 0.1762082
vt 0.5 0.3237918
vt 0.5 0.6762082
vt 0.3381041 0.5
vt 0.1618959 0.5
vt 0.25 0.8237918
vt 0.75 0.8237918
vt 1 0.6762082

usemtl ground (Instance)
usemap ground (Instance)
f 1/1/1 2/2/2 3/3/3
f 2/2/2 4/4/4 3/3/3
f 2/2/2 5/5/5 4/4/4
f 6/6/6 5/5/5 2/2/2
f 1/1/1 6/6/6 2/2/2
f 1/1/1 7/7/7 6/6/6
f 7/7/7 8/8/8 6/6/6
f 6/6/6 8/8/8 5/5/5
f 8/8/8 9/9/9 5/5/5
f 8/8/8 10/10/10 9/9/9
f 8/8/8 7/7/7 10/10/10
f 7/7/7 11/11/11 10/10/10
f 11/11/11 12/12/12 10/10/10
f 11/11/11 3/3/3 12/12/12
f 11/11/11 1/1/1 3/3/3
f 7/7/7 1/1/1 11/11/11
f 12/12/12 3/3/3 4/4/4
f 9/9/9 12/12/12 4/4/4
f 5/5/5 9/9/9 4/4/4
f 12/12/12 9/9/9 10/10/10
