g object
v 0 -2.847991E-05 176.7551
v -43.82554 95.76376 114.7368
v -95.25064 -2.919248E-05 154.1188
v 46.03374 100.6033 120.5179
v 0 169.0849 77.59854
v 81.50002 -2.506599E-05 131.8698
v -127.8726 65.84351 79.02959
v -78.82098 172.5867 48.71404
v -122.3748 102.0638 0
v -78.82098 172.5867 48.71404
v -75.26583 164.5075 -46.51684
v -122.3748 102.0638 0
v 0 191.2403 0
v 0 182.2779 -83.27579
v 0 191.2403 0
v -78.82098 172.5867 48.71404
v 0 191.2403 0
v 74.1504 161.6859 45.82747
v 0 191.2403 0
v 0 191.2403 0
v 70.08363 152.8342 -43.31406
v 134.3864 112.2598 0
v 0 191.2403 0
v 116.3262 59.97766 71.89352
v 176.6639 -2.838463E-05 0
v 145.2426 -74.98522 89.76488
v 157.0288 -130.8763 0
v 146.434 75.60024 -90.50117
v 124.754 -64.40746 -77.10223
v 95.56343 -2.922636E-05 -154.6249
v 55.49228 121.0525 -145.2807
v -34.44501 75.62038 -90.1782
v 0 -2.382328E-05 -148.2565
v -78.03277 -2.390642E-05 -126.2597
v -48.23864 -105.5285 -126.2904
v 45.12246 -98.56185 -118.1321
v 0 -206.2866 -94.43465
v 91.46298 -200.0275 -56.52723
v 0 -214.8566 0
v 0 -214.8566 0
v 85.87458 -187.3284 53.0734
v 0 -162.048 74.32523
v 0 -214.8566 0
v 0 -214.8566 0
v -71.45231 -156.531 -44.15995
v -57.08905 -124.8012 35.28297
v -121.0973 -100.7805 0
v -57.08905 -124.8012 35.28297
v 0 -214.8566 0
v 0 -214.8566 0
v -133.986 -69.17371 82.80791
v -121.0973 -100.7805 0
v -52.49548 -114.8064 137.435
v 54.68978 -119.3922 143.1797
v -145.5346 -2.349752E-05 0
v -105.6746 54.34493 -65.31049
v -145.5346 -2.349752E-05 0
v -121.8405 -62.68217 -75.30159

vn -0.001168184 0.2502041 0.9681924
vn -0.2355525 0.4907304 0.8388674
vn -0.5301489 0.1114729 0.840545
vn 0.1360988 0.4846931 0.8640311
vn -0.002634932 0.7595886 0.6503985
vn 0.7572089 0.2938642 0.583334
vn -0.9140837 0.3296619 0.2361653
vn -0.4160177 0.7784559 0.470038
vn -0.9362421 0.3344781 -0.1075878
vn -0.4160177 0.7784559 0.470038
vn -0.612968 0.5702885 -0.5468466
vn -0.9362421 0.3344781 -0.1075878
vn 0.1505143 0.9879957 0.03478432
vn -0.004150772 0.8835322 -0.468352
vn 0.1505143 0.9879957 0.03478432
vn -0.4160177 0.7784559 0.470038
vn 0.1505143 0.9879957 0.03478432
vn 0.4055872 0.8775719 0.2556689
vn 0.1505143 0.9879957 0.03478432
vn 0.1505143 0.9879957 0.03478432
vn 0.3007879 0.9281147 -0.2193853
vn 0.830563 0.554143 -0.05559309
vn 0.1505143 0.9879957 0.03478432
vn 0.7113508 -0.07065208 0.6992769
vn 0.9859011 -0.004923872 0.1672572
vn 0.8192927 -0.06070299 0.5701532
vn 0.9016811 -0.4322116 -0.01281708
vn 0.8626958 0.2944243 -0.4111815
vn 0.8057129 0.1481014 -0.5734915
vn 0.3755955 -0.05036172 -0.9254143
vn 0.08586027 0.3665242 -0.9264384
vn -0.5954298 0.2584559 -0.7606996
vn -0.1784461 0.1024142 -0.9786053
vn -0.4878537 0.1427383 -0.8611763
vn -0.352646 -0.3474313 -0.8688684
vn -0.01739026 -0.2489712 -0.9683548
vn -0.1975612 -0.7175308 -0.6679214
vn 0.576695 -0.7198614 -0.3862931
vn -0.3555589 -0.8596414 0.3668714
vn -0.3555589 -0.8596414 0.3668714
vn 0.2029557 -0.8504538 0.485322
vn -0.1709317 -0.8425946 0.5107022
vn -0.3555589 -0.8596414 0.3668714
vn -0.3555589 -0.8596414 0.3668714
vn -0.7531098 -0.6256244 -0.2035188
vn -0.7269706 -0.5779003 0.3708708
vn -0.8194483 -0.5712442 0.04673875
vn -0.7269706 -0.5779003 0.3708708
vn -0.3555589 -0.8596414 0.3668714
vn -0.3555589 -0.8596414 0.3668714
vn -0.7968845 -0.5443042 0.2621223
vn -0.8194483 -0.5712442 0.04673875
vn -0.3712547 -0.7529413 0.5433685
vn 0.1813176 -0.6254618 0.7588949
vn -0.9854964 0.1607583 -0.05434714
vn -0.3652593 0.5639784 -0.7406173
vn -0.9854964 0.1607583 -0.05434714
vn -0.8531355 -0.3355922 -0.3994215

vt 0.75 0.5
vt 0.8080699 0.3333333
vt 0.8381041 0.5
vt 0.6919301 0.3333333
vt 0.75 0.1762082
vt 0.6618959 0.5
vt 0.9118959 0.4
vt 0.9118959 0.2
vt 1 0.3237918
vt -0.08810407 0.2
vt 0.08810409 0.2
vt 0 0.3237918
vt 0.169052 0
vt 0.25 0.1762082
vt 0.830948 0
vt -0.08810407 0.2
vt 1.117587E-08 0
vt 0.5881041 0.2
vt 0.669052 0
vt 0.3309479 0
vt 0.4118959 0.2
vt 0.5 0.3237918
vt 0.5 0
vt 0.5881041 0.4
vt 0.5 0.5
vt 0.5881041 0.6
vt 0.5 0.6762082
vt 0.4118959 0.4
vt 0.4118959 0.6
vt 0.3381041 0.5
vt 0.3080699 0.3333333
vt 0.1919301 0.3333333
vt 0.25 0.5
vt 0.1618959 0.5
vt 0.1919301 0.6666667
vt 0.3080699 0.6666667
vt 0.25 0.8237918
vt 0.4118959 0.8
vt 0.3309479 1
vt 0.669052 1
vt 0.5881041 0.8
vt 0.75 0.8237918
vt 0.5 1
vt 0.169052 1
vt 0.08810409 0.8
vt -0.08810407 0.8
vt 0 0.6762082
vt 0.9118959 0.8
vt 0.830948 1
vt 1.117587E-08 1
vt 0.9118959 0.6
vt 1 0.6762082
vt 0.8080699 0.6666667
vt 0.6919301 0.6666667
vt 1 0.5
vt 0.08810409 0.4
vt 0 0.5
vt 0.08810409 0.6

usemtl ground (Instance)
usemap ground (Instance)
f 1/1/1 2/2/2 3/3/3
f 2/2/2 4/4/4 5/5/5
f 4/4/4 1/1/1 6/6/6
f 1/1/1 4/4/4 2/2/2
f 2/2/2 7/7/7 3/3/3
f 7/7/7 8/8/8 9/9/9
f 8/8/8 2/2/2 5/5/5
f 2/2/2 8/8/8 7/7/7
f 10/10/10 11/11/11 12/12/12
f 11/11/11 13/13/13 14/14/14
f 15/15/15 8/8/8 5/5/5
f 16/16/16 17/17/17 11/11/11
f 18/18/18 19/19/19 5/5/5
f 20/20/20 21/21/21 14/14/14
f 21/21/21 18/18/18 22/22/22
f 18/18/18 21/21/21 23/23/23
f 4/4/4 18/18/18 5/5/5
f 18/18/18 24/24/24 22/22/22
f 24/24/24 4/4/4 6/6/6
f 4/4/4 24/24/24 18/18/18
f 24/24/24 25/25/25 22/22/22
f 25/25/25 26/26/26 27/27/27
f 26/26/26 24/24/24 6/6/6
f 24/24/24 26/26/26 25/25/25
f 25/25/25 28/28/28 22/22/22
f 28/28/28 29/29/29 30/30/30
f 29/29/29 25/25/25 27/27/27
f 25/25/25 29/29/29 28/28/28
f 21/21/21 31/31/31 14/14/14
f 31/31/31 28/28/28 30/30/30
f 28/28/28 21/21/21 22/22/22
f 21/21/21 28/28/28 31/31/31
f 31/31/31 32/32/32 14/14/14
f 32/32/32 33/33/33 34/34/34
f 33/33/33 31/31/31 30/30/30
f 31/31/31 33/33/33 32/32/32
f 33/33/33 35/35/35 34/34/34
f 35/35/35 36/36/36 37/37/37
f 36/36/36 33/33/33 30/30/30
f 33/33/33 36/36/36 35/35/35
f 36/36/36 38/38/38 37/37/37
f 38/38/38 29/29/29 27/27/27
f 29/29/29 36/36/36 30/30/30
f 36/36/36 29/29/29 38/38/38
f 38/38/38 39/39/39 37/37/37
f 40/40/40 41/41/41 42/42/42
f 41/41/41 38/38/38 27/27/27
f 38/38/38 41/41/41 43/43/43
f 44/44/44 45/45/45 37/37/37
f 45/45/45 46/46/46 47/47/47
f 48/48/48 49/49/49 42/42/42
f 50/50/50 46/46/46 45/45/45
f 48/48/48 51/51/51 52/52/52
f 51/51/51 53/53/53 3/3/3
f 53/53/53 48/48/48 42/42/42
f 48/48/48 53/53/53 51/51/51
f 53/53/53 1/1/1 3/3/3
f 1/1/1 54/54/54 6/6/6
f 54/54/54 53/53/53 42/42/42
f 53/53/53 54/54/54 1/1/1
f 41/41/41 54/54/54 42/42/42
f 54/54/54 26/26/26 6/6/6
f 26/26/26 41/41/41 27/27/27
f 41/41/41 26/26/26 54/54/54
f 55/55/55 7/7/7 9/9/9
f 7/7/7 51/51/51 3/3/3
f 51/51/51 55/55/55 52/52/52
f 55/55/55 51/51/51 7/7/7
f 56/56/56 57/57/57 12/12/12
f 57/57/57 58/58/58 47/47/47
f 58/58/58 56/56/56 34/34/34
f 56/56/56 58/58/58 57/57/57
f 11/11/11 56/56/56 12/12/12
f 56/56/56 32/32/32 34/34/34
f 32/32/32 11/11/11 14/14/14
f 11/11/11 32/32/32 56/56/56
f 45/45/45 35/35/35 37/37/37
f 35/35/35 58/58/58 34/34/34
f 58/58/58 45/45/45 47/47/47
f 45/45/45 58/58/58 35/35/35
