g object
v 0 -2.144384E-05 132.1116
v -53.34851 117.1608 139.6682
v -104.7569 -3.234302E-05 169.5002
v 44.17361 97.35275 115.648
v 0 196.0203 89.19583
v 69.54981 -2.143292E-05 112.534
v -165.4947 86.14696 102.2814
v -101.7411 224.2373 62.87945
v -164.708 138.5626 0
v -101.7411 224.2373 62.87945
v -98.39515 216.4498 -60.81154
v -164.708 138.5626 0
v 0 219.9688 0
v 0 232.964 -105.4859
v 0 219.9688 0
v -101.7411 224.2373 62.87945
v 0 219.9688 0
v 66.81537 147.0426 41.29417
v 0 219.9688 0
v 0 219.9688 0
v 59.19257 130.0462 -36.58302
v 134.8761 113.5008 0
v 0 219.9688 0
v 143.2647 74.48561 88.54244
v 138.2236 -2.239309E-05 0
v 148.3914 -77.17654 91.71095
v 161.2037 -135.4703 0
v 115.6477 60.14688 -71.47419
v 126.9388 -66.01927 -78.45247
v 101.9004 -3.151622E-05 -164.8784
v 63.61219 139.7937 -166.5389
v -60.35315 132.7828 -158.0066
v 0 -2.528267E-05 -156.2305
v -69.93995 -2.150733E-05 -113.1652
v -49.76101 -109.3321 -130.276
v 58.21497 -128.0635 -152.4088
v 0 -234.7473 -106.8016
v 94.57762 -208.3663 -58.45218
v 0 -226.8087 0
v 0 -226.8087 0
v 102.7542 -225.9542 63.50557
v 0 -177.1142 80.49868
v 0 -226.8087 0
v 0 -226.8087 0
v -61.61132 -135.6813 -38.07788
v -55.56994 -121.8711 34.3441
v -84.16714 -70.5564 0
v -55.56994 -121.8711 34.3441
v 0 -226.8087 0
v 0 -226.8087 0
v -123.0457 -63.99452 76.04641
v -84.16714 -70.5564 0
v -55.91278 -123.1829 146.3816
v 59.29391 -130.564 155.2335
v -150.9121 -2.447111E-05 0
v -116.6784 60.70449 -72.11124
v -150.9121 -2.447111E-05 0
v -105.6887 -55.03182 -65.3192

vn 0.3136379 0.2004066 0.9281533
vn 0.301948 0.3655516 0.8804541
vn -0.2679605 0.02424734 0.9631248
vn 0.266351 0.06384514 0.9617593
vn 0.1637178 0.5454217 0.8220168
vn 0.268608 0.145347 0.9522206
vn -0.8319022 0.2314131 0.5043676
vn -0.4875228 0.6908767 0.5338642
vn -0.8755612 0.4127994 0.2509765
vn -0.4875228 0.6908767 0.5338642
vn -0.7777475 0.6139287 -0.1349095
vn -0.8755612 0.4127994 0.2509765
vn 0.7776754 0.6276889 -0.03503589
vn 0.3848969 0.8951612 -0.224813
vn 0.7776754 0.6276889 -0.03503589
vn -0.4875228 0.6908767 0.5338642
vn 0.7776754 0.6276889 -0.03503589
vn 0.5196195 0.78347 -0.3408376
vn 0.7776754 0.6276889 -0.03503589
vn 0.7776754 0.6276889 -0.03503589
vn 0.5712173 0.7890817 0.2259666
vn 0.8470259 0.5033613 -0.1708055
vn 0.7776754 0.6276889 -0.03503589
vn 0.6337743 0.2300147 0.7385278
vn 0.9575357 0.04659193 -0.2845255
vn 0.9330127 0.03384063 0.3582488
vn 0.9970692 -0.07552283 -0.01221882
vn 0.9790914 0.02204057 -0.2022231
vn 0.9398745 0.1644793 -0.2993032
vn 0.7552701 -0.01005152 -0.6553366
vn 0.4626023 0.3958718 -0.7932746
vn -0.5983762 0.09140342 -0.7959844
vn -0.3004531 -0.2781193 -0.9123473
vn -0.7026107 -0.3737533 -0.6055136
vn -0.5678481 0.1684235 -0.8057183
vn 0.1551936 -0.4152855 -0.8963554
vn 0.03394737 -0.7689836 -0.6383665
vn 0.4740524 -0.5806393 -0.6619156
vn -0.6659436 -0.708204 0.2344491
vn -0.6659436 -0.708204 0.2344491
vn 0.4650762 -0.7778542 0.4226665
vn -0.3897496 -0.7684612 0.5075063
vn -0.6659436 -0.708204 0.2344491
vn -0.6659436 -0.708204 0.2344491
vn -0.8480992 -0.3694804 0.3797526
vn -0.8447016 -0.4872317 -0.2215504
vn -0.4395283 -0.8979394 0.02279652
vn -0.8447016 -0.4872317 -0.2215504
vn -0.6659436 -0.708204 0.2344491
vn -0.6659436 -0.708204 0.2344491
vn -0.7360114 -0.6754234 -0.04572114
vn -0.4395283 -0.8979394 0.02279652
vn -0.3434338 -0.7045618 0.621004
vn 0.215872 -0.008838977 0.9763817
vn -0.8756858 -0.3641915 -0.3170789
vn -0.7812942 -0.1873896 -0.5953694
vn -0.8756858 -0.3641915 -0.3170789
vn -0.8251945 -0.1637227 -0.5406005

vt 0.75 0.5
vt 0.8080699 0.3333333
vt 0.8381041 0.5
vt 0.6919301 0.3333333
vt 0.75 0.1762082
vt 0.6618959 0.5
vt 0.9118959 0.4
vt 0.9118959 0.2
vt 1 0.3237918
vt -0.08810407 0.2
vt 0.08810409 0.2
vt 0 0.3237918
vt 0.169052 0
vt 0.25 0.1762082
vt 0.830948 0
vt -0.08810407 0.2
vt 1.117587E-08 0
vt 0.5881041 0.2
vt 0.669052 0
vt 0.3309479 0
vt 0.4118959 0.2
vt 0.5 0.3237918
vt 0.5 0
vt 0.5881041 0.4
vt 0.5 0.5
vt 0.5881041 0.6
vt 0.5 0.6762082
vt 0.4118959 0.4
vt 0.4118959 0.6
vt 0.3381041 0.5
vt 0.3080699 0.3333333
vt 0.1919301 0.3333333
vt 0.25 0.5
vt 0.1618959 0.5
vt 0.1919301 0.6666667
vt 0.3080699 0.6666667
vt 0.25 0.8237918
vt 0.4118959 0.8
vt 0.3309479 1
vt 0.669052 1
vt 0.5881041 0.8
vt 0.75 0.8237918
vt 0.5 1
vt 0.169052 1
vt 0.08810409 0.8
vt -0.08810407 0.8
vt 0 0.6762082
vt 0.9118959 0.8
vt 0.830948 1
vt 1.117587E-08 1
vt 0.9118959 0.6
vt 1 0.6762082
vt 0.8080699 0.6666667
vt 0.6919301 0.6666667
vt 1 0.5
vt 0.08810409 0.4
vt 0 0.5
vt 0.08810409 0.6

usemtl ground (Instance)
usemap ground (Instance)
f 1/1/1 2/2/2 3/3/3
f 2/2/2 4/4/4 5/5/5
f 4/4/4 1/1/1 6/6/6
f 1/1/1 4/4/4 2/2/2
f 2/2/2 7/7/7 3/3/3
f 7/7/7 8/8/8 9/9/9
f 8/8/8 2/2/2 5/5/5
f 2/2/2 8/8/8 7/7/7
f 10/10/10 11/11/11 12/12/12
f 11/11/11 13/13/13 14/14/14
f 15/15/15 8/8/8 5/5/5
f 16/16/16 17/17/17 11/11/11
f 18/18/18 19/19/19 5/5/5
f 20/20/20 21/21/21 14/14/14
f 21/21/21 18/18/18 22/22/22
f 18/18/18 21/21/21 23/23/23
f 4/4/4 18/18/18 5/5/5
f 18/18/18 24/24/24 22/22/22
f 24/24/24 4/4/4 6/6/6
f 4/4/4 24/24/24 18/18/18
f 24/24/24 25/25/25 22/22/22
f 25/25/25 26/26/26 27/27/27
f 26/26/26 24/24/24 6/6/6
f 24/24/24 26/26/26 25/25/25
f 25/25/25 28/28/28 22/22/22
f 28/28/28 29/29/29 30/30/30
f 29/29/29 25/25/25 27/27/27
f 25/25/25 29/29/29 28/28/28
f 21/21/21 31/31/31 14/14/14
f 31/31/31 28/28/28 30/30/30
f 28/28/28 21/21/21 22/22/22
f 21/21/21 28/28/28 31/31/31
f 31/31/31 32/32/32 14/14/14
f 32/32/32 33/33/33 34/34/34
f 33/33/33 31/31/31 30/30/30
f 31/31/31 33/33/33 32/32/32
f 33/33/33 35/35/35 34/34/34
f 35/35/35 36/36/36 37/37/37
f 36/36/36 33/33/33 30/30/30
f 33/33/33 36/36/36 35/35/35
f 36/36/36 38/38/38 37/37/37
f 38/38/38 29/29/29 27/27/27
f 29/29/29 36/36/36 30/30/30
f 36/36/36 29/29/29 38/38/38
f 38/38/38 39/39/39 37/37/37
f 40/40/40 41/41/41 42/42/42
f 41/41/41 38/38/38 27/27/27
f 38/38/38 41/41/41 43/43/43
f 44/44/44 45/45/45 37/37/37
f 45/45/45 46/46/46 47/47/47
f 48/48/48 49/49/49 42/42/42
f 50/50/50 46/46/46 45/45/45
f 48/48/48 51/51/51 52/52/52
f 51/51/51 53/53/53 3/3/3
f 53/53/53 48/48/48 42/42/42
f 48/48/48 53/53/53 51/51/51
f 53/53/53 1/1/1 3/3/3
f 1/1/1 54/54/54 6/6/6
f 54/54/54 53/53/53 42/42/42
f 53/53/53 54/54/54 1/1/1
f 41/41/41 54/54/54 42/42/42
f 54/54/54 26/26/26 6/6/6
f 26/26/26 41/41/41 27/27/27
f 41/41/41 26/26/26 54/54/54
f 55/55/55 7/7/7 9/9/9
f 7/7/7 51/51/51 3/3/3
f 51/51/51 55/55/55 52/52/52
f 55/55/55 51/51/51 7/7/7
f 56/56/56 57/57/57 12/12/12
f 57/57/57 58/58/58 47/47/47
f 58/58/58 56/56/56 34/34/34
f 56/56/56 58/58/58 57/57/57
f 11/11/11 56/56/56 12/12/12
f 56/56/56 32/32/32 34/34/34
f 32/32/32 11/11/11 14/14/14
f 11/11/11 32/32/32 56/56/56
f 45/45/45 35/35/35 37/37/37
f 35/35/35 58/58/58 34/34/34
f 58/58/58 45/45/45 47/47/47
f 45/45/45 58/58/58 35/35/35
