g object
v 73.57715 -2.611192E-05 119.0503
v 0 196.3488 77.05234
v -59.19488 -2.111546E-05 95.77933
v -126.5015 123.0972 0
v 0 180.532 -71.09653
v 114.0827 110.9181 0
v 123.5408 -120.3789 0
v 57.54012 -2.041374E-05 -93.10187
v -90.77627 -3.225964E-05 -146.8791
v 0 -203.3601 -80.10829
v 0 -163.9626 64.76963
v -91.35497 -88.22643 0

vn 0.3163105 0.13682 0.9387374
vn -0.04339752 0.9964202 0.0725496
vn -0.5586467 -0.2219722 0.7991509
vn -0.9573483 0.1868432 0.2203948
vn 0.312487 0.8606567 -0.4020222
vn 0.9519287 0.251114 -0.1754239
vn 0.6018902 -0.7670209 0.2222769
vn 0.4644774 -0.2066988 -0.8611251
vn -0.2955853 -0.1304134 -0.9463729
vn 0.2785279 -0.3993672 -0.8734576
vn 0.4236963 -0.759804 0.4931323
vn -0.9671403 -0.246592 0.06190451

vt 0.6618959 0.5
vt 0.75 0.1762082
vt 0.8381041 0.5
vt 1 0.3237918
vt 0.25 0.1762082
vt 0.5 0.3237918
vt 0.5 0.6762082
vt 0.3381041 0.5
vt 0.1618959 0.5
vt 0.25 0.8237918
vt 0.75 0.8237918
vt 1 0.6762082

usemtl ground (Instance)
usemap ground (Instance)
f 1/1/1 2/2/2 3/3/3
f 2/2/2 4/4/4 3/3/3
f 2/2/2 5/5/5 4/4/4
f 6/6/6 5/5/5 2/2/2
f 1/1/1 6/6/6 2/2/2
f 1/1/1 7/7/7 6/6/6
f 7/7/7 8/8/8 6/6/6
f 6/6/6 8/8/8 5/5/5
f 8/8/8 9/9/9 5/5/5
f 8/8/8 10/10/10 9/9/9
f 8/8/8 7/7/7 10/10/10
f 7/7/7 11/11/11 10/10/10
f 11/11/11 12/12/12 10/10/10
f 11/11/11 3/3/3 12/12/12
f 11/11/11 1/1/1 3/3/3
f 7/7/7 1/1/1 11/11/11
f 12/12/12 3/3/3 4/4/4
f 9/9/9 12/12/12 4/4/4
f 5/5/5 9/9/9 4/4/4
f 12/12/12 9/9/9 10/10/10
