g object
v 0 -2.213387E-05 125.4765
v -33.67527 80.68726 88.163
v -71.01018 -2.382604E-05 114.8969
v 37.39627 89.99916 97.90472
v 0 146.3756 61.2543
v 64.64607 -2.163625E-05 104.5996
v -132.9622 74.94964 82.17515
v -68.74889 165.2954 42.48915
v -109.432 99.82531 0
v -68.74889 165.2954 42.48915
v -46.96885 112.1758 -29.02834
v -109.432 99.82531 0
v 0 180.2871 0
v 0 163.9905 -68.79951
v 0 180.2871 0
v -68.74889 165.2954 42.48915
v 0 180.2871 0
v 77.33923 184.588 47.79826
v 0 180.2871 0
v 0 180.2871 0
v 84.01758 201.2817 -51.92572
v 159.8034 146.1447 0
v 0 180.2871 0
v 107.0552 60.4045 66.16378
v 154.221 -2.715637E-05 0
v 100.373 -56.73183 62.03394
v 141.1235 -128.9435 0
v 139.7841 79.00731 -86.3913
v 90.66806 -51.2465 -56.03594
v 62.15281 -2.094481E-05 -100.5653
v 53.27222 127.3474 -139.4685
v -49.82283 118.8341 -130.4379
v 0 -2.977429E-05 -169.3294
v -82.23775 -2.752537E-05 -133.0635
v -56.82217 -135.9356 -148.7624
v 37.52907 -89.5846 -98.2524
v 0 -208.2585 -87.13567
v 78.24634 -187.3426 -48.35889
v 0 -196.402 0
v 0 -196.402 0
v 82.60415 -198.4641 51.05217
v 0 -140.0572 58.56271
v 0 -196.402 0
v 0 -196.402 0
v -86.79664 -207.4583 -53.64327
v -58.04941 -138.7016 35.87651
v -158.6734 -144.8499 0
v -58.04941 -138.7016 35.87651
v 0 -196.402 0
v 0 -196.402 0
v -149.9248 -84.73898 92.65861
v -158.6734 -144.8499 0
v -47.68732 -114.1762 124.847
v 43.27913 -103.1794 113.3062
v -128.1469 -2.254059E-05 0
v -90.64815 51.03574 -56.02364
v -128.1469 -2.254059E-05 0
v -128.6343 -72.99549 -79.50034

vn -0.1488523 0.3696921 0.9171537
vn 0.0694117 0.2895148 0.9546534
vn -0.2939805 0.2785062 0.9143357
vn -0.2123023 0.3730126 0.9032106
vn 0.01496788 0.6701626 0.7420635
vn 0.7012697 0.01569293 0.7127233
vn -0.6915562 0.2642488 0.6722519
vn -0.3622738 0.8984377 0.2481276
vn -0.9067048 0.2112291 -0.3650597
vn -0.3622738 0.8984377 0.2481276
vn -0.4626697 0.7916296 -0.3990729
vn -0.9067048 0.2112291 -0.3650597
vn -0.3485234 0.9012184 -0.2575593
vn -0.5292837 0.8417014 -0.1067592
vn -0.3485234 0.9012184 -0.2575593
vn -0.3622738 0.8984377 0.2481276
vn -0.3485234 0.9012184 -0.2575593
vn -0.06314642 0.6311684 0.7730712
vn -0.3485234 0.9012184 -0.2575593
vn -0.3485234 0.9012184 -0.2575593
vn -0.07597918 0.8853459 -0.4586826
vn 0.9374848 0.3328056 0.1017972
vn -0.3485234 0.9012184 -0.2575593
vn 0.7381163 -0.106539 0.6662086
vn 0.9427311 -0.2057902 0.2625041
vn 0.7392924 0.01008934 0.6733089
vn 0.922539 -0.2161237 -0.3197066
vn 0.7025763 -0.1438263 -0.6969222
vn 0.6471144 -0.1830408 -0.7400939
vn 0.6405681 -0.2976016 -0.7078882
vn 0.6592917 0.478848 -0.5796888
vn -0.799773 0.5133688 -0.3111521
vn 0.4464431 -0.1894471 -0.8745275
vn -0.8687596 0.2000592 -0.4530266
vn -0.2739308 -0.5484534 -0.7900385
vn 0.7593429 -0.07009114 -0.6469046
vn 0.1041833 -0.5992175 -0.7937784
vn 0.6236773 -0.2315966 -0.7465852
vn -0.4099606 -0.6621718 0.6272646
vn -0.4099606 -0.6621718 0.6272646
vn 0.2132339 -0.6359828 0.7416584
vn -0.4034063 -0.7942024 0.4544293
vn -0.4099606 -0.6621718 0.6272646
vn -0.4099606 -0.6621718 0.6272646
vn -0.3831841 -0.8828354 -0.2716092
vn 0.003149461 -0.8469396 0.5316797
vn -0.8444299 -0.519297 0.1314104
vn 0.003149461 -0.8469396 0.5316797
vn -0.4099606 -0.6621718 0.6272646
vn -0.4099606 -0.6621718 0.6272646
vn -0.7471493 -0.323171 0.5807998
vn -0.8444299 -0.519297 0.1314104
vn -0.1706776 -0.8558526 0.4882474
vn 0.5008595 -0.2648752 0.824003
vn -0.8777632 0.2827948 -0.3867285
vn -0.9088924 0.1959805 -0.3681117
vn -0.8777632 0.2827948 -0.3867285
vn -0.8725132 0.2414274 -0.4247746

vt 0.75 0.5
vt 0.8080699 0.3333333
vt 0.8381041 0.5
vt 0.6919301 0.3333333
vt 0.75 0.1762082
vt 0.6618959 0.5
vt 0.9118959 0.4
vt 0.9118959 0.2
vt 1 0.3237918
vt -0.08810407 0.2
vt 0.08810409 0.2
vt 0 0.3237918
vt 0.169052 0
vt 0.25 0.1762082
vt 0.830948 0
vt -0.08810407 0.2
vt 1.117587E-08 0
vt 0.5881041 0.2
vt 0.669052 0
vt 0.3309479 0
vt 0.4118959 0.2
vt 0.5 0.3237918
vt 0.5 0
vt 0.5881041 0.4
vt 0.5 0.5
vt 0.5881041 0.6
vt 0.5 0.6762082
vt 0.4118959 0.4
vt 0.4118959 0.6
vt 0.3381041 0.5
vt 0.3080699 0.3333333
vt 0.1919301 0.3333333
vt 0.25 0.5
vt 0.1618959 0.5
vt 0.1919301 0.6666667
vt 0.3080699 0.6666667
vt 0.25 0.8237918
vt 0.4118959 0.8
vt 0.3309479 1
vt 0.669052 1
vt 0.5881041 0.8
vt 0.75 0.8237918
vt 0.5 1
vt 0.169052 1
vt 0.08810409 0.8
vt -0.08810407 0.8
vt 0 0.6762082
vt 0.9118959 0.8
vt 0.830948 1
vt 1.117587E-08 1
vt 0.9118959 0.6
vt 1 0.6762082
vt 0.8080699 0.6666667
vt 0.6919301 0.6666667
vt 1 0.5
vt 0.08810409 0.4
vt 0 0.5
vt 0.08810409 0.6

usemtl ground (Instance)
usemap ground (Instance)
f 1/1/1 2/2/2 3/3/3
f 2/2/2 4/4/4 5/5/5
f 4/4/4 1/1/1 6/6/6
f 1/1/1 4/4/4 2/2/2
f 2/2/2 7/7/7 3/3/3
f 7/7/7 8/8/8 9/9/9
f 8/8/8 2/2/2 5/5/5
f 2/2/2 8/8/8 7/7/7
f 10/10/10 11/11/11 12/12/12
f 11/11/11 13/13/13 14/14/14
f 15/15/15 8/8/8 5/5/5
f 16/16/16 17/17/17 11/11/11
f 18/18/18 19/19/19 5/5/5
f 20/20/20 21/21/21 14/14/14
f 21/21/21 18/18/18 22/22/22
f 18/18/18 21/21/21 23/23/23
f 4/4/4 18/18/18 5/5/5
f 18/18/18 24/24/24 22/22/22
f 24/24/24 4/4/4 6/6/6
f 4/4/4 24/24/24 18/18/18
f 24/24/24 25/25/25 22/22/22
f 25/25/25 26/26/26 27/27/27
f 26/26/26 24/24/24 6/6/6
f 24/24/24 26/26/26 25/25/25
f 25/25/25 28/28/28 22/22/22
f 28/28/28 29/29/29 30/30/30
f 29/29/29 25/25/25 27/27/27
f 25/25/25 29/29/29 28/28/28
f 21/21/21 31/31/31 14/14/14
f 31/31/31 28/28/28 30/30/30
f 28/28/28 21/21/21 22/22/22
f 21/21/21 28/28/28 31/31/31
f 31/31/31 32/32/32 14/14/14
f 32/32/32 33/33/33 34/34/34
f 33/33/33 31/31/31 30/30/30
f 31/31/31 33/33/33 32/32/32
f 33/33/33 35/35/35 34/34/34
f 35/35/35 36/36/36 37/37/37
f 36/36/36 33/33/33 30/30/30
f 33/33/33 36/36/36 35/35/35
f 36/36/36 38/38/38 37/37/37
f 38/38/38 29/29/29 27/27/27
f 29/29/29 36/36/36 30/30/30
f 36/36/36 29/29/29 38/38/38
f 38/38/38 39/39/39 37/37/37
f 40/40/40 41/41/41 42/42/42
f 41/41/41 38/38/38 27/27/27
f 38/38/38 41/41/41 43/43/43
f 44/44/44 45/45/45 37/37/37
f 45/45/45 46/46/46 47/47/47
f 48/48/48 49/49/49 42/42/42
f 50/50/50 46/46/46 45/45/45
f 48/48/48 51/51/51 52/52/52
f 51/51/51 53/53/53 3/3/3
f 53/53/53 48/48/48 42/42/42
f 48/48/48 53/53/53 51/51/51
f 53/53/53 1/1/1 3/3/3
f 1/1/1 54/54/54 6/6/6
f 54/54/54 53/53/53 42/42/42
f 53/53/53 54/54/54 1/1/1
f 41/41/41 54/54/54 42/42/42
f 54/54/54 26/26/26 6/6/6
f 26/26/26 41/41/41 27/27/27
f 41/41/41 26/26/26 54/54/54
f 55/55/55 7/7/7 9/9/9
f 7/7/7 51/51/51 3/3/3
f 51/51/51 55/55/55 52/52/52
f 55/55/55 51/51/51 7/7/7
f 56/56/56 57/57/57 12/12/12
f 57/57/57 58/58/58 47/47/47
f 58/58/58 56/56/56 34/34/34
f 56/56/56 58/58/58 57/57/57
f 11/11/11 56/56/56 12/12/12
f 56/56/56 32/32/32 34/34/34
f 32/32/32 11/11/11 14/14/14
f 11/11/11 32/32/32 56/56/56
f 45/45/45 35/35/35 37/37/37
f 35/35/35 58/58/58 34/34/34
f 58/58/58 45/45/45 47/47/47
f 45/45/45 58/58/58 35/35/35
