g object
v 83.90306 -2.963668E-05 135.758
v 0 164.7034 65.36477
v -55.23018 -1.960148E-05 89.36431
v -97.29848 93.56507 0
v 0 174.1591 -68.89234
v 144.8225 140.0923 0
v 152.8429 -147.4216 0
v 85.26109 -3.018685E-05 -137.9553
v -85.11863 -3.011803E-05 -137.7248
v 0 -187.2368 -73.99638
v 0 -236.7921 93.41038
v -113.8109 -110.6336 0

vn 0.4798332 0.1316185 0.8674311
vn -0.4335653 0.768522 0.4705263
vn -0.6312999 0.1623076 0.7583645
vn -0.9675082 0.2470759 -0.0536783
vn -0.4092582 0.9124184 -0.0006947031
vn 0.7745274 0.6156734 -0.1450984
vn 0.9185554 -0.3927918 -0.04439144
vn 0.4602653 -0.357944 -0.8124235
vn -0.5416397 -0.1117096 -0.833155
vn 0.3913063 -0.403477 -0.8270947
vn -0.1446621 -0.7618982 0.6313351
vn -0.639663 -0.7085608 0.2979478

vt 0.6618959 0.5
vt 0.75 0.1762082
vt 0.8381041 0.5
vt 1 0.3237918
vt 0.25 0.1762082
vt 0.5 0.3237918
vt 0.5 0.6762082
vt 0.3381041 0.5
vt 0.1618959 0.5
vt 0.25 0.8237918
vt 0.75 0.8237918
vt 1 0.6762082

usemtl ground (Instance)
usemap ground (Instance)
f 1/1/1 2/2/2 3/3/3
f 2/2/2 4/4/4 3/3/3
f 2/2/2 5/5/5 4/4/4
f 6/6/6 5/5/5 2/2/2
f 1/1/1 6/6/6 2/2/2
f 1/1/1 7/7/7 6/6/6
f 7/7/7 8/8/8 6/6/6
f 6/6/6 8/8/8 5/5/5
f 8/8/8 9/9/9 5/5/5
f 8/8/8 10/10/10 9/9/9
f 8/8/8 7/7/7 10/10/10
f 7/7/7 11/11/11 10/10/10
f 11/11/11 12/12/12 10/10/10
f 11/11/11 3/3/3 12/12/12
f 11/11/11 1/1/1 3/3/3
f 7/7/7 1/1/1 11/11/11
f 12/12/12 3/3/3 4/4/4
f 9/9/9 12/12/12 4/4/4
f 5/5/5 9/9/9 4/4/4
f 12/12/12 9/9/9 10/10/10
