g object
v 0 -2.862865E-05 153.4352
v -34.09119 85.91049 89.25191
v -55.23018 -1.960148E-05 89.36431
v 51.39708 129.8405 134.5593
v 0 164.7034 65.36477
v 83.90306 -2.963668E-05 135.758
v -83.15578 49.61959 51.3931
v -54.69587 138.388 33.80391
v -97.29848 93.56507 0
v -54.69587 138.388 33.80391
v -55.68338 140.8077 -34.41422
v -97.29848 93.56507 0
v 0 161.4982 0
v 0 174.1591 -68.89234
v 0 161.4982 0
v -54.69587 138.388 33.80391
v 0 161.4982 0
v 77.85929 196.2703 48.11969
v 0 161.4982 0
v 0 161.4982 0
v 70.33479 178.2883 -43.46929
v 144.8225 140.0923 0
v 0 161.4982 0
v 146.1455 87.01025 90.32287
v 179.7888 -3.346367E-05 0
v 121.6914 -72.75298 75.20942
v 152.8429 -147.4216 0
v 144.1963 86.20744 -89.1182
v 114.9931 -68.74844 -71.06966
v 85.26109 -3.018685E-05 -137.9553
v 46.8988 118.3626 -122.7827
v -54.05629 136.3349 -141.5212
v 0 -2.943531E-05 -158.3329
v -85.11863 -3.011803E-05 -137.7248
v -45.65971 -115.3873 -119.5387
v 33.68853 -84.8438 -88.19774
v 0 -187.2368 -73.99638
v 68.00081 -172.2137 -42.02681
v 0 -278.2348 0
v 0 -278.2348 0
v 89.68806 -226.7633 55.43027
v 0 -236.7921 93.41038
v 0 -278.2348 0
v 0 -278.2348 0
v -79.85409 -202.0545 -49.35253
v -58.48322 -147.7171 36.14462
v -113.8109 -110.6336 0
v -58.48322 -147.7171 36.14462
v 0 -278.2348 0
v 0 -278.2348 0
v -101.2535 -60.5342 62.57809
v -113.8109 -110.6336 0
v -50.68713 -128.3664 132.7007
v 55.71115 -140.6058 145.8537
v -106.5205 -1.985608E-05 0
v -93.96263 56.32766 -58.07209
v -106.5205 -1.985608E-05 0
v -123.2847 -74.04204 -76.19416

vn -0.5389749 0.2409157 0.8071343
vn -0.6494896 0.2404761 0.7213421
vn -0.6312999 0.1623076 0.7583645
vn -0.2259384 0.4825758 0.8462106
vn -0.4335653 0.768522 0.4705263
vn 0.4798332 0.1316185 0.8674311
vn -0.6699814 0.1960286 0.716029
vn -0.507945 0.8192945 0.2659862
vn -0.9675082 0.2470759 -0.0536783
vn -0.507945 0.8192945 0.2659862
vn -0.4482828 0.891489 0.06549732
vn -0.9675082 0.2470759 -0.0536783
vn -0.455892 0.8883889 -0.05410752
vn -0.4092582 0.9124184 -0.0006947031
vn -0.455892 0.8883889 -0.05410752
vn -0.507945 0.8192945 0.2659862
vn -0.455892 0.8883889 -0.05410752
vn 0.04183706 0.9984047 -0.03791785
vn -0.455892 0.8883889 -0.05410752
vn -0.455892 0.8883889 -0.05410752
vn 0.2830436 0.9588063 0.02401737
vn 0.7745274 0.6156734 -0.1450984
vn -0.455892 0.8883889 -0.05410752
vn 0.8342167 0.2057993 0.5115948
vn 0.9993789 0.02997899 0.01852443
vn 0.8162537 -0.3278427 0.4756565
vn 0.9185554 -0.3927918 -0.04439144
vn 0.8198577 0.2497526 -0.5152253
vn 0.3457999 -0.456308 -0.8198814
vn 0.4602653 -0.357944 -0.8124235
vn 0.2091192 0.2897289 -0.9339842
vn -0.4174233 0.5814082 -0.6983712
vn -0.005264831 -0.3615117 -0.9323527
vn -0.5416397 -0.1117096 -0.833155
vn 0.2692241 -0.2834282 -0.9204275
vn 0.4292147 -0.2136673 -0.8775654
vn 0.3913063 -0.403477 -0.8270947
vn 0.3951418 -0.3327086 -0.8562523
vn -0.1347449 -0.990626 -0.02244678
vn -0.1347449 -0.990626 -0.02244678
vn 0.6510965 -0.6570073 0.3800196
vn -0.1446621 -0.7618982 0.6313351
vn -0.1347449 -0.990626 -0.02244678
vn -0.1347449 -0.990626 -0.02244678
vn -0.7583514 -0.5314454 0.3774504
vn -0.8592712 -0.5078338 -0.06129906
vn -0.639663 -0.7085608 0.2979478
vn -0.8592712 -0.5078338 -0.06129906
vn -0.1347449 -0.990626 -0.02244678
vn -0.1347449 -0.990626 -0.02244678
vn -0.8114989 0.1010456 0.5755513
vn -0.639663 -0.7085608 0.2979478
vn -0.6253127 -0.03849619 0.7794243
vn 0.3248875 -0.3308623 0.8859901
vn -0.9703518 0.2412287 0.01504284
vn -0.9837922 0.1660629 -0.06764564
vn -0.9703518 0.2412287 0.01504284
vn -0.9710156 0.1457744 -0.1894161

vt 0.75 0.5
vt 0.8080699 0.3333333
vt 0.8381041 0.5
vt 0.6919301 0.3333333
vt 0.75 0.1762082
vt 0.6618959 0.5
vt 0.9118959 0.4
vt 0.9118959 0.2
vt 1 0.3237918
vt -0.08810407 0.2
vt 0.08810409 0.2
vt 0 0.3237918
vt 0.169052 0
vt 0.25 0.1762082
vt 0.830948 0
vt -0.08810407 0.2
vt 1.117587E-08 0
vt 0.5881041 0.2
vt 0.669052 0
vt 0.3309479 0
vt 0.4118959 0.2
vt 0.5 0.3237918
vt 0.5 0
vt 0.5881041 0.4
vt 0.5 0.5
vt 0.5881041 0.6
vt 0.5 0.6762082
vt 0.4118959 0.4
vt 0.4118959 0.6
vt 0.3381041 0.5
vt 0.3080699 0.3333333
vt 0.1919301 0.3333333
vt 0.25 0.5
vt 0.1618959 0.5
vt 0.1919301 0.6666667
vt 0.3080699 0.6666667
vt 0.25 0.8237918
vt 0.4118959 0.8
vt 0.3309479 1
vt 0.669052 1
vt 0.5881041 0.8
vt 0.75 0.8237918
vt 0.5 1
vt 0.169052 1
vt 0.08810409 0.8
vt -0.08810407 0.8
vt 0 0.6762082
vt 0.9118959 0.8
vt 0.830948 1
vt 1.117587E-08 1
vt 0.9118959 0.6
vt 1 0.6762082
vt 0.8080699 0.6666667
vt 0.6919301 0.6666667
vt 1 0.5
vt 0.08810409 0.4
vt 0 0.5
vt 0.08810409 0.6

usemtl ground (Instance)
usemap ground (Instance)
f 1/1/1 2/2/2 3/3/3
f 2/2/2 4/4/4 5/5/5
f 4/4/4 1/1/1 6/6/6
f 1/1/1 4/4/4 2/2/2
f 2/2/2 7/7/7 3/3/3
f 7/7/7 8/8/8 9/9/9
f 8/8/8 2/2/2 5/5/5
f 2/2/2 8/8/8 7/7/7
f 10/10/10 11/11/11 12/12/12
f 11/11/11 13/13/13 14/14/14
f 15/15/15 8/8/8 5/5/5
f 16/16/16 17/17/17 11/11/11
f 18/18/18 19/19/19 5/5/5
f 20/20/20 21/21/21 14/14/14
f 21/21/21 18/18/18 22/22/22
f 18/18/18 21/21/21 23/23/23
f 4/4/4 18/18/18 5/5/5
f 18/18/18 24/24/24 22/22/22
f 24/24/24 4/4/4 6/6/6
f 4/4/4 24/24/24 18/18/18
f 24/24/24 25/25/25 22/22/22
f 25/25/25 26/26/26 27/27/27
f 26/26/26 24/24/24 6/6/6
f 24/24/24 26/26/26 25/25/25
f 25/25/25 28/28/28 22/22/22
f 28/28/28 29/29/29 30/30/30
f 29/29/29 25/25/25 27/27/27
f 25/25/25 29/29/29 28/28/28
f 21/21/21 31/31/31 14/14/14
f 31/31/31 28/28/28 30/30/30
f 28/28/28 21/21/21 22/22/22
f 21/21/21 28/28/28 31/31/31
f 31/31/31 32/32/32 14/14/14
f 32/32/32 33/33/33 34/34/34
f 33/33/33 31/31/31 30/30/30
f 31/31/31 33/33/33 32/32/32
f 33/33/33 35/35/35 34/34/34
f 35/35/35 36/36/36 37/37/37
f 36/36/36 33/33/33 30/30/30
f 33/33/33 36/36/36 35/35/35
f 36/36/36 38/38/38 37/37/37
f 38/38/38 29/29/29 27/27/27
f 29/29/29 36/36/36 30/30/30
f 36/36/36 29/29/29 38/38/38
f 38/38/38 39/39/39 37/37/37
f 40/40/40 41/41/41 42/42/42
f 41/41/41 38/38/38 27/27/27
f 38/38/38 41/41/41 43/43/43
f 44/44/44 45/45/45 37/37/37
f 45/45/45 46/46/46 47/47/47
f 48/48/48 49/49/49 42/42/42
f 50/50/50 46/46/46 45/45/45
f 48/48/48 51/51/51 52/52/52
f 51/51/51 53/53/53 3/3/3
f 53/53/53 48/48/48 42/42/42
f 48/48/48 53/53/53 51/51/51
f 53/53/53 1/1/1 3/3/3
f 1/1/1 54/54/54 6/6/6
f 54/54/54 53/53/53 42/42/42
f 53/53/53 54/54/54 1/1/1
f 41/41/41 54/54/54 42/42/42
f 54/54/54 26/26/26 6/6/6
f 26/26/26 41/41/41 27/27/27
f 41/41/41 26/26/26 54/54/54
f 55/55/55 7/7/7 9/9/9
f 7/7/7 51/51/51 3/3/3
f 51/51/51 55/55/55 52/52/52
f 55/55/55 51/51/51 7/7/7
f 56/56/56 57/57/57 12/12/12
f 57/57/57 58/58/58 47/47/47
f 58/58/58 56/56/56 34/34/34
f 56/56/56 58/58/58 57/57/57
f 11/11/11 56/56/56 12/12/12
f 56/56/56 32/32/32 34/34/34
f 32/32/32 11/11/11 14/14/14
f 11/11/11 32/32/32 56/56/56
f 45/45/45 35/35/35 37/37/37
f 35/35/35 58/58/58 34/34/34
f 58/58/58 45/45/45 47/47/47
f 45/45/45 58/58/58 35/35/35
