g object
v 61.96167 -2.01303E-05 100.2561
v 0 247.2104 106.3686
v -61.84976 -2.019381E-05 100.075
v -85.68405 76.66725 0
v 0 174.6574 -74.77438
v 148.5514 132.1974 0
v 130.4644 -115.8239 0
v 73.17189 -2.387262E-05 -118.3946
v -100.1806 -3.268337E-05 -162.0957
v 0 -246.5623 -105.9385
v 0 -213.0521 91.73741
v -159.7247 -142.3647 0

vn 0.6564121 -0.1876738 0.7306857
vn -0.2343597 0.7296629 0.642392
vn -0.5080596 0.4998123 0.701472
vn -0.8715135 0.4727668 -0.1302138
vn -0.03713167 0.7646392 -0.643388
vn 0.6372947 0.3556055 -0.6836668
vn 0.8659877 -0.2468971 0.4348644
vn 0.4073148 0.4631849 -0.7871178
vn -0.4975793 -0.3352436 -0.8000166
vn -0.1259895 -0.9230403 -0.3634877
vn 0.08120094 -0.3832216 0.9200802
vn -0.7000871 -0.6018416 0.3842715

vt 0.6618959 0.5
vt 0.75 0.1762082
vt 0.8381041 0.5
vt 1 0.3237918
vt 0.25 0.1762082
vt 0.5 0.3237918
vt 0.5 0.6762082
vt 0.3381041 0.5
vt 0.1618959 0.5
vt 0.25 0.8237918
vt 0.75 0.8237918
vt 1 0.6762082

usemtl ground (Instance)
usemap ground (Instance)
f 1/1/1 2/2/2 3/3/3
f 2/2/2 4/4/4 3/3/3
f 2/2/2 5/5/5 4/4/4
f 6/6/6 5/5/5 2/2/2
f 1/1/1 6/6/6 2/2/2
f 1/1/1 7/7/7 6/6/6
f 7/7/7 8/8/8 6/6/6
f 6/6/6 8/8/8 5/5/5
f 8/8/8 9/9/9 5/5/5
f 8/8/8 10/10/10 9/9/9
f 8/8/8 7/7/7 10/10/10
f 7/7/7 11/11/11 10/10/10
f 11/11/11 12/12/12 10/10/10
f 11/11/11 3/3/3 12/12/12
f 11/11/11 1/1/1 3/3/3
f 7/7/7 1/1/1 11/11/11
f 12/12/12 3/3/3 4/4/4
f 9/9/9 12/12/12 4/4/4
f 5/5/5 9/9/9 4/4/4
f 12/12/12 9/9/9 10/10/10
