g object
v 0 -2.860949E-05 166.6733
v -42.95069 99.99616 112.4464
v -61.84976 -2.019381E-05 100.075
v 61.71398 143.6236 161.5693
v 0 247.2104 106.3686
v 61.96167 -2.01303E-05 100.2561
v -99.22647 54.47702 61.32533
v -67.48566 156.645 41.70843
v -85.68405 76.66725 0
v -67.48566 156.645 41.70843
v -60.6803 140.8998 -37.50248
v -85.68405 76.66725 0
v 0 232.3916 0
v 0 174.6574 -74.77438
v 0 232.3916 0
v -67.48566 156.645 41.70843
v 0 232.3916 0
v 101.1621 235.1635 62.52161
v 0 232.3916 0
v 0 232.3916 0
v 70.42104 163.5991 -43.5226
v 148.5514 132.1974 0
v 0 232.3916 0
v 124.1403 68.04623 76.72289
v 166.8561 -2.860071E-05 0
v 92.23968 -50.73137 57.00726
v 130.4644 -115.8239 0
v 94.21173 51.81596 -58.22605
v 135.4493 -74.49646 -83.71228
v 73.17189 -2.387262E-05 -118.3946
v 34.80385 81.42566 -91.11767
v -51.07603 118.6704 -133.7188
v 0 -2.623219E-05 -153.1666
v -100.1806 -3.268337E-05 -162.0957
v -56.45084 -131.4285 -147.7902
v 61.21705 -142.9762 -160.2683
v 0 -246.5623 -105.9385
v 75.69804 -176.3625 -46.78396
v 0 -271.8039 0
v 0 -271.8039 0
v 80.40415 -187.1419 49.69249
v 0 -213.0521 91.73741
v 0 -271.8039 0
v 0 -271.8039 0
v -100.6915 -233.9647 -62.23075
v -71.02568 -165.5644 43.89628
v -159.7247 -142.3647 0
v -71.02568 -165.5644 43.89628
v 0 -271.8039 0
v 0 -271.8039 0
v -157.1869 -86.45204 97.14686
v -159.7247 -142.3647 0
v -53.00251 -123.4861 138.7624
v 40.64354 -94.47124 106.4062
v -144.2709 -2.474993E-05 0
v -139.209 76.52956 -86.03593
v -144.2709 -2.474993E-05 0
v -145.5849 -79.99271 -89.9764

vn 0.1251967 -0.0738186 0.9893819
vn -0.7362767 0.1199909 0.665957
vn -0.5080596 0.4998123 0.701472
vn 0.4126302 0.169137 0.8950581
vn -0.2343597 0.7296629 0.642392
vn 0.6564121 -0.1876738 0.7306857
vn -0.7390421 0.258682 0.6220133
vn -0.8551899 0.5183096 0.002329058
vn -0.8715135 0.4727668 -0.1302138
vn -0.8551899 0.5183096 0.002329058
vn -0.7338831 0.6041704 -0.3104733
vn -0.8715135 0.4727668 -0.1302138
vn -0.6194106 0.6448814 -0.4477259
vn -0.03713167 0.7646392 -0.643388
vn -0.6194106 0.6448814 -0.4477259
vn -0.8551899 0.5183096 0.002329058
vn -0.6194106 0.6448814 -0.4477259
vn 0.6434101 0.6932098 0.3247822
vn -0.6194106 0.6448814 -0.4477259
vn -0.6194106 0.6448814 -0.4477259
vn 0.5648453 0.2818193 -0.7755821
vn 0.6372947 0.3556055 -0.6836668
vn -0.6194106 0.6448814 -0.4477259
vn 0.6983022 -0.3379792 0.6309866
vn 0.7916329 -0.07733729 0.6060828
vn 0.7114499 -0.08533132 0.6975367
vn 0.8659877 -0.2468971 0.4348644
vn 0.5865496 0.3996412 -0.7044476
vn 0.6852353 0.04771093 -0.7267573
vn 0.4073148 0.4631849 -0.7871178
vn 0.6097998 0.2315701 -0.7579706
vn 0.1049006 0.8051017 -0.5837869
vn 0.4901066 0.4916584 -0.7197691
vn -0.4975793 -0.3352436 -0.8000166
vn -0.5199433 -0.1613728 -0.8388193
vn 0.4965344 -0.2954857 -0.8161751
vn -0.1259895 -0.9230403 -0.3634877
vn 0.8009225 -0.5561885 -0.2217599
vn -0.3621982 -0.8175861 -0.4476219
vn -0.3621982 -0.8175861 -0.4476219
vn 0.7442213 -0.2641028 0.6135018
vn 0.08120094 -0.3832216 0.9200802
vn -0.3621982 -0.8175861 -0.4476219
vn -0.3621982 -0.8175861 -0.4476219
vn -0.530321 -0.8401481 -0.1136256
vn -0.6670398 -0.5582901 0.4933256
vn -0.7000871 -0.6018416 0.3842715
vn -0.6670398 -0.5582901 0.4933256
vn -0.3621982 -0.8175861 -0.4476219
vn -0.3621982 -0.8175861 -0.4476219
vn -0.8183725 -0.2538852 0.5155663
vn -0.7000871 -0.6018416 0.3842715
vn 0.09530243 -0.6383824 0.7637966
vn 0.5859177 -0.1501063 0.7963471
vn -0.8654657 0.455439 0.2086731
vn -0.688843 0.6780168 0.2564927
vn -0.8654657 0.455439 0.2086731
vn -0.663871 -0.1963782 -0.721603

vt 0.75 0.5
vt 0.8080699 0.3333333
vt 0.8381041 0.5
vt 0.6919301 0.3333333
vt 0.75 0.1762082
vt 0.6618959 0.5
vt 0.9118959 0.4
vt 0.9118959 0.2
vt 1 0.3237918
vt -0.08810407 0.2
vt 0.08810409 0.2
vt 0 0.3237918
vt 0.169052 0
vt 0.25 0.1762082
vt 0.830948 0
vt -0.08810407 0.2
vt 1.117587E-08 0
vt 0.5881041 0.2
vt 0.669052 0
vt 0.3309479 0
vt 0.4118959 0.2
vt 0.5 0.3237918
vt 0.5 0
vt 0.5881041 0.4
vt 0.5 0.5
vt 0.5881041 0.6
vt 0.5 0.6762082
vt 0.4118959 0.4
vt 0.4118959 0.6
vt 0.3381041 0.5
vt 0.3080699 0.3333333
vt 0.1919301 0.3333333
vt 0.25 0.5
vt 0.1618959 0.5
vt 0.1919301 0.6666667
vt 0.3080699 0.6666667
vt 0.25 0.8237918
vt 0.4118959 0.8
vt 0.3309479 1
vt 0.669052 1
vt 0.5881041 0.8
vt 0.75 0.8237918
vt 0.5 1
vt 0.169052 1
vt 0.08810409 0.8
vt -0.08810407 0.8
vt 0 0.6762082
vt 0.9118959 0.8
vt 0.830948 1
vt 1.117587E-08 1
vt 0.9118959 0.6
vt 1 0.6762082
vt 0.8080699 0.6666667
vt 0.6919301 0.6666667
vt 1 0.5
vt 0.08810409 0.4
vt 0 0.5
vt 0.08810409 0.6

usemtl ground (Instance)
usemap ground (Instance)
f 1/1/1 2/2/2 3/3/3
f 2/2/2 4/4/4 5/5/5
f 4/4/4 1/1/1 6/6/6
f 1/1/1 4/4/4 2/2/2
f 2/2/2 7/7/7 3/3/3
f 7/7/7 8/8/8 9/9/9
f 8/8/8 2/2/2 5/5/5
f 2/2/2 8/8/8 7/7/7
f 10/10/10 11/11/11 12/12/12
f 11/11/11 13/13/13 14/14/14
f 15/15/15 8/8/8 5/5/5
f 16/16/16 17/17/17 11/11/11
f 18/18/18 19/19/19 5/5/5
f 20/20/20 21/21/21 14/14/14
f 21/21/21 18/18/18 22/22/22
f 18/18/18 21/21/21 23/23/23
f 4/4/4 18/18/18 5/5/5
f 18/18/18 24/24/24 22/22/22
f 24/24/24 4/4/4 6/6/6
f 4/4/4 24/24/24 18/18/18
f 24/24/24 25/25/25 22/22/22
f 25/25/25 26/26/26 27/27/27
f 26/26/26 24/24/24 6/6/6
f 24/24/24 26/26/26 25/25/25
f 25/25/25 28/28/28 22/22/22
f 28/28/28 29/29/29 30/30/30
f 29/29/29 25/25/25 27/27/27
f 25/25/25 29/29/29 28/28/28
f 21/21/21 31/31/31 14/14/14
f 31/31/31 28/28/28 30/30/30
f 28/28/28 21/21/21 22/22/22
f 21/21/21 28/28/28 31/31/31
f 31/31/31 32/32/32 14/14/14
f 32/32/32 33/33/33 34/34/34
f 33/33/33 31/31/31 30/30/30
f 31/31/31 33/33/33 32/32/32
f 33/33/33 35/35/35 34/34/34
f 35/35/35 36/36/36 37/37/37
f 36/36/36 33/33/33 30/30/30
f 33/33/33 36/36/36 35/35/35
f 36/36/36 38/38/38 37/37/37
f 38/38/38 29/29/29 27/27/27
f 29/29/29 36/36/36 30/30/30
f 36/36/36 29/29/29 38/38/38
f 38/38/38 39/39/39 37/37/37
f 40/40/40 41/41/41 42/42/42
f 41/41/41 38/38/38 27/27/27
f 38/38/38 41/41/41 43/43/43
f 44/44/44 45/45/45 37/37/37
f 45/45/45 46/46/46 47/47/47
f 48/48/48 49/49/49 42/42/42
f 50/50/50 46/46/46 45/45/45
f 48/48/48 51/51/51 52/52/52
f 51/51/51 53/53/53 3/3/3
f 53/53/53 48/48/48 42/42/42
f 48/48/48 53/53/53 51/51/51
f 53/53/53 1/1/1 3/3/3
f 1/1/1 54/54/54 6/6/6
f 54/54/54 53/53/53 42/42/42
f 53/53/53 54/54/54 1/1/1
f 41/41/41 54/54/54 42/42/42
f 54/54/54 26/26/26 6/6/6
f 26/26/26 41/41/41 27/27/27
f 41/41/41 26/26/26 54/54/54
f 55/55/55 7/7/7 9/9/9
f 7/7/7 51/51/51 3/3/3
f 51/51/51 55/55/55 52/52/52
f 55/55/55 51/51/51 7/7/7
f 56/56/56 57/57/57 12/12/12
f 57/57/57 58/58/58 47/47/47
f 58/58/58 56/56/56 34/34/34
f 56/56/56 58/58/58 57/57/57
f 11/11/11 56/56/56 12/12/12
f 56/56/56 32/32/32 34/34/34
f 32/32/32 11/11/11 14/14/14
f 11/11/11 32/32/32 56/56/56
f 45/45/45 35/35/35 37/37/37
f 35/35/35 58/58/58 34/34/34
f 58/58/58 45/45/45 47/47/47
f 45/45/45 58/58/58 35/35/35
