g object
v 0 -2.85409E-05 149.0738
v -33.94037 88.62597 88.85704
v -60.88397 -2.217204E-05 98.51232
v 47.01042 121.6504 123.0749
v 0 206.1828 79.40386
v 81.00278 -2.940208E-05 131.0653
v -84.93541 52.30026 52.49297
v -69.08095 179.6964 42.69437
v -139.0808 137.9787 0
v -69.08095 179.6964 42.69437
v -67.92148 175.5267 -41.97778
v -139.0808 137.9787 0
v 0 189.7908 0
v 0 194.5784 -74.97323
v 0 189.7908 0
v -69.08095 179.6964 42.69437
v 0 189.7908 0
v 79.88334 208.6085 49.37062
v 0 189.7908 0
v 0 189.7908 0
v 68.45298 177.6955 -42.30627
v 107.6242 106.8264 0
v 0 189.7908 0
v 111.7455 68.46307 69.0625
v 162.8709 -3.11299E-05 0
v 117.9328 -72.34621 72.88647
v 139.1211 -137.7201 0
v 114.5617 70.27819 -70.80305
v 113.7334 -69.77007 -70.29109
v 78.26556 -2.835731E-05 -126.6363
v 40.6064 105.9427 -106.309
v -50.33892 130.6925 -131.789
v 0 -2.867548E-05 -149.9282
v -91.8405 -3.337357E-05 -148.6011
v -47.91356 -124.1483 -125.4393
v 46.30571 -120.1923 -121.2299
v 0 -188.5007 -72.65399
v 69.70583 -181.1394 -43.08056
v 0 -237.3239 0
v 0 -237.3239 0
v 67.27277 -173.8072 41.57685
v 0 -185.5325 71.35884
v 0 -237.3239 0
v 0 -237.3239 0
v -73.02382 -189.3496 -45.1312
v -70.37244 -182.4325 43.49256
v -110.7923 -110.486 0
v -70.37244 -182.4325 43.49256
v 0 -237.3239 0
v 0 -237.3239 0
v -115.6038 -70.91748 71.44707
v -110.7923 -110.486 0
v -41.98277 -109.0976 109.9123
v 43.27261 -112.6252 113.2892
v -162.2963 -3.116141E-05 0
v -138.2608 85.07732 -85.4499
v -162.2963 -3.116141E-05 0
v -125.2927 -76.47816 -77.43513

vn -0.2655576 0.114188 0.9573089
vn -0.7187803 0.08072659 0.6905346
vn -0.557067 0.4747892 0.6813601
vn 0.3010103 0.2639962 0.9163509
vn -0.3855003 0.6595182 0.6453103
vn 0.6956371 0.09439006 0.7121654
vn -0.5200458 0.1900064 0.8327364
vn -0.626053 0.6065624 0.4900406
vn -0.7648376 0.5904644 0.2576339
vn -0.626053 0.6065624 0.4900406
vn -0.3482873 0.7589186 -0.5502167
vn -0.7648376 0.5904644 0.2576339
vn -0.2364403 0.9622391 -0.1348771
vn -0.2822795 0.7881916 -0.5468751
vn -0.2364403 0.9622391 -0.1348771
vn -0.626053 0.6065624 0.4900406
vn -0.2364403 0.9622391 -0.1348771
vn 0.7905604 0.6060311 0.08798127
vn -0.2364403 0.9622391 -0.1348771
vn -0.2364403 0.9622391 -0.1348771
vn 0.7189773 0.5827947 -0.3787108
vn 0.7195422 0.6752388 -0.1622084
vn -0.2364403 0.9622391 -0.1348771
vn 0.8302123 0.1686576 0.5313211
vn 0.9944009 0.08508431 0.06266983
vn 0.8479064 0.06437833 0.5262226
vn 0.8615187 -0.5041927 0.05979375
vn 0.7932491 0.322362 -0.5165644
vn 0.8082522 0.02069857 -0.5884726
vn 0.578168 0.2021665 -0.7904748
vn 0.5071243 0.1064936 -0.8552684
vn -0.2806386 0.6237665 -0.7294911
vn 0.2218037 0.3404598 -0.9137233
vn -0.4702677 -0.01983159 -0.882301
vn -0.0009874038 -0.7647533 -0.6443225
vn 0.4205504 -0.4611391 -0.7813374
vn 0.04710466 -0.6727584 -0.7383612
vn 0.573333 -0.7587873 -0.3090813
vn 0.2829145 -0.958794 0.02594848
vn 0.2829145 -0.958794 0.02594848
vn 0.5776927 -0.8119257 -0.08395083
vn -0.0194223 -0.6231245 0.7818816
vn 0.2829145 -0.958794 0.02594848
vn 0.2829145 -0.958794 0.02594848
vn -0.7425209 -0.6051613 -0.2871281
vn -0.7122083 -0.5435243 0.4442305
vn -0.9175832 -0.3942955 0.05071743
vn -0.7122083 -0.5435243 0.4442305
vn 0.2829145 -0.958794 0.02594848
vn 0.2829145 -0.958794 0.02594848
vn -0.7897682 -0.3259087 0.5196632
vn -0.9175832 -0.3942955 0.05071743
vn -0.282519 -0.446991 0.8487532
vn 0.1463947 -0.5046195 0.8508394
vn -0.9666805 -0.2476907 0.06463858
vn -0.793669 0.3034973 -0.5272369
vn -0.9666805 -0.2476907 0.06463858
vn -0.8965707 -0.3972673 -0.1958053

vt 0.75 0.5
vt 0.8080699 0.3333333
vt 0.8381041 0.5
vt 0.6919301 0.3333333
vt 0.75 0.1762082
vt 0.6618959 0.5
vt 0.9118959 0.4
vt 0.9118959 0.2
vt 1 0.3237918
vt -0.08810407 0.2
vt 0.08810409 0.2
vt 0 0.3237918
vt 0.169052 0
vt 0.25 0.1762082
vt 0.830948 0
vt -0.08810407 0.2
vt 1.117587E-08 0
vt 0.5881041 0.2
vt 0.669052 0
vt 0.3309479 0
vt 0.4118959 0.2
vt 0.5 0.3237918
vt 0.5 0
vt 0.5881041 0.4
vt 0.5 0.5
vt 0.5881041 0.6
vt 0.5 0.6762082
vt 0.4118959 0.4
vt 0.4118959 0.6
vt 0.3381041 0.5
vt 0.3080699 0.3333333
vt 0.1919301 0.3333333
vt 0.25 0.5
vt 0.1618959 0.5
vt 0.1919301 0.6666667
vt 0.3080699 0.6666667
vt 0.25 0.8237918
vt 0.4118959 0.8
vt 0.3309479 1
vt 0.669052 1
vt 0.5881041 0.8
vt 0.75 0.8237918
vt 0.5 1
vt 0.169052 1
vt 0.08810409 0.8
vt -0.08810407 0.8
vt 0 0.6762082
vt 0.9118959 0.8
vt 0.830948 1
vt 1.117587E-08 1
vt 0.9118959 0.6
vt 1 0.6762082
vt 0.8080699 0.6666667
vt 0.6919301 0.6666667
vt 1 0.5
vt 0.08810409 0.4
vt 0 0.5
vt 0.08810409 0.6

usemtl ground (Instance)
usemap ground (Instance)
f 1/1/1 2/2/2 3/3/3
f 2/2/2 4/4/4 5/5/5
f 4/4/4 1/1/1 6/6/6
f 1/1/1 4/4/4 2/2/2
f 2/2/2 7/7/7 3/3/3
f 7/7/7 8/8/8 9/9/9
f 8/8/8 2/2/2 5/5/5
f 2/2/2 8/8/8 7/7/7
f 10/10/10 11/11/11 12/12/12
f 11/11/11 13/13/13 14/14/14
f 15/15/15 8/8/8 5/5/5
f 16/16/16 17/17/17 11/11/11
f 18/18/18 19/19/19 5/5/5
f 20/20/20 21/21/21 14/14/14
f 21/21/21 18/18/18 22/22/22
f 18/18/18 21/21/21 23/23/23
f 4/4/4 18/18/18 5/5/5
f 18/18/18 24/24/24 22/22/22
f 24/24/24 4/4/4 6/6/6
f 4/4/4 24/24/24 18/18/18
f 24/24/24 25/25/25 22/22/22
f 25/25/25 26/26/26 27/27/27
f 26/26/26 24/24/24 6/6/6
f 24/24/24 26/26/26 25/25/25
f 25/25/25 28/28/28 22/22/22
f 28/28/28 29/29/29 30/30/30
f 29/29/29 25/25/25 27/27/27
f 25/25/25 29/29/29 28/28/28
f 21/21/21 31/31/31 14/14/14
f 31/31/31 28/28/28 30/30/30
f 28/28/28 21/21/21 22/22/22
f 21/21/21 28/28/28 31/31/31
f 31/31/31 32/32/32 14/14/14
f 32/32/32 33/33/33 34/34/34
f 33/33/33 31/31/31 30/30/30
f 31/31/31 33/33/33 32/32/32
f 33/33/33 35/35/35 34/34/34
f 35/35/35 36/36/36 37/37/37
f 36/36/36 33/33/33 30/30/30
f 33/33/33 36/36/36 35/35/35
f 36/36/36 38/38/38 37/37/37
f 38/38/38 29/29/29 27/27/27
f 29/29/29 36/36/36 30/30/30
f 36/36/36 29/29/29 38/38/38
f 38/38/38 39/39/39 37/37/37
f 40/40/40 41/41/41 42/42/42
f 41/41/41 38/38/38 27/27/27
f 38/38/38 41/41/41 43/43/43
f 44/44/44 45/45/45 37/37/37
f 45/45/45 46/46/46 47/47/47
f 48/48/48 49/49/49 42/42/42
f 50/50/50 46/46/46 45/45/45
f 48/48/48 51/51/51 52/52/52
f 51/51/51 53/53/53 3/3/3
f 53/53/53 48/48/48 42/42/42
f 48/48/48 53/53/53 51/51/51
f 53/53/53 1/1/1 3/3/3
f 1/1/1 54/54/54 6/6/6
f 54/54/54 53/53/53 42/42/42
f 53/53/53 54/54/54 1/1/1
f 41/41/41 54/54/54 42/42/42
f 54/54/54 26/26/26 6/6/6
f 26/26/26 41/41/41 27/27/27
f 41/41/41 26/26/26 54/54/54
f 55/55/55 7/7/7 9/9/9
f 7/7/7 51/51/51 3/3/3
f 51/51/51 55/55/55 52/52/52
f 55/55/55 51/51/51 7/7/7
f 56/56/56 57/57/57 12/12/12
f 57/57/57 58/58/58 47/47/47
f 58/58/58 56/56/56 34/34/34
f 56/56/56 58/58/58 57/57/57
f 11/11/11 56/56/56 12/12/12
f 56/56/56 32/32/32 34/34/34
f 32/32/32 11/11/11 14/14/14
f 11/11/11 32/32/32 56/56/56
f 45/45/45 35/35/35 37/37/37
f 35/35/35 58/58/58 34/34/34
f 58/58/58 45/45/45 47/47/47
f 45/45/45 58/58/58 35/35/35
