g object
v 95.32787 -3.031211E-05 154.2437
v 0 154.2914 67.91331
v -91.63438 -2.922365E-05 148.2675
v -104.906 91.01209 0
v 0 180.0099 -79.4175
v 118.932 103.381 0
v 127.1868 -110.7805 0
v 99.91911 -3.181575E-05 -161.6725
v -106.9189 -3.399939E-05 -172.9984
v 0 -235.3396 -103.5951
v 0 -180.9894 79.7943
v -125.4803 -108.7575 0

vn 0.2412342 -0.1193619 0.9630986
vn -0.2761254 0.9355673 -0.2201562
vn -0.7136738 0.1846632 0.6756991
vn -0.8666151 0.4963835 -0.0508086
vn -0.08138137 0.9741054 -0.2109399
vn 0.822065 0.423369 -0.3807464
vn 0.903906 -0.3928603 0.1691585
vn 0.6900142 0.3218633 -0.6482935
vn -0.5971103 -0.01088145 -0.8020853
vn -0.2555915 -0.8902572 -0.3769818
vn 0.6670176 -0.7401375 0.08534607
vn -0.8760535 -0.4347503 0.2086201

vt 0.6618959 0.5
vt 0.75 0.1762082
vt 0.8381041 0.5
vt 1 0.3237918
vt 0.25 0.1762082
vt 0.5 0.3237918
vt 0.5 0.6762082
vt 0.3381041 0.5
vt 0.1618959 0.5
vt 0.25 0.8237918
vt 0.75 0.8237918
vt 1 0.6762082

usemtl ground (Instance)
usemap ground (Instance)
f 1/1/1 2/2/2 3/3/3
f 2/2/2 4/4/4 3/3/3
f 2/2/2 5/5/5 4/4/4
f 6/6/6 5/5/5 2/2/2
f 1/1/1 6/6/6 2/2/2
f 1/1/1 7/7/7 6/6/6
f 7/7/7 8/8/8 6/6/6
f 6/6/6 8/8/8 5/5/5
f 8/8/8 9/9/9 5/5/5
f 8/8/8 10/10/10 9/9/9
f 8/8/8 7/7/7 10/10/10
f 7/7/7 11/11/11 10/10/10
f 11/11/11 12/12/12 10/10/10
f 11/11/11 3/3/3 12/12/12
f 11/11/11 1/1/1 3/3/3
f 7/7/7 1/1/1 11/11/11
f 12/12/12 3/3/3 4/4/4
f 9/9/9 12/12/12 4/4/4
f 5/5/5 9/9/9 4/4/4
f 12/12/12 9/9/9 10/10/10
