g object
v 0 -2.726526E-05 162.6185
v -59.46625 135.177 155.6847
v -91.63438 -2.922365E-05 148.2675
v 57.76262 131.2563 151.2245
v 0 154.2914 67.91331
v 95.32787 -3.031211E-05 154.2437
v -118.0997 63.29887 72.98965
v -64.03577 145.1563 39.57628
v -104.906 91.01209 0
v -64.03577 145.1563 39.57628
v -67.16138 152.3231 -41.50801
v -104.906 91.01209 0
v 0 136.2228 0
v 0 180.0099 -79.4175
v 0 136.2228 0
v -64.03577 145.1563 39.57628
v 0 136.2228 0
v 75.69466 172.3781 46.78187
v 0 136.2228 0
v 0 136.2228 0
v 67.12983 152.1035 -41.48851
v 118.932 103.381 0
v 0 136.2228 0
v 107.1078 57.58595 66.19627
v 133.9146 -2.236531E-05 0
v 126.5067 -67.96228 78.18542
v 127.1868 -110.7805 0
v 98.58903 52.96425 -60.93137
v 142.5051 -76.55698 -88.07297
v 99.91911 -3.181575E-05 -161.6725
v 43.07751 97.89534 -112.7784
v -59.89142 135.9581 -156.7978
v 0 -3.385756E-05 -202.1847
v -106.9189 -3.399939E-05 -172.9984
v -55.33549 -126.0041 -144.8702
v 57.08106 -129.6288 -149.4402
v 0 -235.3396 -103.5951
v 79.85855 -181.735 -49.3553
v 0 -207.4567 0
v 0 -207.4567 0
v 49.32763 -112.0462 30.48615
v 0 -180.9894 79.7943
v 0 -207.4567 0
v 0 -207.4567 0
v -69.78419 -159.1403 -43.129
v -74.86442 -170.0687 46.26875
v -125.4803 -108.7575 0
v -74.86442 -170.0687 46.26875
v 0 -207.4567 0
v 0 -207.4567 0
v -109.9463 -59.06569 67.95058
v -125.4803 -108.7575 0
v -59.64891 -135.7437 156.1629
v 57.12062 -129.7666 149.5437
v -160.9995 -2.695061E-05 0
v -130.969 70.12766 -80.94331
v -160.9995 -2.695061E-05 0
v -138.0371 -73.96675 -85.31161

vn 0.003839482 -0.1079982 0.9941436
vn -0.5004008 0.4337616 0.7492996
vn -0.7136738 0.1846632 0.6756991
vn 0.7261222 0.4448283 0.5242846
vn -0.2761254 0.9355673 -0.2201562
vn 0.2412342 -0.1193619 0.9630986
vn -0.9352605 0.1822575 0.3034303
vn 0.01664051 0.9800182 -0.1982105
vn -0.8666151 0.4963835 -0.0508086
vn 0.01664051 0.9800182 -0.1982105
vn -0.5806294 0.8138722 -0.02194078
vn -0.8666151 0.4963835 -0.0508086
vn -0.2234226 0.9383648 0.2637306
vn -0.08138137 0.9741054 -0.2109399
vn -0.2234226 0.9383648 0.2637306
vn 0.01664051 0.9800182 -0.1982105
vn -0.2234226 0.9383648 0.2637306
vn 0.1603454 0.9501525 0.2673941
vn -0.2234226 0.9383648 0.2637306
vn -0.2234226 0.9383648 0.2637306
vn 0.730324 0.5341257 -0.4258362
vn 0.822065 0.423369 -0.3807464
vn -0.2234226 0.9383648 0.2637306
vn 0.7630923 0.4499229 0.4639608
vn 0.998184 -0.05773115 0.01719705
vn 0.9763286 -0.210541 0.0495486
vn 0.903906 -0.3928603 0.1691585
vn 0.7339256 0.5458932 -0.4041706
vn 0.998799 -0.04014385 -0.02808884
vn 0.6900142 0.3218633 -0.6482935
vn 0.7833064 0.4093874 -0.4677958
vn -0.4481964 0.686803 -0.5722077
vn 0.04496589 -0.01711514 -0.9988419
vn -0.5971103 -0.01088145 -0.8020853
vn -0.3235454 -0.1144415 -0.9392665
vn 0.3319375 -0.320105 -0.8873276
vn -0.2555915 -0.8902572 -0.3769818
vn 0.5114483 -0.7437784 0.4303654
vn 0.3440406 -0.8336449 0.4320558
vn 0.3440406 -0.8336449 0.4320558
vn 0.4494047 -0.8404148 0.3028834
vn 0.6670176 -0.7401375 0.08534607
vn 0.3440406 -0.8336449 0.4320558
vn 0.3440406 -0.8336449 0.4320558
vn -0.6645656 -0.7465528 -0.03180171
vn -0.7457693 -0.6632332 -0.06284813
vn -0.8760535 -0.4347503 0.2086201
vn -0.7457693 -0.6632332 -0.06284813
vn 0.3440406 -0.8336449 0.4320558
vn 0.3440406 -0.8336449 0.4320558
vn -0.9140665 -0.3103226 0.2611175
vn -0.8760535 -0.4347503 0.2086201
vn -0.6476537 -0.4178247 0.6371555
vn 0.4581893 -0.7559679 0.4675203
vn -0.9338822 0.0704668 0.3505687
vn -0.7872921 0.6162905 0.0189021
vn -0.9338822 0.0704668 0.3505687
vn -0.7871085 -0.4816475 -0.3853256

vt 0.75 0.5
vt 0.8080699 0.3333333
vt 0.8381041 0.5
vt 0.6919301 0.3333333
vt 0.75 0.1762082
vt 0.6618959 0.5
vt 0.9118959 0.4
vt 0.9118959 0.2
vt 1 0.3237918
vt -0.08810407 0.2
vt 0.08810409 0.2
vt 0 0.3237918
vt 0.169052 0
vt 0.25 0.1762082
vt 0.830948 0
vt -0.08810407 0.2
vt 1.117587E-08 0
vt 0.5881041 0.2
vt 0.669052 0
vt 0.3309479 0
vt 0.4118959 0.2
vt 0.5 0.3237918
vt 0.5 0
vt 0.5881041 0.4
vt 0.5 0.5
vt 0.5881041 0.6
vt 0.5 0.6762082
vt 0.4118959 0.4
vt 0.4118959 0.6
vt 0.3381041 0.5
vt 0.3080699 0.3333333
vt 0.1919301 0.3333333
vt 0.25 0.5
vt 0.1618959 0.5
vt 0.1919301 0.6666667
vt 0.3080699 0.6666667
vt 0.25 0.8237918
vt 0.4118959 0.8
vt 0.3309479 1
vt 0.669052 1
vt 0.5881041 0.8
vt 0.75 0.8237918
vt 0.5 1
vt 0.169052 1
vt 0.08810409 0.8
vt -0.08810407 0.8
vt 0 0.6762082
vt 0.9118959 0.8
vt 0.830948 1
vt 1.117587E-08 1
vt 0.9118959 0.6
vt 1 0.6762082
vt 0.8080699 0.6666667
vt 0.6919301 0.6666667
vt 1 0.5
vt 0.08810409 0.4
vt 0 0.5
vt 0.08810409 0.6

usemtl ground (Instance)
usemap ground (Instance)
f 1/1/1 2/2/2 3/3/3
f 2/2/2 4/4/4 5/5/5
f 4/4/4 1/1/1 6/6/6
f 1/1/1 4/4/4 2/2/2
f 2/2/2 7/7/7 3/3/3
f 7/7/7 8/8/8 9/9/9
f 8/8/8 2/2/2 5/5/5
f 2/2/2 8/8/8 7/7/7
f 10/10/10 11/11/11 12/12/12
f 11/11/11 13/13/13 14/14/14
f 15/15/15 8/8/8 5/5/5
f 16/16/16 17/17/17 11/11/11
f 18/18/18 19/19/19 5/5/5
f 20/20/20 21/21/21 14/14/14
f 21/21/21 18/18/18 22/22/22
f 18/18/18 21/21/21 23/23/23
f 4/4/4 18/18/18 5/5/5
f 18/18/18 24/24/24 22/22/22
f 24/24/24 4/4/4 6/6/6
f 4/4/4 24/24/24 18/18/18
f 24/24/24 25/25/25 22/22/22
f 25/25/25 26/26/26 27/27/27
f 26/26/26 24/24/24 6/6/6
f 24/24/24 26/26/26 25/25/25
f 25/25/25 28/28/28 22/22/22
f 28/28/28 29/29/29 30/30/30
f 29/29/29 25/25/25 27/27/27
f 25/25/25 29/29/29 28/28/28
f 21/21/21 31/31/31 14/14/14
f 31/31/31 28/28/28 30/30/30
f 28/28/28 21/21/21 22/22/22
f 21/21/21 28/28/28 31/31/31
f 31/31/31 32/32/32 14/14/14
f 32/32/32 33/33/33 34/34/34
f 33/33/33 31/31/31 30/30/30
f 31/31/31 33/33/33 32/32/32
f 33/33/33 35/35/35 34/34/34
f 35/35/35 36/36/36 37/37/37
f 36/36/36 33/33/33 30/30/30
f 33/33/33 36/36/36 35/35/35
f 36/36/36 38/38/38 37/37/37
f 38/38/38 29/29/29 27/27/27
f 29/29/29 36/36/36 30/30/30
f 36/36/36 29/29/29 38/38/38
f 38/38/38 39/39/39 37/37/37
f 40/40/40 41/41/41 42/42/42
f 41/41/41 38/38/38 27/27/27
f 38/38/38 41/41/41 43/43/43
f 44/44/44 45/45/45 37/37/37
f 45/45/45 46/46/46 47/47/47
f 48/48/48 49/49/49 42/42/42
f 50/50/50 46/46/46 45/45/45
f 48/48/48 51/51/51 52/52/52
f 51/51/51 53/53/53 3/3/3
f 53/53/53 48/48/48 42/42/42
f 48/48/48 53/53/53 51/51/51
f 53/53/53 1/1/1 3/3/3
f 1/1/1 54/54/54 6/6/6
f 54/54/54 53/53/53 42/42/42
f 53/53/53 54/54/54 1/1/1
f 41/41/41 54/54/54 42/42/42
f 54/54/54 26/26/26 6/6/6
f 26/26/26 41/41/41 27/27/27
f 41/41/41 26/26/26 54/54/54
f 55/55/55 7/7/7 9/9/9
f 7/7/7 51/51/51 3/3/3
f 51/51/51 55/55/55 52/52/52
f 55/55/55 51/51/51 7/7/7
f 56/56/56 57/57/57 12/12/12
f 57/57/57 58/58/58 47/47/47
f 58/58/58 56/56/56 34/34/34
f 56/56/56 58/58/58 57/57/57
f 11/11/11 56/56/56 12/12/12
f 56/56/56 32/32/32 34/34/34
f 32/32/32 11/11/11 14/14/14
f 11/11/11 32/32/32 56/56/56
f 45/45/45 35/35/35 37/37/37
f 35/35/35 58/58/58 34/34/34
f 58/58/58 45/45/45 47/47/47
f 45/45/45 58/58/58 35/35/35
