g object
v 0 -2.44552E-05 151.4039
v -36.09901 79.11466 94.50845
v -55.7999 -1.714367E-05 90.28613
v 49.80331 109.323 130.3868
v 0 230.4094 105.3202
v 83.85107 -2.570669E-05 135.6739
v -91.86115 47.45319 56.77331
v -93.63183 205.765 57.86765
v -163.3671 136.7155 0
v -93.63183 205.765 57.86765
v -95.13897 209.0233 -58.79911
v -163.3671 136.7155 0
v 0 189.4402 0
v 0 169.7317 -77.47338
v 0 189.4402 0
v -93.63183 205.765 57.86765
v 0 189.4402 0
v 80.92809 177.3568 50.0163
v 0 189.4402 0
v 0 189.4402 0
v 73.69695 161.0349 -45.54722
v 123.6722 103.5639 0
v 0 189.4402 0
v 142.6893 73.71039 88.18682
v 176.1761 -2.8482E-05 0
v 163.6364 -84.68938 101.1329
v 125.7386 -105.0756 0
v 116.0716 60.07235 -71.73618
v 111.0396 -57.46813 -68.62627
v 85.33871 -2.613198E-05 -138.0809
v 57.12357 124.9344 -149.5515
v -56.48399 123.4763 -147.877
v 0 -2.966138E-05 -183.1391
v -107.9322 -3.320113E-05 -174.6379
v -60.25763 -132.2291 -157.7565
v 47.80708 -104.7264 -125.1606
v 0 -185.0476 -84.13119
v 60.60904 -132.8768 -37.45844
v 0 -232.3417 0
v 0 -232.3417 0
v 79.59111 -174.0193 49.19001
v 0 -233.4526 106.6698
v 0 -232.3417 0
v 0 -232.3417 0
v -103.8121 -227.1958 -64.15943
v -90.61781 -198.4443 56.00489
v -176.3551 -147.459 0
v -90.61781 -198.4443 56.00489
v 0 -232.3417 0
v 0 -232.3417 0
v -123.0848 -63.70203 76.07058
v -176.3551 -147.459 0
v -59.85353 -131.2204 156.6986
v 48.64236 -106.5291 127.3474
v -168.4673 -2.716339E-05 0
v -158.5498 81.94014 -97.98917
v -168.4673 -2.716339E-05 0
v -162.3223 -83.93748 -100.3207

vn -0.2243413 -0.04403615 0.9735152
vn -0.7666372 -0.0006394968 0.6420801
vn -0.6055084 0.1066617 0.7886588
vn 0.2869403 0.2817104 0.9155896
vn 0.1888564 0.8632051 0.4681988
vn 0.1361273 -0.008411938 0.9906557
vn -0.2626383 0.19253 0.9454911
vn -0.5968614 0.4613015 0.6564735
vn -0.955143 0.05356086 0.2912614
vn -0.5968614 0.4613015 0.6564735
vn -0.05097982 0.952683 -0.29966
vn -0.955143 0.05356086 0.2912614
vn 0.2867829 0.8878931 -0.3597242
vn 0.1710272 0.7117728 -0.6812703
vn 0.2867829 0.8878931 -0.3597242
vn -0.5968614 0.4613015 0.6564735
vn 0.2867829 0.8878931 -0.3597242
vn 0.5619413 0.8269526 -0.01926964
vn 0.2867829 0.8878931 -0.3597242
vn 0.2867829 0.8878931 -0.3597242
vn 0.4843859 0.8458138 -0.2235386
vn 0.9126102 0.3702121 -0.1734524
vn 0.2867829 0.8878931 -0.3597242
vn 0.9573751 0.1289508 0.2584658
vn 0.9237336 0.3219887 -0.2074599
vn 0.7035486 -0.3430207 0.6223794
vn 0.6302817 -0.6505197 -0.4237558
vn 0.9372463 0.2536218 -0.2392596
vn 0.7357057 -0.0709853 -0.6735712
vn 0.6668016 -0.02589235 -0.7447853
vn 0.4485137 0.4344044 -0.7811071
vn -0.01606852 0.6800759 -0.7329656
vn 0.4113187 -0.01916105 -0.9112902
vn -0.491684 -0.03255021 -0.8701651
vn -0.4419111 -0.135843 -0.8867137
vn 0.6555496 -0.5254416 -0.5423705
vn 0.6143817 -0.6787845 -0.4022273
vn 0.6874081 -0.622052 -0.374862
vn 0.6279686 -0.7125509 -0.3129323
vn 0.6279686 -0.7125509 -0.3129323
vn 0.6923136 -0.6804817 -0.2400971
vn 0.193208 -0.6649638 0.7214526
vn 0.6279686 -0.7125509 -0.3129323
vn 0.6279686 -0.7125509 -0.3129323
vn -0.5646331 -0.7616851 -0.3178447
vn -0.5725448 -0.8167815 0.07113726
vn -0.9093233 -0.4029908 0.1035835
vn -0.5725448 -0.8167815 0.07113726
vn 0.6279686 -0.7125509 -0.3129323
vn 0.6279686 -0.7125509 -0.3129323
vn -0.6479149 0.1945447 0.7364501
vn -0.9093233 -0.4029908 0.1035835
vn -0.3739083 -0.04731196 0.9262581
vn 0.3334471 -0.2904637 0.896908
vn -0.8622109 0.4378569 0.254703
vn -0.9367639 0.08844618 -0.3386009
vn -0.8622109 0.4378569 0.254703
vn -0.8943321 -0.08547006 -0.4391642

vt 0.75 0.5
vt 0.8080699 0.3333333
vt 0.8381041 0.5
vt 0.6919301 0.3333333
vt 0.75 0.1762082
vt 0.6618959 0.5
vt 0.9118959 0.4
vt 0.9118959 0.2
vt 1 0.3237918
vt -0.08810407 0.2
vt 0.08810409 0.2
vt 0 0.3237918
vt 0.169052 0
vt 0.25 0.1762082
vt 0.830948 0
vt -0.08810407 0.2
vt 1.117587E-08 0
vt 0.5881041 0.2
vt 0.669052 0
vt 0.3309479 0
vt 0.4118959 0.2
vt 0.5 0.3237918
vt 0.5 0
vt 0.5881041 0.4
vt 0.5 0.5
vt 0.5881041 0.6
vt 0.5 0.6762082
vt 0.4118959 0.4
vt 0.4118959 0.6
vt 0.3381041 0.5
vt 0.3080699 0.3333333
vt 0.1919301 0.3333333
vt 0.25 0.5
vt 0.1618959 0.5
vt 0.1919301 0.6666667
vt 0.3080699 0.6666667
vt 0.25 0.8237918
vt 0.4118959 0.8
vt 0.3309479 1
vt 0.669052 1
vt 0.5881041 0.8
vt 0.75 0.8237918
vt 0.5 1
vt 0.169052 1
vt 0.08810409 0.8
vt -0.08810407 0.8
vt 0 0.6762082
vt 0.9118959 0.8
vt 0.830948 1
vt 1.117587E-08 1
vt 0.9118959 0.6
vt 1 0.6762082
vt 0.8080699 0.6666667
vt 0.6919301 0.6666667
vt 1 0.5
vt 0.08810409 0.4
vt 0 0.5
vt 0.08810409 0.6

usemtl ground (Instance)
usemap ground (Instance)
f 1/1/1 2/2/2 3/3/3
f 2/2/2 4/4/4 5/5/5
f 4/4/4 1/1/1 6/6/6
f 1/1/1 4/4/4 2/2/2
f 2/2/2 7/7/7 3/3/3
f 7/7/7 8/8/8 9/9/9
f 8/8/8 2/2/2 5/5/5
f 2/2/2 8/8/8 7/7/7
f 10/10/10 11/11/11 12/12/12
f 11/11/11 13/13/13 14/14/14
f 15/15/15 8/8/8 5/5/5
f 16/16/16 17/17/17 11/11/11
f 18/18/18 19/19/19 5/5/5
f 20/20/20 21/21/21 14/14/14
f 21/21/21 18/18/18 22/22/22
f 18/18/18 21/21/21 23/23/23
f 4/4/4 18/18/18 5/5/5
f 18/18/18 24/24/24 22/22/22
f 24/24/24 4/4/4 6/6/6
f 4/4/4 24/24/24 18/18/18
f 24/24/24 25/25/25 22/22/22
f 25/25/25 26/26/26 27/27/27
f 26/26/26 24/24/24 6/6/6
f 24/24/24 26/26/26 25/25/25
f 25/25/25 28/28/28 22/22/22
f 28/28/28 29/29/29 30/30/30
f 29/29/29 25/25/25 27/27/27
f 25/25/25 29/29/29 28/28/28
f 21/21/21 31/31/31 14/14/14
f 31/31/31 28/28/28 30/30/30
f 28/28/28 21/21/21 22/22/22
f 21/21/21 28/28/28 31/31/31
f 31/31/31 32/32/32 14/14/14
f 32/32/32 33/33/33 34/34/34
f 33/33/33 31/31/31 30/30/30
f 31/31/31 33/33/33 32/32/32
f 33/33/33 35/35/35 34/34/34
f 35/35/35 36/36/36 37/37/37
f 36/36/36 33/33/33 30/30/30
f 33/33/33 36/36/36 35/35/35
f 36/36/36 38/38/38 37/37/37
f 38/38/38 29/29/29 27/27/27
f 29/29/29 36/36/36 30/30/30
f 36/36/36 29/29/29 38/38/38
f 38/38/38 39/39/39 37/37/37
f 40/40/40 41/41/41 42/42/42
f 41/41/41 38/38/38 27/27/27
f 38/38/38 41/41/41 43/43/43
f 44/44/44 45/45/45 37/37/37
f 45/45/45 46/46/46 47/47/47
f 48/48/48 49/49/49 42/42/42
f 50/50/50 46/46/46 45/45/45
f 48/48/48 51/51/51 52/52/52
f 51/51/51 53/53/53 3/3/3
f 53/53/53 48/48/48 42/42/42
f 48/48/48 53/53/53 51/51/51
f 53/53/53 1/1/1 3/3/3
f 1/1/1 54/54/54 6/6/6
f 54/54/54 53/53/53 42/42/42
f 53/53/53 54/54/54 1/1/1
f 41/41/41 54/54/54 42/42/42
f 54/54/54 26/26/26 6/6/6
f 26/26/26 41/41/41 27/27/27
f 41/41/41 26/26/26 54/54/54
f 55/55/55 7/7/7 9/9/9
f 7/7/7 51/51/51 3/3/3
f 51/51/51 55/55/55 52/52/52
f 55/55/55 51/51/51 7/7/7
f 56/56/56 57/57/57 12/12/12
f 57/57/57 58/58/58 47/47/47
f 58/58/58 56/56/56 34/34/34
f 56/56/56 58/58/58 57/57/57
f 11/11/11 56/56/56 12/12/12
f 56/56/56 32/32/32 34/34/34
f 32/32/32 11/11/11 14/14/14
f 11/11/11 32/32/32 56/56/56
f 45/45/45 35/35/35 37/37/37
f 35/35/35 58/58/58 34/34/34
f 58/58/58 45/45/45 47/47/47
f 45/45/45 58/58/58 35/35/35
