g object
v 49.40762 -1.786818E-05 79.9432
v 0 223.5538 86.83511
v -63.18444 -2.286987E-05 102.2346
v -116.4277 114.2604 0
v 0 150.0487 -58.12579
v 114.3123 112.7749 0
v 94.69889 -93.25375 0
v 60.98245 -2.202566E-05 -98.67168
v -72.88162 -2.635716E-05 -117.9249
v 0 -234.487 -91.01991
v 0 -212.6218 82.51017
v -152.5323 -149.9342 0

vn 0.6633319 -0.2398721 0.7088388
vn -0.1198094 0.8351722 0.5367802
vn -0.10029 -0.176021 0.9792643
vn -0.9634857 0.2153886 0.1590693
vn 0.1680996 0.8633524 -0.4757785
vn 0.8399691 0.5393827 0.05931415
vn 0.7748874 -0.6290578 0.0619339
vn 0.6450102 0.1608393 -0.7470559
vn -0.6996796 -0.1121838 -0.7055943
vn 0.3553796 -0.8320156 -0.4259758
vn 0.3437112 -0.5039474 0.7924012
vn -0.9437245 -0.3300682 -0.02095307

vt 0.6618959 0.5
vt 0.75 0.1762082
vt 0.8381041 0.5
vt 1 0.3237918
vt 0.25 0.1762082
vt 0.5 0.3237918
vt 0.5 0.6762082
vt 0.3381041 0.5
vt 0.1618959 0.5
vt 0.25 0.8237918
vt 0.75 0.8237918
vt 1 0.6762082

usemtl ground (Instance)
usemap ground (Instance)
f 1/1/1 2/2/2 3/3/3
f 2/2/2 4/4/4 3/3/3
f 2/2/2 5/5/5 4/4/4
f 6/6/6 5/5/5 2/2/2
f 1/1/1 6/6/6 2/2/2
f 1/1/1 7/7/7 6/6/6
f 7/7/7 8/8/8 6/6/6
f 6/6/6 8/8/8 5/5/5
f 8/8/8 9/9/9 5/5/5
f 8/8/8 10/10/10 9/9/9
f 8/8/8 7/7/7 10/10/10
f 7/7/7 11/11/11 10/10/10
f 11/11/11 12/12/12 10/10/10
f 11/11/11 3/3/3 12/12/12
f 11/11/11 1/1/1 3/3/3
f 7/7/7 1/1/1 11/11/11
f 12/12/12 3/3/3 4/4/4
f 9/9/9 12/12/12 4/4/4
f 5/5/5 9/9/9 4/4/4
f 12/12/12 9/9/9 10/10/10
