g object
v 50.13223 -1.714664E-05 81.11565
v 0 149.5251 60.67035
v -82.0089 -2.815086E-05 132.6932
v -93.50546 87.39101 0
v 0 148.4433 -60.94604
v 137.6971 128.8312 0
v 98.31808 -91.7114 0
v 68.77735 -2.358694E-05 -111.2841
v -93.3108 -3.201456E-05 -150.98
v 0 -167.254 -68.33643
v 0 -163.0952 66.67093
v -109.2322 -102.085 0

vn 0.7411954 -0.3259427 0.5868481
vn -0.2482476 0.8980499 0.3631521
vn -0.1939415 -0.2063291 0.9590699
vn -0.7943113 0.6065162 -0.03474968
vn -0.506763 0.7405651 -0.4413101
vn 0.9949971 0.05051041 -0.08619368
vn 0.8617654 -0.4710295 0.1883918
vn 0.6235956 -0.3375378 -0.7051219
vn -0.5051611 -0.1249823 -0.8539272
vn -0.04932483 -0.6749748 -0.7361902
vn 0.2339077 -0.5881612 0.7741793
vn -0.8590396 -0.4849338 -0.1639818

vt 0.6618959 0.5
vt 0.75 0.1762082
vt 0.8381041 0.5
vt 1 0.3237918
vt 0.25 0.1762082
vt 0.5 0.3237918
vt 0.5 0.6762082
vt 0.3381041 0.5
vt 0.1618959 0.5
vt 0.25 0.8237918
vt 0.75 0.8237918
vt 1 0.6762082

usemtl ground (Instance)
usemap ground (Instance)
f 1/1/1 2/2/2 3/3/3
f 2/2/2 4/4/4 3/3/3
f 2/2/2 5/5/5 4/4/4
f 6/6/6 5/5/5 2/2/2
f 1/1/1 6/6/6 2/2/2
f 1/1/1 7/7/7 6/6/6
f 7/7/7 8/8/8 6/6/6
f 6/6/6 8/8/8 5/5/5
f 8/8/8 9/9/9 5/5/5
f 8/8/8 10/10/10 9/9/9
f 8/8/8 7/7/7 10/10/10
f 7/7/7 11/11/11 10/10/10
f 11/11/11 12/12/12 10/10/10
f 11/11/11 3/3/3 12/12/12
f 11/11/11 1/1/1 3/3/3
f 7/7/7 1/1/1 11/11/11
f 12/12/12 3/3/3 4/4/4
f 9/9/9 12/12/12 4/4/4
f 5/5/5 9/9/9 4/4/4
f 12/12/12 9/9/9 10/10/10
