g object
v 83.73602 -2.933937E-05 135.4877
v 0 228.9066 91.59382
v -77.39987 -2.713106E-05 125.2356
v -154.4316 147.2219 0
v 0 153.8816 -61.82938
v 139.2685 133.0594 0
v 109.4686 -104.4925 0
v 75.58243 -2.64417E-05 -122.2949
v -62.17406 -2.189318E-05 -100.5997
v 0 -177.0074 -70.98132
v 0 -161.842 65.08269
v -121.4555 -115.5534 0

vn 0.4857742 -0.3257094 0.8111331
vn 0.03818274 0.3204623 0.9464915
vn -0.3513621 -0.3697104 0.8601505
vn -0.9268517 0.3346621 -0.170139
vn -0.1369849 0.3479072 -0.9274674
vn 0.7245448 0.4982947 -0.4761694
vn 0.7949074 -0.5965999 0.1104113
vn 0.5828943 -0.1697503 -0.7946188
vn -0.3377515 0.2783231 -0.8991441
vn 0.05673774 -0.9977737 -0.0350493
vn -0.5726159 -0.650027 0.4995756
vn -0.826435 -0.5620127 0.03386504

vt 0.6618959 0.5
vt 0.75 0.1762082
vt 0.8381041 0.5
vt 1 0.3237918
vt 0.25 0.1762082
vt 0.5 0.3237918
vt 0.5 0.6762082
vt 0.3381041 0.5
vt 0.1618959 0.5
vt 0.25 0.8237918
vt 0.75 0.8237918
vt 1 0.6762082

usemtl ground (Instance)
usemap ground (Instance)
f 1/1/1 2/2/2 3/3/3
f 2/2/2 4/4/4 3/3/3
f 2/2/2 5/5/5 4/4/4
f 6/6/6 5/5/5 2/2/2
f 1/1/1 6/6/6 2/2/2
f 1/1/1 7/7/7 6/6/6
f 7/7/7 8/8/8 6/6/6
f 6/6/6 8/8/8 5/5/5
f 8/8/8 9/9/9 5/5/5
f 8/8/8 10/10/10 9/9/9
f 8/8/8 7/7/7 10/10/10
f 7/7/7 11/11/11 10/10/10
f 11/11/11 12/12/12 10/10/10
f 11/11/11 3/3/3 12/12/12
f 11/11/11 1/1/1 3/3/3
f 7/7/7 1/1/1 11/11/11
f 12/12/12 3/3/3 4/4/4
f 9/9/9 12/12/12 4/4/4
f 5/5/5 9/9/9 4/4/4
f 12/12/12 9/9/9 10/10/10
