g object
v 63.65181 -2.269096E-05 102.9908
v 0 164.8174 65.12029
v -77.13517 -2.740065E-05 124.8073
v -99.14404 96.14242 0
v 0 151.4468 -60.04815
v 105.5801 102.2249 0
v 151.8185 -146.838 0
v 83.95308 -2.991059E-05 -135.8389
v -69.93793 -2.479189E-05 -113.1619
v 0 -234.0105 -92.64352
v 0 -166.5614 65.79881
v -108.7229 -104.7582 0

vn 0.5228009 0.1140544 0.8447904
vn -0.3916565 0.554726 0.7340873
vn -0.2070022 0.08364135 0.9747586
vn -0.8987961 0.3458315 -0.2693812
vn 0.07228559 0.7416177 -0.6669167
vn 0.7276566 0.6388832 -0.2496879
vn 0.9078299 -0.4035189 0.1140941
vn 0.1005672 0.1479135 -0.9838738
vn -0.6616691 0.3046248 -0.6851261
vn -0.315558 -0.8782579 -0.3592858
vn -0.4471814 -0.7157028 0.5364683
vn -0.6532627 -0.7243373 0.2204164

vt 0.6618959 0.5
vt 0.75 0.1762082
vt 0.8381041 0.5
vt 1 0.3237918
vt 0.25 0.1762082
vt 0.5 0.3237918
vt 0.5 0.6762082
vt 0.3381041 0.5
vt 0.1618959 0.5
vt 0.25 0.8237918
vt 0.75 0.8237918
vt 1 0.6762082

usemtl ground (Instance)
usemap ground (Instance)
f 1/1/1 2/2/2 3/3/3
f 2/2/2 4/4/4 3/3/3
f 2/2/2 5/5/5 4/4/4
f 6/6/6 5/5/5 2/2/2
f 1/1/1 6/6/6 2/2/2
f 1/1/1 7/7/7 6/6/6
f 7/7/7 8/8/8 6/6/6
f 6/6/6 8/8/8 5/5/5
f 8/8/8 9/9/9 5/5/5
f 8/8/8 10/10/10 9/9/9
f 8/8/8 7/7/7 10/10/10
f 7/7/7 11/11/11 10/10/10
f 11/11/11 12/12/12 10/10/10
f 11/11/11 3/3/3 12/12/12
f 11/11/11 1/1/1 3/3/3
f 7/7/7 1/1/1 11/11/11
f 12/12/12 3/3/3 4/4/4
f 9/9/9 12/12/12 4/4/4
f 5/5/5 9/9/9 4/4/4
f 12/12/12 9/9/9 10/10/10
