g object
v 0 -2.100038E-05 112.4488
v -32.89936 83.05129 86.13165
v -77.13517 -2.740065E-05 124.8073
v 39.62463 100.6953 103.7386
v 0 164.8174 65.12029
v 63.65181 -2.269096E-05 102.9908
v -104.4247 62.38847 64.53803
v -56.95505 143.6097 35.20015
v -99.14404 96.14242 0
v -56.95505 143.6097 35.20015
v -50.30985 128.3164 -31.09319
v -99.14404 96.14242 0
v 0 197.9134 0
v 0 151.4468 -60.04815
v 0 197.9134 0
v -56.95505 143.6097 35.20015
v 0 197.9134 0
v 63.93221 161.121 39.51228
v 0 197.9134 0
v 0 197.9134 0
v 49.45499 125.0037 -30.56487
v 105.5801 102.2249 0
v 0 197.9134 0
v 102.2903 60.8769 63.21885
v 168.0301 -3.134887E-05 0
v 128.7084 -77.0183 79.54617
v 151.8185 -146.838 0
v 107.8177 64.51741 -66.63501
v 130.319 -77.98205 -80.54155
v 83.95308 -2.991059E-05 -135.8389
v 36.51026 92.21051 -95.58511
v -35.13014 89.63499 -91.97192
v 0 -2.033103E-05 -109.0275
v -69.93793 -2.479189E-05 -113.1619
v -55.1032 -139.3785 -144.2621
v 54.4665 -137.95 -142.5952
v 0 -234.0105 -92.64352
v 88.71716 -224.8833 -54.83021
v 0 -159.1756 0
v 0 -159.1756 0
v 70.51915 -177.9367 43.58323
v 0 -166.5614 65.79881
v 0 -159.1756 0
v 0 -159.1756 0
v -52.0115 -132.1308 -32.14487
v -44.0543 -111.5802 27.22705
v -108.7229 -104.7582 0
v -44.0543 -111.5802 27.22705
v 0 -159.1756 0
v 0 -159.1756 0
v -127.9697 -76.57629 79.08965
v -108.7229 -104.7582 0
v -37.93782 -96.16612 99.3225
v 39.26775 -99.48316 102.8043
v -122.9342 -2.294406E-05 0
v -83.71761 49.87941 -51.74032
v -122.9342 -2.294406E-05 0
v -120.7515 -72.11 -74.62853

vn 0.0175258 -0.5416012 0.8404528
vn -0.4542664 0.5499138 0.7008829
vn -0.2070022 0.08364135 0.9747586
vn 0.3278271 0.3402326 0.8813463
vn -0.3916565 0.554726 0.7340873
vn 0.5228009 0.1140544 0.8447904
vn -0.5290487 0.6490219 0.5466973
vn -0.5952263 0.5449151 0.5905702
vn -0.8987961 0.3458315 -0.2693812
vn -0.5952263 0.5449151 0.5905702
vn -0.6719081 0.5319351 -0.5153489
vn -0.8987961 0.3458315 -0.2693812
vn 0.09947413 0.8702568 -0.4824499
vn 0.07228559 0.7416177 -0.6669167
vn 0.09947413 0.8702568 -0.4824499
vn -0.5952263 0.5449151 0.5905702
vn 0.09947413 0.8702568 -0.4824499
vn 0.786409 0.6102581 0.09563402
vn 0.09947413 0.8702568 -0.4824499
vn 0.09947413 0.8702568 -0.4824499
vn 0.5958818 0.6385876 -0.4869606
vn 0.7276566 0.6388832 -0.2496879
vn 0.09947413 0.8702568 -0.4824499
vn 0.6334344 0.1868297 0.7509032
vn 0.9780552 0.03522997 -0.2053457
vn 0.7078975 0.2130672 0.6734118
vn 0.9078299 -0.4035189 0.1140941
vn 0.4879691 0.7596554 -0.4298953
vn 0.8177589 -0.2798364 -0.5029535
vn 0.1005672 0.1479135 -0.9838738
vn 0.4779177 0.6709002 -0.5669987
vn -0.5536008 0.496715 -0.6684312
vn 0.04115002 -0.2283988 -0.9726976
vn -0.6616691 0.3046248 -0.6851261
vn -0.3107808 -0.254955 -0.9156491
vn 0.2077266 -0.05449291 -0.9766679
vn -0.315558 -0.8782579 -0.3592858
vn 0.5795681 -0.7865998 -0.2129824
vn -0.7451572 -0.6119659 0.2650256
vn -0.7451572 -0.6119659 0.2650256
vn 0.3382618 -0.676282 0.6543865
vn -0.4471814 -0.7157028 0.5364683
vn -0.7451572 -0.6119659 0.2650256
vn -0.7451572 -0.6119659 0.2650256
vn -0.3422486 -0.7809677 0.5224513
vn -0.2634167 -0.9622982 -0.06777779
vn -0.6532627 -0.7243373 0.2204164
vn -0.2634167 -0.9622982 -0.06777779
vn -0.7451572 -0.6119659 0.2650256
vn -0.7451572 -0.6119659 0.2650256
vn -0.633913 -0.6816491 0.3653886
vn -0.6532627 -0.7243373 0.2204164
vn -0.1217266 -0.3806307 0.9166804
vn -0.02889502 -0.05222367 0.9982173
vn -0.8919035 0.2668502 -0.3651015
vn -0.8693913 0.2552727 -0.4230775
vn -0.8919035 0.2668502 -0.3651015
vn -0.9219078 0.1665094 -0.3498007

vt 0.75 0.5
vt 0.8080699 0.3333333
vt 0.8381041 0.5
vt 0.6919301 0.3333333
vt 0.75 0.1762082
vt 0.6618959 0.5
vt 0.9118959 0.4
vt 0.9118959 0.2
vt 1 0.3237918
vt -0.08810407 0.2
vt 0.08810409 0.2
vt 0 0.3237918
vt 0.169052 0
vt 0.25 0.1762082
vt 0.830948 0
vt -0.08810407 0.2
vt 1.117587E-08 0
vt 0.5881041 0.2
vt 0.669052 0
vt 0.3309479 0
vt 0.4118959 0.2
vt 0.5 0.3237918
vt 0.5 0
vt 0.5881041 0.4
vt 0.5 0.5
vt 0.5881041 0.6
vt 0.5 0.6762082
vt 0.4118959 0.4
vt 0.4118959 0.6
vt 0.3381041 0.5
vt 0.3080699 0.3333333
vt 0.1919301 0.3333333
vt 0.25 0.5
vt 0.1618959 0.5
vt 0.1919301 0.6666667
vt 0.3080699 0.6666667
vt 0.25 0.8237918
vt 0.4118959 0.8
vt 0.3309479 1
vt 0.669052 1
vt 0.5881041 0.8
vt 0.75 0.8237918
vt 0.5 1
vt 0.169052 1
vt 0.08810409 0.8
vt -0.08810407 0.8
vt 0 0.6762082
vt 0.9118959 0.8
vt 0.830948 1
vt 1.117587E-08 1
vt 0.9118959 0.6
vt 1 0.6762082
vt 0.8080699 0.6666667
vt 0.6919301 0.6666667
vt 1 0.5
vt 0.08810409 0.4
vt 0 0.5
vt 0.08810409 0.6

usemtl ground (Instance)
usemap ground (Instance)
f 1/1/1 2/2/2 3/3/3
f 2/2/2 4/4/4 5/5/5
f 4/4/4 1/1/1 6/6/6
f 1/1/1 4/4/4 2/2/2
f 2/2/2 7/7/7 3/3/3
f 7/7/7 8/8/8 9/9/9
f 8/8/8 2/2/2 5/5/5
f 2/2/2 8/8/8 7/7/7
f 10/10/10 11/11/11 12/12/12
f 11/11/11 13/13/13 14/14/14
f 15/15/15 8/8/8 5/5/5
f 16/16/16 17/17/17 11/11/11
f 18/18/18 19/19/19 5/5/5
f 20/20/20 21/21/21 14/14/14
f 21/21/21 18/18/18 22/22/22
f 18/18/18 21/21/21 23/23/23
f 4/4/4 18/18/18 5/5/5
f 18/18/18 24/24/24 22/22/22
f 24/24/24 4/4/4 6/6/6
f 4/4/4 24/24/24 18/18/18
f 24/24/24 25/25/25 22/22/22
f 25/25/25 26/26/26 27/27/27
f 26/26/26 24/24/24 6/6/6
f 24/24/24 26/26/26 25/25/25
f 25/25/25 28/28/28 22/22/22
f 28/28/28 29/29/29 30/30/30
f 29/29/29 25/25/25 27/27/27
f 25/25/25 29/29/29 28/28/28
f 21/21/21 31/31/31 14/14/14
f 31/31/31 28/28/28 30/30/30
f 28/28/28 21/21/21 22/22/22
f 21/21/21 28/28/28 31/31/31
f 31/31/31 32/32/32 14/14/14
f 32/32/32 33/33/33 34/34/34
f 33/33/33 31/31/31 30/30/30
f 31/31/31 33/33/33 32/32/32
f 33/33/33 35/35/35 34/34/34
f 35/35/35 36/36/36 37/37/37
f 36/36/36 33/33/33 30/30/30
f 33/33/33 36/36/36 35/35/35
f 36/36/36 38/38/38 37/37/37
f 38/38/38 29/29/29 27/27/27
f 29/29/29 36/36/36 30/30/30
f 36/36/36 29/29/29 38/38/38
f 38/38/38 39/39/39 37/37/37
f 40/40/40 41/41/41 42/42/42
f 41/41/41 38/38/38 27/27/27
f 38/38/38 41/41/41 43/43/43
f 44/44/44 45/45/45 37/37/37
f 45/45/45 46/46/46 47/47/47
f 48/48/48 49/49/49 42/42/42
f 50/50/50 46/46/46 45/45/45
f 48/48/48 51/51/51 52/52/52
f 51/51/51 53/53/53 3/3/3
f 53/53/53 48/48/48 42/42/42
f 48/48/48 53/53/53 51/51/51
f 53/53/53 1/1/1 3/3/3
f 1/1/1 54/54/54 6/6/6
f 54/54/54 53/53/53 42/42/42
f 53/53/53 54/54/54 1/1/1
f 41/41/41 54/54/54 42/42/42
f 54/54/54 26/26/26 6/6/6
f 26/26/26 41/41/41 27/27/27
f 41/41/41 26/26/26 54/54/54
f 55/55/55 7/7/7 9/9/9
f 7/7/7 51/51/51 3/3/3
f 51/51/51 55/55/55 52/52/52
f 55/55/55 51/51/51 7/7/7
f 56/56/56 57/57/57 12/12/12
f 57/57/57 58/58/58 47/47/47
f 58/58/58 56/56/56 34/34/34
f 56/56/56 58/58/58 57/57/57
f 11/11/11 56/56/56 12/12/12
f 56/56/56 32/32/32 34/34/34
f 32/32/32 11/11/11 14/14/14
f 11/11/11 32/32/32 56/56/56
f 45/45/45 35/35/35 37/37/37
f 35/35/35 58/58/58 34/34/34
f 58/58/58 45/45/45 47/47/47
f 45/45/45 58/58/58 35/35/35
