g object
v 106.5068 -2.877122E-05 172.3317
v 0 211.7727 110.0741
v -106.4179 -2.873233E-05 172.1878
v -156.9657 115.3445 0
v 0 210.1256 -109.0368
v 163.6083 120.4002 0
v 125.7496 -92.50536 0
v 88.75574 -2.392005E-05 -143.6098
v -90.81873 -2.449269E-05 -146.9478
v 0 -191.2392 -99.3669
v 0 -165.4069 85.79854
v -137.6307 -101.2106 0

vn 0.5720342 0.1680725 0.8028253
vn 0.05918891 0.7816311 0.6209263
vn -0.6387963 -0.1329447 0.7578028
vn -0.9810522 0.1535797 0.1181093
vn 0.02374215 0.7862897 -0.6174018
vn 0.8103948 0.5299577 -0.2498105
vn 0.8943396 -0.4224551 -0.1472697
vn 0.8587064 -0.1151365 -0.4993665
vn -0.1476007 -0.1119381 -0.9826922
vn 0.1547362 -0.4872226 -0.8594596
vn -0.1812096 -0.5892314 0.7873814
vn -0.9878473 -0.03457695 0.1515322

vt 0.6618959 0.5
vt 0.75 0.1762082
vt 0.8381041 0.5
vt 1 0.3237918
vt 0.25 0.1762082
vt 0.5 0.3237918
vt 0.5 0.6762082
vt 0.3381041 0.5
vt 0.1618959 0.5
vt 0.25 0.8237918
vt 0.75 0.8237918
vt 1 0.6762082

usemtl ground (Instance)
usemap ground (Instance)
f 1/1/1 2/2/2 3/3/3
f 2/2/2 4/4/4 3/3/3
f 2/2/2 5/5/5 4/4/4
f 6/6/6 5/5/5 2/2/2
f 1/1/1 6/6/6 2/2/2
f 1/1/1 7/7/7 6/6/6
f 7/7/7 8/8/8 6/6/6
f 6/6/6 8/8/8 5/5/5
f 8/8/8 9/9/9 5/5/5
f 8/8/8 10/10/10 9/9/9
f 8/8/8 7/7/7 10/10/10
f 7/7/7 11/11/11 10/10/10
f 11/11/11 12/12/12 10/10/10
f 11/11/11 3/3/3 12/12/12
f 11/11/11 1/1/1 3/3/3
f 7/7/7 1/1/1 11/11/11
f 12/12/12 3/3/3 4/4/4
f 9/9/9 12/12/12 4/4/4
f 5/5/5 9/9/9 4/4/4
f 12/12/12 9/9/9 10/10/10
