g object
v 0 -2.897577E-05 204.1339
v -61.33807 118.102 160.5852
v -106.4179 -2.873233E-05 172.1878
v 53.22182 102.345 139.3365
v 0 211.7727 110.0741
v 106.5068 -2.877122E-05 172.3317
v -126.2386 57.35553 78.01977
v -102.8515 197.9624 63.56573
v -156.9657 115.3445 0
v -102.8515 197.9624 63.56573
v -97.92079 188.4169 -60.51837
v -156.9657 115.3445 0
v 0 240.767 0
v 0 210.1256 -109.0368
v 0 240.767 0
v -102.8515 197.9624 63.56573
v 0 240.767 0
v 94.23544 181.341 58.2407
v 0 240.767 0
v 0 240.767 0
v 91.10273 175.4339 -56.30458
v 163.6083 120.4002 0
v 0 240.767 0
v 140.1841 63.7031 86.63855
v 171.1564 -2.433796E-05 0
v 159.2205 -72.41585 98.40366
v 125.7496 -92.50536 0
v 133.6953 60.80657 -82.62821
v 113.3916 -51.57217 -70.07983
v 88.75574 -2.392005E-05 -143.6098
v 56.15572 108.3328 -147.0176
v -64.79631 124.6502 -169.639
v 0 -2.652656E-05 -187.0141
v -90.81873 -2.449269E-05 -146.9478
v -59.96849 -115.495 -156.9996
v 57.38519 -110.6293 -150.2364
v 0 -191.2392 -99.3669
v 95.79682 -184.5647 -59.20569
v 0 -249.1607 0
v 0 -249.1607 0
v 100.9236 -194.3497 62.37421
v 0 -165.4069 85.79854
v 0 -249.1607 0
v 0 -249.1607 0
v -98.81077 -190.2796 -61.06841
v -81.84496 -157.4311 50.58296
v -137.6307 -101.2106 0
v -81.84496 -157.4311 50.58296
v 0 -249.1607 0
v 0 -249.1607 0
v -120.6507 -54.87372 74.56621
v -137.6307 -101.2106 0
v -45.50532 -87.67175 119.1345
v 60.5995 -116.6405 158.6516
v -126.7374 -1.801826E-05 0
v -152.6997 69.36865 -94.37361
v -126.7374 -1.801826E-05 0
v -140.4481 -63.82051 -86.80167

vn 0.146277 -0.218833 0.9647358
vn -0.5677047 0.396993 0.7211851
vn -0.6387963 -0.1329447 0.7578028
vn 0.5152923 0.3372362 0.7878741
vn 0.05918891 0.7816311 0.6209263
vn 0.5720342 0.1680725 0.8028253
vn -0.9593664 0.05265581 0.2772063
vn -0.8017967 0.5713977 0.1750051
vn -0.9810522 0.1535797 0.1181093
vn -0.8017967 0.5713977 0.1750051
vn -0.7613072 0.6275623 0.1630244
vn -0.9810522 0.1535797 0.1181093
vn 0.2676635 0.9630858 0.02867164
vn 0.02374215 0.7862897 -0.6174018
vn 0.2676635 0.9630858 0.02867164
vn -0.8017967 0.5713977 0.1750051
vn 0.2676635 0.9630858 0.02867164
vn 0.5595092 0.795884 0.2313399
vn 0.2676635 0.9630858 0.02867164
vn 0.2676635 0.9630858 0.02867164
vn 0.7761324 0.3773498 -0.5051986
vn 0.8103948 0.5299577 -0.2498105
vn 0.2676635 0.9630858 0.02867164
vn 0.5802488 0.4362063 0.6877758
vn 0.8815178 -0.2367078 -0.408529
vn 0.9874675 0.01870121 0.1567105
vn 0.8943396 -0.4224551 -0.1472697
vn 0.8306186 -0.0001190329 -0.5568418
vn 0.8952925 -0.04711963 -0.4429798
vn 0.8587064 -0.1151365 -0.4993665
vn 0.6360696 0.5282021 -0.5625105
vn -0.3386815 0.4276478 -0.8381004
vn -0.217859 -0.259387 -0.9408804
vn -0.1476007 -0.1119381 -0.9826922
vn -0.2346986 -0.2110949 -0.9488707
vn 0.3246911 -0.68145 -0.6558976
vn 0.1547362 -0.4872226 -0.8594596
vn 0.8734217 -0.4406713 -0.2072279
vn -0.1012179 -0.9935791 0.05055092
vn -0.1012179 -0.9935791 0.05055092
vn 0.69784 -0.6784077 0.2297441
vn -0.1812096 -0.5892314 0.7873814
vn -0.1012179 -0.9935791 0.05055092
vn -0.1012179 -0.9935791 0.05055092
vn -0.4525917 -0.881807 0.1325793
vn -0.3603666 -0.8242924 0.4366669
vn -0.9878473 -0.03457695 0.1515322
vn -0.3603666 -0.8242924 0.4366669
vn -0.1012179 -0.9935791 0.05055092
vn -0.1012179 -0.9935791 0.05055092
vn -0.9567487 -0.158473 0.2439638
vn -0.9878473 -0.03457695 0.1515322
vn -0.4079457 -0.6268945 0.6637648
vn -0.05822433 -0.6347612 0.7705116
vn -0.9875163 -0.07404877 0.1390261
vn -0.9891284 -0.02603699 -0.1447319
vn -0.9875163 -0.07404877 0.1390261
vn -0.9918157 -0.007453578 -0.1274605

vt 0.75 0.5
vt 0.8080699 0.3333333
vt 0.8381041 0.5
vt 0.6919301 0.3333333
vt 0.75 0.1762082
vt 0.6618959 0.5
vt 0.9118959 0.4
vt 0.9118959 0.2
vt 1 0.3237918
vt -0.08810407 0.2
vt 0.08810409 0.2
vt 0 0.3237918
vt 0.169052 0
vt 0.25 0.1762082
vt 0.830948 0
vt -0.08810407 0.2
vt 1.117587E-08 0
vt 0.5881041 0.2
vt 0.669052 0
vt 0.3309479 0
vt 0.4118959 0.2
vt 0.5 0.3237918
vt 0.5 0
vt 0.5881041 0.4
vt 0.5 0.5
vt 0.5881041 0.6
vt 0.5 0.6762082
vt 0.4118959 0.4
vt 0.4118959 0.6
vt 0.3381041 0.5
vt 0.3080699 0.3333333
vt 0.1919301 0.3333333
vt 0.25 0.5
vt 0.1618959 0.5
vt 0.1919301 0.6666667
vt 0.3080699 0.6666667
vt 0.25 0.8237918
vt 0.4118959 0.8
vt 0.3309479 1
vt 0.669052 1
vt 0.5881041 0.8
vt 0.75 0.8237918
vt 0.5 1
vt 0.169052 1
vt 0.08810409 0.8
vt -0.08810407 0.8
vt 0 0.6762082
vt 0.9118959 0.8
vt 0.830948 1
vt 1.117587E-08 1
vt 0.9118959 0.6
vt 1 0.6762082
vt 0.8080699 0.6666667
vt 0.6919301 0.6666667
vt 1 0.5
vt 0.08810409 0.4
vt 0 0.5
vt 0.08810409 0.6

usemtl ground (Instance)
usemap ground (Instance)
f 1/1/1 2/2/2 3/3/3
f 2/2/2 4/4/4 5/5/5
f 4/4/4 1/1/1 6/6/6
f 1/1/1 4/4/4 2/2/2
f 2/2/2 7/7/7 3/3/3
f 7/7/7 8/8/8 9/9/9
f 8/8/8 2/2/2 5/5/5
f 2/2/2 8/8/8 7/7/7
f 10/10/10 11/11/11 12/12/12
f 11/11/11 13/13/13 14/14/14
f 15/15/15 8/8/8 5/5/5
f 16/16/16 17/17/17 11/11/11
f 18/18/18 19/19/19 5/5/5
f 20/20/20 21/21/21 14/14/14
f 21/21/21 18/18/18 22/22/22
f 18/18/18 21/21/21 23/23/23
f 4/4/4 18/18/18 5/5/5
f 18/18/18 24/24/24 22/22/22
f 24/24/24 4/4/4 6/6/6
f 4/4/4 24/24/24 18/18/18
f 24/24/24 25/25/25 22/22/22
f 25/25/25 26/26/26 27/27/27
f 26/26/26 24/24/24 6/6/6
f 24/24/24 26/26/26 25/25/25
f 25/25/25 28/28/28 22/22/22
f 28/28/28 29/29/29 30/30/30
f 29/29/29 25/25/25 27/27/27
f 25/25/25 29/29/29 28/28/28
f 21/21/21 31/31/31 14/14/14
f 31/31/31 28/28/28 30/30/30
f 28/28/28 21/21/21 22/22/22
f 21/21/21 28/28/28 31/31/31
f 31/31/31 32/32/32 14/14/14
f 32/32/32 33/33/33 34/34/34
f 33/33/33 31/31/31 30/30/30
f 31/31/31 33/33/33 32/32/32
f 33/33/33 35/35/35 34/34/34
f 35/35/35 36/36/36 37/37/37
f 36/36/36 33/33/33 30/30/30
f 33/33/33 36/36/36 35/35/35
f 36/36/36 38/38/38 37/37/37
f 38/38/38 29/29/29 27/27/27
f 29/29/29 36/36/36 30/30/30
f 36/36/36 29/29/29 38/38/38
f 38/38/38 39/39/39 37/37/37
f 40/40/40 41/41/41 42/42/42
f 41/41/41 38/38/38 27/27/27
f 38/38/38 41/41/41 43/43/43
f 44/44/44 45/45/45 37/37/37
f 45/45/45 46/46/46 47/47/47
f 48/48/48 49/49/49 42/42/42
f 50/50/50 46/46/46 45/45/45
f 48/48/48 51/51/51 52/52/52
f 51/51/51 53/53/53 3/3/3
f 53/53/53 48/48/48 42/42/42
f 48/48/48 53/53/53 51/51/51
f 53/53/53 1/1/1 3/3/3
f 1/1/1 54/54/54 6/6/6
f 54/54/54 53/53/53 42/42/42
f 53/53/53 54/54/54 1/1/1
f 41/41/41 54/54/54 42/42/42
f 54/54/54 26/26/26 6/6/6
f 26/26/26 41/41/41 27/27/27
f 41/41/41 26/26/26 54/54/54
f 55/55/55 7/7/7 9/9/9
f 7/7/7 51/51/51 3/3/3
f 51/51/51 55/55/55 52/52/52
f 55/55/55 51/51/51 7/7/7
f 56/56/56 57/57/57 12/12/12
f 57/57/57 58/58/58 47/47/47
f 58/58/58 56/56/56 34/34/34
f 56/56/56 58/58/58 57/57/57
f 11/11/11 56/56/56 12/12/12
f 56/56/56 32/32/32 34/34/34
f 32/32/32 11/11/11 14/14/14
f 11/11/11 32/32/32 56/56/56
f 45/45/45 35/35/35 37/37/37
f 35/35/35 58/58/58 34/34/34
f 58/58/58 45/45/45 47/47/47
f 45/45/45 58/58/58 35/35/35
