g object
v 0 -3.124097E-05 196.0109
v -64.24331 138.6441 168.1912
v -76.16304 -2.309005E-05 123.2344
v 50.1688 108.1797 131.3437
v 0 185.1696 85.47797
v 99.83104 -3.025759E-05 161.53
v -147.7922 75.4924 91.34058
v -76.18362 164.6753 47.08406
v -166.2605 137.2382 0
v -76.18362 164.6753 47.08406
v -83.65007 180.8869 -51.69859
v -166.2605 137.2382 0
v 0 198.8652 0
v 0 232.7889 -107.69
v 0 198.8652 0
v -76.18362 164.6753 47.08406
v 0 198.8652 0
v 60.72699 131.2873 37.53135
v 0 198.8652 0
v 0 198.8652 0
v 76.19159 164.489 -47.08899
v 90.80907 75.03705 0
v 0 198.8652 0
v 109.9269 56.06375 67.93858
v 201.5753 -3.209684E-05 0
v 154.0155 -78.6545 95.18681
v 176.446 -146.0555 0
v 145.8311 74.47475 -90.12856
v 121.5606 -62.08004 -75.12858
v 67.29392 -2.040921E-05 -108.8839
v 52.89542 114.2745 -138.482
v -64.95966 140.243 -170.0666
v 0 -2.247024E-05 -141.3482
v -96.63437 -2.935746E-05 -156.3577
v -52.69497 -113.833 -137.9572
v 32.60696 -70.18954 -85.36616
v 0 -164.7652 -76.28729
v 89.3539 -193.3016 -55.22375
v 0 -205.2603 0
v 0 -205.2603 0
v 94.6747 -204.5623 58.51218
v 0 -149.2828 69.28397
v 0 -205.2603 0
v 0 -205.2603 0
v -85.50627 -184.5442 -52.84577
v -70.07178 -151.5059 43.30674
v -125.5772 -103.5939 0
v -70.07178 -151.5059 43.30674
v 0 -205.2603 0
v 0 -205.2603 0
v -100.0998 -51.12016 61.86505
v -125.5772 -103.5939 0
v -46.10915 -99.74912 120.7153
v 61.14022 -132.0848 160.0672
v -159.0496 -2.543253E-05 0
v -138.952 70.7633 -85.87708
v -159.0496 -2.543253E-05 0
v -136.477 -69.58801 -84.34745

vn 0.05245001 0.1542172 0.9866439
vn -0.2888214 0.4551795 0.8422552
vn -0.7299875 -0.3213003 0.6032283
vn 0.6734493 0.3936968 0.6256747
vn 0.0497535 0.9863417 0.1570176
vn 0.4324653 0.3204742 0.8427752
vn -0.8104972 -0.1682028 0.5610723
vn -0.243874 0.9685047 0.05023978
vn -0.718471 0.695181 0.02286429
vn -0.243874 0.9685047 0.05023978
vn -0.5037519 0.8330103 0.2287528
vn -0.718471 0.695181 0.02286429
vn -0.147029 0.9421182 0.3013236
vn 0.113917 0.8675892 -0.4840578
vn -0.147029 0.9421182 0.3013236
vn -0.243874 0.9685047 0.05023978
vn -0.147029 0.9421182 0.3013236
vn 0.9280208 0.3235124 0.1847079
vn -0.147029 0.9421182 0.3013236
vn -0.147029 0.9421182 0.3013236
vn 0.8306659 0.4910758 0.2623712
vn 0.7512032 0.6018122 0.2711381
vn -0.147029 0.9421182 0.3013236
vn 0.5840437 0.809864 0.05489363
vn 0.9441614 0.3226705 0.06665716
vn 0.8318167 -0.08266229 0.5488605
vn 0.8920816 -0.4451489 -0.07767178
vn 0.8201669 0.4083337 -0.4007368
vn 0.3163063 -0.206954 -0.925808
vn 0.3600528 -0.3468988 -0.8660388
vn 0.4630845 0.2809801 -0.8405968
vn -0.2954054 0.3739737 -0.8791355
vn 0.3751725 -0.3604849 -0.8539884
vn -0.6268501 -0.1677228 -0.7608731
vn 0.3100299 -0.2737987 -0.9104481
vn 0.2041099 -0.2243973 -0.9528825
vn 0.0090213 -0.7767588 -0.6297335
vn 0.2221313 -0.5133926 -0.8289063
vn -0.2634295 -0.9290738 0.2596669
vn -0.2634295 -0.9290738 0.2596669
vn 0.01919292 -0.8603882 0.5092778
vn -0.3098057 -0.784733 0.5368562
vn -0.2634295 -0.9290738 0.2596669
vn -0.2634295 -0.9290738 0.2596669
vn -0.4430772 -0.8960084 -0.02918117
vn -0.493088 -0.6847433 0.5366476
vn -0.8094212 -0.4977565 0.3115695
vn -0.493088 -0.6847433 0.5366476
vn -0.2634295 -0.9290738 0.2596669
vn -0.2634295 -0.9290738 0.2596669
vn -0.7754442 -0.2111832 0.5950529
vn -0.8094212 -0.4977565 0.3115695
vn -0.6807734 -0.4274067 0.5948706
vn 0.03703595 -0.7315317 0.6808008
vn -0.9312312 -0.2925297 0.2173358
vn -0.7034448 -0.1104286 -0.7021188
vn -0.9312312 -0.2925297 0.2173358
vn -0.9116644 0.008343204 -0.4108507

vt 0.75 0.5
vt 0.8080699 0.3333333
vt 0.8381041 0.5
vt 0.6919301 0.3333333
vt 0.75 0.1762082
vt 0.6618959 0.5
vt 0.9118959 0.4
vt 0.9118959 0.2
vt 1 0.3237918
vt -0.08810407 0.2
vt 0.08810409 0.2
vt 0 0.3237918
vt 0.169052 0
vt 0.25 0.1762082
vt 0.830948 0
vt -0.08810407 0.2
vt 1.117587E-08 0
vt 0.5881041 0.2
vt 0.669052 0
vt 0.3309479 0
vt 0.4118959 0.2
vt 0.5 0.3237918
vt 0.5 0
vt 0.5881041 0.4
vt 0.5 0.5
vt 0.5881041 0.6
vt 0.5 0.6762082
vt 0.4118959 0.4
vt 0.4118959 0.6
vt 0.3381041 0.5
vt 0.3080699 0.3333333
vt 0.1919301 0.3333333
vt 0.25 0.5
vt 0.1618959 0.5
vt 0.1919301 0.6666667
vt 0.3080699 0.6666667
vt 0.25 0.8237918
vt 0.4118959 0.8
vt 0.3309479 1
vt 0.669052 1
vt 0.5881041 0.8
vt 0.75 0.8237918
vt 0.5 1
vt 0.169052 1
vt 0.08810409 0.8
vt -0.08810407 0.8
vt 0 0.6762082
vt 0.9118959 0.8
vt 0.830948 1
vt 1.117587E-08 1
vt 0.9118959 0.6
vt 1 0.6762082
vt 0.8080699 0.6666667
vt 0.6919301 0.6666667
vt 1 0.5
vt 0.08810409 0.4
vt 0 0.5
vt 0.08810409 0.6

usemtl ground (Instance)
usemap ground (Instance)
f 1/1/1 2/2/2 3/3/3
f 2/2/2 4/4/4 5/5/5
f 4/4/4 1/1/1 6/6/6
f 1/1/1 4/4/4 2/2/2
f 2/2/2 7/7/7 3/3/3
f 7/7/7 8/8/8 9/9/9
f 8/8/8 2/2/2 5/5/5
f 2/2/2 8/8/8 7/7/7
f 10/10/10 11/11/11 12/12/12
f 11/11/11 13/13/13 14/14/14
f 15/15/15 8/8/8 5/5/5
f 16/16/16 17/17/17 11/11/11
f 18/18/18 19/19/19 5/5/5
f 20/20/20 21/21/21 14/14/14
f 21/21/21 18/18/18 22/22/22
f 18/18/18 21/21/21 23/23/23
f 4/4/4 18/18/18 5/5/5
f 18/18/18 24/24/24 22/22/22
f 24/24/24 4/4/4 6/6/6
f 4/4/4 24/24/24 18/18/18
f 24/24/24 25/25/25 22/22/22
f 25/25/25 26/26/26 27/27/27
f 26/26/26 24/24/24 6/6/6
f 24/24/24 26/26/26 25/25/25
f 25/25/25 28/28/28 22/22/22
f 28/28/28 29/29/29 30/30/30
f 29/29/29 25/25/25 27/27/27
f 25/25/25 29/29/29 28/28/28
f 21/21/21 31/31/31 14/14/14
f 31/31/31 28/28/28 30/30/30
f 28/28/28 21/21/21 22/22/22
f 21/21/21 28/28/28 31/31/31
f 31/31/31 32/32/32 14/14/14
f 32/32/32 33/33/33 34/34/34
f 33/33/33 31/31/31 30/30/30
f 31/31/31 33/33/33 32/32/32
f 33/33/33 35/35/35 34/34/34
f 35/35/35 36/36/36 37/37/37
f 36/36/36 33/33/33 30/30/30
f 33/33/33 36/36/36 35/35/35
f 36/36/36 38/38/38 37/37/37
f 38/38/38 29/29/29 27/27/27
f 29/29/29 36/36/36 30/30/30
f 36/36/36 29/29/29 38/38/38
f 38/38/38 39/39/39 37/37/37
f 40/40/40 41/41/41 42/42/42
f 41/41/41 38/38/38 27/27/27
f 38/38/38 41/41/41 43/43/43
f 44/44/44 45/45/45 37/37/37
f 45/45/45 46/46/46 47/47/47
f 48/48/48 49/49/49 42/42/42
f 50/50/50 46/46/46 45/45/45
f 48/48/48 51/51/51 52/52/52
f 51/51/51 53/53/53 3/3/3
f 53/53/53 48/48/48 42/42/42
f 48/48/48 53/53/53 51/51/51
f 53/53/53 1/1/1 3/3/3
f 1/1/1 54/54/54 6/6/6
f 54/54/54 53/53/53 42/42/42
f 53/53/53 54/54/54 1/1/1
f 41/41/41 54/54/54 42/42/42
f 54/54/54 26/26/26 6/6/6
f 26/26/26 41/41/41 27/27/27
f 41/41/41 26/26/26 54/54/54
f 55/55/55 7/7/7 9/9/9
f 7/7/7 51/51/51 3/3/3
f 51/51/51 55/55/55 52/52/52
f 55/55/55 51/51/51 7/7/7
f 56/56/56 57/57/57 12/12/12
f 57/57/57 58/58/58 47/47/47
f 58/58/58 56/56/56 34/34/34
f 56/56/56 58/58/58 57/57/57
f 11/11/11 56/56/56 12/12/12
f 56/56/56 32/32/32 34/34/34
f 32/32/32 11/11/11 14/14/14
f 11/11/11 32/32/32 56/56/56
f 45/45/45 35/35/35 37/37/37
f 35/35/35 58/58/58 34/34/34
f 58/58/58 45/45/45 47/47/47
f 45/45/45 58/58/58 35/35/35
