g object
v 74.32658 -2.266344E-05 120.2629
v 0 142.696 65.28802
v -98.44666 -3.010464E-05 159.29
v -116.9874 97.71854 0
v 0 236.7245 -108.3166
v 166.4281 138.7155 0
v 112.602 -94.20196 0
v 73.33719 -2.241804E-05 -118.6621
v -92.12658 -2.818968E-05 -149.0639
v 0 -197.1175 -90.49823
v 0 -147.8483 67.96004
v -179.0804 -149.1716 0

vn 0.5644021 -0.2754763 0.7781793
vn 0.4059716 0.4554949 0.7922824
vn -0.4971273 -0.3619201 0.7885926
vn -0.7982692 0.5180385 -0.3072497
vn -0.1067653 0.6994914 -0.7066208
vn 0.9488715 0.2328657 -0.2131114
vn 0.7972833 -0.5903738 -0.1256906
vn 0.8128582 0.02397757 -0.5819679
vn -0.6827734 0.4230315 -0.5957053
vn 0.3840869 -0.5605392 -0.7336709
vn -0.4226469 -0.6987486 0.5771654
vn -0.8984247 -0.4181609 0.1340688

vt 0.6618959 0.5
vt 0.75 0.1762082
vt 0.8381041 0.5
vt 1 0.3237918
vt 0.25 0.1762082
vt 0.5 0.3237918
vt 0.5 0.6762082
vt 0.3381041 0.5
vt 0.1618959 0.5
vt 0.25 0.8237918
vt 0.75 0.8237918
vt 1 0.6762082

usemtl ground (Instance)
usemap ground (Instance)
f 1/1/1 2/2/2 3/3/3
f 2/2/2 4/4/4 3/3/3
f 2/2/2 5/5/5 4/4/4
f 6/6/6 5/5/5 2/2/2
f 1/1/1 6/6/6 2/2/2
f 1/1/1 7/7/7 6/6/6
f 7/7/7 8/8/8 6/6/6
f 6/6/6 8/8/8 5/5/5
f 8/8/8 9/9/9 5/5/5
f 8/8/8 10/10/10 9/9/9
f 8/8/8 7/7/7 10/10/10
f 7/7/7 11/11/11 10/10/10
f 11/11/11 12/12/12 10/10/10
f 11/11/11 3/3/3 12/12/12
f 11/11/11 1/1/1 3/3/3
f 7/7/7 1/1/1 11/11/11
f 12/12/12 3/3/3 4/4/4
f 9/9/9 12/12/12 4/4/4
f 5/5/5 9/9/9 4/4/4
f 12/12/12 9/9/9 10/10/10
